<svg width="353" height="264" viewBox="0 0 353 264" fill="none" xmlns="http://www.w3.org/2000/svg">
<path d="M326.279 19.5078H20.8709C15.2333 19.5078 10.6631 24.5776 10.6631 30.8316V247.205C10.6631 253.459 15.2333 258.528 20.8709 258.528H326.279C331.916 258.528 336.487 253.459 336.487 247.205V30.8316C336.487 24.5776 331.916 19.5078 326.279 19.5078Z" fill="#455A64"/>
<path d="M0 243.085H353V250.166C353 253.835 351.686 257.354 349.347 259.948C347.009 262.542 343.837 264 340.529 264H12.4708C9.16332 264 5.99133 262.542 3.65261 259.948C1.31388 257.354 0 253.835 0 250.166L0 243.085Z" fill="#455A64"/>
<path d="M141.459 240.847L145.838 248.573H207.477L211.541 240.847H141.459Z" fill="#263238"/>
<path d="M333.684 240.847C333.684 240.972 261.368 241.08 172.188 241.08C83.0076 241.08 10.6631 240.972 10.6631 240.847C10.6631 240.723 82.9656 240.614 172.188 240.614C261.41 240.614 333.684 240.715 333.684 240.847Z" fill="#263238"/>
<path d="M323.588 33.2487H22.2861C21.0208 33.2487 19.9951 34.3866 19.9951 35.7902V231.987C19.9951 233.391 21.0208 234.529 22.2861 234.529H323.588C324.854 234.529 325.879 233.391 325.879 231.987V35.7902C325.879 34.3866 324.854 33.2487 323.588 33.2487Z" fill="#EBEBEB"/>
<path d="M325.557 234.816H19.666L19.9953 48.2876H325.557V234.816Z" fill="white"/>
<path d="M45.0841 41.0207C45.0855 41.5575 44.9432 42.0827 44.6754 42.5298C44.4076 42.9769 44.0262 43.3257 43.5795 43.5322C43.1329 43.7387 42.641 43.7935 42.1662 43.6898C41.6915 43.586 41.2551 43.3283 40.9125 42.9492C40.5698 42.5702 40.3363 42.0869 40.2413 41.5605C40.1464 41.0342 40.1944 40.4884 40.3793 39.9923C40.5642 39.4962 40.8775 39.0721 41.2798 38.7737C41.682 38.4754 42.1551 38.3161 42.639 38.3161C43.2862 38.3161 43.9071 38.6008 44.3654 39.1078C44.8238 39.6148 45.0822 40.3027 45.0841 41.0207Z" fill="#263238"/>
<path d="M30.2799 41.0207C30.2813 41.5575 30.139 42.0827 29.8712 42.5298C29.6034 42.9769 29.222 43.3257 28.7753 43.5322C28.3287 43.7387 27.8368 43.7935 27.362 43.6898C26.8873 43.586 26.4509 43.3283 26.1083 42.9492C25.7656 42.5702 25.5321 42.0869 25.4371 41.5605C25.3422 41.0342 25.3902 40.4884 25.5751 39.9923C25.76 39.4962 26.0733 39.0721 26.4756 38.7737C26.8778 38.4754 27.3509 38.3161 27.8348 38.3161C28.482 38.3161 29.1029 38.6008 29.5612 39.1078C30.0196 39.6148 30.278 40.3027 30.2799 41.0207Z" fill="#263238"/>
<path d="M37.3844 41.0207C37.3857 41.5575 37.2435 42.0827 36.9757 42.5298C36.7079 42.9769 36.3265 43.3257 35.8798 43.5322C35.4332 43.7387 34.9413 43.7935 34.4665 43.6898C33.9918 43.586 33.5554 43.3283 33.2128 42.9492C32.8701 42.5702 32.6366 42.0869 32.5416 41.5605C32.4467 41.0342 32.4947 40.4884 32.6796 39.9923C32.8645 39.4962 33.1778 39.0721 33.5801 38.7737C33.9823 38.4754 34.4554 38.3161 34.9392 38.3161C35.5865 38.3161 36.2074 38.6008 36.6657 39.1078C37.1241 39.6148 37.3825 40.3027 37.3844 41.0207Z" fill="#263238"/>
<path d="M325.88 216.808H19.666V234.824H325.88V216.808Z" fill="#263238"/>
<path d="M31.2397 227.899V228.497H28.8016V228.047L30.1257 226.632C30.448 226.298 30.504 226.08 30.504 225.855C30.504 225.521 30.3008 225.326 29.8875 225.326C29.741 225.318 29.5947 225.347 29.4607 225.414C29.3267 225.48 29.2088 225.581 29.1168 225.707L28.6895 225.342C28.8394 225.136 29.0314 224.973 29.2495 224.867C29.4676 224.76 29.7056 224.712 29.9435 224.728C30.6441 224.728 31.1276 225.132 31.1276 225.785C31.123 226.012 31.0705 226.236 30.9744 226.437C30.8784 226.638 30.7413 226.811 30.5741 226.943L29.6913 227.876L31.2397 227.899Z" fill="white"/>
<path d="M31.5694 226.08C31.562 226.019 31.5664 225.956 31.5826 225.897C31.5987 225.837 31.6261 225.782 31.6629 225.736C31.6997 225.689 31.7451 225.652 31.7961 225.626C31.847 225.6 31.9023 225.587 31.9583 225.587C32.0142 225.587 32.0695 225.6 32.1204 225.626C32.1714 225.652 32.2168 225.689 32.2536 225.736C32.2904 225.782 32.3178 225.837 32.3339 225.897C32.3501 225.956 32.3545 226.019 32.3471 226.08C32.3545 226.142 32.3501 226.204 32.3339 226.264C32.3178 226.323 32.2904 226.378 32.2536 226.425C32.2168 226.472 32.1714 226.509 32.1204 226.535C32.0695 226.56 32.0142 226.574 31.9583 226.574C31.9023 226.574 31.847 226.56 31.7961 226.535C31.7451 226.509 31.6997 226.472 31.6629 226.425C31.6261 226.378 31.5987 226.323 31.5826 226.264C31.5664 226.204 31.562 226.142 31.5694 226.08ZM31.5694 228.078C31.562 228.016 31.5664 227.954 31.5826 227.894C31.5987 227.835 31.6261 227.78 31.6629 227.733C31.6997 227.686 31.7451 227.649 31.7961 227.623C31.847 227.598 31.9023 227.584 31.9583 227.584C32.0142 227.584 32.0695 227.598 32.1204 227.623C32.1714 227.649 32.2168 227.686 32.2536 227.733C32.2904 227.78 32.3178 227.835 32.3339 227.894C32.3501 227.954 32.3545 228.016 32.3471 228.078C32.3545 228.139 32.3501 228.202 32.3339 228.261C32.3178 228.321 32.2904 228.376 32.2536 228.422C32.2168 228.469 32.1714 228.506 32.1204 228.532C32.0695 228.558 32.0142 228.571 31.9583 228.571C31.9023 228.571 31.847 228.558 31.7961 228.532C31.7451 228.506 31.6997 228.469 31.6629 228.422C31.6261 228.376 31.5987 228.321 31.5826 228.261C31.5664 228.202 31.562 228.139 31.5694 228.078Z" fill="white"/>
<path d="M33.8814 224.806V228.497H33.2719V225.389H32.5713V224.813L33.8814 224.806Z" fill="white"/>
<path d="M37.4893 227.642H36.9008V228.497H36.3053V227.642H34.4907V227.168L36.1231 224.837H36.7817L35.2404 227.098H36.3263V226.321H36.9008V227.098H37.4893V227.642Z" fill="white"/>
<path d="M293.876 226.174H42.8911V227.44H293.876V226.174Z" fill="white"/>
<path d="M121.134 224.806H42.7017V228.194H121.134V224.806Z" fill="#FF725E"/>
<path d="M123.671 226.811C123.671 227.649 123.447 228.468 123.027 229.164C122.608 229.861 122.011 230.404 121.314 230.724C120.616 231.045 119.848 231.129 119.108 230.965C118.367 230.802 117.687 230.398 117.153 229.806C116.619 229.214 116.255 228.459 116.108 227.637C115.96 226.816 116.036 225.964 116.325 225.19C116.614 224.416 117.103 223.754 117.731 223.289C118.359 222.824 119.097 222.575 119.852 222.575C120.865 222.575 121.836 223.021 122.552 223.816C123.269 224.61 123.671 225.687 123.671 226.811Z" fill="#FF725E"/>
<path d="M300.195 226.772C300.192 226.94 300.158 227.105 300.094 227.258C300.031 227.41 299.94 227.547 299.827 227.658C299.714 227.77 299.581 227.854 299.437 227.906C299.293 227.959 299.141 227.977 298.99 227.961C298.087 227.961 297.554 227.316 297.554 226.135C297.526 225.884 297.548 225.629 297.618 225.389C297.688 225.148 297.805 224.927 297.959 224.742C298.114 224.556 298.303 224.41 298.514 224.314C298.725 224.217 298.952 224.173 299.179 224.184C299.483 224.173 299.783 224.254 300.048 224.417L299.817 224.938C299.63 224.81 299.413 224.748 299.193 224.759C298.57 224.759 298.178 225.187 298.178 226.018C298.291 225.887 298.428 225.785 298.581 225.719C298.733 225.653 298.897 225.625 299.06 225.637C299.204 225.621 299.348 225.638 299.485 225.688C299.622 225.737 299.748 225.818 299.855 225.925C299.962 226.032 300.047 226.163 300.106 226.309C300.165 226.454 300.195 226.612 300.195 226.772ZM299.6 226.772C299.6 226.383 299.341 226.142 298.941 226.142C298.857 226.127 298.771 226.131 298.689 226.156C298.606 226.18 298.53 226.223 298.463 226.282C298.397 226.342 298.343 226.416 298.305 226.501C298.266 226.585 298.244 226.678 298.241 226.772C298.241 227.122 298.486 227.394 298.941 227.394C299.02 227.408 299.101 227.404 299.178 227.381C299.256 227.358 299.328 227.318 299.39 227.262C299.452 227.206 299.503 227.137 299.539 227.058C299.575 226.978 299.596 226.892 299.6 226.803V226.772Z" fill="white"/>
<path d="M300.497 225.513C300.489 225.451 300.494 225.389 300.51 225.329C300.526 225.27 300.553 225.215 300.59 225.168C300.627 225.122 300.672 225.084 300.723 225.059C300.774 225.033 300.83 225.02 300.885 225.02C300.941 225.02 300.997 225.033 301.048 225.059C301.099 225.084 301.144 225.122 301.181 225.168C301.218 225.215 301.245 225.27 301.261 225.329C301.277 225.389 301.282 225.451 301.274 225.513C301.282 225.574 301.277 225.637 301.261 225.696C301.245 225.756 301.218 225.811 301.181 225.857C301.144 225.904 301.099 225.942 301.048 225.967C300.997 225.993 300.941 226.006 300.885 226.006C300.83 226.006 300.774 225.993 300.723 225.967C300.672 225.942 300.627 225.904 300.59 225.857C300.553 225.811 300.526 225.756 300.51 225.696C300.494 225.637 300.489 225.574 300.497 225.513ZM300.497 227.51C300.489 227.449 300.494 227.386 300.51 227.327C300.526 227.267 300.553 227.213 300.59 227.166C300.627 227.119 300.672 227.082 300.723 227.056C300.774 227.03 300.83 227.017 300.885 227.017C300.941 227.017 300.997 227.03 301.048 227.056C301.099 227.082 301.144 227.119 301.181 227.166C301.218 227.213 301.245 227.267 301.261 227.327C301.277 227.386 301.282 227.449 301.274 227.51C301.282 227.572 301.277 227.634 301.261 227.694C301.245 227.753 301.218 227.808 301.181 227.855C301.144 227.902 301.099 227.939 301.048 227.965C300.997 227.99 300.941 228.004 300.885 228.004C300.83 228.004 300.774 227.99 300.723 227.965C300.672 227.939 300.627 227.902 300.59 227.855C300.553 227.808 300.526 227.753 300.51 227.694C300.494 227.634 300.489 227.572 300.497 227.51Z" fill="white"/>
<path d="M301.667 226.073C301.667 224.868 302.262 224.184 303.068 224.184C303.873 224.184 304.469 224.868 304.469 226.073C304.469 227.277 303.873 227.961 303.068 227.961C302.262 227.961 301.667 227.277 301.667 226.073ZM303.81 226.073C303.81 225.187 303.502 224.775 303.047 224.775C302.591 224.775 302.283 225.187 302.283 226.073C302.283 226.959 302.598 227.37 303.047 227.37C303.495 227.37 303.81 226.943 303.81 226.073Z" fill="white"/>
<path d="M304.84 226.073C304.84 224.868 305.436 224.184 306.242 224.184C307.047 224.184 307.643 224.868 307.643 226.073C307.643 227.277 307.047 227.961 306.242 227.961C305.436 227.961 304.84 227.277 304.84 226.073ZM306.991 226.073C306.991 225.187 306.676 224.775 306.221 224.775C305.765 224.775 305.464 225.187 305.464 226.073C305.464 226.959 305.772 227.37 306.221 227.37C306.669 227.37 306.991 226.943 306.991 226.073Z" fill="white"/>
<path d="M312.954 225.847H311.812V222.187H315.097V223.453H312.954V225.847Z" fill="white"/>
<path d="M315.105 230.619H311.805V226.966H312.947V229.352H315.105V230.619Z" fill="white"/>
<path d="M320.359 230.619H317.066V229.352H319.217V226.959H320.359V230.619Z" fill="white"/>
<path d="M320.359 225.839H319.217V223.453H317.059V222.187H320.359V225.839Z" fill="white"/>
<path d="M61.6181 59.386H43.5845L34.5747 76.7021L43.5845 94.0259H61.6181L70.6279 76.7021L61.6181 59.386Z" fill="#EBEBEB"/>
<path d="M45.056 80.0907C44.2198 79.1493 43.4819 78.1065 42.8561 76.9819C42.228 75.8303 41.9642 74.4792 42.1065 73.1425C42.2956 72.3932 42.4476 71.633 42.5619 70.8653C42.6319 69.7928 42.2256 68.6736 42.5619 67.671C43.0943 66.1166 45 65.8601 46.149 64.7798C47.0457 63.9326 47.4871 62.5648 48.475 61.8575C49.3938 61.3148 50.4566 61.1522 51.4736 61.399C52.4772 61.6516 53.5073 61.751 54.5352 61.6943C55.2453 61.5256 55.9469 61.3155 56.637 61.0648C57.3311 60.8227 58.082 60.881 58.7388 61.228C59.0597 61.4224 59.2994 61.7482 59.4067 62.1359C59.514 62.5236 59.4805 62.9424 59.3133 63.3031C60.4974 62.6969 61.9967 63.715 62.3189 65.114C62.4376 65.826 62.3767 66.5605 62.1431 67.2366C61.9094 67.9127 61.5121 68.5041 60.9948 68.9456C59.9504 69.793 58.7319 70.338 57.4497 70.5311C53.8276 71.3083 49.9042 70.8575 46.7865 68.6891" fill="#263238"/>
<path d="M61.7724 84.3653C61.6533 81.886 61.0298 76.8109 60.4132 72.2176C60.0959 69.8373 58.983 67.6766 57.2956 66.1646C55.6082 64.6527 53.4698 63.9004 51.3054 64.057H50.864C46.0648 64.7254 43.9 69.6218 44.6356 74.9378L46.0368 94.0182H57.7299C57.7299 94.0182 57.4497 90.6684 57.4497 90.6373C57.4497 90.6062 62.0246 89.5026 61.7724 84.3653Z" fill="#FFBE9D"/>
<path d="M57.4495 90.5674C55.3167 90.7712 53.1775 90.2652 51.3052 89.114C51.3052 89.114 52.9586 92.7047 57.5406 91.8964L57.4495 90.5674Z" fill="#EB996E"/>
<path d="M58.921 76.6166C58.9346 76.8059 58.8805 76.9936 58.7704 77.1391C58.6603 77.2845 58.503 77.376 58.3325 77.3938C58.1676 77.4137 58.0021 77.3616 57.8713 77.2484C57.7405 77.1352 57.6546 76.9699 57.6319 76.7876C57.63 76.6001 57.6892 76.4183 57.7986 76.2754C57.9081 76.1326 58.0603 76.0385 58.2274 76.0104C58.3915 75.9906 58.5561 76.043 58.6858 76.1563C58.8155 76.2697 58.8999 76.4349 58.921 76.6166Z" fill="#263238"/>
<path d="M59.5513 74.7979C59.4743 74.899 58.9488 74.5259 58.2342 74.5803C57.5196 74.6347 57.0292 75.0622 56.9451 74.9767C56.861 74.8912 56.9451 74.7591 57.1973 74.557C57.4907 74.294 57.8505 74.1385 58.227 74.1121C58.6035 74.0856 58.9781 74.1895 59.2991 74.4093C59.5513 74.6114 59.6074 74.7513 59.5513 74.7979Z" fill="#263238"/>
<path d="M52.2092 77.1451C52.2113 77.3314 52.1531 77.5123 52.0451 77.655C51.937 77.7976 51.7864 77.8925 51.6206 77.9223C51.4547 77.9421 51.2883 77.8889 51.1573 77.7741C51.0263 77.6593 50.9411 77.492 50.92 77.3083C50.9082 77.1194 50.963 76.9328 51.0728 76.7878C51.1825 76.6428 51.3388 76.5508 51.5085 76.5311C51.6745 76.5113 51.8409 76.5645 51.9719 76.6793C52.1029 76.7941 52.1881 76.9614 52.2092 77.1451Z" fill="#263238"/>
<path d="M52.5943 75.4586C52.5172 75.5596 51.9918 75.1865 51.2842 75.2409C50.5765 75.2953 50.0721 75.7306 49.988 75.6373C49.904 75.5441 50.0231 75.4197 50.2403 75.2254C50.5313 74.957 50.8917 74.798 51.2695 74.7715C51.6472 74.7449 52.0228 74.8522 52.3421 75.0777C52.5452 75.2487 52.6293 75.3886 52.5943 75.4586Z" fill="#263238"/>
<path d="M55.5229 81.1166C55.8898 80.9571 56.2736 80.85 56.6649 80.7979C56.847 80.7979 57.0152 80.7125 57.0362 80.5726C57.0383 80.3631 56.9847 80.1577 56.8821 79.9819L56.2515 78.4897C55.6766 77.2387 55.1917 75.9393 54.8013 74.6036C55.4686 75.8091 56.0473 77.0723 56.5318 78.3808C56.742 78.9093 56.9451 79.4068 57.1413 79.8886C57.2637 80.1236 57.3129 80.3967 57.2814 80.6658C57.2593 80.738 57.2225 80.8036 57.1739 80.8575C57.1253 80.9114 57.0662 80.9522 57.0012 80.9767C56.9022 81.0185 56.7984 81.0447 56.6929 81.0544C56.3069 81.1304 55.9137 81.1513 55.5229 81.1166Z" fill="#263238"/>
<path d="M52.5876 72.3575C52.5316 72.5751 51.8169 72.5285 50.9902 72.6995C50.1635 72.8705 49.5049 73.1736 49.3788 72.9948C49.2527 72.8161 49.4349 72.6917 49.6941 72.4663C50.0401 72.1842 50.4398 71.994 50.8626 71.9104C51.2853 71.8269 51.7197 71.8522 52.1322 71.9845C52.4475 72.0933 52.6156 72.2798 52.5876 72.3575Z" fill="#263238"/>
<path d="M59.1731 72.5363C59.054 72.7228 58.5566 72.5363 57.9681 72.6062C57.3796 72.6762 56.8892 72.8083 56.7631 72.6062C56.637 72.4042 56.7631 72.3342 56.9803 72.1477C57.2607 71.9238 57.5947 71.797 57.94 71.7831C58.2853 71.7693 58.6266 71.8691 58.9209 72.07C59.1381 72.2798 59.2222 72.443 59.1731 72.5363Z" fill="#263238"/>
<path d="M45.2309 78.715C45.1468 78.715 41.9871 77.9378 42.3024 81.4119C42.6177 84.886 46.0366 83.7435 46.0296 83.6658C46.0226 83.5881 45.2309 78.715 45.2309 78.715Z" fill="#FFBE9D"/>
<path d="M44.6359 82.5155C44.6359 82.5155 44.5798 82.57 44.4958 82.6244C44.3686 82.6977 44.2216 82.7171 44.0824 82.6788C43.8685 82.5547 43.687 82.3715 43.5557 82.1468C43.4244 81.9222 43.3476 81.6637 43.3328 81.3964C43.2967 81.0958 43.3231 80.7901 43.4098 80.5026C43.4291 80.3899 43.473 80.2841 43.5377 80.1947C43.6025 80.1052 43.6861 80.0348 43.7812 79.9896C43.8423 79.9649 43.9093 79.9646 43.9707 79.9887C44.0321 80.0128 44.084 80.0598 44.1175 80.1218C44.1735 80.215 44.1595 80.285 44.1735 80.2927C44.1875 80.3005 44.2366 80.2228 44.1735 80.0829C44.152 79.998 44.1018 79.9256 44.0334 79.8808C43.987 79.8482 43.9351 79.8265 43.8808 79.8172C43.8266 79.8078 43.7712 79.811 43.7181 79.8264C43.5917 79.868 43.477 79.9448 43.385 80.0496C43.293 80.1544 43.2268 80.2836 43.1926 80.4249C43.0881 80.7455 43.0544 81.0894 43.0946 81.4275C43.107 81.7398 43.2019 82.0412 43.3676 82.2941C43.5333 82.547 43.7624 82.7402 44.0264 82.8497C44.114 82.8674 44.204 82.8634 44.29 82.8378C44.376 82.8123 44.4559 82.7659 44.5238 82.7021C44.6359 82.601 44.6429 82.5233 44.6359 82.5155Z" fill="#EB996E"/>
<path d="M60.1819 67.4223C59.9647 68.8135 57.3795 70.0881 55.2777 70.0259C53.33 69.9637 52.3702 68.8912 50.9549 68.1295C50.0582 67.6477 50.0582 67.6477 48.8531 67.8653C47.8723 68.044 47.3608 69.3264 46.8144 70.2435C47.8653 72.785 47.4379 75.7383 46.9895 78.4896C46.9738 78.8011 46.8625 79.0973 46.6742 79.329C46.472 79.4673 46.232 79.5213 45.9971 79.4814C45.7623 79.4416 45.5479 79.3104 45.3921 79.1114C44.8737 78.4928 44.5282 77.7207 44.3973 76.8886C43.9725 75.0299 43.8844 73.0962 44.138 71.1995C44.3692 69.2954 45.1001 67.5088 46.2399 66.0622C47.7399 64.3039 49.7976 63.2615 51.9778 63.1554C54.1481 63.0731 56.287 63.7472 58.0941 65.0829C58.9574 65.6558 59.6795 66.4568 60.1959 67.4145" fill="#263238"/>
<path d="M55.9923 82.8886L54.3809 82.057C54.2908 82.0017 54.1896 81.9723 54.0866 81.9715C53.9766 82.0046 53.8801 82.0787 53.8134 82.1814C53.6238 82.4318 53.5053 82.7389 53.4729 83.064C53.4405 83.389 53.4956 83.7174 53.6313 84.0078C53.7783 84.291 54.0105 84.5078 54.2873 84.6201C54.564 84.7323 54.8675 84.7329 55.1446 84.6218C55.418 84.4587 55.6464 84.2165 55.8055 83.9209C55.9647 83.6253 56.0486 83.2873 56.0483 82.943L55.9923 82.8886Z" fill="#EB996E"/>
<path d="M55.1935 84.715C55.1935 84.715 54.8572 85.0026 54.2477 84.8083C53.8897 84.6785 53.5909 84.4 53.414 84.0311C53.2994 83.8116 53.2306 83.5665 53.2124 83.3137C53.1942 83.0609 53.2272 82.8068 53.3089 82.57C53.3927 82.3218 53.527 82.0984 53.7012 81.9171C53.7849 81.8316 53.8765 81.756 53.9745 81.6917C54.0397 81.6555 54.1117 81.6366 54.1846 81.6366C54.2576 81.6366 54.3296 81.6555 54.3948 81.6917C54.7661 81.9249 55.0114 82.1114 55.2566 82.2902C55.726 82.6399 56.0062 82.8731 55.9572 82.9275C55.9081 82.9819 55.6069 82.8187 55.1024 82.5389L54.2407 82.0415C54.1776 82.0415 54.1846 82.0415 54.1146 82.0415C54.0442 82.0939 53.9785 82.1538 53.9184 82.2202C53.7881 82.3626 53.6877 82.5351 53.6242 82.7254C53.5613 82.9097 53.5338 83.1065 53.5434 83.3032C53.5531 83.5 53.5997 83.6923 53.6802 83.8679C53.8189 84.1593 54.0406 84.3916 54.3107 84.5285C54.5951 84.6389 54.8926 84.7017 55.1935 84.715Z" fill="#263238"/>
<path d="M54.6824 76.7021C54.6824 76.7021 54.6824 76.3757 54.5142 75.8316C54.3113 75.0614 53.8853 74.3868 53.3022 73.9119C52.8356 73.5255 52.2813 73.2907 51.7012 73.2338C51.1212 73.1768 50.5383 73.3 50.0178 73.5896C49.4972 73.8791 49.0596 74.3235 48.7537 74.8732C48.4479 75.4229 48.2859 76.0561 48.2859 76.7021C48.2859 77.3481 48.4479 77.9813 48.7537 78.531C49.0596 79.0806 49.4972 79.5251 50.0178 79.8146C50.5383 80.1042 51.1212 80.2273 51.7012 80.1704C52.2813 80.1135 52.8356 79.8787 53.3022 79.4922C53.8848 79.0202 54.3109 78.3482 54.5142 77.5803C54.6544 77.0285 54.6474 76.7021 54.6824 76.7021C54.7174 76.7021 54.6824 76.7798 54.6824 76.9352C54.6872 77.1627 54.666 77.3899 54.6193 77.6114C54.4622 78.4491 54.0427 79.198 53.4353 79.7254C52.9818 80.119 52.4459 80.3788 51.8775 80.4807C51.3091 80.5826 50.7267 80.5233 50.1845 80.3083C49.5118 80.0452 48.9292 79.557 48.5172 78.9111C48.1051 78.2652 47.8838 77.4934 47.8838 76.7021C47.8838 75.9108 48.1051 75.139 48.5172 74.4931C48.9292 73.8472 49.5118 73.359 50.1845 73.0959C50.7271 72.8805 51.3101 72.8217 51.8788 72.925C52.4474 73.0283 52.9831 73.2904 53.4353 73.6865C54.0541 74.2045 54.4843 74.9521 54.6474 75.7928C54.694 76.0143 54.7152 76.2415 54.7104 76.4689C54.7034 76.6244 54.6964 76.7021 54.6824 76.7021Z" fill="#263238"/>
<path d="M62.5503 76.3601C62.5503 76.3601 62.5503 76.0415 62.3821 75.513C62.1882 74.7609 61.7741 74.1019 61.2051 73.6399C60.7507 73.2654 60.2114 73.0384 59.6474 72.9842C59.0834 72.9299 58.517 73.0506 58.0112 73.3328C57.5055 73.6149 57.0804 74.0474 56.7833 74.5819C56.4862 75.1165 56.3289 75.7321 56.3289 76.3601C56.3289 76.9881 56.4862 77.6037 56.7833 78.1383C57.0804 78.6729 57.5055 79.1053 58.0112 79.3875C58.517 79.6696 59.0834 79.7903 59.6474 79.7361C60.2114 79.6818 60.7507 79.4548 61.2051 79.0803C61.7637 78.6135 62.1676 77.955 62.3541 77.2073C62.4942 76.6788 62.4872 76.3601 62.5222 76.3601C62.5573 76.3601 62.5222 76.4378 62.5222 76.5933C62.53 76.8127 62.5111 77.0323 62.4662 77.2461C62.3205 78.0424 61.9321 78.7587 61.3662 79.2746C60.9235 79.6588 60.4006 79.913 59.8458 80.0135C59.2911 80.114 58.7224 80.0577 58.1925 79.8498C57.5378 79.5905 56.9715 79.113 56.571 78.4827C56.1705 77.8524 55.9556 77.1002 55.9556 76.329C55.9556 75.5579 56.1705 74.8057 56.571 74.1754C56.9715 73.5451 57.5378 73.0676 58.1925 72.8083C58.7224 72.6003 59.2911 72.544 59.8458 72.6446C60.4006 72.7451 60.9235 72.9992 61.3662 73.3834C61.9585 73.8973 62.3679 74.6267 62.5222 75.443C62.5671 75.6569 62.586 75.8765 62.5783 76.0959C62.5783 76.2824 62.5643 76.3601 62.5503 76.3601Z" fill="#263238"/>
<path d="M56.1322 75.5518C56.0622 75.6296 55.7469 75.4042 55.3265 75.4197C54.9062 75.4352 54.6259 75.6606 54.5279 75.5829C54.4298 75.5052 54.724 75.0233 55.3195 75.0156C55.9151 75.0078 56.2233 75.4897 56.1322 75.5518Z" fill="#263238"/>
<path d="M48.2927 76.1658C48.3558 76.2591 47.7393 76.8808 46.8915 77.5492C46.4288 78.0116 45.8916 78.3728 45.3081 78.614C45.2451 78.5207 45.8616 77.9068 46.7094 77.2306C47.172 76.7683 47.7092 76.407 48.2927 76.1658Z" fill="#263238"/>
<path d="M113.323 76.5233C113.323 76.6399 105.217 76.7332 95.2194 76.7332C85.2217 76.7332 77.1157 76.6399 77.1157 76.5233C77.1157 76.4068 85.2217 76.3213 95.2194 76.3213C105.217 76.3213 113.323 76.4145 113.323 76.5233Z" fill="#263238"/>
<path d="M96.5781 80.728C96.5781 80.8446 92.2764 80.9301 86.9658 80.9301C81.6552 80.9301 77.3535 80.8446 77.3535 80.728C77.3535 80.6114 81.6552 80.5259 86.9658 80.5259C92.2764 80.5259 96.5781 80.6192 96.5781 80.728Z" fill="#263238"/>
<path d="M221.783 107.58C224.954 109.582 227.735 112.261 229.965 115.463C232.196 118.665 233.833 122.325 234.78 126.233C238.164 139.663 248.512 174.637 248.512 174.637C248.512 174.637 254.425 182.355 255.055 188.067C255.686 193.78 254.425 207.606 252.519 210.187C251.966 210.933 251.257 211.519 250.454 211.893C249.65 212.267 248.777 212.417 247.909 212.332L223.016 209.712L213.208 136.912L221.783 107.58Z" fill="#1EA5FC"/>
<path d="M139.47 106.306C139.47 106.306 121.667 112.523 117.232 117.886L131.805 193.096L131.574 216.839H215.955C215.955 215.674 216.711 138.054 216.711 138.054L221.784 107.596L191.791 101.736L185.878 96.5829L152.508 98.456L147.436 104.083L139.47 106.306Z" fill="#1EA5FC"/>
<g opacity="0.3">
<path opacity="0.3" d="M146.23 171.552C145.971 170.915 145.593 170.231 144.976 170.083C143.96 169.85 143.281 171.187 142.937 172.275C140.248 180.801 136.518 188.878 131.854 196.282L131.637 207.832C136.541 203.238 141.403 198.319 144.542 192.093C147.681 185.868 148.879 178.057 146.23 171.552Z" fill="black"/>
</g>
<path d="M117.232 117.886C117.232 117.886 111.368 126.754 108.937 132.544C106.506 138.334 86.3216 186.948 85.1165 191.977C83.9115 197.005 80.7728 212.821 90.0208 216.482H108.979L128.008 173.798L128.911 124.251L117.232 117.886Z" fill="#1EA5FC"/>
<path d="M110.149 185.65C110.149 185.65 109.729 185.238 108.853 184.687C107.605 183.938 106.264 183.399 104.874 183.086C103.919 182.85 102.949 182.699 101.973 182.635C100.859 182.532 99.7376 182.613 98.6451 182.876C96.1528 183.586 93.9219 185.14 92.2626 187.321C90.5741 189.477 89.3392 192.023 88.6475 194.775C88.078 197.023 87.6981 199.326 87.5125 201.653C87.3303 203.642 87.2673 205.259 87.2042 206.378C87.2042 206.899 87.1482 207.326 87.1342 207.668C87.1295 207.82 87.1131 207.971 87.0851 208.119C87.0686 207.969 87.0686 207.818 87.0851 207.668C87.0851 207.326 87.0851 206.891 87.0851 206.37C87.0851 205.251 87.1272 203.627 87.2743 201.63C87.4216 199.264 87.7807 196.921 88.3462 194.635C89.0373 191.823 90.2896 189.22 92.0104 187.018C93.7215 184.776 96.0257 183.188 98.5961 182.479C99.7198 182.22 100.872 182.149 102.015 182.269C103.004 182.35 103.986 182.519 104.951 182.775C106.356 183.117 107.704 183.705 108.944 184.516C109.278 184.745 109.595 185.005 109.89 185.293C109.99 185.399 110.077 185.519 110.149 185.65Z" fill="#263238"/>
<path d="M101.16 177.148C101.367 177.081 101.582 177.044 101.798 177.039C102.383 176.984 102.971 176.984 103.556 177.039C104.428 177.096 105.293 177.239 106.141 177.466C107.18 177.751 108.191 178.147 109.161 178.648C110.122 179.172 111.037 179.793 111.893 180.505C112.587 181.096 113.231 181.754 113.82 182.472C114.218 182.957 114.581 183.477 114.906 184.026C115.038 184.216 115.147 184.425 115.228 184.648C115.172 184.694 114.654 183.87 113.631 182.689C113.028 182.015 112.38 181.394 111.69 180.832C110.011 179.448 108.109 178.435 106.085 177.847C105.257 177.61 104.414 177.444 103.563 177.35C102.078 177.14 101.16 177.202 101.16 177.148Z" fill="#263238"/>
<path d="M118.298 174.808C118.004 174.822 117.71 174.798 117.422 174.738C116.861 174.653 116.056 174.567 115.047 174.482C109.807 174.048 104.542 174.748 99.5423 176.541C98.5825 176.883 97.8118 177.187 97.2864 177.404C97.0198 177.54 96.7401 177.642 96.4526 177.707C96.6973 177.53 96.9579 177.382 97.2303 177.264C97.7418 176.992 98.5054 176.65 99.4582 176.269C104.462 174.307 109.795 173.598 115.075 174.194C116.077 174.319 116.889 174.451 117.443 174.583C117.734 174.623 118.021 174.698 118.298 174.808Z" fill="#263238"/>
<path d="M172.307 133.267C172.235 133.188 172.169 133.102 172.111 133.01L171.592 132.233L169.687 129.303L163.087 118.966L163.381 118.92L160.046 129.801L159.969 130.049L159.78 129.909L159.381 129.63C157.856 128.543 156.468 127.236 155.254 125.744C154.136 124.35 153.148 122.834 152.305 121.22C150.903 118.479 149.813 115.555 149.061 112.516C148.554 110.468 148.144 108.393 147.835 106.298C147.723 105.591 147.639 105.031 147.569 104.604C147.569 104.409 147.506 104.269 147.485 104.168C147.464 104.067 147.428 104.029 147.435 104.029C147.442 104.029 147.723 104.806 147.975 106.267C148.227 107.728 148.627 109.858 149.313 112.415C150.09 115.417 151.194 118.303 152.599 121.01C153.436 122.595 154.415 124.081 155.52 125.448C156.714 126.908 158.078 128.184 159.577 129.241L159.962 129.521L159.696 129.622C160.894 125.736 162.029 122.098 163.066 118.741L163.171 118.391L163.36 118.694C165.994 122.93 168.264 126.528 169.855 129.117C170.618 130.368 171.256 131.378 171.683 132.101C171.873 132.435 172.034 132.699 172.153 132.878C172.221 132.999 172.273 133.13 172.307 133.267Z" fill="#263238"/>
<g opacity="0.3">
<path opacity="0.3" d="M194.271 169.166C193.514 177.933 195.228 186.745 199.175 194.386C203.105 201.964 208.857 208.718 216.025 212.339C216.256 204.622 215.92 195.529 216.151 187.811L194.271 169.166Z" fill="black"/>
</g>
<path d="M193.479 159.008C193.479 159.008 190.41 159.948 192.708 166.912C195.006 173.876 195.777 173.456 197.311 179.977C198.846 186.497 200.632 192.412 203.308 196.119C205.985 199.826 215.954 207.311 215.954 207.311L224.894 197.984C224.894 197.984 223.423 190.99 223.773 186.288C224.123 181.586 225.02 169.966 224.894 167.953C224.768 165.94 222.848 161.153 222.848 161.153V157.858L218.252 142.174C218.252 142.174 215.702 140.891 214.805 145.43L213.271 140.619C213.271 140.619 210.847 140.184 210.209 145.71C209.572 151.236 210.721 158.922 210.721 158.922L209.439 168.56L207.526 175.073L205.866 175.36C205.866 175.36 203.364 174.583 201.998 169.383C200.632 164.184 196.926 157.873 193.479 159.008Z" fill="#FFBE9D"/>
<path d="M221.902 183.645C221.87 183.529 221.856 183.409 221.86 183.288C221.86 183.016 221.818 182.674 221.797 182.254C221.748 181.298 221.685 179.984 221.608 178.368C221.468 174.979 221.279 170.277 221.055 164.782L221.09 164.891C220.861 164.628 220.571 164.44 220.252 164.348C219.933 164.256 219.597 164.264 219.282 164.37C218.94 164.461 218.617 164.627 218.333 164.858C218.049 165.089 217.81 165.38 217.629 165.715C216.844 167.114 216.802 168.925 216.557 170.681C216.073 174.653 215.611 178.453 215.156 181.881C214.945 183.598 214.721 185.238 214.455 186.754C214.17 188.159 213.798 189.541 213.341 190.889C212.949 192.124 212.598 193.22 212.381 194.254C212.186 195.11 212.09 195.99 212.094 196.873C212.12 197.628 212.238 198.376 212.444 199.096C212.36 198.922 212.29 198.74 212.234 198.552C212.071 198.012 211.977 197.45 211.954 196.881C211.92 195.98 211.998 195.077 212.185 194.199C212.431 193.046 212.737 191.909 213.103 190.795C213.536 189.453 213.887 188.079 214.154 186.684C214.441 185.176 214.658 183.575 214.854 181.826C215.261 178.383 215.716 174.598 216.192 170.627C216.305 169.741 216.389 168.87 216.529 167.992C216.645 167.115 216.911 166.271 217.313 165.505C217.519 165.121 217.792 164.785 218.115 164.519C218.439 164.252 218.807 164.059 219.198 163.951C219.577 163.83 219.978 163.828 220.357 163.945C220.737 164.061 221.08 164.292 221.349 164.611L221.384 164.666V164.767C221.552 170.262 221.699 174.972 221.804 178.352C221.839 179.992 221.867 181.313 221.895 182.238C221.895 182.666 221.895 183.016 221.895 183.28C221.909 183.401 221.911 183.523 221.902 183.645Z" fill="#EB996E"/>
<path d="M217.012 165.793C216.857 165.514 216.73 165.217 216.634 164.907C216.34 164.076 216.09 163.228 215.884 162.365C215.583 161.09 215.37 159.791 215.247 158.479C215.16 157.706 215.146 156.924 215.205 156.148C215.271 155.277 215.536 154.44 215.975 153.715C216.369 153.07 216.946 152.591 217.615 152.355L217.748 152.308L217.818 152.448C219.114 154.982 220.242 157.22 221.034 158.829C221.391 159.606 221.699 160.212 221.945 160.725C222.069 160.949 222.168 161.19 222.239 161.44C222.078 161.247 221.941 161.03 221.832 160.795L220.824 158.953C219.983 157.399 218.813 155.168 217.51 152.642L217.713 152.736C217.135 152.937 216.631 153.34 216.277 153.886C215.876 154.554 215.635 155.324 215.576 156.124C215.506 156.887 215.506 157.655 215.576 158.417C215.681 159.725 215.866 161.023 216.13 162.303C216.354 163.399 216.599 164.262 216.76 164.86C216.873 165.16 216.958 165.473 217.012 165.793Z" fill="#EB996E"/>
<path d="M214.876 167.098C214.818 166.802 214.789 166.5 214.792 166.197C214.792 165.528 214.736 164.705 214.701 163.733C214.645 161.65 214.589 158.775 214.547 155.596C214.442 152.878 214.479 150.156 214.659 147.443C214.747 146.617 214.906 145.802 215.135 145.01C215.204 144.715 215.315 144.434 215.464 144.179C215.208 145.258 215.023 146.357 214.911 147.466C214.736 149.526 214.911 152.409 214.911 155.588C214.911 158.767 214.967 161.642 214.96 163.725C214.96 164.705 214.96 165.528 214.96 166.197C214.968 166.5 214.939 166.803 214.876 167.098Z" fill="#EB996E"/>
<path d="M207.316 193.189C207.267 193.142 207.827 192.412 208.514 191.091C208.915 190.315 209.264 189.507 209.558 188.674C209.902 187.648 210.169 186.592 210.357 185.518C210.52 184.44 210.602 183.348 210.602 182.254C210.594 181.358 210.524 180.464 210.392 179.58C210.16 178.073 209.866 177.171 209.929 177.148C210.04 177.338 210.125 177.545 210.181 177.762C210.378 178.335 210.533 178.925 210.644 179.526C210.815 180.421 210.914 181.331 210.938 182.246C210.96 183.366 210.885 184.485 210.714 185.588C210.526 186.689 210.242 187.766 209.866 188.806C209.558 189.653 209.18 190.467 208.738 191.238C208.446 191.76 208.116 192.254 207.75 192.715C207.491 193.041 207.337 193.212 207.316 193.189Z" fill="#EB996E"/>
<path d="M223.01 188.316L230.765 191.308C230.765 191.308 238.178 187.057 243.285 191.308C248.393 195.56 252.827 206.759 251.426 211.29C251.426 211.29 247.923 216.117 245.219 216.824C242.515 217.531 232.111 214.733 227.774 213.715C223.437 212.697 215.955 207.303 215.955 207.303L223.01 188.316Z" fill="#FFBE9D"/>
<path d="M223.963 201C223.908 200.745 223.88 200.485 223.879 200.223C223.879 199.64 223.816 198.948 223.774 198.14C223.689 196.383 223.584 193.959 223.549 191.269C223.506 188.975 223.566 186.679 223.732 184.391C223.795 183.513 223.886 182.798 223.963 182.316C223.977 182.049 224.031 181.786 224.124 181.539C224.18 181.539 224.061 182.627 223.984 184.376C223.907 186.124 223.879 188.557 223.914 191.231C223.949 193.904 223.998 196.236 224.026 198.101C224.026 198.979 224.026 199.694 224.026 200.184C224.045 200.458 224.023 200.734 223.963 201Z" fill="#EB996E"/>
<path d="M249.542 190.966C248.74 190.038 247.878 189.175 246.963 188.386C244.722 186.52 242.032 185.433 239.234 185.261C236.436 185.09 233.655 185.842 231.242 187.422C230.263 188.102 229.327 188.855 228.439 189.676C228.625 189.391 228.838 189.13 229.077 188.899C229.707 188.249 230.395 187.671 231.13 187.174C233.564 185.486 236.408 184.675 239.274 184.85C242.14 185.025 244.887 186.179 247.139 188.153C247.822 188.734 248.449 189.393 249.009 190.119C249.219 190.375 249.398 190.659 249.542 190.966Z" fill="#263238"/>
<path d="M248.547 183.793C247.547 182.991 246.462 182.328 245.317 181.819C242.506 180.713 239.454 180.609 236.587 181.523C235.011 182.017 233.494 182.718 232.068 183.614C230.908 184.354 229.813 185.212 228.797 186.179C227.928 187.003 227.262 187.733 226.807 188.223C226.585 188.508 226.339 188.768 226.071 189C226.257 188.692 226.468 188.403 226.702 188.137C227.307 187.38 227.95 186.661 228.628 185.984C230.87 183.712 233.563 182.059 236.489 181.158C239.426 180.214 242.561 180.361 245.415 181.578C246.267 181.955 247.071 182.457 247.804 183.07C248.063 183.28 248.238 183.482 248.372 183.606C248.505 183.731 248.554 183.785 248.547 183.793Z" fill="#263238"/>
<path d="M248.61 177.575C248.61 177.653 247.209 177.194 244.981 176.852C243.664 176.66 242.337 176.567 241.008 176.573C239.381 176.599 237.758 176.763 236.153 177.062C234.552 177.389 232.975 177.851 231.438 178.446C230.186 178.94 228.967 179.53 227.788 180.21C225.777 181.383 224.642 182.332 224.6 182.262C224.839 182.004 225.099 181.772 225.378 181.57C225.686 181.309 226.007 181.065 226.338 180.839C226.723 180.575 227.157 180.249 227.662 179.961C228.838 179.235 230.063 178.612 231.326 178.096C232.875 177.47 234.469 176.989 236.09 176.658C237.711 176.358 239.351 176.204 240.994 176.199C242.339 176.209 243.681 176.334 245.009 176.573C245.576 176.65 246.081 176.798 246.522 176.899C246.963 177 247.349 177.117 247.657 177.218C247.985 177.298 248.305 177.418 248.61 177.575Z" fill="#263238"/>
<path d="M189.163 101.464C189.453 102.19 189.633 102.965 189.696 103.756C189.905 105.986 189.806 108.237 189.402 110.433C189.157 112.009 188.822 113.567 188.4 115.096C187.847 116.878 187.168 118.609 186.368 120.272C184.693 123.839 182.592 127.741 180.154 131.93L179.873 132.412V131.829C179.873 129.086 179.873 126.202 179.873 123.21L180.147 123.35L173.603 129.21L173.659 129.117C172.082 134.788 171.107 140.643 170.751 146.565C170.107 156.023 170.625 165.07 171.025 173.277C171.424 181.484 171.599 188.899 171.83 195.117C172.062 201.334 172.251 206.355 172.419 209.829C172.517 211.547 172.587 212.891 172.636 213.824C172.636 214.267 172.685 214.601 172.699 214.865C172.713 215.13 172.699 215.223 172.699 215.223C172.699 215.223 172.699 215.098 172.65 214.865C172.601 214.632 172.594 214.275 172.552 213.832C172.475 212.922 172.377 211.57 172.272 209.837C172.062 206.363 171.816 201.342 171.571 195.124C171.326 188.907 171.025 181.508 170.688 173.301C170.352 165.093 169.743 156.031 170.387 146.534C170.742 140.582 171.727 134.697 173.323 129V128.946H173.365L179.922 123.101L180.196 122.86V123.249C180.196 126.241 180.196 129.124 180.196 131.868L179.908 131.775C184.721 123.497 188.638 116.301 189.24 110.479C189.657 108.302 189.784 106.068 189.619 103.85C189.562 103.27 189.466 102.696 189.331 102.132C189.219 101.666 189.163 101.464 189.163 101.464Z" fill="#263238"/>
<path d="M176.609 201.723H176.357C175.848 201.759 175.373 202.013 175.03 202.432C174.688 202.85 174.506 203.4 174.522 203.964C174.538 204.529 174.752 205.065 175.118 205.458C175.484 205.851 175.973 206.071 176.483 206.071C176.992 206.071 177.481 205.851 177.847 205.458C178.213 205.065 178.427 204.529 178.443 203.964C178.46 203.4 178.277 202.85 177.935 202.432C177.593 202.013 177.117 201.759 176.609 201.723Z" fill="white"/>
<path d="M176.609 171.762H176.356C175.833 171.798 175.343 172.059 174.99 172.489C174.638 172.919 174.449 173.484 174.466 174.066C174.482 174.647 174.702 175.198 175.078 175.603C175.455 176.008 175.958 176.234 176.483 176.234C177.007 176.234 177.51 176.008 177.887 175.603C178.263 175.198 178.483 174.647 178.499 174.066C178.516 173.484 178.328 172.919 177.975 172.489C177.622 172.059 177.132 171.798 176.609 171.762Z" fill="white"/>
<path d="M176.35 144.972C176.873 145.01 177.388 144.816 177.782 144.432C178.176 144.049 178.417 143.508 178.451 142.927C178.486 142.347 178.311 141.776 177.965 141.338C177.62 140.901 177.132 140.634 176.609 140.596H176.357C175.833 140.596 175.33 140.827 174.96 141.238C174.589 141.649 174.381 142.206 174.381 142.788C174.381 143.369 174.589 143.926 174.96 144.337C175.33 144.748 175.833 144.979 176.357 144.979L176.35 144.972Z" fill="white"/>
<path d="M146.097 66.3653C143.645 63.3498 141.193 60.3031 139.378 56.7513C137.564 53.1995 136.52 49.0648 137.108 45.0933C137.459 42.7617 138.355 40.5156 138.51 38.1451C138.706 34.8808 137.473 31.4689 138.51 28.4067C140.135 23.6269 145.943 22.8886 149.46 19.5855C152.199 17.013 153.531 12.8394 156.543 10.671C159.178 8.78239 162.561 8.82125 165.651 9.31088C168.741 9.80052 171.879 10.671 174.99 10.2047C177.204 9.87047 179.292 8.88342 181.457 8.28498C183.622 7.68653 186.053 7.50777 187.986 8.77461C189.92 10.0415 190.999 13.0648 189.731 15.1088C193.367 13.2124 197.914 16.3212 198.902 20.6036C199.89 24.886 197.914 29.4715 194.866 32.2617C191.819 35.0518 187.86 36.3808 183.965 37.1969C172.937 39.5285 160.964 38.1995 151.457 31.5777" fill="#263238"/>
<path d="M184.89 107.518C184.35 102.855 183.909 99.0155 183.881 98.5415C183.881 98.5415 197.837 95.0596 197.066 79.399C196.695 71.8368 194.789 56.3238 192.912 42.3109C191.944 35.0482 188.546 28.4562 183.394 23.8474C178.242 19.2387 171.715 16.9512 165.112 17.4404L163.745 17.5415C149.138 19.5855 142.531 34.4922 144.773 50.6425L152.662 104.79C152.662 104.79 156.025 116.798 163.241 118.912L172.349 133.306L173.848 127.088L180.616 120.552C181.913 118.86 183.034 117.012 183.958 115.041C184.988 112.71 185.315 110.072 184.89 107.518Z" fill="#FFBE9D"/>
<path d="M183.888 98.3083C183.888 98.3083 175.025 99.7772 165.161 93.8782C165.161 93.8782 170.184 104.813 184.168 102.358L183.888 98.3083Z" fill="#EB996E"/>
<path d="M188.379 55.7643C188.42 56.3463 188.253 56.923 187.916 57.3705C187.578 57.8181 187.095 58.1008 186.571 58.158C186.317 58.1995 186.057 58.1841 185.809 58.1127C185.56 58.0413 185.326 57.9153 185.122 57.7422C184.917 57.5691 184.746 57.3523 184.619 57.1047C184.491 56.8571 184.409 56.5837 184.378 56.3005C184.337 55.7189 184.502 55.1423 184.839 54.6937C185.175 54.2451 185.656 53.96 186.179 53.899C186.434 53.8564 186.695 53.8712 186.945 53.9426C187.195 54.014 187.43 54.1404 187.635 54.3145C187.84 54.4885 188.012 54.7065 188.14 54.9556C188.267 55.2046 188.349 55.4796 188.379 55.7643Z" fill="#263238"/>
<path d="M190.347 50.215C190.116 50.5181 188.512 49.3834 186.347 49.5466C184.182 49.7098 182.669 51.0389 182.409 50.7591C182.29 50.6347 182.515 50.0907 183.173 49.4844C184.069 48.7042 185.16 48.2508 186.298 48.1865C187.425 48.0977 188.548 48.4079 189.507 49.0725C190.207 49.5622 190.459 50.0751 190.347 50.215Z" fill="#263238"/>
<path d="M167.907 57.3886C167.948 57.9707 167.782 58.5474 167.444 58.9949C167.106 59.4425 166.623 59.7252 166.1 59.7824C165.848 59.8183 165.592 59.7987 165.347 59.7247C165.102 59.6507 164.873 59.5237 164.673 59.3511C164.472 59.1785 164.304 58.9637 164.179 58.7189C164.054 58.4741 163.973 58.2043 163.942 57.9249C163.901 57.3432 164.066 56.7667 164.402 56.3181C164.738 55.8695 165.219 55.5843 165.742 55.5233C165.995 55.4864 166.252 55.5054 166.498 55.5794C166.744 55.6534 166.975 55.7808 167.176 55.9543C167.377 56.1278 167.546 56.3439 167.671 56.5902C167.797 56.8364 167.877 57.1078 167.907 57.3886Z" fill="#263238"/>
<path d="M169.077 52.2435C168.839 52.5544 167.242 51.4119 165.077 51.5751C162.912 51.7383 161.392 53.0674 161.14 52.7876C161.013 52.671 161.238 52.1269 161.896 51.513C162.792 50.7227 163.886 50.2586 165.028 50.1839C166.153 50.0957 167.274 50.4059 168.23 51.0699C168.93 51.5907 169.189 52.0725 169.077 52.2435Z" fill="#263238"/>
<path d="M178.017 69.4819C178.017 69.3498 179.327 68.9922 181.52 68.5181C182.066 68.4171 182.585 68.2539 182.655 67.8264C182.654 67.196 182.481 66.5807 182.157 66.0622C181.548 64.6166 180.91 63.0933 180.238 61.5078C177.568 55.0181 175.593 49.671 175.831 49.5544C176.069 49.4378 178.423 54.5985 181.1 61.0881L182.949 65.6736C183.342 66.3876 183.496 67.2323 183.384 68.0596C183.316 68.2813 183.204 68.4831 183.056 68.6499C182.908 68.8168 182.727 68.9445 182.529 69.0233C182.228 69.1393 181.915 69.2124 181.597 69.2409C179.39 69.5052 178.031 69.6218 178.017 69.4819Z" fill="#263238"/>
<path d="M169.063 42.7461C168.888 43.4145 166.709 43.2668 164.159 43.7953C161.609 44.3238 159.626 45.2487 159.255 44.6891C159.087 44.4171 159.409 43.772 160.201 43.0803C161.26 42.2213 162.482 41.6418 163.774 41.3859C165.066 41.13 166.393 41.2044 167.655 41.6036C168.636 41.9689 169.14 42.4586 169.063 42.7461Z" fill="#263238"/>
<path d="M189.163 43.3135C188.82 43.8886 187.293 43.4301 185.492 43.5389C183.692 43.6477 182.199 44.1529 181.814 43.6088C181.646 43.3368 181.856 42.7772 182.515 42.2098C183.369 41.522 184.388 41.1324 185.443 41.0909C186.497 41.0494 187.539 41.3578 188.435 41.9767C189.044 42.4896 189.283 43.0337 189.163 43.3135Z" fill="#263238"/>
<path d="M146.623 62.1762C146.378 62.0751 136.744 59.7124 137.697 70.3834C138.65 81.0544 149.075 77.5803 149.061 77.2694C149.047 76.9585 146.623 62.1762 146.623 62.1762Z" fill="#FFBE9D"/>
<path d="M144.801 73.7643C144.752 73.7643 144.647 73.9119 144.374 74.0829C143.993 74.3142 143.547 74.3754 143.126 74.2539C142.069 73.9508 141.025 72.2487 140.835 70.3679C140.731 69.4559 140.81 68.5295 141.067 67.6554C141.125 67.3044 141.261 66.9749 141.463 66.6968C141.665 66.4187 141.926 66.2006 142.223 66.0622C142.411 65.9851 142.617 65.9833 142.807 66.0571C142.996 66.1309 143.156 66.2756 143.26 66.4663C143.414 66.7461 143.372 66.9715 143.421 66.9793C143.47 66.9871 143.617 66.7772 143.498 66.3497C143.419 66.0907 143.263 65.8688 143.056 65.7202C142.774 65.5274 142.434 65.4659 142.111 65.5492C141.723 65.6789 141.371 65.9172 141.09 66.2411C140.809 66.5651 140.608 66.9638 140.506 67.399C140.178 68.3678 140.069 69.4115 140.191 70.4378C140.443 72.5751 141.592 74.4793 143.042 74.7746C143.309 74.8308 143.583 74.8195 143.846 74.7414C144.108 74.6634 144.35 74.5206 144.556 74.3238C144.808 74.0207 144.836 73.7798 144.801 73.7643Z" fill="#EB996E"/>
<path d="M192.204 27.7306C191.546 31.9741 183.797 35.8679 177.337 35.658C171.403 35.4715 168.468 32.1995 164.159 29.8834C161.427 28.4067 161.427 28.4067 157.72 29.1062C154.729 29.6503 153.173 33.5674 151.492 36.3731C154.694 44.1451 153.398 53.1295 152.038 61.5155C151.981 62.4649 151.638 63.3654 151.065 64.0725C149.986 65.1295 148.262 64.4922 147.169 63.4119C145.467 61.6865 144.689 59.1218 144.136 56.6347C142.778 50.9781 142.454 45.0774 143.183 39.2798C143.923 33.4627 146.186 28.0146 149.691 23.6114C154.271 18.2476 160.553 15.0725 167.207 14.7591C173.825 14.4959 180.351 16.5517 185.857 20.6347C188.407 22.4845 190.796 24.7772 192.232 27.7617" fill="#263238"/>
<path d="M179.432 74.8912L174.528 72.3575C174.258 72.1824 173.95 72.0936 173.638 72.101C173.292 72.1892 172.989 72.4197 172.79 72.7461C172.216 73.5094 171.857 74.4442 171.76 75.433C171.662 76.4217 171.831 77.4203 172.244 78.3031C172.692 79.1639 173.398 79.823 174.239 80.1653C175.081 80.5076 176.003 80.5114 176.847 80.1762C178.584 79.399 179.425 77.1451 179.565 75.0622L179.432 74.8912Z" fill="#EB996E"/>
<path d="M177.001 80.5648C177.001 80.6114 176.77 80.7669 176.3 80.8834C175.598 81.0193 174.876 80.9606 174.198 80.7125C173.165 80.3234 172.299 79.5231 171.767 78.4663C171.432 77.8213 171.231 77.1013 171.179 76.3591C171.127 75.6168 171.225 74.871 171.466 74.1762C171.705 73.4617 172.083 72.8143 172.573 72.2798C172.817 72.0266 173.085 71.8026 173.372 71.6114C173.545 71.4983 173.739 71.4293 173.939 71.4093C174.134 71.4066 174.327 71.4489 174.507 71.5337C174.768 71.68 175.023 71.8408 175.27 72.0156L175.971 72.4741L177.169 73.2979C178.619 74.3238 179.495 75.0078 179.446 75.101C179.397 75.1943 178.43 74.6891 176.91 73.7954L175.67 73.0181L174.969 72.5985C174.742 72.4502 174.508 72.3153 174.269 72.1943C174.183 72.1578 174.09 72.1464 173.999 72.1614C173.908 72.1764 173.822 72.2172 173.75 72.2798C173.521 72.4476 173.305 72.6374 173.105 72.8472C172.69 73.3101 172.366 73.8631 172.153 74.4715C171.949 75.0601 171.863 75.6905 171.899 76.3195C171.935 76.9485 172.094 77.5615 172.363 78.1166C172.8 79.0468 173.516 79.7782 174.388 80.184C174.99 80.4552 175.636 80.5875 176.286 80.5726C176.721 80.557 176.98 80.5026 177.001 80.5648Z" fill="#263238"/>
<path d="M175.452 56.0285C175.382 55.1205 175.254 54.2192 175.067 53.3316C174.494 50.9161 173.203 48.7857 171.403 47.285C170.166 46.2472 168.726 45.5494 167.199 45.2487C165.46 44.897 163.668 45.0661 162.008 45.7383C161.111 46.0926 160.268 46.5958 159.507 47.2306C158.697 47.8772 157.988 48.6645 157.405 49.5622C156.156 51.435 155.482 53.703 155.482 56.0324C155.482 58.3618 156.156 60.6298 157.405 62.5026C157.986 63.4022 158.696 64.1899 159.507 64.8342C160.266 65.4719 161.11 65.9753 162.008 66.3264C163.668 67.0013 165.46 67.173 167.199 66.8239C168.726 66.5209 170.167 65.8204 171.403 64.7798C173.201 63.2807 174.492 61.1534 175.067 58.7409C175.254 57.8508 175.383 56.9469 175.452 56.0363C175.46 56.0982 175.46 56.1609 175.452 56.2228V56.7358C175.452 57.0247 175.431 57.3132 175.389 57.5985C175.35 57.9913 175.286 58.3807 175.2 58.7643C174.977 59.8219 174.611 60.836 174.114 61.772C173.459 63.0211 172.59 64.1166 171.557 64.9974C170.302 66.0697 168.839 66.8016 167.283 67.1347C165.489 67.5098 163.637 67.3489 161.917 66.6684C160.018 65.8994 158.364 64.5294 157.16 62.728C155.865 60.7879 155.167 58.4381 155.167 56.0246C155.167 53.6111 155.865 51.2614 157.16 49.3212C157.757 48.3917 158.488 47.5777 159.324 46.9119C160.109 46.2498 160.981 45.7255 161.91 45.3575C163.628 44.6711 165.481 44.5074 167.276 44.8834C168.693 45.1892 170.035 45.8263 171.213 46.7523C172.391 47.6783 173.378 48.872 174.107 50.2539C174.606 51.1887 174.973 52.2032 175.193 53.2617C175.279 53.6426 175.343 54.0294 175.382 54.4197C175.426 54.7072 175.445 54.9987 175.438 55.2902C175.438 55.5 175.438 55.671 175.438 55.8187C175.453 55.8873 175.458 55.9582 175.452 56.0285Z" fill="#263238"/>
<path d="M199.442 54.9871C199.374 54.1003 199.249 53.2199 199.07 52.3523C198.51 50.0009 197.251 47.928 195.497 46.4689C194.302 45.4619 192.91 44.7804 191.434 44.4793C189.739 44.1409 187.993 44.3072 186.375 44.9611C184.589 45.6853 183.036 46.9808 181.912 48.6839C180.702 50.5097 180.049 52.7168 180.049 54.9832C180.049 57.2495 180.702 59.4566 181.912 61.2824C183.032 62.9831 184.58 64.2784 186.361 65.0052C187.871 65.6199 189.496 65.8047 191.088 65.5426C192.679 65.2806 194.185 64.5801 195.469 63.5052C197.221 62.0399 198.479 59.9657 199.042 57.614C199.221 56.7489 199.345 55.8712 199.414 54.9871C199.431 55.2172 199.431 55.4486 199.414 55.6788C199.416 55.9598 199.397 56.2406 199.358 56.5181C199.321 56.9007 199.26 57.2798 199.175 57.6529C198.732 59.6901 197.77 61.5428 196.403 62.9898C195.037 64.4368 193.324 65.417 191.469 65.8135C189.722 66.1862 187.916 66.0305 186.242 65.3627C185.338 65.006 184.488 64.5003 183.72 63.8627C182.911 63.2156 182.202 62.4283 181.618 61.5311C180.358 59.6388 179.677 57.3478 179.677 54.9948C179.677 52.6418 180.358 50.3509 181.618 48.4586C182.787 46.6965 184.401 45.36 186.256 44.6192C187.931 43.9529 189.735 43.7946 191.483 44.1606C193.338 44.5571 195.051 45.5373 196.417 46.9843C197.784 48.4314 198.746 50.2841 199.189 52.3213C199.274 52.6943 199.335 53.0735 199.372 53.456C199.411 53.7336 199.43 54.0143 199.428 54.2953C199.449 54.5251 199.453 54.7564 199.442 54.9871Z" fill="#263238"/>
<path d="M179.866 52.5233C179.824 52.57 179.593 52.3523 179.166 52.1347C178.615 51.8407 178.011 51.6918 177.4 51.6995C176.792 51.7168 176.196 51.8869 175.656 52.1969C175.235 52.4378 175.011 52.671 174.955 52.6244C174.899 52.5777 175.081 52.2824 175.502 51.956C176.055 51.5354 176.708 51.3055 177.379 51.2953C178.047 51.2857 178.703 51.4879 179.271 51.8782C179.726 52.1891 179.901 52.4922 179.866 52.5233Z" fill="#263238"/>
<path d="M155.962 54.4508C154.575 55.8477 153.11 57.1456 151.576 58.3368C150.113 59.6362 148.572 60.8254 146.966 61.8964C148.354 60.4984 149.821 59.2004 151.359 58.0104C152.82 56.7122 154.358 55.523 155.962 54.4508Z" fill="#263238"/>
<g opacity="0.3">
<path opacity="0.3" d="M147.673 105.031C146.699 115.578 150.315 126.715 157.944 133.104C158.54 133.609 159.289 134.106 159.997 133.819C160.471 133.564 160.848 133.132 161.062 132.598C163.199 128.506 164.001 123.723 163.332 119.052C162.127 122.58 161.09 126.047 159.871 129.731C153.222 125.254 149.081 115.741 147.673 105.031Z" fill="black"/>
</g>
<path opacity="0.3" d="M173.491 129.016L179.096 126.746L180.021 137.246C180.021 137.246 186.06 125.036 188.561 119.464C191.062 113.891 189.773 104.067 189.773 104.067C189.773 104.067 190.663 112.617 184.617 123.552L180.056 131.782V123.163L173.491 129.016Z" fill="black"/>
<g opacity="0.3">
<path opacity="0.3" d="M108.391 182.378C105.836 181.172 103.029 180.779 100.285 181.244C97.3612 181.512 94.5647 182.686 92.2136 184.632C89.9436 186.668 88.4093 189.863 88.7106 193.08L88.9908 193.127C90.9455 187.267 94.8268 183.023 99.8362 182.479C104.845 181.935 109.729 184.438 113.148 188.51C112.797 185.472 110.892 183.684 108.391 182.378Z" fill="black"/>
</g>
<g opacity="0.3">
<path opacity="0.3" d="M249.906 188.37C247.963 186.16 245.426 184.709 242.676 184.236C240.28 183.794 237.826 183.954 235.493 184.703C233.161 185.453 231.009 186.772 229.196 188.565L230.261 187.609C232.969 185.796 236.08 184.859 239.243 184.904C242.419 184.963 245.466 186.312 247.804 188.697C249.906 190.904 251.153 193.889 252.351 196.803C252.545 195.284 252.426 193.736 252.002 192.275C251.579 190.814 250.862 189.479 249.906 188.37Z" fill="black"/>
</g>
<path d="M213.832 139.609C213.888 139.317 213.972 139.033 214.084 138.762C214.301 138.148 214.568 137.394 214.876 136.5C215.577 134.596 216.487 131.961 217.468 129.039C218.449 126.117 219.297 123.443 219.906 121.508L220.607 119.223C220.682 118.936 220.785 118.66 220.915 118.399C220.893 118.697 220.834 118.99 220.74 119.269C220.607 119.821 220.397 120.622 220.124 121.601C219.577 123.56 218.764 126.264 217.783 129.179C216.803 132.093 215.829 134.728 215.086 136.609C214.722 137.549 214.386 138.303 214.189 138.824C214.096 139.099 213.976 139.362 213.832 139.609Z" fill="#263238"/>
<path d="M125.506 140.37C125.408 140.37 124.645 136.694 123.804 132.109C122.963 127.523 122.368 123.793 122.466 123.769C122.564 123.746 123.32 127.446 124.161 132.031C125.002 136.617 125.604 140.347 125.506 140.37Z" fill="#263238"/>
<path d="M124.182 186.606C124.407 186.723 121.618 162.381 121.618 162.381C121.618 162.381 123.377 143.907 124.365 143.052V136.539C124.365 136.539 127.09 134.705 127.819 137.666C127.819 137.666 130.236 135.334 130.656 140.876C131.076 146.417 131.167 152.067 131.167 152.067L136.541 166.982L137.424 167.479C137.424 167.479 138.58 155.821 139.252 154.08C139.925 152.339 140.387 148.181 142.931 148.803C145.474 149.425 145.691 151.772 145.236 155.58C144.78 159.389 144.206 163.352 144.423 165.785C144.64 168.218 145.642 173.666 145.334 177.972C145.025 182.277 142.896 186.816 140.668 190.003C138.44 193.189 134.173 199.78 131.861 201.769C131.076 202.461 124.182 186.606 124.182 186.606Z" fill="#FFBE9D"/>
<path d="M126.901 166.795C126.866 166.449 126.866 166.1 126.901 165.754C126.943 164.977 127.006 164.052 127.076 162.925C127.237 160.539 127.489 157.244 127.776 153.598C127.93 151.788 128.078 150.062 128.211 148.477C128.291 147.746 128.291 147.008 128.211 146.277C128.136 145.652 127.892 145.066 127.51 144.598C127.23 144.263 126.891 143.994 126.514 143.81C126.137 143.625 125.729 143.529 125.317 143.526C125.009 143.546 124.702 143.591 124.399 143.658C124.399 143.658 124.469 143.604 124.624 143.534C124.848 143.44 125.085 143.385 125.324 143.37C126.081 143.311 126.829 143.573 127.418 144.102C128.007 144.632 128.393 145.39 128.498 146.223C128.582 146.982 128.582 147.749 128.498 148.508C128.372 150.062 128.232 151.819 128.092 153.637C127.79 157.275 127.496 160.562 127.265 162.964L126.978 165.777C126.978 166.118 126.953 166.459 126.901 166.795Z" fill="#EB996E"/>
<path d="M129.787 156.839C129.396 157.431 129.075 158.076 128.834 158.759C128.406 160.48 128.109 162.237 127.944 164.013C127.65 166.096 127.37 167.977 127.146 169.329C127.064 170.073 126.918 170.807 126.711 171.521C126.714 170.773 126.775 170.026 126.894 169.29C127.048 167.922 127.293 166.034 127.594 163.951C127.763 162.152 128.104 160.377 128.61 158.658C128.796 158.139 129.058 157.658 129.388 157.236C129.612 156.94 129.773 156.824 129.787 156.839Z" fill="#EB996E"/>
<path d="M127.812 137.339C127.906 137.588 127.97 137.849 128.001 138.117C128.099 138.614 128.218 139.337 128.351 140.238C128.624 142.034 128.911 144.528 129.101 147.303C129.29 150.078 129.325 152.588 129.297 154.407C129.297 155.324 129.262 156.054 129.227 156.567C129.233 156.83 129.204 157.091 129.143 157.345C129.062 156.368 129.027 155.387 129.038 154.407C129.003 152.588 128.918 150.085 128.736 147.319C128.554 144.552 128.302 142.073 128.099 140.269C127.955 139.299 127.859 138.321 127.812 137.339Z" fill="#EB996E"/>
<path d="M143.316 160.166C143.049 160.354 142.746 160.468 142.431 160.498C142.116 160.528 141.8 160.472 141.508 160.337C140.478 159.995 140.002 159.117 140.107 159.07C140.59 159.411 141.099 159.704 141.627 159.948C142.184 160.073 142.749 160.145 143.316 160.166Z" fill="#EB996E"/>
<path d="M124.484 183.575L110.29 190.197H101.826C101.826 190.197 93.461 193.096 92.1719 201.793C90.8828 210.49 90.7006 215.005 94.3788 216.054C98.057 217.104 108.447 217.244 113.596 215.355C118.746 213.466 132.239 201.365 132.239 201.365L133.536 192.63L124.484 183.575Z" fill="#FFBE9D"/>
<path d="M127.811 193.189C127.811 193.189 127.65 193.065 127.412 192.785C127.069 192.381 126.76 191.944 126.487 191.479C125.6 189.941 124.931 188.261 124.504 186.497C124.064 184.746 123.771 182.954 123.629 181.143C123.534 180.399 123.515 179.645 123.573 178.896C123.724 179.625 123.827 180.366 123.881 181.111C124.097 182.893 124.422 184.656 124.855 186.389C125.277 188.115 125.899 189.774 126.704 191.324C127.342 192.505 127.86 193.143 127.811 193.189Z" fill="#EB996E"/>
<path d="M133.998 195.956C134.374 194.864 134.644 193.731 134.804 192.575C134.937 191.325 134.881 190.058 134.635 188.829C134.317 187.326 133.726 185.912 132.898 184.671C132.036 183.334 131.062 182.161 130.25 181.034C129.5 180.047 128.856 178.967 128.33 177.816C127.98 177.033 127.744 176.194 127.629 175.329C127.586 175.012 127.586 174.69 127.629 174.373C127.792 175.526 128.118 176.644 128.596 177.684C129.15 178.792 129.805 179.834 130.551 180.793C131.371 181.896 132.352 183.062 133.234 184.43C134.023 185.585 134.596 186.903 134.917 188.308C135.238 189.712 135.302 191.174 135.105 192.606C134.987 193.468 134.768 194.31 134.453 195.109C134.368 195.327 134.272 195.539 134.166 195.746C134.047 195.894 134.005 195.964 133.998 195.956Z" fill="#EB996E"/>
<path d="M112.096 158.021C110.834 155.757 109.679 153.423 108.635 151.026C106.814 147.14 105.413 143.907 105.497 143.852C106.756 146.118 107.911 148.452 108.958 150.847C110.111 153.179 111.159 155.573 112.096 158.021Z" fill="white"/>
<path d="M135.07 129.661C135.669 127.672 136.383 125.727 137.207 123.839C137.922 121.897 138.748 120.007 139.68 118.181C139.078 120.169 138.364 122.114 137.543 124.003C136.828 125.945 136.002 127.835 135.07 129.661Z" fill="white"/>
<path d="M157.559 148.073C156.397 146.832 155.319 145.497 154.336 144.078C153.266 142.739 152.285 141.316 151.401 139.819C152.563 141.059 153.641 142.395 154.624 143.813C155.698 145.148 156.68 146.572 157.559 148.073Z" fill="white"/>
<path d="M152.382 173.386C153.091 171.964 153.901 170.607 154.806 169.329C155.616 167.975 156.528 166.698 157.531 165.513C156.82 166.934 156.01 168.29 155.107 169.57C154.294 170.923 153.383 172.199 152.382 173.386Z" fill="white"/>
<path d="M145.417 209.137C145.087 208.659 144.811 208.137 144.598 207.583C144.135 206.588 143.54 205.197 142.937 203.627C142.335 202.057 141.851 200.619 141.536 199.562C141.32 199.006 141.172 198.421 141.095 197.821C141.374 198.342 141.609 198.891 141.795 199.461L143.302 203.471L144.857 207.459C145.098 207.994 145.286 208.557 145.417 209.137Z" fill="white"/>
<path d="M165.203 193.943C163.77 193.838 162.348 193.601 160.95 193.236C159.524 192.997 158.118 192.628 156.747 192.132C158.18 192.227 159.604 192.464 160.999 192.839C162.426 193.073 163.833 193.442 165.203 193.943Z" fill="white"/>
<path d="M180.553 160.531C181.807 158.724 183.16 157.003 184.603 155.378C185.957 153.66 187.403 152.033 188.932 150.505C187.67 152.307 186.316 154.028 184.876 155.658C183.52 157.373 182.077 159 180.553 160.531Z" fill="white"/>
<path d="M195.987 205.088C195.91 205.158 193.647 202.251 190.929 198.591C188.211 194.93 186.074 191.915 186.151 191.837C186.228 191.759 188.491 194.674 191.209 198.334C193.928 201.995 196.065 205.018 195.987 205.088Z" fill="white"/>
<path d="M100.186 186.093C100.236 186.21 98.1687 187.376 95.9128 189.295C93.6568 191.215 92.0875 193.104 92.0034 193.018C92.2616 192.531 92.5826 192.089 92.9562 191.705C93.7968 190.71 94.7108 189.795 95.6886 188.969C96.6658 188.145 97.7014 187.409 98.7853 186.769C99.2216 186.473 99.6933 186.245 100.186 186.093Z" fill="white"/>
<path d="M105.932 168.925C105.486 170.025 104.934 171.067 104.285 172.034C103.733 173.073 103.078 174.04 102.331 174.917C102.776 173.817 103.328 172.775 103.977 171.808C104.529 170.769 105.185 169.802 105.932 168.925Z" fill="white"/>
<path d="M118.935 185.79C117.813 183.811 117.334 181.467 117.576 179.145C117.681 179.145 117.716 180.699 118.101 182.503C118.487 184.306 119.033 185.751 118.935 185.79Z" fill="white"/>
<path d="M120.861 132.225C119.99 132.563 119.084 132.774 118.164 132.855C117.259 133.061 116.333 133.137 115.411 133.08C116.284 132.744 117.193 132.532 118.115 132.451C119.017 132.24 119.941 132.164 120.861 132.225Z" fill="white"/>
<path d="M130.628 113.005C129.911 113.68 129.117 114.247 128.267 114.692C127.476 115.252 126.624 115.698 125.731 116.021C127.24 114.782 128.889 113.768 130.635 113.005H130.628Z" fill="white"/>
<path d="M158.098 121.119C157.106 120.009 156.204 118.805 155.401 117.521C154.497 116.304 153.688 115.004 152.984 113.635C153.977 114.745 154.882 115.949 155.688 117.233C156.593 118.448 157.399 119.748 158.098 121.119Z" fill="white"/>
<path d="M192.968 140.448C191.965 139.438 191.114 138.258 190.445 136.951C189.685 135.706 189.106 134.337 188.729 132.894C188.834 132.839 189.584 134.658 190.761 136.733C191.938 138.808 193.052 140.37 192.968 140.448Z" fill="white"/>
<path d="M206.279 145.337C205.913 146.723 205.43 148.069 204.836 149.355C204.358 150.711 203.762 152.013 203.057 153.241C203.429 151.855 203.914 150.51 204.507 149.223C204.988 147.869 205.581 146.569 206.279 145.337Z" fill="white"/>
<path d="M208.143 125.13C206.885 123.755 205.714 122.285 204.64 120.731C203.456 119.262 202.365 117.704 201.375 116.067C202.647 117.441 203.831 118.911 204.92 120.466C206.086 121.94 207.163 123.498 208.143 125.13Z" fill="white"/>
<path d="M187.812 108.808C187.59 107.567 187.485 106.304 187.496 105.039C187.391 103.781 187.407 102.515 187.545 101.262C187.771 102.499 187.877 103.761 187.861 105.023C187.97 106.283 187.953 107.552 187.812 108.808Z" fill="white"/>
<path d="M204.388 107.775C202.968 108.187 201.52 108.468 200.058 108.614C198.614 108.895 197.152 109.046 195.686 109.065C197.105 108.647 198.554 108.364 200.016 108.218C201.459 107.931 202.922 107.783 204.388 107.775Z" fill="white"/>
<path d="M230.499 129.016C229.525 127.242 228.655 125.402 227.893 123.505C227.026 121.671 226.268 119.775 225.623 117.832C226.599 119.6 227.467 121.438 228.222 123.334C229.092 125.171 229.852 127.069 230.499 129.016Z" fill="white"/>
<path d="M226.099 147.42C226.175 145.927 226.379 144.447 226.709 142.997C226.92 141.519 227.25 140.065 227.697 138.653C227.613 140.144 227.409 141.624 227.087 143.075C226.873 144.553 226.542 146.006 226.099 147.42Z" fill="white"/>
<path d="M238.206 161.915C237.389 159.978 236.687 157.984 236.104 155.946C235.411 153.952 234.833 151.912 234.374 149.837C235.185 151.776 235.887 153.77 236.475 155.806C237.168 157.8 237.746 159.84 238.206 161.915Z" fill="white"/>
<path d="M236.518 170.386C235.278 170.182 234.087 169.706 233.015 168.987C231.873 168.378 230.856 167.519 230.023 166.461C230.093 166.368 231.382 167.557 233.19 168.63C234.997 169.702 236.553 170.269 236.518 170.386Z" fill="white"/>
<path d="M252.028 189.715C251.085 188.018 250.352 186.188 249.85 184.275C250.793 185.971 251.526 187.801 252.028 189.715Z" fill="white"/>
<path d="M160.439 216.668C159.963 214.396 159.728 212.069 159.738 209.736C160.044 210.855 160.227 212.011 160.285 213.179C160.457 214.332 160.509 215.502 160.439 216.668Z" fill="white"/>
<path d="M208.01 215.332C208.041 214.194 208.194 213.064 208.465 211.966C208.623 210.842 208.898 209.741 209.285 208.687C209.253 209.825 209.097 210.955 208.822 212.052C208.669 213.177 208.396 214.278 208.01 215.332Z" fill="white"/>
<path d="M217.132 61.2207L223.29 49.1896C219.488 42.3398 218.133 34.16 219.491 26.2582C220.85 18.3563 224.823 11.3038 230.631 6.48693C236.439 1.67005 243.66 -0.562825 250.877 0.227195C258.093 1.01721 264.782 4.77299 269.629 10.7563C274.476 16.7396 277.13 24.5177 277.07 32.5617C277.01 40.6057 274.24 48.3338 269.304 54.227C264.368 60.1202 257.624 63.7523 250.397 64.4094C243.169 65.0664 235.982 62.7008 230.247 57.7777L217.132 61.2207Z" fill="#FAFAFA"/>
<path d="M217.132 61.2202L230.282 57.886H230.415L230.331 57.7617L230.205 57.9016C232.049 59.4838 234.052 60.8243 236.174 61.8964C238.706 63.1494 241.386 63.9972 244.133 64.4145C245.655 64.6503 247.193 64.7361 248.729 64.671C249.521 64.6244 250.319 64.601 251.132 64.5233L253.584 64.1114C259.251 62.8818 264.464 59.819 268.564 55.3088C272.665 50.7986 275.47 45.0428 276.627 38.7668C277.461 34.0221 277.344 29.132 276.284 24.443C275.184 19.5538 273.052 15.0249 270.063 11.2306L268.879 9.78498C268.486 9.29534 268.024 8.8912 267.603 8.44819C267.183 8.00518 266.763 7.54664 266.286 7.17358L264.885 6.01555C264.424 5.60214 263.937 5.22554 263.428 4.8886L261.964 3.88601L260.422 3.10881C259.918 2.8164 259.398 2.55689 258.867 2.33161C254.738 0.506776 250.29 -0.260993 245.857 0.0854945C241.678 0.397247 237.612 1.72387 233.946 3.97151C227.351 8.04628 222.42 14.7772 220.172 22.772C219.276 26.1705 218.851 29.7006 218.911 33.2409C218.983 36.3131 219.455 39.3576 220.313 42.2798C221.034 44.7064 222.01 47.0306 223.22 49.2047V49.1114C219.339 56.829 217.44 60.5985 217.139 61.1891L223.374 49.2047V49.158V49.1114C222.184 46.9422 221.227 44.6259 220.523 42.2099C219.671 39.3075 219.199 36.2844 219.122 33.2332C219.075 29.7253 219.507 26.2298 220.404 22.8653C222.652 14.9631 227.544 8.31626 234.072 4.29016C237.717 2.06355 241.76 0.75781 245.913 0.466324C250.281 0.128788 254.662 0.880326 258.734 2.66581C259.261 2.8848 259.774 3.1445 260.268 3.44301L261.795 4.22021L263.246 5.20726C263.735 5.51535 264.204 5.86346 264.647 6.24871L266.048 7.3912C266.5 7.78557 266.932 8.20583 267.344 8.65026C267.765 9.09327 268.22 9.48187 268.605 9.96373L269.775 11.3938C272.731 15.1519 274.839 19.6351 275.927 24.4741C276.98 29.1034 277.097 33.9337 276.27 38.6192C275.471 43.0543 273.822 47.2473 271.436 50.9145C267.149 57.5559 260.743 62.1381 253.521 63.7306L251.09 64.1425C250.284 64.2202 249.493 64.2435 248.708 64.2979C247.187 64.3681 245.663 64.2875 244.154 64.057C241.428 63.6564 238.767 62.8268 236.251 61.5933C234.137 60.547 232.141 59.2297 230.303 57.6684L229.764 57.2099L230.177 57.8083L230.226 57.6529L217.132 61.2202Z" fill="#263238"/>
<path d="M255.833 30.9948C255.84 31.608 256.01 32.2052 256.322 32.7113C256.635 33.2174 257.075 33.6098 257.587 33.8391C258.1 34.0685 258.662 34.1245 259.203 34.0002C259.745 33.8759 260.241 33.5768 260.629 33.1405C261.018 32.7042 261.281 32.1503 261.386 31.5483C261.492 30.9463 261.434 30.3233 261.221 29.7575C261.008 29.1917 260.649 28.7084 260.189 28.3685C259.729 28.0286 259.188 27.8472 258.636 27.8472C258.265 27.8471 257.897 27.9288 257.555 28.0875C257.213 28.2461 256.902 28.4786 256.642 28.7714C256.381 29.0642 256.175 29.4115 256.036 29.7932C255.898 30.1749 255.829 30.5833 255.833 30.9948Z" fill="#263238"/>
<path d="M244.511 30.9948C244.518 31.608 244.689 32.2052 245.001 32.7113C245.313 33.2174 245.753 33.6098 246.265 33.8391C246.778 34.0685 247.34 34.1245 247.882 34.0002C248.423 33.8759 248.919 33.5768 249.308 33.1405C249.696 32.7042 249.959 32.1503 250.065 31.5483C250.17 30.9463 250.113 30.3233 249.899 29.7575C249.686 29.1917 249.327 28.7084 248.867 28.3685C248.407 28.0286 247.867 27.8472 247.314 27.8472C246.943 27.8471 246.576 27.9288 246.233 28.0875C245.891 28.2461 245.58 28.4786 245.32 28.7714C245.059 29.0642 244.853 29.4115 244.715 29.7932C244.576 30.1749 244.507 30.5833 244.511 30.9948Z" fill="#263238"/>
<path d="M233.176 29.4171C232.905 29.9504 232.782 30.5605 232.822 31.171C232.863 31.7815 233.065 32.3652 233.403 32.8488C233.741 33.3325 234.201 33.6946 234.724 33.8898C235.247 34.0849 235.81 34.1045 236.343 33.946C236.876 33.7874 237.355 33.4579 237.72 32.9986C238.085 32.5394 238.319 31.9709 238.394 31.3644C238.469 30.7579 238.38 30.1405 238.14 29.5894C237.9 29.0384 237.518 28.5783 237.043 28.2668C236.722 28.0564 236.367 27.9191 235.997 27.8631C235.628 27.807 235.252 27.8333 234.892 27.9405C234.531 28.0476 234.194 28.2334 233.9 28.4869C233.605 28.7405 233.359 29.0567 233.176 29.4171Z" fill="#263238"/>
</svg>
