<svg width="280" height="253" viewBox="0 0 280 253" fill="none" xmlns="http://www.w3.org/2000/svg">
<path d="M164.318 0H43.8872V25.2182H164.318V0Z" fill="#E6E6E6"/>
<path d="M47.0469 22.4952H161.158V2.72302H47.0469V22.4952Z" fill="white"/>
<path d="M68.7816 20.1418C73.6094 20.1418 77.5231 16.7693 77.5231 12.6091C77.5231 8.44892 73.6094 5.07642 68.7816 5.07642C63.9538 5.07642 60.04 8.44892 60.04 12.6091C60.04 16.7693 63.9538 20.1418 68.7816 20.1418Z" fill="#1EA5FC"/>
<path d="M148.165 9.6615H89.6851V11.299H148.165V9.6615Z" fill="#00ADB5"/>
<path d="M148.165 13.9191H89.6851V15.5567H148.165V13.9191Z" fill="#00ADB5"/>
<path d="M120.431 42.4402H0V67.6584H120.431V42.4402Z" fill="#E6E6E6"/>
<path d="M3.15967 64.9354H117.271V45.1632H3.15967V64.9354Z" fill="white"/>
<path d="M24.8944 62.582C29.7222 62.582 33.6359 59.2095 33.6359 55.0493C33.6359 50.8891 29.7222 47.5166 24.8944 47.5166C20.0666 47.5166 16.1528 50.8891 16.1528 55.0493C16.1528 59.2095 20.0666 62.582 24.8944 62.582Z" fill="#E6E6E6"/>
<path d="M104.279 52.1017H45.7983V53.7393H104.279V52.1017Z" fill="#E6E6E6"/>
<path d="M104.279 56.3593H45.7983V57.9969H104.279V56.3593Z" fill="#E6E6E6"/>
<path d="M120.431 84.8804H0V110.099H120.431V84.8804Z" fill="#E6E6E6"/>
<path d="M3.15967 107.376H117.271V87.6035H3.15967V107.376Z" fill="white"/>
<path d="M24.8944 105.022C29.7222 105.022 33.6359 101.65 33.6359 97.4895C33.6359 93.3294 29.7222 89.9568 24.8944 89.9568C20.0666 89.9568 16.1528 93.3294 16.1528 97.4895C16.1528 101.65 20.0666 105.022 24.8944 105.022Z" fill="#E6E6E6"/>
<path d="M104.279 94.5419H45.7983V96.1795H104.279V94.5419Z" fill="#E6E6E6"/>
<path d="M104.279 98.7996H45.7983V100.437H104.279V98.7996Z" fill="#E6E6E6"/>
<path d="M280 235.905H121.991V236.846H280V235.905Z" fill="#3F3D56"/>
<path d="M188.504 38.0989L196.278 54.5887L201.062 65.9254L213.62 49.9509C213.62 49.9509 205.846 43.2519 205.846 34.4918L188.504 38.0989Z" fill="#A0616A"/>
<path d="M165.182 213.303L161.594 228.762L171.76 235.976L175.946 213.303H165.182Z" fill="#A0616A"/>
<path d="M223.786 209.696L222.59 228.247L232.756 226.7L233.952 210.726L223.786 209.696Z" fill="#A0616A"/>
<path d="M197.175 46.6014C204.771 46.6014 210.929 41.2951 210.929 34.7494C210.929 28.2037 204.771 22.8973 197.175 22.8973C189.579 22.8973 183.421 28.2037 183.421 34.7494C183.421 41.2951 189.579 46.6014 197.175 46.6014Z" fill="#A0616A"/>
<path d="M228.57 83.9611C228.57 83.9611 233.354 120.032 229.766 120.032C226.178 120.032 208.836 116.941 205.248 114.364C201.66 111.788 190.298 112.818 190.298 112.818C190.298 112.818 181.926 118.487 177.74 115.395C173.554 112.303 180.73 76.2315 180.73 76.2315L178.936 54.0734C178.936 54.0734 186.71 52.0121 190.298 55.104L191.392 53.9857L194.502 50.8218L199.268 54.5887L199.322 54.7639L201.062 60.257C201.062 60.257 203.609 52.7954 205.409 51.2392C205.532 51.1278 205.681 51.04 205.846 50.9815C207.64 50.4662 210.793 46.8415 210.793 46.8415L217.89 49.9664L218.404 50.4662L233.354 54.0734L228.57 83.9611Z" fill="#E6E6E6"/>
<path d="M181.328 113.333L180.132 118.487C180.132 118.487 173.554 119.517 175.348 130.339L170.564 168.471L162.79 215.879L177.142 217.425L204.65 147.344L221.394 213.818H236.344L233.354 139.614C233.354 139.614 235.746 124.155 227.374 116.941C219.002 109.726 188.504 109.211 181.328 113.333Z" fill="#2F2E41"/>
<path d="M167.574 229.793C167.574 229.793 168.77 225.67 165.78 225.155C162.79 224.64 160.398 226.701 159.8 227.731C159.202 228.762 145.448 243.191 145.448 243.191C145.448 243.191 135.282 253.497 150.232 252.981C165.182 252.466 165.78 246.282 165.78 246.282C165.78 246.282 165.78 245.252 168.77 245.252C171.76 245.252 179.534 241.645 178.936 239.068C178.338 236.492 173.309 227.586 173.309 227.586C173.309 227.586 169.966 234.946 167.574 229.793Z" fill="#2F2E41"/>
<path d="M233.952 223.609C233.952 223.609 228.57 220.517 225.58 222.578C222.59 224.64 221.394 225.155 221.394 225.155L221.346 225.467C220.814 229.281 221.3 233.15 222.767 236.778C223.122 237.694 222.424 238.353 222.59 239.068C223.487 242.933 224.384 247.828 233.354 245.767C242.324 243.706 233.952 223.609 233.952 223.609Z" fill="#2F2E41"/>
<path d="M229.766 124.67C229.766 124.67 219.6 133.946 225.58 137.038C231.56 140.129 235.148 127.247 235.148 127.247L229.766 124.67Z" fill="#A0616A"/>
<path d="M163.433 28.1319C163.433 28.1319 170.487 16.9145 163.785 15.2528C157.083 13.5911 157.463 26.8355 157.463 26.8355L163.433 28.1319Z" fill="#A0616A"/>
<path d="M225.58 55.6193L233.354 54.0734C233.354 54.0734 241.726 59.7417 244.716 79.3233C247.706 98.9049 236.344 130.339 236.344 130.339L227.374 125.701C227.374 125.701 232.158 100.966 231.56 97.359C230.962 93.7519 227.374 79.8386 227.374 79.8386L225.58 55.6193Z" fill="#E6E6E6"/>
<path d="M186.416 22.0181L183.915 21.2342C183.915 21.2342 189.146 16.7264 196.424 17.1184L194.377 15.3545C194.377 15.3545 199.381 13.7866 203.929 17.9024C206.321 20.0659 209.087 22.6091 210.812 25.4739H213.491L212.373 27.4011L216.287 29.3284L212.27 28.9822C212.65 30.646 212.519 32.3667 211.89 33.9734L210.98 36.1293C210.98 36.1293 207.341 29.8577 207.341 29.0737V31.0336C207.341 31.0336 204.839 29.2697 204.839 28.0938L203.474 29.4657L202.792 27.3098L194.377 29.4657L195.741 27.7018L190.51 28.2898L192.557 26.1339C192.557 26.1339 187.607 29.081 186.416 30.8376C185.15 32.7069 183.232 35.7373 183.232 35.7373L181.868 33.7775C181.868 33.7775 179.821 24.9579 186.416 22.0181Z" fill="#2F2E41"/>
<path d="M181.926 55.104L178.936 54.0734L163.089 52.2698L163.986 27.7928L156.81 22.1244C156.81 22.1244 137.076 53.0428 157.408 64.3795C177.74 75.7162 184.318 77.7774 184.318 77.7774L181.926 55.104Z" fill="#E6E6E6"/>
</svg>
