<svg width="308" height="228" viewBox="0 0 308 228" fill="none" xmlns="http://www.w3.org/2000/svg">
<g clip-path="url(#clip0)">
<path d="M114.161 140.779L50.4026 154.218C48.5601 154.604 46.6396 154.244 45.0625 153.216C43.4854 152.188 42.3804 150.576 41.99 148.734L31.0492 96.8284C30.663 94.9858 31.0234 93.0653 32.0514 91.4882C33.0794 89.9111 34.691 88.8062 36.5327 88.4158L100.291 74.9766C102.134 74.5904 104.054 74.9508 105.631 75.9788C107.209 77.0068 108.314 78.6185 108.704 80.4601L119.645 132.366C120.031 134.209 119.671 136.129 118.643 137.706C117.615 139.283 116.003 140.388 114.161 140.779ZM36.705 89.2332C35.08 89.5777 33.658 90.5526 32.7509 91.9442C31.8439 93.3358 31.5258 95.0303 31.8666 96.6561L42.8075 148.562C43.1519 150.187 44.1269 151.609 45.5184 152.516C46.91 153.423 48.6046 153.741 50.2303 153.401L113.989 139.961C115.614 139.617 117.036 138.642 117.943 137.25C118.85 135.859 119.168 134.164 118.827 132.538L107.886 80.6324C107.542 79.0074 106.567 77.5854 105.175 76.6783C103.784 75.7713 102.089 75.4533 100.464 75.794L36.705 89.2332Z" fill="#3F3D56"/>
<path d="M96.33 92.0915L64.1518 98.8741C63.8702 98.9394 63.5743 98.8954 63.3239 98.751C63.0735 98.6065 62.8874 98.3724 62.803 98.0959C62.7644 97.9517 62.7556 97.8012 62.7771 97.6535C62.7986 97.5058 62.85 97.364 62.9281 97.2368C63.0062 97.1096 63.1094 96.9997 63.2314 96.9137C63.3535 96.8277 63.4917 96.7675 63.6378 96.7367L96.3931 89.8325C97.6721 90.5532 97.2678 91.8938 96.3295 92.0916L96.33 92.0915Z" fill="#CCCCCC"/>
<path d="M97.5194 97.7359L65.3413 104.518C65.0597 104.584 64.7638 104.54 64.5134 104.395C64.263 104.251 64.0768 104.017 63.9924 103.74C63.9538 103.596 63.945 103.446 63.9666 103.298C63.9881 103.15 64.0395 103.008 64.1176 102.881C64.1957 102.754 64.2989 102.644 64.4209 102.558C64.5429 102.472 64.6812 102.412 64.8272 102.381L97.5826 95.4768C98.8615 96.1976 98.4573 97.5382 97.519 97.736L97.5194 97.7359Z" fill="#CCCCCC"/>
<path d="M59.0624 109.198L49.242 111.268C48.9213 111.335 48.587 111.273 48.3124 111.094C48.0379 110.915 47.8456 110.634 47.7777 110.314L45.3349 98.7248C45.2677 98.4041 45.3304 98.0698 45.5093 97.7953C45.6883 97.5207 45.9688 97.3284 46.2894 97.2605L56.1099 95.1905C56.4306 95.1234 56.7648 95.1861 57.0393 95.3651C57.3138 95.544 57.5061 95.8245 57.5741 96.145L60.0169 107.734C60.0842 108.055 60.0214 108.389 59.8425 108.663C59.6635 108.938 59.383 109.13 59.0624 109.198V109.198Z" fill="#CCCCCC"/>
<path d="M99.8616 109.312L50.7519 119.664C50.4703 119.729 50.1744 119.685 49.924 119.541C49.6736 119.396 49.4874 119.162 49.4031 118.885C49.3645 118.741 49.3557 118.591 49.3772 118.443C49.3987 118.295 49.4501 118.154 49.5282 118.026C49.6063 117.899 49.7095 117.789 49.8315 117.703C49.9536 117.617 50.0918 117.557 50.2379 117.526L99.9252 107.053C101.204 107.774 100.8 109.114 99.8616 109.312Z" fill="#CCCCCC"/>
<path d="M101.052 114.958L51.9424 125.31C51.6608 125.375 51.3649 125.331 51.1145 125.186C50.8641 125.042 50.6779 124.808 50.5935 124.531C50.5549 124.387 50.5461 124.237 50.5676 124.089C50.5891 123.941 50.6405 123.799 50.7186 123.672C50.7968 123.545 50.9 123.435 51.022 123.349C51.144 123.263 51.2822 123.203 51.4283 123.172L101.116 112.699C102.395 113.42 101.99 114.76 101.052 114.958Z" fill="#CCCCCC"/>
<path d="M102.241 120.6L53.1313 130.952C52.8497 131.017 52.5538 130.973 52.3034 130.829C52.0531 130.684 51.8668 130.45 51.7825 130.174C51.7439 130.029 51.7351 129.879 51.7566 129.731C51.7781 129.583 51.8295 129.442 51.9076 129.315C51.9857 129.187 52.0889 129.077 52.211 128.991C52.333 128.905 52.4712 128.845 52.6173 128.814L102.305 118.341C103.584 119.062 103.179 120.403 102.241 120.6H102.241Z" fill="#CCCCCC"/>
<path d="M103.431 126.246L54.3213 136.597C54.0397 136.662 53.7438 136.618 53.4934 136.474C53.243 136.33 53.0568 136.095 52.9724 135.819C52.9338 135.675 52.925 135.524 52.9465 135.377C52.968 135.229 53.0194 135.087 53.0975 134.96C53.1757 134.833 53.2789 134.723 53.4009 134.637C53.5229 134.551 53.6611 134.491 53.8072 134.46L103.495 123.987C104.773 124.707 104.369 126.048 103.431 126.246Z" fill="#CCCCCC"/>
<path d="M104.62 131.888L55.5107 142.24C55.2291 142.305 54.9332 142.261 54.6828 142.117C54.4324 141.972 54.2462 141.738 54.1619 141.462C54.1233 141.317 54.1145 141.167 54.136 141.019C54.1575 140.872 54.2089 140.73 54.287 140.603C54.3651 140.475 54.4683 140.365 54.5903 140.279C54.7123 140.193 54.8506 140.133 54.9967 140.102L104.684 129.629C105.963 130.35 105.559 131.691 104.62 131.888Z" fill="#CCCCCC"/>
<path d="M112.454 106.047C112.343 106.25 112.247 106.461 112.169 106.678L92.064 111.667L88.5665 108.049L82.416 112.614L87.9852 119.621C88.4351 120.187 89.0565 120.592 89.7561 120.775C90.4557 120.957 91.1957 120.908 91.8651 120.635L113.681 111.72C114.398 112.248 115.259 112.545 116.148 112.572C117.038 112.599 117.915 112.354 118.663 111.87C119.41 111.386 119.993 110.686 120.332 109.863C120.672 109.04 120.754 108.133 120.565 107.263C120.377 106.393 119.929 105.6 119.279 104.991C118.63 104.382 117.81 103.985 116.93 103.853C116.049 103.721 115.149 103.861 114.35 104.253C113.55 104.644 112.889 105.271 112.454 106.047L112.454 106.047Z" fill="#FFB8B8"/>
<path d="M43.829 150.444C44.4558 150.251 45.0325 149.922 45.5185 149.482C46.0045 149.041 46.3881 148.499 46.6421 147.895C46.8961 147.29 47.0144 146.637 46.9886 145.981C46.9629 145.326 46.7938 144.684 46.4931 144.101L60.3288 105.645L50.7204 103.942L40.1417 142.278C39.1957 142.848 38.4917 143.745 38.1629 144.8C37.8342 145.854 37.9037 146.993 38.3582 147.999C38.8127 149.006 39.6207 149.811 40.629 150.261C41.6373 150.712 42.7759 150.777 43.829 150.444Z" fill="#FFB8B8"/>
<path d="M58.5717 112.472L49.085 108.831C48.815 108.727 48.5706 108.566 48.3683 108.36C48.1661 108.153 48.0107 107.906 47.9128 107.633C47.8149 107.361 47.7768 107.072 47.801 106.783C47.8253 106.495 47.9114 106.216 48.0534 105.964L53.0302 97.14C53.5684 95.7625 54.6308 94.6546 55.9845 94.059C57.3382 93.4635 58.8728 93.4289 60.2519 93.9628C61.6311 94.4968 62.7423 95.5557 63.3421 96.9076C63.9418 98.2594 63.9812 99.7939 63.4515 101.175L61.2563 111.031C61.1934 111.313 61.0704 111.579 60.8956 111.809C60.7209 112.039 60.4986 112.229 60.2439 112.366C59.9891 112.503 59.7079 112.583 59.4193 112.601C59.1308 112.619 58.8417 112.575 58.5717 112.472V112.472Z" fill="#00ADB5"/>
<path d="M79.9847 222.643H85.1052L87.5416 202.891L79.9839 202.892L79.9847 222.643Z" fill="#FFB8B8"/>
<path d="M78.6782 220.972L88.7628 220.971H88.7633C89.6072 220.971 90.4429 221.137 91.2227 221.46C92.0024 221.783 92.7109 222.257 93.3077 222.853C93.9045 223.45 94.3779 224.159 94.7008 224.938C95.0238 225.718 95.19 226.554 95.19 227.398V227.607L78.6785 227.607L78.6782 220.972Z" fill="#2F2E41"/>
<path d="M51.1639 222.643H56.2844L58.7208 202.891L51.1631 202.892L51.1639 222.643Z" fill="#FFB8B8"/>
<path d="M49.8579 220.972L59.9425 220.971H59.9429C60.7869 220.971 61.6226 221.137 62.4024 221.46C63.1821 221.783 63.8906 222.257 64.4874 222.853C65.0841 223.45 65.5575 224.159 65.8805 224.938C66.2035 225.718 66.3697 226.554 66.3697 227.398V227.607L49.8582 227.607L49.8579 220.972Z" fill="#2F2E41"/>
<path d="M56.5322 214.693H50.0519C49.7976 214.693 49.5459 214.642 49.3121 214.542C49.0783 214.442 48.8672 214.295 48.6917 214.111C48.5162 213.927 48.3799 213.709 48.2909 213.471C48.202 213.232 48.1624 212.979 48.1745 212.725L51.2526 146.591L51.4465 146.586L82.7395 145.77L88.863 211.941C88.8866 212.189 88.8605 212.44 88.7865 212.678C88.7125 212.916 88.5918 213.136 88.4317 213.327C88.2715 213.518 88.075 213.675 87.8535 213.79C87.6321 213.904 87.3902 213.973 87.1418 213.993L79.863 214.575C79.4057 214.611 78.951 214.479 78.5842 214.204C78.2175 213.928 77.9642 213.528 77.8718 213.079L68.5614 165.973C68.536 165.83 68.4601 165.701 68.3476 165.609C68.235 165.517 68.0931 165.468 67.9478 165.472H67.9453C67.7995 165.469 67.6574 165.518 67.5449 165.611C67.4325 165.704 67.3572 165.834 67.3328 165.978L58.3765 213.177C58.2916 213.604 58.0616 213.988 57.7254 214.265C57.3892 214.541 56.9675 214.693 56.5322 214.693Z" fill="#2F2E41"/>
<path d="M68.4029 87.6082C74.0688 87.6082 78.6618 83.0151 78.6618 77.3493C78.6618 71.6835 74.0688 67.0904 68.4029 67.0904C62.7371 67.0904 58.144 71.6835 58.144 77.3493C58.144 83.0151 62.7371 87.6082 68.4029 87.6082Z" fill="#FFB8B8"/>
<path d="M64.9632 154.341C60.0736 154.341 55.0514 153.056 50.8879 149.256C50.6664 149.055 50.4953 148.805 50.3887 148.525C50.282 148.246 50.2428 147.945 50.2742 147.648C50.7198 143.644 52.8814 122.97 51.6641 109.16C51.4265 106.581 51.7917 103.981 52.7308 101.567C53.6699 99.1531 55.1573 96.9903 57.0755 95.2494C58.9601 93.5124 61.2226 92.2372 63.6844 91.5244C66.1462 90.8115 68.74 90.6806 71.2611 91.1418H71.2612C71.389 91.1646 71.5167 91.1887 71.6445 91.2132C79.8578 92.8028 85.5644 100.404 84.9187 108.894C83.9765 121.283 83.1318 138.041 84.4581 147.517C84.5131 147.905 84.4454 148.3 84.2645 148.647C84.0836 148.995 83.7986 149.277 83.4495 149.454C80.4317 150.979 72.871 154.341 64.9632 154.341Z" fill="#1EA5FC"/>
<path d="M78.3494 113.21C78.1087 113.05 77.9054 112.839 77.7533 112.593C77.6012 112.347 77.504 112.072 77.4683 111.785L76.2184 101.764C75.8217 100.339 76.0062 98.8153 76.7314 97.5261C77.4567 96.2369 78.6636 95.2879 80.0875 94.8871C81.5114 94.4864 83.0361 94.6666 84.3274 95.3883C85.6186 96.11 86.571 97.3142 86.9757 98.737L91.0925 107.993C91.21 108.258 91.2692 108.544 91.266 108.833C91.2628 109.122 91.1973 109.407 91.074 109.669C90.9508 109.93 90.7726 110.162 90.5516 110.349C90.3306 110.535 90.0721 110.672 89.7935 110.749L80.004 113.473C79.7255 113.551 79.4335 113.568 79.1479 113.522C78.8624 113.477 78.59 113.37 78.3494 113.21Z" fill="#00ADB5"/>
<path d="M64.8218 87.4633C63.8508 87.4813 62.8858 87.3067 61.9827 86.9496C61.5853 86.7965 61.1728 86.6706 60.7761 86.5173C57.2731 85.164 54.9656 81.4333 54.8829 77.6788C54.8003 73.9244 56.7445 70.2803 59.6317 67.8788C62.5188 65.4773 66.2583 64.2444 70.0028 63.9593C74.0363 63.6522 78.5781 64.675 80.832 68.0341C81.4319 68.9282 81.8515 70.013 81.496 71.0926C81.3895 71.4184 81.1993 71.7105 80.9445 71.9397C79.938 72.8352 78.9345 72.1618 77.9084 72.1023C76.4981 72.0206 75.2314 73.1622 74.7761 74.4995C74.3208 75.8368 74.5212 77.3091 74.8888 78.6732C75.1689 79.494 75.3454 80.3465 75.4144 81.211C75.444 81.6445 75.3625 82.0784 75.1775 82.4715C74.9925 82.8647 74.7102 83.2041 74.3572 83.4576C73.4759 83.9903 72.3186 83.682 71.4368 83.1501C70.555 82.6183 69.793 81.8788 68.8405 81.4874C67.888 81.096 66.6083 81.1829 66.0539 82.0507C65.8777 82.3664 65.7584 82.7107 65.7016 83.0678C65.2046 85.3322 65.3188 85.1989 64.8218 87.4633V87.4633Z" fill="#2F2E41"/>
<path d="M206.919 73.4549H141.759C139.877 73.4527 138.072 72.7039 136.741 71.3728C135.41 70.0416 134.661 68.2367 134.659 66.3541V13.3076C134.661 11.425 135.41 9.62013 136.741 8.28894C138.072 6.95776 139.877 6.20897 141.759 6.20685H206.919C208.802 6.20897 210.606 6.95776 211.938 8.28894C213.269 9.62013 214.018 11.425 214.02 13.3076V66.3541C214.018 68.2367 213.269 70.0416 211.938 71.3728C210.606 72.7039 208.802 73.4527 206.919 73.4549ZM141.759 7.04223C140.098 7.04411 138.506 7.7048 137.331 8.87938C136.157 10.0539 135.496 11.6465 135.494 13.3076V66.3541C135.496 68.0152 136.157 69.6078 137.331 70.7823C138.506 71.9569 140.098 72.6176 141.759 72.6195H206.919C208.58 72.6176 210.173 71.9569 211.347 70.7823C212.522 69.6078 213.182 68.0152 213.184 66.3541V13.3076C213.182 11.6465 212.522 10.0539 211.347 8.87938C210.173 7.7048 208.58 7.04411 206.919 7.04223H141.759Z" fill="#3F3D56"/>
<path d="M199.513 22.1367H166.628C166.339 22.1425 166.058 22.0384 165.843 21.8455C165.628 21.6525 165.494 21.385 165.468 21.097C165.46 20.948 165.483 20.7988 165.534 20.6588C165.586 20.5187 165.665 20.3905 165.768 20.2822C165.871 20.1739 165.994 20.0876 166.131 20.0286C166.269 19.9696 166.416 19.9392 166.566 19.9392H200.041C201.143 20.9082 200.471 22.1367 199.513 22.1367L199.513 22.1367Z" fill="#CCCCCC"/>
<path d="M199.513 27.905H166.628C166.339 27.9108 166.058 27.8068 165.843 27.6138C165.628 27.4208 165.494 27.1533 165.468 26.8653C165.46 26.7163 165.483 26.5672 165.534 26.4271C165.586 26.287 165.665 26.1589 165.768 26.0505C165.871 25.9422 165.994 25.8559 166.131 25.7969C166.269 25.7379 166.416 25.7075 166.566 25.7075H200.041C201.143 26.6766 200.471 27.905 199.513 27.905L199.513 27.905Z" fill="#CCCCCC"/>
<path d="M159.519 31.1893H149.483C149.155 31.1889 148.841 31.0586 148.609 30.8269C148.377 30.5952 148.247 30.281 148.247 29.9533V18.1097C148.247 17.782 148.377 17.4679 148.609 17.2361C148.841 17.0044 149.155 16.8741 149.483 16.8738H159.519C159.846 16.8742 160.161 17.0046 160.392 17.2363C160.624 17.468 160.754 17.7821 160.755 18.1097V29.9533C160.754 30.281 160.624 30.5952 160.392 30.8269C160.161 31.0586 159.846 31.1889 159.519 31.1893Z" fill="#3F3D56"/>
<path d="M199.417 39.7156H149.228C148.939 39.7215 148.659 39.6174 148.444 39.4244C148.228 39.2314 148.095 38.9639 148.069 38.676C148.061 38.5269 148.083 38.3778 148.135 38.2377C148.186 38.0976 148.266 37.9695 148.369 37.8612C148.471 37.7528 148.595 37.6665 148.732 37.6076C148.869 37.5486 149.017 37.5182 149.166 37.5182H199.945C201.048 38.4872 200.376 39.7156 199.417 39.7156V39.7156Z" fill="#CCCCCC"/>
<path d="M199.417 45.4855H149.228C148.939 45.4913 148.659 45.3873 148.444 45.1943C148.228 45.0013 148.095 44.7338 148.069 44.4458C148.061 44.2968 148.083 44.1477 148.135 44.0076C148.186 43.8675 148.266 43.7394 148.369 43.631C148.471 43.5227 148.595 43.4364 148.732 43.3774C148.869 43.3184 149.017 43.288 149.166 43.288H199.945C201.048 44.2571 200.376 45.4855 199.417 45.4855V45.4855Z" fill="#CCCCCC"/>
<path d="M199.417 51.2518H149.228C148.939 51.2576 148.659 51.1536 148.444 50.9606C148.228 50.7676 148.095 50.5001 148.069 50.2121C148.061 50.0631 148.083 49.914 148.135 49.7739C148.186 49.6338 148.266 49.5057 148.369 49.3973C148.471 49.289 148.595 49.2027 148.732 49.1437C148.869 49.0847 149.017 49.0543 149.166 49.0543H199.945C201.048 50.0234 200.376 51.2518 199.417 51.2518V51.2518Z" fill="#CCCCCC"/>
<path d="M199.417 57.0214H149.228C148.939 57.0272 148.659 56.9231 148.444 56.7302C148.228 56.5372 148.095 56.2697 148.069 55.9817C148.061 55.8327 148.083 55.6836 148.135 55.5435C148.186 55.4034 148.266 55.2753 148.369 55.1669C148.471 55.0586 148.595 54.9723 148.732 54.9133C148.869 54.8543 149.017 54.8239 149.166 54.8239H199.945C201.048 55.793 200.376 57.0214 199.417 57.0214V57.0214Z" fill="#CCCCCC"/>
<path d="M199.417 62.7879H149.228C148.939 62.7938 148.659 62.6897 148.444 62.4967C148.228 62.3037 148.095 62.0362 148.069 61.7483C148.061 61.5992 148.083 61.4501 148.135 61.31C148.186 61.1699 148.266 61.0418 148.369 60.9334C148.471 60.8251 148.595 60.7388 148.732 60.6798C148.869 60.6209 149.017 60.5905 149.166 60.5905H199.945C201.048 61.5595 200.376 62.7879 199.417 62.7879Z" fill="#CCCCCC"/>
<path d="M192.718 0.776886C193.271 0.777519 193.802 0.997755 194.194 1.38928C194.585 1.7808 194.806 2.31164 194.806 2.86533V9.54837C194.806 10.1021 194.585 10.6329 194.194 11.0244C193.802 11.4159 193.271 11.6362 192.718 11.6368H155.961C155.407 11.6362 154.876 11.4159 154.485 11.0244C154.093 10.6329 153.873 10.1021 153.873 9.54837V2.86533C153.873 2.31164 154.093 1.7808 154.485 1.38928C154.876 0.997755 155.407 0.777519 155.961 0.776886" fill="#1EA5FC"/>
<path d="M300.899 139.032H235.74C233.857 139.03 232.052 138.281 230.721 136.95C229.39 135.619 228.641 133.814 228.639 131.931V78.8848C228.641 77.0023 229.39 75.1974 230.721 73.8662C232.052 72.535 233.857 71.7862 235.74 71.7841H300.899C302.782 71.7862 304.587 72.535 305.918 73.8662C307.249 75.1974 307.998 77.0023 308 78.8848V131.931C307.998 133.814 307.249 135.619 305.918 136.95C304.587 138.281 302.782 139.03 300.899 139.032ZM235.74 72.6195C234.079 72.6214 232.486 73.2821 231.312 74.4567C230.137 75.6312 229.476 77.2237 229.475 78.8848V131.931C229.476 133.593 230.137 135.185 231.312 136.36C232.486 137.534 234.079 138.195 235.74 138.197H300.899C302.561 138.195 304.153 137.534 305.328 136.36C306.502 135.185 307.163 133.593 307.165 131.931V78.8848C307.163 77.2237 306.502 75.6312 305.328 74.4567C304.153 73.2821 302.561 72.6214 300.899 72.6195H235.74Z" fill="#3F3D56"/>
<path d="M293.493 87.7139H260.608C260.319 87.7198 260.038 87.6157 259.823 87.4227C259.608 87.2297 259.474 86.9622 259.448 86.6743C259.44 86.5252 259.463 86.3761 259.514 86.236C259.566 86.0959 259.645 85.9678 259.748 85.8595C259.851 85.7511 259.974 85.6648 260.111 85.6059C260.249 85.5469 260.396 85.5165 260.546 85.5165H294.021C295.123 86.4855 294.451 87.7139 293.492 87.7139H293.493Z" fill="#3F3D56"/>
<path d="M293.493 93.4824H260.608C260.319 93.4882 260.038 93.3841 259.823 93.1912C259.608 92.9982 259.474 92.7307 259.448 92.4427C259.44 92.2937 259.463 92.1446 259.514 92.0045C259.566 91.8644 259.645 91.7362 259.748 91.6279C259.851 91.5196 259.974 91.4333 260.111 91.3743C260.249 91.3153 260.396 91.2849 260.546 91.2849H294.021C295.123 92.254 294.451 93.4824 293.492 93.4824H293.493Z" fill="#3F3D56"/>
<path d="M253.499 96.7665H243.463C243.135 96.7662 242.821 96.6359 242.589 96.4042C242.357 96.1724 242.227 95.8583 242.227 95.5306V83.687C242.227 83.3593 242.357 83.0451 242.589 82.8134C242.821 82.5817 243.135 82.4514 243.463 82.451H253.499C253.826 82.4515 254.141 82.5819 254.372 82.8135C254.604 83.0452 254.734 83.3593 254.735 83.687V95.5306C254.734 95.8583 254.604 96.1724 254.372 96.4042C254.141 96.6359 253.826 96.7662 253.499 96.7665Z" fill="#CCCCCC"/>
<path d="M293.179 128.929H283.143C282.815 128.928 282.501 128.798 282.27 128.566C282.038 128.335 281.908 128.02 281.907 127.693V120.861C281.908 120.534 282.038 120.22 282.27 119.988C282.501 119.756 282.815 119.626 283.143 119.625H293.179C293.507 119.626 293.821 119.756 294.053 119.988C294.285 120.22 294.415 120.534 294.415 120.861V127.693C294.415 128.02 294.285 128.335 294.053 128.566C293.821 128.798 293.507 128.928 293.179 128.929Z" fill="#3F3D56"/>
<path d="M293.398 105.293H243.209C242.92 105.299 242.639 105.195 242.424 105.002C242.209 104.809 242.075 104.541 242.049 104.253C242.041 104.104 242.064 103.955 242.115 103.815C242.167 103.675 242.246 103.547 242.349 103.438C242.452 103.33 242.575 103.244 242.713 103.185C242.85 103.126 242.997 103.095 243.147 103.095H293.926C295.029 104.064 294.356 105.293 293.398 105.293V105.293Z" fill="#CCCCCC"/>
<path d="M293.398 111.063H243.209C242.92 111.069 242.639 110.965 242.424 110.772C242.209 110.579 242.075 110.311 242.049 110.023C242.041 109.874 242.064 109.725 242.115 109.585C242.167 109.445 242.246 109.317 242.349 109.208C242.452 109.1 242.575 109.014 242.713 108.955C242.85 108.896 242.997 108.865 243.147 108.865H293.926C295.029 109.834 294.356 111.063 293.398 111.063V111.063Z" fill="#CCCCCC"/>
<path d="M293.398 116.829H243.209C242.92 116.835 242.639 116.731 242.424 116.538C242.209 116.345 242.075 116.077 242.049 115.789C242.041 115.64 242.064 115.491 242.115 115.351C242.167 115.211 242.246 115.083 242.349 114.975C242.452 114.866 242.575 114.78 242.713 114.721C242.85 114.662 242.997 114.632 243.147 114.632H293.926C295.029 115.601 294.356 116.829 293.398 116.829V116.829Z" fill="#CCCCCC"/>
<path d="M267.083 122.599H243.209C242.92 122.604 242.639 122.5 242.424 122.307C242.209 122.114 242.075 121.847 242.049 121.559C242.041 121.41 242.064 121.261 242.115 121.121C242.167 120.981 242.246 120.852 242.349 120.744C242.452 120.636 242.575 120.549 242.713 120.491C242.85 120.432 242.997 120.401 243.147 120.401H267.611C268.714 121.37 268.042 122.599 267.083 122.599V122.599Z" fill="#CCCCCC"/>
<path d="M267.083 128.365H243.209C242.92 128.371 242.639 128.267 242.424 128.074C242.209 127.881 242.075 127.613 242.049 127.325C242.041 127.176 242.064 127.027 242.115 126.887C242.167 126.747 242.246 126.619 242.349 126.511C242.452 126.402 242.575 126.316 242.713 126.257C242.85 126.198 242.997 126.168 243.147 126.168H267.611C268.714 127.137 268.042 128.365 267.083 128.365Z" fill="#CCCCCC"/>
<path d="M286.698 77.2141H249.941C249.387 77.2134 248.856 76.9932 248.465 76.6017C248.073 76.2101 247.853 75.6793 247.853 75.1256V68.4426C247.853 67.8889 248.073 67.358 248.465 66.9665C248.856 66.575 249.387 66.3548 249.941 66.3541H286.698C287.251 66.3548 287.782 66.575 288.174 66.9665C288.565 67.358 288.785 67.8889 288.786 68.4426V75.1256C288.785 75.6793 288.565 76.2101 288.174 76.6017C287.782 76.9932 287.251 77.2134 286.698 77.2141Z" fill="#1EA5FC"/>
<path d="M159.557 228H0.41769C0.306911 228 0.20067 227.956 0.122338 227.878C0.0440061 227.799 0 227.693 0 227.582C0 227.472 0.0440061 227.365 0.122338 227.287C0.20067 227.209 0.306911 227.165 0.41769 227.165H159.557C159.668 227.165 159.774 227.209 159.853 227.287C159.931 227.365 159.975 227.472 159.975 227.582C159.975 227.693 159.931 227.799 159.853 227.878C159.774 227.956 159.668 228 159.557 228Z" fill="#3F3D56"/>
<path d="M40.4175 13.2204C41.9093 13.2204 43.1186 12.011 43.1186 10.5192C43.1186 9.0274 41.9093 7.81805 40.4175 7.81805C38.9257 7.81805 37.7163 9.0274 37.7163 10.5192C37.7163 12.011 38.9257 13.2204 40.4175 13.2204Z" fill="#F2F2F2"/>
<path d="M40.4175 23.9857C41.9093 23.9857 43.1186 22.7764 43.1186 21.2846C43.1186 19.7928 41.9093 18.5834 40.4175 18.5834C38.9257 18.5834 37.7163 19.7928 37.7163 21.2846C37.7163 22.7764 38.9257 23.9857 40.4175 23.9857Z" fill="#F2F2F2"/>
<path d="M40.4175 34.7508C41.9093 34.7508 43.1186 33.5415 43.1186 32.0497C43.1186 30.5579 41.9093 29.3485 40.4175 29.3485C38.9257 29.3485 37.7163 30.5579 37.7163 32.0497C37.7163 33.5415 38.9257 34.7508 40.4175 34.7508Z" fill="#F2F2F2"/>
<path d="M40.4175 45.516C41.9093 45.516 43.1186 44.3067 43.1186 42.8149C43.1186 41.3231 41.9093 40.1137 40.4175 40.1137C38.9257 40.1137 37.7163 41.3231 37.7163 42.8149C37.7163 44.3067 38.9257 45.516 40.4175 45.516Z" fill="#F2F2F2"/>
<path d="M51.6948 13.2204C53.1866 13.2204 54.396 12.011 54.396 10.5192C54.396 9.0274 53.1866 7.81805 51.6948 7.81805C50.203 7.81805 48.9937 9.0274 48.9937 10.5192C48.9937 12.011 50.203 13.2204 51.6948 13.2204Z" fill="#F2F2F2"/>
<path d="M51.6948 23.9857C53.1866 23.9857 54.396 22.7764 54.396 21.2846C54.396 19.7928 53.1866 18.5834 51.6948 18.5834C50.203 18.5834 48.9937 19.7928 48.9937 21.2846C48.9937 22.7764 50.203 23.9857 51.6948 23.9857Z" fill="#F2F2F2"/>
<path d="M51.6948 34.7508C53.1866 34.7508 54.396 33.5415 54.396 32.0497C54.396 30.5579 53.1866 29.3485 51.6948 29.3485C50.203 29.3485 48.9937 30.5579 48.9937 32.0497C48.9937 33.5415 50.203 34.7508 51.6948 34.7508Z" fill="#F2F2F2"/>
<path d="M51.6948 45.516C53.1866 45.516 54.396 44.3067 54.396 42.8149C54.396 41.3231 53.1866 40.1137 51.6948 40.1137C50.203 40.1137 48.9937 41.3231 48.9937 42.8149C48.9937 44.3067 50.203 45.516 51.6948 45.516Z" fill="#F2F2F2"/>
<path d="M62.9726 13.2204C64.4644 13.2204 65.6738 12.011 65.6738 10.5192C65.6738 9.0274 64.4644 7.81805 62.9726 7.81805C61.4808 7.81805 60.2715 9.0274 60.2715 10.5192C60.2715 12.011 61.4808 13.2204 62.9726 13.2204Z" fill="#F2F2F2"/>
<path d="M62.9726 23.9857C64.4644 23.9857 65.6738 22.7764 65.6738 21.2846C65.6738 19.7928 64.4644 18.5834 62.9726 18.5834C61.4808 18.5834 60.2715 19.7928 60.2715 21.2846C60.2715 22.7764 61.4808 23.9857 62.9726 23.9857Z" fill="#F2F2F2"/>
<path d="M62.9726 34.7508C64.4644 34.7508 65.6738 33.5415 65.6738 32.0497C65.6738 30.5579 64.4644 29.3485 62.9726 29.3485C61.4808 29.3485 60.2715 30.5579 60.2715 32.0497C60.2715 33.5415 61.4808 34.7508 62.9726 34.7508Z" fill="#F2F2F2"/>
<path d="M62.9726 45.516C64.4644 45.516 65.6738 44.3067 65.6738 42.8149C65.6738 41.3231 64.4644 40.1137 62.9726 40.1137C61.4808 40.1137 60.2715 41.3231 60.2715 42.8149C60.2715 44.3067 61.4808 45.516 62.9726 45.516Z" fill="#F2F2F2"/>
<path d="M74.25 13.2204C75.7418 13.2204 76.9511 12.011 76.9511 10.5192C76.9511 9.0274 75.7418 7.81805 74.25 7.81805C72.7582 7.81805 71.5488 9.0274 71.5488 10.5192C71.5488 12.011 72.7582 13.2204 74.25 13.2204Z" fill="#F2F2F2"/>
<path d="M74.25 23.9857C75.7418 23.9857 76.9511 22.7764 76.9511 21.2846C76.9511 19.7928 75.7418 18.5834 74.25 18.5834C72.7582 18.5834 71.5488 19.7928 71.5488 21.2846C71.5488 22.7764 72.7582 23.9857 74.25 23.9857Z" fill="#F2F2F2"/>
<path d="M74.25 34.7508C75.7418 34.7508 76.9511 33.5415 76.9511 32.0497C76.9511 30.5579 75.7418 29.3485 74.25 29.3485C72.7582 29.3485 71.5488 30.5579 71.5488 32.0497C71.5488 33.5415 72.7582 34.7508 74.25 34.7508Z" fill="#F2F2F2"/>
<path d="M74.25 45.516C75.7418 45.516 76.9511 44.3067 76.9511 42.8149C76.9511 41.3231 75.7418 40.1137 74.25 40.1137C72.7582 40.1137 71.5488 41.3231 71.5488 42.8149C71.5488 44.3067 72.7582 45.516 74.25 45.516Z" fill="#F2F2F2"/>
<path d="M85.5278 13.2204C87.0196 13.2204 88.229 12.011 88.229 10.5192C88.229 9.0274 87.0196 7.81805 85.5278 7.81805C84.036 7.81805 82.8267 9.0274 82.8267 10.5192C82.8267 12.011 84.036 13.2204 85.5278 13.2204Z" fill="#F2F2F2"/>
<path d="M85.5278 23.9857C87.0196 23.9857 88.229 22.7764 88.229 21.2846C88.229 19.7928 87.0196 18.5834 85.5278 18.5834C84.036 18.5834 82.8267 19.7928 82.8267 21.2846C82.8267 22.7764 84.036 23.9857 85.5278 23.9857Z" fill="#F2F2F2"/>
<path d="M85.5278 34.7508C87.0196 34.7508 88.229 33.5415 88.229 32.0497C88.229 30.5579 87.0196 29.3485 85.5278 29.3485C84.036 29.3485 82.8267 30.5579 82.8267 32.0497C82.8267 33.5415 84.036 34.7508 85.5278 34.7508Z" fill="#F2F2F2"/>
<path d="M85.5278 45.516C87.0196 45.516 88.229 44.3067 88.229 42.8149C88.229 41.3231 87.0196 40.1137 85.5278 40.1137C84.036 40.1137 82.8267 41.3231 82.8267 42.8149C82.8267 44.3067 84.036 45.516 85.5278 45.516Z" fill="#F2F2F2"/>
<path d="M96.8052 13.2204C98.297 13.2204 99.5063 12.011 99.5063 10.5192C99.5063 9.0274 98.297 7.81805 96.8052 7.81805C95.3134 7.81805 94.104 9.0274 94.104 10.5192C94.104 12.011 95.3134 13.2204 96.8052 13.2204Z" fill="#F2F2F2"/>
<path d="M96.8052 23.9857C98.297 23.9857 99.5063 22.7764 99.5063 21.2846C99.5063 19.7928 98.297 18.5834 96.8052 18.5834C95.3134 18.5834 94.104 19.7928 94.104 21.2846C94.104 22.7764 95.3134 23.9857 96.8052 23.9857Z" fill="#F2F2F2"/>
<path d="M96.8052 34.7508C98.297 34.7508 99.5063 33.5415 99.5063 32.0497C99.5063 30.5579 98.297 29.3485 96.8052 29.3485C95.3134 29.3485 94.104 30.5579 94.104 32.0497C94.104 33.5415 95.3134 34.7508 96.8052 34.7508Z" fill="#F2F2F2"/>
<path d="M96.8052 45.516C98.297 45.516 99.5063 44.3067 99.5063 42.8149C99.5063 41.3231 98.297 40.1137 96.8052 40.1137C95.3134 40.1137 94.104 41.3231 94.104 42.8149C94.104 44.3067 95.3134 45.516 96.8052 45.516Z" fill="#F2F2F2"/>
<path d="M251.351 162.753C252.842 162.753 254.052 161.544 254.052 160.052C254.052 158.56 252.842 157.351 251.351 157.351C249.859 157.351 248.649 158.56 248.649 160.052C248.649 161.544 249.859 162.753 251.351 162.753Z" fill="#F2F2F2"/>
<path d="M251.351 173.518C252.842 173.518 254.052 172.309 254.052 170.817C254.052 169.325 252.842 168.116 251.351 168.116C249.859 168.116 248.649 169.325 248.649 170.817C248.649 172.309 249.859 173.518 251.351 173.518Z" fill="#F2F2F2"/>
<path d="M251.351 184.284C252.842 184.284 254.052 183.074 254.052 181.583C254.052 180.091 252.842 178.882 251.351 178.882C249.859 178.882 248.649 180.091 248.649 181.583C248.649 183.074 249.859 184.284 251.351 184.284Z" fill="#F2F2F2"/>
<path d="M262.628 162.753C264.12 162.753 265.329 161.544 265.329 160.052C265.329 158.56 264.12 157.351 262.628 157.351C261.136 157.351 259.927 158.56 259.927 160.052C259.927 161.544 261.136 162.753 262.628 162.753Z" fill="#F2F2F2"/>
<path d="M262.628 173.518C264.12 173.518 265.329 172.309 265.329 170.817C265.329 169.325 264.12 168.116 262.628 168.116C261.136 168.116 259.927 169.325 259.927 170.817C259.927 172.309 261.136 173.518 262.628 173.518Z" fill="#F2F2F2"/>
<path d="M262.628 184.284C264.12 184.284 265.329 183.074 265.329 181.583C265.329 180.091 264.12 178.882 262.628 178.882C261.136 178.882 259.927 180.091 259.927 181.583C259.927 183.074 261.136 184.284 262.628 184.284Z" fill="#F2F2F2"/>
<path d="M273.906 162.753C275.398 162.753 276.607 161.544 276.607 160.052C276.607 158.56 275.398 157.351 273.906 157.351C272.414 157.351 271.205 158.56 271.205 160.052C271.205 161.544 272.414 162.753 273.906 162.753Z" fill="#F2F2F2"/>
<path d="M273.906 173.518C275.398 173.518 276.607 172.309 276.607 170.817C276.607 169.325 275.398 168.116 273.906 168.116C272.414 168.116 271.205 169.325 271.205 170.817C271.205 172.309 272.414 173.518 273.906 173.518Z" fill="#F2F2F2"/>
<path d="M273.906 184.284C275.398 184.284 276.607 183.074 276.607 181.583C276.607 180.091 275.398 178.882 273.906 178.882C272.414 178.882 271.205 180.091 271.205 181.583C271.205 183.074 272.414 184.284 273.906 184.284Z" fill="#F2F2F2"/>
<path d="M285.183 162.753C286.675 162.753 287.884 161.544 287.884 160.052C287.884 158.56 286.675 157.351 285.183 157.351C283.691 157.351 282.482 158.56 282.482 160.052C282.482 161.544 283.691 162.753 285.183 162.753Z" fill="#F2F2F2"/>
<path d="M285.183 173.518C286.675 173.518 287.884 172.309 287.884 170.817C287.884 169.325 286.675 168.116 285.183 168.116C283.691 168.116 282.482 169.325 282.482 170.817C282.482 172.309 283.691 173.518 285.183 173.518Z" fill="#F2F2F2"/>
<path d="M285.183 184.284C286.675 184.284 287.884 183.074 287.884 181.583C287.884 180.091 286.675 178.882 285.183 178.882C283.691 178.882 282.482 180.091 282.482 181.583C282.482 183.074 283.691 184.284 285.183 184.284Z" fill="#F2F2F2"/>
</g>
<defs>
<clipPath id="clip0">
<rect width="308" height="227.223" fill="white" transform="translate(0 0.776855)"/>
</clipPath>
</defs>
</svg>
