<svg width="330" height="263" viewBox="0 0 330 263" fill="none" xmlns="http://www.w3.org/2000/svg">
<g clip-path="url(#clip0)">
<path d="M170.124 56.477L163.546 175.472L80.0732 171.309L80.7631 158.705L86.6618 52.3136L139.221 54.9312L170.124 56.477Z" fill="white"/>
<path opacity="0.2" d="M144.08 126.194L125.274 127.664L130.763 150.131L80.7632 158.705L86.6619 52.3136L139.221 54.9312L144.08 126.194Z" fill="black" fill-opacity="0.7"/>
<path d="M170.124 56.477L163.546 175.472L80.0732 171.309L80.7631 158.705L86.6618 52.3136L139.221 54.9312L170.124 56.477Z" stroke="#263238" stroke-linecap="round" stroke-linejoin="round"/>
<path d="M92.5503 60.4508L114.276 61.532" stroke="#263238" stroke-width="2" stroke-linecap="round" stroke-linejoin="round"/>
<path d="M92.3306 64.4057L107.107 65.1454" stroke="#263238" stroke-width="2" stroke-linecap="round" stroke-linejoin="round"/>
<path d="M97.1094 74.0129L159.586 77.1236" stroke="#263238" stroke-width="2" stroke-linecap="round" stroke-linejoin="round"/>
<path d="M96.8896 77.9677L159.366 81.0785" stroke="#263238" stroke-width="2" stroke-linecap="round" stroke-linejoin="round"/>
<path d="M96.6294 82.5769L149.918 85.2324" stroke="#263238" stroke-width="2" stroke-linecap="round" stroke-linejoin="round"/>
<path d="M101.746 87.054L96.6641 86.8005L96.3968 91.6212L101.479 91.8747L101.746 87.054Z" stroke="#263238" stroke-linecap="round" stroke-linejoin="round"/>
<path d="M110.956 87.5121L105.874 87.2586L105.607 92.0793L110.689 92.3328L110.956 87.5121Z" stroke="#263238" stroke-linecap="round" stroke-linejoin="round"/>
<path d="M120.165 87.9801L115.083 87.7266L114.816 92.5473L119.898 92.8008L120.165 87.9801Z" stroke="#263238" stroke-linecap="round" stroke-linejoin="round"/>
<path d="M129.375 88.4286L124.293 88.1751L124.026 92.9958L129.108 93.2493L129.375 88.4286Z" stroke="#263238" stroke-linecap="round" stroke-linejoin="round"/>
<path d="M93.7804 73.8422C93.7632 74.1616 93.6128 74.4615 93.3625 74.6758C93.1122 74.8901 92.7824 75.0014 92.4457 74.985C92.1089 74.9687 91.7928 74.8261 91.5669 74.5886C91.3409 74.3512 91.2237 74.0384 91.2409 73.7189C91.2495 73.5607 91.2907 73.4057 91.3624 73.2627C91.4341 73.1196 91.5348 72.9914 91.6588 72.8853C91.7827 72.7792 91.9275 72.6972 92.0848 72.6442C92.2421 72.5911 92.4089 72.568 92.5756 72.5761C92.7424 72.5842 92.9058 72.6233 93.0566 72.6914C93.2074 72.7594 93.3426 72.8549 93.4544 72.9725C93.5663 73.09 93.6527 73.2273 93.7086 73.3766C93.7645 73.5258 93.7889 73.684 93.7804 73.8422Z" fill="#263238"/>
<path d="M95.8296 97.0874L158.306 100.198" stroke="#263238" stroke-width="2" stroke-linecap="round" stroke-linejoin="round"/>
<path d="M95.6099 101.042L158.097 104.153" stroke="#263238" stroke-width="2" stroke-linecap="round" stroke-linejoin="round"/>
<path d="M95.3599 105.651L148.649 108.307" stroke="#263238" stroke-width="2" stroke-linecap="round" stroke-linejoin="round"/>
<path d="M100.46 110.128L95.3784 109.874L95.1112 114.695L100.193 114.948L100.46 110.128Z" stroke="#263238" stroke-linecap="round" stroke-linejoin="round"/>
<path d="M109.681 110.586L104.599 110.333L104.331 115.154L109.413 115.407L109.681 110.586Z" stroke="#263238" stroke-linecap="round" stroke-linejoin="round"/>
<path d="M118.89 111.054L113.808 110.8L113.541 115.621L118.623 115.875L118.89 111.054Z" stroke="#263238" stroke-linecap="round" stroke-linejoin="round"/>
<path d="M128.1 111.512L123.018 111.258L122.751 116.079L127.833 116.333L128.1 111.512Z" stroke="#263238" stroke-linecap="round" stroke-linejoin="round"/>
<path d="M92.5006 96.9167C92.4834 97.2362 92.3331 97.536 92.0828 97.7503C91.8324 97.9647 91.5026 98.0759 91.1659 98.0595C90.8291 98.0432 90.513 97.9006 90.2871 97.6632C90.0611 97.4257 89.9439 97.1129 89.9611 96.7934C89.9818 96.4739 90.1336 96.1748 90.3841 95.9603C90.6345 95.7457 90.9637 95.6328 91.3008 95.6458C91.4677 95.6543 91.6311 95.694 91.7818 95.7625C91.9324 95.831 92.0673 95.927 92.1788 96.0451C92.2902 96.1631 92.376 96.3009 92.4313 96.4505C92.4865 96.6 92.51 96.7585 92.5006 96.9167Z" fill="#263238"/>
<path d="M94.5498 120.162L157.037 123.273" stroke="#263238" stroke-width="2" stroke-linecap="round" stroke-linejoin="round"/>
<path d="M94.3301 124.117L156.817 127.227" stroke="#263238" stroke-width="2" stroke-linecap="round" stroke-linejoin="round"/>
<path d="M94.0801 128.726L147.369 131.381" stroke="#263238" stroke-width="2" stroke-linecap="round" stroke-linejoin="round"/>
<path d="M99.1947 133.202L94.1128 132.949L93.8456 137.769L98.9275 138.023L99.1947 133.202Z" stroke="#263238" stroke-linecap="round" stroke-linejoin="round"/>
<path d="M108.907 133.586L103.818 133.345L103.564 138.172L108.653 138.414L108.907 133.586Z" stroke="#263238" stroke-width="1.00125" stroke-linecap="round" stroke-linejoin="round"/>
<path d="M117.604 134.128L112.522 133.874L112.255 138.695L117.337 138.948L117.604 134.128Z" stroke="#263238" stroke-linecap="round" stroke-linejoin="round"/>
<path d="M126.814 134.576L121.732 134.323L121.465 139.143L126.547 139.397L126.814 134.576Z" stroke="#263238" stroke-linecap="round" stroke-linejoin="round"/>
<path d="M91.2309 119.991C91.219 120.23 91.1333 120.46 90.9843 120.652C90.8354 120.845 90.6298 120.991 90.3935 121.074C90.1572 121.156 89.9005 121.17 89.6556 121.115C89.4107 121.059 89.1885 120.937 89.0168 120.762C88.8451 120.587 88.7315 120.369 88.6902 120.133C88.6489 119.897 88.6818 119.656 88.7847 119.438C88.8877 119.22 89.0561 119.035 89.2689 118.908C89.4817 118.78 89.7295 118.715 89.9812 118.72C90.1514 118.725 90.319 118.762 90.4742 118.829C90.6293 118.895 90.7691 118.991 90.8853 119.109C91.0014 119.227 91.0918 119.366 91.1511 119.517C91.2105 119.669 91.2376 119.83 91.2309 119.991Z" fill="#263238"/>
<path d="M93.2402 143.891L155.717 147.002" stroke="#263238" stroke-width="2" stroke-linecap="round" stroke-linejoin="round"/>
<path d="M93.0205 147.846L155.497 150.966" stroke="#263238" stroke-width="2" stroke-linecap="round" stroke-linejoin="round"/>
<path d="M92.7603 152.464L146.049 155.12" stroke="#263238" stroke-width="2" stroke-linecap="round" stroke-linejoin="round"/>
<path d="M97.8729 156.937L92.791 156.683L92.5238 161.504L97.6057 161.757L97.8729 156.937Z" stroke="#263238" stroke-linecap="round" stroke-linejoin="round"/>
<path d="M107.082 157.395L102 157.141L101.733 161.962L106.815 162.216L107.082 157.395Z" stroke="#263238" stroke-linecap="round" stroke-linejoin="round"/>
<path d="M116.303 157.853L111.221 157.6L110.953 162.421L116.035 162.674L116.303 157.853Z" stroke="#263238" stroke-linecap="round" stroke-linejoin="round"/>
<path d="M125.503 158.311L120.421 158.058L120.154 162.879L125.236 163.132L125.503 158.311Z" stroke="#263238" stroke-linecap="round" stroke-linejoin="round"/>
<path d="M89.911 143.73C89.8968 143.967 89.8086 144.196 89.6577 144.386C89.5068 144.576 89.2998 144.72 89.063 144.798C88.8261 144.877 88.57 144.887 88.3269 144.828C88.0839 144.769 87.8648 144.642 87.6974 144.465C87.53 144.288 87.4217 144.067 87.3863 143.832C87.3508 143.596 87.3898 143.355 87.4983 143.141C87.6068 142.926 87.7799 142.747 87.9958 142.625C88.2116 142.504 88.4606 142.446 88.7112 142.459C88.878 142.467 89.0415 142.507 89.1921 142.575C89.3428 142.644 89.4777 142.74 89.5891 142.858C89.7006 142.976 89.7864 143.114 89.8416 143.263C89.8968 143.413 89.9204 143.571 89.911 143.73Z" fill="#263238"/>
<path d="M98.3892 88.8079L99.049 89.8891L101.758 87.0439" stroke="#263238" stroke-width="2" stroke-linecap="round" stroke-linejoin="round"/>
<path d="M115.545 112.508L116.205 113.59L118.915 110.754" stroke="#263238" stroke-width="2" stroke-linecap="round" stroke-linejoin="round"/>
<path d="M124.154 136.863L124.814 137.935L127.523 135.099" stroke="#263238" stroke-width="2" stroke-linecap="round" stroke-linejoin="round"/>
<path d="M103.758 158.6L104.418 159.672L107.128 156.836" stroke="#263238" stroke-width="2" stroke-linecap="round" stroke-linejoin="round"/>
<path d="M114.666 141.795L34.1329 163.029L0.5 48.207L33.8429 39.4154L81.0329 26.9819L111.546 131.154L114.666 141.795Z" fill="white"/>
<path opacity="0.2" d="M111.546 131.154L49.2795 134.976L33.8428 39.4154L81.0328 26.9819L111.546 131.154Z" fill="black" fill-opacity="0.7"/>
<path d="M114.666 141.795L34.1329 163.029L0.5 48.207L33.8429 39.4154L81.0329 26.9819L111.546 131.154L114.666 141.795Z" stroke="#263238" stroke-linecap="round" stroke-linejoin="round"/>
<path d="M8.80811 54.144L29.7637 48.6243" stroke="#263238" stroke-width="2" stroke-linecap="round" stroke-linejoin="round"/>
<path d="M9.92822 57.966L24.1852 54.2104" stroke="#263238" stroke-width="2" stroke-linecap="round" stroke-linejoin="round"/>
<path d="M17.6763 65.6291L77.9535 49.7339" stroke="#263238" stroke-width="2" stroke-linecap="round" stroke-linejoin="round"/>
<path d="M18.7959 69.4417L79.0731 53.556" stroke="#263238" stroke-width="2" stroke-linecap="round" stroke-linejoin="round"/>
<path d="M20.0957 73.8991L71.5148 60.3465" stroke="#263238" stroke-width="2" stroke-linecap="round" stroke-linejoin="round"/>
<path d="M26.4485 76.5828L21.5454 77.8752L22.9079 82.5263L27.8111 81.2339L26.4485 76.5828Z" stroke="#263238" stroke-linecap="round" stroke-linejoin="round"/>
<path d="M35.3406 74.2402L30.4375 75.5327L31.8 80.1837L36.7031 78.8913L35.3406 74.2402Z" stroke="#263238" stroke-linecap="round" stroke-linejoin="round"/>
<path d="M44.2161 71.9092L39.313 73.2017L40.6755 77.8528L45.5786 76.5603L44.2161 71.9092Z" stroke="#263238" stroke-linecap="round" stroke-linejoin="round"/>
<path d="M53.1082 69.5667L48.2051 70.8591L49.5676 75.5102L54.4707 74.2178L53.1082 69.5667Z" stroke="#263238" stroke-linecap="round" stroke-linejoin="round"/>
<path d="M14.4669 66.4732C14.5325 66.7026 14.525 66.9453 14.4455 67.1708C14.3659 67.3962 14.2179 67.5943 14.0199 67.74C13.8219 67.8858 13.5829 67.9727 13.3329 67.9898C13.083 68.0069 12.8333 67.9535 12.6152 67.8363C12.3972 67.719 12.2207 67.5432 12.1078 67.331C11.9949 67.1187 11.9508 66.8796 11.9809 66.6436C12.0111 66.4076 12.1141 66.1853 12.2772 66.0048C12.4403 65.8242 12.656 65.6935 12.8972 65.6291C13.0587 65.5859 13.2276 65.5736 13.3942 65.5927C13.5607 65.6119 13.7216 65.6622 13.8676 65.7406C14.0135 65.8191 14.1416 65.9243 14.2445 66.05C14.3474 66.1757 14.4229 66.3196 14.4669 66.4732Z" fill="#263238"/>
<path d="M24.1948 87.888L84.482 72.0023" stroke="#263238" stroke-width="2" stroke-linecap="round" stroke-linejoin="round"/>
<path d="M25.3149 91.71L85.6022 75.8148" stroke="#263238" stroke-width="2" stroke-linecap="round" stroke-linejoin="round"/>
<path d="M26.6143 96.158L78.0333 82.6054" stroke="#263238" stroke-width="2" stroke-linecap="round" stroke-linejoin="round"/>
<path d="M32.9656 98.8484L28.0625 100.141L29.425 104.792L34.3281 103.499L32.9656 98.8484Z" stroke="#263238" stroke-linecap="round" stroke-linejoin="round"/>
<path d="M41.8577 96.5058L36.9546 97.7982L38.3171 102.449L43.2202 101.157L41.8577 96.5058Z" stroke="#263238" stroke-linecap="round" stroke-linejoin="round"/>
<path d="M50.7503 94.1631L45.8472 95.4556L47.2097 100.107L52.1128 98.8142L50.7503 94.1631Z" stroke="#263238" stroke-linecap="round" stroke-linejoin="round"/>
<path d="M59.6229 91.8231L54.7197 93.1156L56.0822 97.7667L60.9854 96.4742L59.6229 91.8231Z" stroke="#263238" stroke-linecap="round" stroke-linejoin="round"/>
<path d="M20.9956 88.732C21.0631 88.9613 21.0575 89.2043 20.9795 89.4305C20.9015 89.6568 20.7546 89.856 20.5573 90.0031C20.3601 90.1501 20.1213 90.2385 19.8712 90.257C19.621 90.2754 19.3707 90.2232 19.1518 90.1068C18.933 89.9904 18.7554 89.8152 18.6414 89.6031C18.5275 89.3911 18.4823 89.1517 18.5116 88.9154C18.541 88.679 18.6434 88.4562 18.8062 88.275C18.9689 88.0938 19.1845 87.9624 19.4259 87.8974C19.7507 87.8126 20.0976 87.8526 20.3915 88.0089C20.6853 88.1651 20.9024 88.4249 20.9956 88.732Z" fill="#263238"/>
<path d="M30.7134 110.156L91.0006 94.2612" stroke="#263238" stroke-width="2" stroke-linecap="round" stroke-linejoin="round"/>
<path d="M31.8335 113.969L92.1207 98.0832" stroke="#263238" stroke-width="2" stroke-linecap="round" stroke-linejoin="round"/>
<path d="M33.1431 118.426L84.5522 104.874" stroke="#263238" stroke-width="2" stroke-linecap="round" stroke-linejoin="round"/>
<path d="M39.49 121.114L34.5869 122.407L35.9494 127.058L40.8526 125.765L39.49 121.114Z" stroke="#263238" stroke-linecap="round" stroke-linejoin="round"/>
<path d="M48.3724 118.772L43.4692 120.064L44.8318 124.715L49.7349 123.423L48.3724 118.772Z" stroke="#263238" stroke-linecap="round" stroke-linejoin="round"/>
<path d="M57.2645 116.429L52.3613 117.722L53.7239 122.373L58.627 121.08L57.2645 116.429Z" stroke="#263238" stroke-linecap="round" stroke-linejoin="round"/>
<path d="M66.1468 114.087L61.2437 115.379L62.6062 120.03L67.5093 118.738L66.1468 114.087Z" stroke="#263238" stroke-linecap="round" stroke-linejoin="round"/>
<path d="M27.5141 110.962C27.5824 111.194 27.5766 111.44 27.4976 111.668C27.4186 111.896 27.2698 112.097 27.0702 112.246C26.8706 112.394 26.6292 112.482 26.3764 112.5C26.1237 112.518 25.8711 112.464 25.6506 112.345C25.4301 112.227 25.2517 112.049 25.138 111.834C25.0243 111.619 24.9804 111.377 25.0119 111.139C25.0433 110.9 25.1488 110.676 25.3148 110.494C25.4808 110.313 25.7 110.182 25.9445 110.118C26.2706 110.034 26.6187 110.075 26.9128 110.233C27.2069 110.392 27.4231 110.654 27.5141 110.962Z" fill="#263238"/>
<path d="M37.4224 133.051L97.7096 117.165" stroke="#263238" stroke-width="2" stroke-linecap="round" stroke-linejoin="round"/>
<path d="M38.542 136.873L98.8292 120.978" stroke="#263238" stroke-width="2" stroke-linecap="round" stroke-linejoin="round"/>
<path d="M39.8516 141.321L91.2606 127.768" stroke="#263238" stroke-width="2" stroke-linecap="round" stroke-linejoin="round"/>
<path d="M46.2 144.01L41.2969 145.303L42.6594 149.954L47.5625 148.661L46.2 144.01Z" stroke="#263238" stroke-linecap="round" stroke-linejoin="round"/>
<path d="M55.0921 141.668L50.189 142.96L51.5515 147.611L56.4546 146.319L55.0921 141.668Z" stroke="#263238" stroke-linecap="round" stroke-linejoin="round"/>
<path d="M63.9744 139.325L59.0713 140.618L60.4338 145.269L65.3369 143.976L63.9744 139.325Z" stroke="#263238" stroke-linecap="round" stroke-linejoin="round"/>
<path d="M72.8665 136.982L67.9634 138.275L69.3259 142.926L74.229 141.634L72.8665 136.982Z" stroke="#263238" stroke-linecap="round" stroke-linejoin="round"/>
<path d="M34.2126 133.895C34.2808 134.124 34.2756 134.368 34.1976 134.595C34.1197 134.821 33.9725 135.021 33.7748 135.168C33.5771 135.316 33.3377 135.404 33.087 135.422C32.8363 135.44 32.5856 135.388 32.3666 135.27C32.1476 135.153 31.9702 134.977 31.8569 134.764C31.7436 134.551 31.6995 134.311 31.7302 134.074C31.7609 133.838 31.8649 133.615 32.0292 133.434C32.1935 133.254 32.4106 133.124 32.6529 133.06C32.9764 132.976 33.322 133.016 33.6143 133.172C33.9065 133.329 34.1216 133.588 34.2126 133.895Z" fill="#263238"/>
<path d="M32.2134 77.0573L33.2032 77.8729L34.8228 74.3733" stroke="#263238" stroke-width="2" stroke-linecap="round" stroke-linejoin="round"/>
<path d="M29.8037 101.896L30.7935 102.721L32.4032 99.2118" stroke="#263238" stroke-width="2" stroke-linecap="round" stroke-linejoin="round"/>
<path d="M36.3223 123.927L37.3021 124.752L38.9217 121.243" stroke="#263238" stroke-width="2" stroke-linecap="round" stroke-linejoin="round"/>
<path d="M60.7871 141.975L61.7769 142.8L63.3866 139.291" stroke="#263238" stroke-width="2" stroke-linecap="round" stroke-linejoin="round"/>
<path d="M122.527 0.467481L39.3276 8.05293L51.3463 126.672L134.545 119.087L122.527 0.467481Z" fill="white" stroke="#263238" stroke-linecap="round" stroke-linejoin="round"/>
<path d="M46.4204 15.2787L68.0758 13.306" stroke="#263238" stroke-width="2" stroke-linecap="round" stroke-linejoin="round"/>
<path d="M46.8203 19.224L61.5472 17.8773" stroke="#263238" stroke-width="2" stroke-linecap="round" stroke-linejoin="round"/>
<path d="M53.0391 28.0536L115.316 22.3727" stroke="#263238" stroke-width="2" stroke-linecap="round" stroke-linejoin="round"/>
<path d="M53.439 31.9894L115.716 26.318" stroke="#263238" stroke-width="2" stroke-linecap="round" stroke-linejoin="round"/>
<path d="M53.8984 36.5892L107.017 31.7523" stroke="#263238" stroke-width="2" stroke-linecap="round" stroke-linejoin="round"/>
<path d="M59.6598 40.2978L54.5942 40.7596L55.0811 45.5648L60.1467 45.103L59.6598 40.2978Z" stroke="#263238" stroke-linecap="round" stroke-linejoin="round"/>
<path d="M68.8415 39.4592L63.7759 39.921L64.2627 44.7262L69.3283 44.2644L68.8415 39.4592Z" stroke="#263238" stroke-linecap="round" stroke-linejoin="round"/>
<path d="M78.0221 38.6111L72.9565 39.073L73.4434 43.8782L78.509 43.4163L78.0221 38.6111Z" stroke="#263238" stroke-linecap="round" stroke-linejoin="round"/>
<path d="M87.2038 37.7811L82.1382 38.243L82.6251 43.0482L87.6906 42.5863L87.2038 37.7811Z" stroke="#263238" stroke-linecap="round" stroke-linejoin="round"/>
<path d="M49.7195 28.3476C49.7439 28.5846 49.6938 28.8231 49.5754 29.0331C49.4569 29.2431 49.2756 29.415 49.0542 29.5273C48.8328 29.6395 48.5813 29.6869 48.3314 29.6636C48.0816 29.6403 47.8447 29.5473 47.6506 29.3962C47.4565 29.2452 47.3139 29.043 47.2409 28.8152C47.1679 28.5874 47.1677 28.3441 47.2404 28.1162C47.3131 27.8883 47.4554 27.6859 47.6493 27.5346C47.8432 27.3834 48.08 27.2901 48.3298 27.2664C48.4961 27.2494 48.6644 27.264 48.8247 27.3094C48.9851 27.3547 49.1343 27.4299 49.2636 27.5305C49.393 27.6312 49.4999 27.7553 49.5782 27.8956C49.6565 28.0358 49.7045 28.1895 49.7195 28.3476Z" fill="#263238"/>
<path d="M55.3682 51.0522L117.645 45.3713" stroke="#263238" stroke-width="2" stroke-linecap="round" stroke-linejoin="round"/>
<path d="M55.7681 54.9881L118.045 49.3167" stroke="#263238" stroke-width="2" stroke-linecap="round" stroke-linejoin="round"/>
<path d="M56.228 59.5973L109.347 54.751" stroke="#263238" stroke-width="2" stroke-linecap="round" stroke-linejoin="round"/>
<path d="M61.9987 63.2925L56.9331 63.7543L57.42 68.5595L62.4856 68.0977L61.9987 63.2925Z" stroke="#263238" stroke-linecap="round" stroke-linejoin="round"/>
<path d="M71.1701 62.4539L66.1045 62.9157L66.5914 67.7209L71.6569 67.2591L71.1701 62.4539Z" stroke="#263238" stroke-linecap="round" stroke-linejoin="round"/>
<path d="M80.3522 61.6153L75.2866 62.0771L75.7735 66.8823L80.8391 66.4205L80.3522 61.6153Z" stroke="#263238" stroke-linecap="round" stroke-linejoin="round"/>
<path d="M89.5329 60.7758L84.4673 61.2376L84.9542 66.0428L90.0197 65.581L89.5329 60.7758Z" stroke="#263238" stroke-linecap="round" stroke-linejoin="round"/>
<path d="M52.049 51.3557C52.0715 51.5925 52.0195 51.8303 51.8998 52.0392C51.78 52.248 51.5978 52.4186 51.376 52.5294C51.1542 52.6402 50.9028 52.6862 50.6535 52.6617C50.4042 52.6372 50.1681 52.5432 49.975 52.3917C49.7819 52.2401 49.6404 52.0377 49.5683 51.81C49.4962 51.5823 49.4968 51.3394 49.57 51.112C49.6431 50.8846 49.7856 50.6828 49.9795 50.5321C50.1733 50.3814 50.4099 50.2885 50.6593 50.265C50.8262 50.2494 50.9947 50.2652 51.1551 50.3117C51.3155 50.3581 51.4646 50.4342 51.5938 50.5356C51.723 50.637 51.8297 50.7617 51.9079 50.9025C51.986 51.0432 52.034 51.1973 52.049 51.3557Z" fill="#263238"/>
<path d="M57.6978 74.0508L119.975 68.3794" stroke="#263238" stroke-width="2" stroke-linecap="round" stroke-linejoin="round"/>
<path d="M58.0977 77.9962L120.374 72.3153" stroke="#263238" stroke-width="2" stroke-linecap="round" stroke-linejoin="round"/>
<path d="M58.5576 82.5959L111.676 77.7496" stroke="#263238" stroke-width="2" stroke-linecap="round" stroke-linejoin="round"/>
<path d="M64.3273 86.2872L59.2617 86.749L59.7486 91.5542L64.8142 91.0924L64.3273 86.2872Z" stroke="#263238" stroke-linecap="round" stroke-linejoin="round"/>
<path d="M73.4992 85.4581L68.4336 85.9199L68.9205 90.7251L73.986 90.2632L73.4992 85.4581Z" stroke="#263238" stroke-linecap="round" stroke-linejoin="round"/>
<path d="M82.6808 84.6195L77.6152 85.0813L78.1021 89.8865L83.1677 89.4247L82.6808 84.6195Z" stroke="#263238" stroke-linecap="round" stroke-linejoin="round"/>
<path d="M91.8625 83.7809L86.7969 84.2427L87.2837 89.0479L92.3493 88.5861L91.8625 83.7809Z" stroke="#263238" stroke-linecap="round" stroke-linejoin="round"/>
<path d="M54.3786 74.3543C54.4011 74.5911 54.3491 74.829 54.2294 75.0378C54.1096 75.2467 53.9273 75.4172 53.7056 75.528C53.4838 75.6388 53.2324 75.6848 52.9831 75.6603C52.7338 75.6358 52.4977 75.5419 52.3046 75.3903C52.1115 75.2387 51.9699 75.0364 51.8979 74.8086C51.8258 74.5809 51.8264 74.338 51.8996 74.1106C51.9727 73.8832 52.1152 73.6815 52.3091 73.5307C52.5029 73.38 52.7395 73.2871 52.9889 73.2637C53.1558 73.248 53.3243 73.2638 53.4847 73.3103C53.6451 73.3567 53.7942 73.4328 53.9234 73.5343C54.0526 73.6357 54.1593 73.7603 54.2375 73.9011C54.3156 74.0419 54.3636 74.1959 54.3786 74.3543Z" fill="#263238"/>
<path d="M60.0874 97.7039L122.374 92.0325" stroke="#263238" stroke-width="2" stroke-linecap="round" stroke-linejoin="round"/>
<path d="M60.4873 101.649L122.774 95.9778" stroke="#263238" stroke-width="2" stroke-linecap="round" stroke-linejoin="round"/>
<path d="M60.957 106.249L114.076 101.412" stroke="#263238" stroke-width="2" stroke-linecap="round" stroke-linejoin="round"/>
<path d="M66.713 109.956L61.6475 110.418L62.1343 115.223L67.1999 114.761L66.713 109.956Z" stroke="#263238" stroke-linecap="round" stroke-linejoin="round"/>
<path d="M75.8937 109.108L70.8281 109.57L71.315 114.375L76.3806 113.913L75.8937 109.108Z" stroke="#263238" stroke-linecap="round" stroke-linejoin="round"/>
<path d="M85.0856 108.269L80.02 108.73L80.5069 113.536L85.5725 113.074L85.0856 108.269Z" stroke="#263238" stroke-linecap="round" stroke-linejoin="round"/>
<path d="M94.2672 107.43L89.2017 107.892L89.6885 112.697L94.7541 112.235L94.2672 107.43Z" stroke="#263238" stroke-linecap="round" stroke-linejoin="round"/>
<path d="M56.7779 98.0074C56.8046 98.2468 56.7557 98.4884 56.6372 98.7014C56.5188 98.9144 56.3362 99.0892 56.1128 99.2035C55.8894 99.3178 55.6352 99.3665 55.3825 99.3434C55.1298 99.3203 54.8901 99.2264 54.6938 99.0737C54.4975 98.921 54.3535 98.7163 54.2802 98.4858C54.2068 98.2553 54.2074 98.0092 54.2819 97.779C54.3563 97.5488 54.5013 97.3448 54.6983 97.1929C54.8953 97.0411 55.1354 96.9482 55.3882 96.9262C55.7232 96.897 56.0568 96.9941 56.3168 97.1964C56.5769 97.3987 56.7426 97.6901 56.7779 98.0074Z" fill="#263238"/>
<path d="M56.6079 42.5072L57.4277 43.4745L59.6673 40.2974" stroke="#263238" stroke-width="2" stroke-linecap="round" stroke-linejoin="round"/>
<path d="M77.2637 63.5426L78.0935 64.5194L80.323 61.3328" stroke="#263238" stroke-width="2" stroke-linecap="round" stroke-linejoin="round"/>
<path d="M70.4653 87.8595L71.2852 88.8364L73.5247 85.6497" stroke="#263238" stroke-width="2" stroke-linecap="round" stroke-linejoin="round"/>
<path d="M91.0908 109.663L91.9106 110.64L94.1502 107.453" stroke="#263238" stroke-width="2" stroke-linecap="round" stroke-linejoin="round"/>
<path d="M197.068 115.553L237.34 256.466H243.359L203.087 115.553H197.068Z" fill="#757575" stroke="#263238" stroke-linecap="round" stroke-linejoin="round"/>
<path d="M287.759 216.519H211.425V222.418H287.759V216.519Z" fill="#999999" stroke="#263238" stroke-linecap="round" stroke-linejoin="round"/>
<path d="M328.481 83.8952L279.171 256.503H273.172L322.482 83.8952C324.301 77.5315 320.132 72.3532 313.184 72.3532H270.663C263.734 72.3532 256.586 77.5315 254.776 83.8952L205.457 256.503H199.458L248.768 83.8952C251.457 74.4776 261.975 66.8241 272.263 66.8241H314.754C325.021 66.843 331.18 74.4776 328.481 83.8952Z" fill="#757575" stroke="#263238" stroke-linecap="round" stroke-linejoin="round"/>
<path d="M329.27 83.9521L317.033 126.801C316.438 128.6 315.272 130.181 313.693 131.327C312.114 132.473 310.201 133.128 308.215 133.202H238.389C237.548 133.263 236.704 133.123 235.935 132.795C235.165 132.468 234.493 131.964 233.981 131.328C233.469 130.692 233.132 129.945 233 129.155C232.869 128.364 232.948 127.555 233.23 126.801L245.478 83.9521C246.074 82.1534 247.24 80.5731 248.819 79.4272C250.397 78.2814 252.31 77.6259 254.296 77.5504H324.111C324.952 77.4927 325.794 77.6342 326.562 77.9623C327.331 78.2904 328.001 78.7947 328.513 79.4297C329.025 80.0648 329.362 80.8107 329.494 81.6002C329.626 82.3896 329.549 83.1979 329.27 83.9521Z" fill="#1EA5FC"/>
<path opacity="0.2" d="M329.27 83.9521L317.033 126.801C316.438 128.6 315.272 130.181 313.693 131.327C312.114 132.473 310.201 133.128 308.215 133.202H238.389C237.548 133.263 236.704 133.123 235.935 132.795C235.165 132.468 234.493 131.964 233.981 131.328C233.469 130.692 233.132 129.945 233 129.155C232.869 128.364 232.948 127.555 233.23 126.801L245.478 83.9521C246.074 82.1534 247.24 80.5731 248.819 79.4273C250.397 78.2814 252.31 77.6259 254.296 77.5504H290.398C306.005 92.7248 304.015 120.693 302.996 129.134C304.625 128.762 306.125 127.998 307.351 126.914C308.577 125.831 309.488 124.465 309.994 122.95L322.242 80.1016C322.492 79.2725 322.543 78.4008 322.391 77.5504H324.141C324.979 77.4977 325.818 77.6429 326.582 77.9731C327.347 78.3033 328.013 78.8082 328.521 79.4425C329.029 80.0768 329.364 80.8208 329.494 81.6078C329.625 82.3948 329.548 83.2003 329.27 83.9521Z" fill="black" fill-opacity="0.7"/>
<path d="M329.27 83.9521L317.033 126.801C316.438 128.6 315.272 130.181 313.693 131.327C312.114 132.473 310.201 133.128 308.215 133.202H238.389C237.548 133.263 236.704 133.123 235.935 132.795C235.165 132.468 234.493 131.964 233.981 131.328C233.469 130.692 233.132 129.945 233 129.155C232.869 128.364 232.948 127.555 233.23 126.801L245.478 83.9521C246.074 82.1534 247.24 80.5731 248.819 79.4272C250.397 78.2814 252.31 77.6259 254.296 77.5504H324.111C324.952 77.4927 325.794 77.6342 326.562 77.9623C327.331 78.2904 328.001 78.7947 328.513 79.4297C329.025 80.0648 329.362 80.8107 329.494 81.6002C329.626 82.3896 329.549 83.1979 329.27 83.9521Z" stroke="#263238" stroke-linecap="round" stroke-linejoin="round"/>
<path d="M288.219 176.573L311.054 256.466H317.073L294.237 176.573H288.219Z" fill="#757575" stroke="#263238" stroke-linecap="round" stroke-linejoin="round"/>
<path d="M294.268 167.402V175.216H204.367V167.402C204.367 165.877 205.005 164.415 206.141 163.338C207.277 162.26 208.819 161.654 210.425 161.654H288.199C289.531 161.653 290.825 162.068 291.884 162.834C292.943 163.6 293.707 164.675 294.058 165.894C294.199 166.385 294.27 166.892 294.268 167.402Z" fill="#1EA5FC"/>
<path opacity="0.2" d="M294.058 165.894C291.148 169.137 285.929 172.438 276.951 175.216H204.367V167.402C204.367 165.877 205.005 164.415 206.141 163.338C207.277 162.26 208.819 161.654 210.425 161.654H288.199C289.531 161.653 290.825 162.068 291.884 162.834C292.943 163.6 293.707 164.675 294.058 165.894Z" fill="black" fill-opacity="0.7"/>
<path d="M294.268 167.402V175.216H204.367V167.402C204.367 165.877 205.005 164.415 206.141 163.338C207.277 162.26 208.819 161.654 210.425 161.654H288.199C289.531 161.653 290.825 162.068 291.884 162.834C292.943 163.6 293.707 164.675 294.058 165.894C294.199 166.385 294.27 166.892 294.268 167.402V167.402Z" stroke="#263238" stroke-linecap="round" stroke-linejoin="round"/>
<path d="M297.317 172.817H202.097C201.153 172.817 200.388 173.543 200.388 174.439V178.526C200.388 179.422 201.153 180.148 202.097 180.148H297.317C298.261 180.148 299.027 179.422 299.027 178.526V174.439C299.027 173.543 298.261 172.817 297.317 172.817Z" fill="#999999" stroke="#263238" stroke-linecap="round" stroke-linejoin="round"/>
<path d="M201.447 173.092C197.138 177.255 218.024 242.676 218.024 242.676C215.744 244.573 212.385 245.445 209.206 245.843C206.283 246.188 203.33 246.229 200.397 245.967C200.397 245.967 170.464 177.094 178.702 160.004C186.94 142.914 238.059 135.09 238.059 135.09L240.239 129.968L266.683 126.44L271.052 157.159C271.052 157.159 266.713 157.557 260.185 158.354C242.679 160.488 209.366 165.448 201.447 173.092Z" fill="#263238"/>
<path opacity="0.3" d="M218.024 242.676C215.744 244.573 212.385 245.445 209.206 245.844C203.397 225.358 188.61 170.693 194.209 164.006C201.117 155.755 235.31 148.253 235.31 148.253C235.45 144.043 247.438 140.249 247.438 140.249L260.185 158.382C242.679 160.516 209.366 165.476 201.447 173.12C197.138 177.255 218.024 242.676 218.024 242.676Z" fill="black"/>
<path d="M201.447 173.092C197.138 177.255 218.024 242.676 218.024 242.676C215.744 244.573 212.385 245.445 209.206 245.843C206.283 246.188 203.33 246.229 200.397 245.967C200.397 245.967 170.464 177.094 178.702 160.004C186.94 142.914 238.059 135.09 238.059 135.09L240.239 129.968L266.683 126.44L271.052 157.159C271.052 157.159 266.713 157.557 260.185 158.354C242.679 160.488 209.366 165.448 201.447 173.092Z" stroke="#263238" stroke-linecap="round" stroke-linejoin="round"/>
<path d="M186.651 111.133C182.262 110.412 213.505 84.4073 213.505 84.4073L228.572 94.0241C228.572 94.0241 202.957 111.181 198.958 111.645C194.959 112.11 186.651 111.133 186.651 111.133Z" fill="white"/>
<path opacity="0.2" d="M186.651 111.133C182.262 110.412 213.505 84.4073 213.505 84.4073L228.572 94.0241C228.572 94.0241 202.957 111.181 198.958 111.645C194.959 112.11 186.651 111.133 186.651 111.133Z" fill="black" fill-opacity="0.7"/>
<path d="M186.651 111.133C182.262 110.412 213.505 84.4073 213.505 84.4073L228.572 94.0241C228.572 94.0241 202.957 111.181 198.958 111.645C194.959 112.11 186.651 111.133 186.651 111.133Z" stroke="#263238" stroke-linecap="round" stroke-linejoin="round"/>
<path d="M192.159 100.208C192.159 100.208 198.708 101.754 200.707 103.053C202.707 104.352 202.147 109.056 202.147 109.056C202.147 109.056 193.399 106.704 192.159 100.208Z" fill="white" stroke="#263238" stroke-linecap="round" stroke-linejoin="round"/>
<path d="M187.96 88.3053L200.128 110.46H201.578L190.01 87.2146L187.96 88.3053Z" fill="#263238"/>
<path d="M198.958 104.324C198.958 104.324 191.28 99.1454 189.4 99.1454C187.52 99.1454 181.892 105.452 181.892 108.629C181.892 111.807 194.159 113.542 196.568 110.858C197.758 109.521 195.389 106.296 195.389 106.296C196.816 107.741 198.35 109.088 199.978 110.327C200.978 110.858 202.877 110.166 202.877 110.166C202.877 110.166 200.298 106.277 198.958 104.324Z" fill="white" stroke="#263238" stroke-linecap="round" stroke-linejoin="round"/>
<path d="M195.369 111.588C193.595 109.456 191.418 107.655 188.95 106.277" stroke="#263238" stroke-linecap="round" stroke-linejoin="round"/>
<path d="M195.368 106.277C195.368 106.277 192.709 104.077 190.919 103.593" stroke="#263238" stroke-linecap="round" stroke-linejoin="round"/>
<path d="M186.96 109.066C188.82 109.968 190.614 110.988 192.329 112.12" stroke="#263238" stroke-linecap="round" stroke-linejoin="round"/>
<path d="M223.293 73.074C219.354 75.6726 201.717 92.886 201.717 92.886C201.717 92.886 209.986 101.801 217.234 103.1L236.87 94.0525L223.293 73.074Z" fill="#1EA5FC" stroke="#263238" stroke-linecap="round" stroke-linejoin="round"/>
<path opacity="0.4" d="M223.293 73.074C219.354 75.6726 201.717 92.886 201.717 92.886C201.717 92.886 209.986 101.801 217.234 103.1L236.87 94.0525L223.293 73.074Z" fill="white" stroke="#263238" stroke-linecap="round" stroke-linejoin="round"/>
<path d="M213.805 235.734L222.113 256.466C222.113 256.466 223.492 261.805 198.378 260.117L184.531 258.988L213.805 235.734Z" fill="#1EA5FC"/>
<path opacity="0.3" d="M213.805 235.734L222.113 256.466C222.113 256.466 223.492 261.805 198.378 260.117L184.531 258.988L213.805 235.734Z" fill="black"/>
<path d="M213.805 235.734L222.113 256.466C222.113 256.466 223.492 261.805 198.378 260.117L184.531 258.988L213.805 235.734Z" stroke="#263238" stroke-linecap="round" stroke-linejoin="round"/>
<path d="M210.635 245.635C210.635 245.635 212.415 253.706 210.635 259.709C210.635 259.709 184.141 263.645 178.202 262.146C172.263 260.648 168.674 257.841 168.494 256.456C168.494 256.456 168.714 252.606 174.643 251.477C180.572 250.348 192.399 249.58 197.068 243.226C201.737 236.872 210.635 245.635 210.635 245.635Z" fill="#1EA5FC" stroke="#263238" stroke-linecap="round" stroke-linejoin="round"/>
<path d="M245.618 129.162C254.086 117.706 293.008 131.495 293.008 131.495C293.008 131.495 296.727 159.075 281.22 166.434C265.714 173.794 243.359 173.395 237.32 179.361L212.745 248.196C212.745 248.196 203.917 251.695 191.08 246.185C191.08 246.185 206.686 194.203 211.265 175.747C215.794 157.481 245.118 145.076 245.118 145.076C243.603 143.388 242.454 141.431 241.739 139.32" fill="#263238"/>
<path d="M245.618 129.162C254.086 117.706 293.008 131.495 293.008 131.495C293.008 131.495 296.727 159.075 281.22 166.434C265.714 173.794 243.359 173.395 237.32 179.361L212.745 248.196C212.745 248.196 203.917 251.695 191.08 246.185C191.08 246.185 206.686 194.203 211.265 175.747C215.794 157.481 245.118 145.076 245.118 145.076C243.603 143.388 242.454 141.431 241.739 139.32" stroke="#263238" stroke-linecap="round" stroke-linejoin="round"/>
<path d="M285.03 155.537C283.782 156.584 282.47 157.559 281.101 158.458" stroke="white" stroke-linecap="round" stroke-linejoin="round"/>
<path d="M288.219 132.169C291.398 138.713 291.648 147.021 287.219 153.033" stroke="white" stroke-linecap="round" stroke-linejoin="round"/>
<path d="M279.351 133.202C279.351 133.202 278.531 138.248 280.91 140.249C283.29 142.25 290.548 143.265 290.548 143.265" stroke="white" stroke-linecap="round" stroke-linejoin="round"/>
<path d="M247.428 133.449C247.428 133.449 247.767 138.475 245.618 138.191C243.468 137.906 243.358 140.202 243.358 140.202" stroke="white" stroke-linecap="round" stroke-linejoin="round"/>
<path d="M223.813 76.934C223.485 75.6703 223.311 74.3752 223.293 73.074C223.293 73.074 235.29 63.4762 250.737 63.5236C269.133 63.59 280.371 69.0718 284.88 76.6969C292.018 88.77 293.008 131.495 293.008 131.495C293.008 131.495 246.858 138.248 240.229 129.968C239.09 128.527 239.969 118.341 239.969 118.341C239.969 118.341 234.801 105.49 233.711 95.5131C233.711 95.5131 231.711 92.9714 229.482 89.3485C227.836 86.7379 226.412 84.0074 225.223 81.1828" fill="#1EA5FC"/>
<path d="M223.813 76.934C223.485 75.6703 223.311 74.3752 223.293 73.074C223.293 73.074 235.29 63.4762 250.737 63.5236C269.133 63.59 280.371 69.0718 284.88 76.6969C292.018 88.77 293.008 131.495 293.008 131.495C293.008 131.495 246.858 138.248 240.229 129.968C239.09 128.527 239.969 118.341 239.969 118.341C239.969 118.341 234.801 105.49 233.711 95.5131C233.711 95.5131 231.711 92.9714 229.482 89.3485C227.836 86.7379 226.412 84.0074 225.223 81.1828" stroke="#263238" stroke-linecap="round" stroke-linejoin="round"/>
<g opacity="0.6">
<path d="M223.813 76.934C223.485 75.6703 223.311 74.3752 223.293 73.074C223.293 73.074 235.29 63.4762 250.737 63.5236C269.133 63.59 280.371 69.0718 284.88 76.6969C292.018 88.77 293.008 131.495 293.008 131.495C293.008 131.495 246.858 138.248 240.229 129.968C239.09 128.527 239.969 118.341 239.969 118.341C239.969 118.341 234.801 105.49 233.711 95.5131C233.711 95.5131 231.711 92.9714 229.482 89.3485C227.836 86.7379 226.412 84.0074 225.223 81.1828" fill="white"/>
<path d="M223.813 76.934C223.485 75.6703 223.311 74.3752 223.293 73.074C223.293 73.074 235.29 63.4762 250.737 63.5236C269.133 63.59 280.371 69.0718 284.88 76.6969C292.018 88.77 293.008 131.495 293.008 131.495C293.008 131.495 246.858 138.248 240.229 129.968C239.09 128.527 239.969 118.341 239.969 118.341C239.969 118.341 234.801 105.49 233.711 95.5131C233.711 95.5131 231.711 92.9714 229.482 89.3485C227.836 86.7379 226.412 84.0074 225.223 81.1828" stroke="#263238" stroke-linecap="round" stroke-linejoin="round"/>
</g>
<path d="M241.489 87.2525C241.489 87.2525 248.537 113.191 247.487 118.901C247.239 120.868 247.586 122.861 248.487 124.648C247.569 125.57 246.979 126.743 246.8 128C246.621 129.257 246.861 130.536 247.487 131.657" stroke="#263238" stroke-linecap="round" stroke-linejoin="round"/>
<path d="M260.185 108.667C258.926 108.63 257.702 108.265 256.646 107.615L254.556 98.9273C258.702 99.2863 262.881 99.0077 266.934 98.1022L269.173 107.586C267.91 107.915 266.628 108.178 265.334 108.373" stroke="#263238" stroke-linecap="round" stroke-linejoin="round"/>
<path d="M236.48 90.5909C236.48 90.5909 230.521 66.3878 245.618 63.5426C260.715 60.6974 263.864 67.4405 262.964 71.9833C261.775 78.0436 249.237 92.905 249.237 92.905L241.489 87.2146L236.48 90.5909Z" fill="#1EA5FC" stroke="#263238" stroke-linecap="round" stroke-linejoin="round"/>
<path opacity="0.4" d="M236.48 90.5909C236.48 90.5909 230.521 66.3878 245.618 63.5426C260.715 60.6974 263.864 67.4405 262.964 71.9833C261.775 78.0436 249.237 92.905 249.237 92.905L241.489 87.2146L236.48 90.5909Z" fill="white" stroke="#263238" stroke-linecap="round" stroke-linejoin="round"/>
<path d="M216.624 165.419C216.624 165.419 226.402 154.712 248.477 146.622C248.477 146.622 242.758 144.963 241.479 142.705" stroke="white" stroke-linecap="round" stroke-linejoin="round"/>
<path d="M205.127 198.234L196.179 229.019" stroke="white" stroke-linecap="round" stroke-linejoin="round"/>
<path d="M274.182 109.511C274.182 109.511 278.181 115.913 294.658 115.325C291.587 112.215 287.708 109.925 283.41 108.686C276.692 106.979 274.182 109.511 274.182 109.511Z" fill="#92E3A9" stroke="#263238" stroke-linecap="round" stroke-linejoin="round"/>
<path d="M210.295 112.082C210.295 112.082 214.125 106.467 217.624 105.338C221.123 104.21 231.401 104.115 232.981 104.077C234.56 104.039 262.824 110.849 276.071 115.041L274.942 94.0525L292.758 95.3803C292.758 95.3803 292.038 120.987 289.269 127.778C286.499 134.568 282.53 132.908 275.762 130.139C249.137 119.261 233.53 111.674 232.091 112.12C230.651 112.565 210.295 112.082 210.295 112.082Z" fill="white" stroke="#263238" stroke-linecap="round" stroke-linejoin="round"/>
<path d="M270.473 81.8562C270.007 83.596 269.858 85.3987 270.033 87.1862C270.823 93.7491 274.182 109.511 274.182 109.511C274.182 109.511 290.799 111.759 294.658 115.325C294.658 115.325 297.387 94.4604 291.818 83.8668C286.25 73.2732 280.471 72.0782 280.471 72.0782C276.822 71.2246 273.472 74.4492 271.613 78.5937" fill="#1EA5FC"/>
<path d="M270.473 81.8562C270.007 83.596 269.858 85.3987 270.033 87.1862C270.823 93.7491 274.182 109.511 274.182 109.511C274.182 109.511 290.799 111.759 294.658 115.325C294.658 115.325 297.387 94.4604 291.818 83.8668C286.25 73.2732 280.471 72.0782 280.471 72.0782C276.822 71.2246 273.472 74.4492 271.613 78.5937" stroke="#263238" stroke-linecap="round" stroke-linejoin="round"/>
<g opacity="0.4">
<g opacity="0.4">
<path d="M270.473 81.8562C270.007 83.596 269.858 85.3987 270.033 87.1862C270.823 93.7491 274.182 109.511 274.182 109.511C274.182 109.511 290.799 111.759 294.658 115.325C294.658 115.325 297.387 94.4604 291.818 83.8668C286.25 73.2732 280.471 72.0782 280.471 72.0782C276.822 71.2246 273.472 74.4492 271.613 78.5937" fill="white"/>
<path d="M270.473 81.8562C270.007 83.596 269.858 85.3987 270.033 87.1862C270.823 93.7491 274.182 109.511 274.182 109.511C274.182 109.511 290.799 111.759 294.658 115.325C294.658 115.325 297.387 94.4604 291.818 83.8668C286.25 73.2732 280.471 72.0782 280.471 72.0782C276.822 71.2246 273.472 74.4492 271.613 78.5937" stroke="#263238" stroke-linecap="round" stroke-linejoin="round"/>
</g>
</g>
<path d="M221.683 89.965C224.167 91.9001 227.068 93.2954 230.181 94.0525" stroke="#263238" stroke-linecap="round" stroke-linejoin="round"/>
<path d="M274.182 89.965C274.182 89.965 280.181 100.72 287.769 103.1" stroke="#263238" stroke-linecap="round" stroke-linejoin="round"/>
<path d="M235.32 172.817C235.32 172.817 236.43 173.614 236.87 176.487" stroke="white" stroke-linecap="round" stroke-linejoin="round"/>
<path d="M231.201 176.487C232.169 176.585 233.104 176.874 233.948 177.334C234.791 177.795 235.524 178.417 236.1 179.162" stroke="white" stroke-linecap="round" stroke-linejoin="round"/>
<path d="M198.148 165.419C198.148 165.419 201.347 166.956 200.657 171.309" stroke="white" stroke-linecap="round" stroke-linejoin="round"/>
<path d="M194.769 169.166C194.769 169.166 199.138 171.622 199.448 173.822" stroke="white" stroke-linecap="round" stroke-linejoin="round"/>
<path d="M245.408 142.629C245.408 142.629 255.136 143.919 257.306 142.629" stroke="white" stroke-linecap="round" stroke-linejoin="round"/>
<path d="M241.489 86.1714C240.652 83.9119 240.312 81.5138 240.489 79.1248C240.529 78.3143 240.619 77.5068 240.759 76.7064L239.049 74.1647L236.88 70.8927L239.389 61.4087C239.389 61.4087 255.386 64.3298 256.586 68.5596C257.785 72.7895 241.489 86.1714 241.489 86.1714Z" fill="white"/>
<path opacity="0.2" d="M240.469 79.1248C240.509 78.3143 240.599 77.5068 240.739 76.7064L239.049 74.1647C242.095 73.7194 244.869 72.244 246.858 70.0107C246.942 71.9748 246.369 73.9138 245.222 75.5507C244.074 77.1875 242.411 78.4385 240.469 79.1248Z" fill="black" fill-opacity="0.7"/>
<path d="M241.489 86.1714C240.652 83.9119 240.312 81.5138 240.489 79.1248C240.529 78.3143 240.619 77.5068 240.759 76.7064L239.049 74.1647L236.88 70.8927L239.389 61.4087C239.389 61.4087 255.386 64.3298 256.586 68.5596C257.785 72.7895 241.489 86.1714 241.489 86.1714Z" stroke="#263238" stroke-linecap="round" stroke-linejoin="round"/>
<path d="M251.527 62.2054C256.476 49.8762 253.206 28.8882 229.202 32.9094C215.075 35.2804 213.435 51.4221 218.154 58.5825C222.873 65.7429 217.854 65.9895 224.932 71.3005C227.792 73.4534 230.111 77.1047 233.531 77.3418C237.59 77.6074 242.809 73.956 246.698 70.0107" fill="white"/>
<path d="M251.527 62.2054C256.476 49.8762 253.206 28.8882 229.202 32.9094C215.075 35.2804 213.435 51.4221 218.154 58.5825C222.873 65.7429 217.854 65.9895 224.932 71.3005C227.792 73.4534 230.111 77.1047 233.531 77.3418C237.59 77.6074 242.809 73.956 246.698 70.0107" stroke="#263238" stroke-linecap="round" stroke-linejoin="round"/>
<path d="M227.882 58.5825C227.882 58.5825 231.421 55.5381 235.62 56.7995" stroke="#263238" stroke-linecap="round" stroke-linejoin="round"/>
<path d="M221.243 58.5825C220.77 57.7911 220.111 57.114 219.316 56.6041C218.522 56.0941 217.614 55.765 216.664 55.6425" stroke="#263238" stroke-linecap="round" stroke-linejoin="round"/>
<path d="M223.583 62.983C223.583 62.983 223.083 65.4489 222.413 67.9337C221.743 70.4185 226.612 69.0623 226.412 68.6734" fill="white"/>
<path d="M223.583 62.983C223.583 62.983 223.083 65.4489 222.413 67.9337C221.743 70.4185 226.612 69.0623 226.412 68.6734" stroke="#263238" stroke-linecap="round" stroke-linejoin="round"/>
<path d="M228.952 71.8316C231.014 71.2714 232.847 70.1304 234.211 68.5596" stroke="#263238" stroke-linecap="round" stroke-linejoin="round"/>
<path d="M232.801 61.7122C232.813 61.9093 232.765 62.1055 232.665 62.2781C232.564 62.4508 232.413 62.5927 232.231 62.6874C232.048 62.7822 231.841 62.8258 231.633 62.8134C231.426 62.8009 231.226 62.7328 231.057 62.617C230.889 62.5012 230.759 62.3424 230.681 62.1591C230.604 61.9757 230.584 61.7754 230.622 61.5814C230.66 61.3873 230.755 61.2075 230.896 61.0628C231.038 60.918 231.22 60.8144 231.421 60.7638C231.735 60.7247 232.053 60.8012 232.31 60.9775C232.566 61.1539 232.742 61.4168 232.801 61.7122Z" fill="#263238"/>
<path d="M222.103 61.4941C222.303 62.1864 222.103 62.8218 221.773 62.9262C221.443 63.0305 220.933 62.5468 220.773 61.8545C220.613 61.1621 220.723 60.5267 221.103 60.4319C221.483 60.337 221.953 60.8112 222.103 61.4941Z" fill="#263238"/>
<path d="M236.73 45.8929C236.73 45.8929 233.011 55.1209 223.813 54.9122C223.813 54.9122 227.002 52.6076 227.882 50.3978C227.882 50.3978 220.803 57.0366 213.725 53.6698C206.646 50.303 210.096 34.607 220.973 28.3855C231.851 22.164 242.919 23.8427 246.678 29.7702C246.678 29.7702 254.286 29.1063 257.676 39.6999C260.675 49.1839 255.886 63.5521 251.187 63.7228C243.928 63.9789 242.459 56.496 242.459 56.496C239.444 53.6055 237.443 49.9025 236.73 45.8929Z" fill="#263238" stroke="#263238" stroke-linecap="round" stroke-linejoin="round"/>
<path d="M244.688 62.2528C244.688 62.2528 244.468 53.5465 249.687 54.5992C254.906 55.6519 251.127 65.7144 247.198 65.6101" fill="white"/>
<path d="M244.688 62.2528C244.688 62.2528 244.468 53.5465 249.687 54.5992C254.906 55.6519 251.127 65.7144 247.198 65.6101" stroke="#263238" stroke-linecap="round" stroke-linejoin="round"/>
<path d="M228.552 111.133H147.939C147.039 111.133 146.309 111.825 146.309 112.679V115.344C146.309 116.198 147.039 116.89 147.939 116.89H228.552C229.452 116.89 230.181 116.198 230.181 115.344V112.679C230.181 111.825 229.452 111.133 228.552 111.133Z" fill="#1EA5FC" stroke="#263238" stroke-linecap="round" stroke-linejoin="round"/>
</g>
<defs>
<clipPath id="clip0">
<rect width="330" height="263" fill="white"/>
</clipPath>
</defs>
</svg>
