<svg xmlns="http://www.w3.org/2000/svg" viewBox="0 0 702.78 648.11"><defs><style>.cls-1{fill:#f2f2f2;}.cls-2{fill:#fff;}.cls-3{fill:#e6e6e6;}.cls-4{fill:#ccc;}.cls-5{fill:#1ea5fc;}</style></defs><g id="Layer_2" data-name="Layer 2"><g id="a14aeead-7a51-49c7-9dde-c662f5733ecb"><path class="cls-1" d="M400.5,1.52,375.06,8.09,61.55,88.93,36.11,95.49A48.19,48.19,0,0,0,1.52,154.11L111.87,582a48.16,48.16,0,0,0,58.61,34.58h.07l364.26-93.94.07,0A48.17,48.17,0,0,0,569.46,464L459.12,36.11A48.18,48.18,0,0,0,400.5,1.52Z"/><path class="cls-2" d="M404,14.94l-30.14,7.77L69.71,101.14l-30.14,7.77a34.31,34.31,0,0,0-24.63,41.74L125.28,578.53A34.32,34.32,0,0,0,167,603.16l.07,0L531.35,509.2h.07a34.32,34.32,0,0,0,24.63-41.75L445.71,39.57A34.32,34.32,0,0,0,404,14.94Z"/><path class="cls-1" d="M381.21,153.5,196.93,201a8,8,0,0,1-4-15.52L377.2,138a8,8,0,0,1,4,15.52Z"/><path class="cls-1" d="M420,171.43,203.69,227.21a8,8,0,1,1-4-15.52h0L416,155.91a8,8,0,0,1,4,15.52Z"/><path class="cls-1" d="M411.47,270.87,227.2,318.39a8,8,0,1,1-4-15.52h0l184.27-47.52a8,8,0,0,1,4,15.52Z"/><path class="cls-1" d="M450.24,288.81,234,344.58a8,8,0,1,1-4-15.51h0l216.29-55.77a8,8,0,1,1,4,15.52Z"/><path class="cls-1" d="M441.74,388.24,257.47,435.76a8,8,0,0,1-4-15.52l184.27-47.52a8,8,0,1,1,4,15.52Z"/><path class="cls-1" d="M480.51,406.18,264.22,462a8,8,0,0,1-4-15.52h0l216.29-55.78a8,8,0,1,1,4,15.52Z"/><path class="cls-3" d="M165.48,249.74l-65.22,16.82a3.85,3.85,0,0,1-4.68-2.76l-15-58.05a3.86,3.86,0,0,1,2.76-4.68l65.22-16.82a3.86,3.86,0,0,1,4.68,2.76l15,58.05A3.85,3.85,0,0,1,165.48,249.74Z"/><path class="cls-3" d="M195.74,367.12l-65.21,16.81a3.84,3.84,0,0,1-4.68-2.76l-15-58.05a3.85,3.85,0,0,1,2.76-4.68l65.21-16.81a3.85,3.85,0,0,1,4.69,2.76l15,58.05A3.84,3.84,0,0,1,195.74,367.12Z"/><path class="cls-3" d="M226,484.49,160.8,501.31a3.85,3.85,0,0,1-4.68-2.76l-15-58.05a3.84,3.84,0,0,1,2.76-4.68L209.12,419a3.84,3.84,0,0,1,4.68,2.76l15,58.05A3.84,3.84,0,0,1,226,484.49Z"/><path class="cls-3" d="M654.65,110H278.33a48.17,48.17,0,0,0-48.12,48.12V600a48.18,48.18,0,0,0,48.12,48.12H654.65A48.18,48.18,0,0,0,702.78,600V158.11A48.17,48.17,0,0,0,654.65,110Z"/><path class="cls-2" d="M654.65,123.84H278.33a34.31,34.31,0,0,0-34.27,34.27V600a34.31,34.31,0,0,0,34.27,34.27H654.65A34.3,34.3,0,0,0,688.92,600V158.11A34.3,34.3,0,0,0,654.65,123.84Z"/><path class="cls-3" d="M598,366.65H407.72a8,8,0,1,1,0-16H598a8,8,0,0,1,0,16Z"/><path class="cls-3" d="M631.08,393.7H407.72a8,8,0,1,1,0-16H631.08a8,8,0,0,1,0,16Z"/><path class="cls-3" d="M598,487.86H407.72a8,8,0,1,1,0-16H598a8,8,0,0,1,0,16Z"/><path class="cls-3" d="M631.08,514.91H407.72a8,8,0,1,1,0-16H631.08a8,8,0,0,1,0,16Z"/><path class="cls-3" d="M365.09,406H297.74a3.86,3.86,0,0,1-3.84-3.85V342.19a3.85,3.85,0,0,1,3.84-3.85h67.35a3.85,3.85,0,0,1,3.84,3.85v59.94A3.86,3.86,0,0,1,365.09,406Z"/><path class="cls-3" d="M365.09,527.19H297.74a3.84,3.84,0,0,1-3.84-3.84v-60a3.84,3.84,0,0,1,3.84-3.84h67.35a3.84,3.84,0,0,1,3.84,3.84v60A3.84,3.84,0,0,1,365.09,527.19Z"/><path class="cls-4" d="M598.23,231.72H457.93a8,8,0,1,1,0-16h140.3a8,8,0,0,1,0,16Z"/><path class="cls-4" d="M631.29,258.76H457.93a8,8,0,1,1,0-16H631.29a8,8,0,0,1,0,16Z"/><path class="cls-5" d="M426.88,291.54H297.53a3.84,3.84,0,0,1-3.84-3.84V186.75a3.84,3.84,0,0,1,3.84-3.84H426.88a3.84,3.84,0,0,1,3.84,3.84V287.7A3.84,3.84,0,0,1,426.88,291.54Z"/></g></g></svg>