<svg xmlns="http://www.w3.org/2000/svg" viewBox="0 0 436.51 388"><defs><style>.cls-1{fill:#ffb8b8;}.cls-2{fill:#1ea5fc;}.cls-3{fill:#2f2e41;}.cls-4{fill:#3f3d56;}.cls-5{fill:#ccc;}</style></defs><g id="Layer_2" data-name="Layer 2"><g id="e206c98e-a062-454f-98a1-36dd7d468c34"><path class="cls-1" d="M105.62,99.43c-.5,0-21.91-1.46-22.45-1.48l1.92-19.2,12.19-.36,23.3-43.16c-3.23-6.16.75-14.34,7.6-15.6,13.82-3.14,18.56,18.6,4.71,21.49L113.61,93.85A8.53,8.53,0,0,1,105.62,99.43Z"/><path class="cls-2" d="M49.18,109.32c-20.37.05-22.16-30.74-1.74-32.91,54-3.26,47.16-16.82,51.26,23.18a4.5,4.5,0,0,1-4,5L51,109.23A17.19,17.19,0,0,1,49.18,109.32Z"/><path class="cls-1" d="M44.53,12c28.07,16,5,58.11-23.56,43.1C-7.09,39.11,16-3,44.53,12Z"/><polygon class="cls-1" points="70.05 374.69 82.31 374.69 88.14 327.4 70.05 327.4 70.05 374.69"/><path class="cls-3" d="M67.42,386.07H106c-.14-19.88-25.92-14.15-38.53-14.88Z"/><polygon class="cls-1" points="17.05 374.69 29.31 374.69 35.14 327.4 17.05 327.4 17.05 374.69"/><path class="cls-3" d="M14.42,386.07H53c-.14-19.88-25.92-14.15-38.53-14.88Z"/><path class="cls-3" d="M31,358.17c-3-.81-19.06,1.65-21-1.58C3.38,290.08,4.86,225,19.59,189.22l50.65-3.1C81.56,206.8,107.6,344,91.89,352.34l-20.19.72a5,5,0,0,1-5-3.83l-16.9-96.12c-4.2-5.88-12.47,101.23-13.84,100.83A5,5,0,0,1,31,358.17Z"/><path class="cls-2" d="M18,197.63C-7.59,170.88,8.72,99.15,7.89,100.68,8,98.92,13.76,71.86,28.74,67.42c11.88-3.92,25,7.81,26.66,19.68L73.21,192.25a3.7,3.7,0,0,1-1,3.18C73.07,198.16,19.23,197.08,18,197.63Z"/><path class="cls-3" d="M26.28,30.8c2.24-1.42,3.35-3.85,4.66-6.07,6.88-3.93,14.8,5.57,22.08,2C73.61,7,52.45,1.15,33.48.11,29-.44,25.19,1.15,21.8,3.77-16.08.88,2.09,51.25,26,57.91c4.22,1.85,7.38-1.9,3.66-5.3C24.51,47.21,18.13,36.34,26.28,30.8Z"/><path class="cls-4" d="M419.51,8h-274a17,17,0,0,0-17,17V371a17,17,0,0,0,17,17h274a17,17,0,0,0,17-17V25A17,17,0,0,0,419.51,8Zm15,363a15,15,0,0,1-15,15h-274a15,15,0,0,1-15-15V25a15,15,0,0,1,15-15h274a15,15,0,0,1,15,15Z"/><path class="cls-1" d="M68.31,153.59c-9,1-13-20-16.45-25.34l18-7L75.7,132l49,1.22a10.3,10.3,0,0,1,1-1.12h0c9.72-10.18,25.55,5.07,15.87,15.23a11,11,0,0,1-15.6.47,11.5,11.5,0,0,1-.9-1C123.84,146.91,69.49,153.63,68.31,153.59Z"/><path class="cls-2" d="M55,143.56c-3,2.9-26.09-37.77-27.78-38.92-11.66-18.13,15.8-36,27.66-18l24,36.88a4.51,4.51,0,0,1-1.32,6.23C76.46,130.26,55.76,144.66,55,143.56Z"/><path class="cls-5" d="M365.51,247.5h-166c-17-.09-17-25.92,0-26h166C382.45,221.58,382.55,247.41,365.51,247.5Z"/><path class="cls-5" d="M365.51,295.5h-166c-17-.09-17-25.92,0-26h166C382.45,269.58,382.55,295.41,365.51,295.5Z"/><path class="cls-5" d="M365.51,343.5h-166c-17-.09-17-25.92,0-26h166C382.45,317.58,382.55,343.41,365.51,343.5Z"/><path class="cls-2" d="M362.51,190.3h-160A16.52,16.52,0,0,1,186,173.8V84.2a16.52,16.52,0,0,1,16.5-16.5h160A16.52,16.52,0,0,1,379,84.2v89.6A16.52,16.52,0,0,1,362.51,190.3Z"/></g></g></svg>