<svg width="934" height="791" viewBox="0 0 934 791" fill="none" xmlns="http://www.w3.org/2000/svg">
<g clip-path="url(#clip0)">
<path d="M447.64 599.041L337.73 649.378L201.671 263.053L294.579 220.508C296.812 219.483 299.2 218.97 301.607 218.998C304.014 219.027 306.392 219.596 308.606 220.673C310.82 221.751 312.826 223.315 314.509 225.277C316.192 227.24 317.519 229.561 318.415 232.108L447.64 599.041Z" fill="#BED1F9"/>
<path d="M408.108 247.275L197.655 289.807L250.096 627.23L460.55 584.698L408.108 247.275Z" fill="#BED1F9"/>
<path d="M354.955 292.556L260.972 311.55L261.346 313.957L355.329 294.964L354.955 292.556Z" fill="#BED1F9"/>
<path d="M373.747 282.464L240.279 309.437L240.653 311.845L374.121 284.871L373.747 282.464Z" fill="#BED1F9"/>
<path d="M392.852 310.954L230.922 343.68L231.297 346.088L393.226 313.362L392.852 310.954Z" fill="#BED1F9"/>
<path d="M394.647 322.52L232.723 355.244L233.097 357.652L395.022 324.928L394.647 322.52Z" fill="#BED1F9"/>
<path d="M398.241 345.667L236.316 378.392L236.691 380.8L398.615 348.075L398.241 345.667Z" fill="#BED1F9"/>
<path d="M400.047 357.243L238.122 389.967L238.496 392.375L400.421 359.651L400.047 357.243Z" fill="#BED1F9"/>
<path d="M401.842 368.809L239.917 401.533L240.292 403.941L402.216 371.217L401.842 368.809Z" fill="#BED1F9"/>
<path d="M406.118 419.791L244.954 451.672L245.319 454.068L406.482 422.188L406.118 419.791Z" fill="#BED1F9"/>
<path d="M411.617 431.711L249.692 464.435L250.067 466.843L411.991 434.118L411.617 431.711Z" fill="#BED1F9"/>
<path d="M413.482 443.707L251.558 476.431L251.932 478.839L413.856 446.115L413.482 443.707Z" fill="#BED1F9"/>
<path d="M415.343 455.714L253.418 488.438L253.792 490.846L415.717 458.122L415.343 455.714Z" fill="#BED1F9"/>
<path d="M417.208 467.705L255.283 500.429L255.657 502.837L417.582 470.113L417.208 467.705Z" fill="#BED1F9"/>
<path d="M419.074 479.712L257.149 512.436L257.524 514.844L419.448 482.12L419.074 479.712Z" fill="#BED1F9"/>
<path d="M420.939 491.708L259.015 524.432L259.389 526.84L421.314 494.116L420.939 491.708Z" fill="#BED1F9"/>
<path d="M377.78 238.858L171.081 300.87L247.541 632.273L454.24 570.261L377.78 238.858Z" fill="#DDE8FE"/>
<path d="M328.048 288.949L235.741 316.642L236.287 319.007L328.593 291.314L328.048 288.949Z" fill="#7C9AF2"/>
<path d="M345.913 279.762L214.432 318.405L214.968 320.777L346.449 282.134L345.913 279.762Z" fill="#7C9AF2"/>
<path d="M367.137 303.752L208.101 351.465L208.646 353.829L367.682 306.117L367.137 303.752Z" fill="#7C9AF2"/>
<path d="M369.754 315.114L210.718 362.827L211.264 365.192L370.3 317.479L369.754 315.114Z" fill="#7C9AF2"/>
<path d="M374.999 337.842L215.963 385.554L216.509 387.919L375.545 340.207L374.999 337.842Z" fill="#7C9AF2"/>
<path d="M377.623 349.209L218.587 396.922L219.133 399.286L378.169 351.574L377.623 349.209Z" fill="#7C9AF2"/>
<path d="M380.243 360.582L221.207 408.294L221.752 410.659L380.788 362.947L380.243 360.582Z" fill="#7C9AF2"/>
<path d="M391.776 410.571L232.74 458.283L233.286 460.648L392.322 412.936L391.776 410.571Z" fill="#7C9AF2"/>
<path d="M394.5 422.357L235.464 470.069L236.01 472.434L395.046 424.721L394.5 422.357Z" fill="#7C9AF2"/>
<path d="M397.218 434.138L238.182 481.851L238.728 484.216L397.764 436.503L397.218 434.138Z" fill="#7C9AF2"/>
<path d="M399.932 445.931L240.896 493.643L241.442 496.008L400.478 448.296L399.932 445.931Z" fill="#7C9AF2"/>
<path d="M402.655 457.711L243.619 505.424L244.164 507.789L403.2 460.076L402.655 457.711Z" fill="#7C9AF2"/>
<path d="M405.374 469.498L246.338 517.211L246.884 519.576L405.92 471.863L405.374 469.498Z" fill="#7C9AF2"/>
<path d="M408.096 481.279L249.06 528.991L249.606 531.356L408.642 483.644L408.096 481.279Z" fill="#7C9AF2"/>
<path d="M405.935 618.143L184.655 719.483L55.5938 353.023L241.54 222.233C243.993 220.505 246.748 219.409 249.612 219.022C252.476 218.635 255.379 218.966 258.119 219.992C260.858 221.018 263.369 222.714 265.474 224.962C267.579 227.209 269.228 229.954 270.305 233.004L405.935 618.143Z" fill="#1E5EFC"/>
<path d="M113.25 660.177L81.6796 659.523C70.7209 636.877 62.6826 617.181 62.6826 617.181C98.3442 607.839 128.42 611.686 153.489 622.643L167.306 660.913L170.26 631.447C232.388 669.679 257.968 750.609 257.968 750.609C257.968 750.609 148.169 737.272 124.893 724.929C115.905 720.165 104.58 703.014 94.0503 683.752C102.498 674.619 113.25 660.177 113.25 660.177Z" fill="#FA7167"/>
<path d="M62.6826 617.181C62.6826 617.181 203.647 684.829 257.987 750.609C257.987 750.609 148.188 737.272 124.912 724.929C115.924 720.165 104.599 703.013 94.0696 683.752C102.484 674.619 113.235 660.177 113.235 660.177L81.6652 659.523C70.7209 636.877 62.6826 617.181 62.6826 617.181Z" fill="#E8605D"/>
<path d="M67.1782 725.297C86.1608 712.108 105.307 705.063 123.842 702.25C129.273 709.943 135.938 719.01 135.938 719.01L136.641 700.958C207.743 697.265 266.661 751.587 266.661 751.587C225.482 781.185 190.35 789.346 161.575 786.702C159.869 780.388 157.455 770.964 157.455 770.964L152.376 785.466C139.682 783.193 127.375 778.687 115.895 772.107C118.589 764.584 121.422 755.983 121.422 755.983L106.098 765.908C80.4164 748.004 67.1782 725.297 67.1782 725.297Z" fill="#FA7167"/>
<path d="M161.575 786.703C159.869 780.389 157.455 770.964 157.455 770.964L152.376 785.466C139.682 783.194 127.375 778.687 115.895 772.107C118.589 764.584 121.422 755.984 121.422 755.984L106.098 765.908C80.4164 748.004 67.1782 725.297 67.1782 725.297C150.024 714.383 266.661 751.587 266.661 751.587C225.482 781.185 190.355 789.346 161.575 786.703Z" fill="#E8605D"/>
<path d="M482.053 238.252L507.503 216.941C504.987 191.228 501.585 169.857 501.585 169.857C467.725 185.672 445.104 208.616 430.194 234.103L438.285 274.445L420.937 252.326C389.574 324.431 409.626 407.367 409.626 407.367C409.626 407.367 492.515 324.206 505.295 298.806C510.221 288.997 510.789 267.537 509.633 244.885C498.144 242.967 482.053 238.252 482.053 238.252Z" fill="#92B5F9"/>
<path d="M501.585 169.857C501.585 169.857 420.71 317.88 409.626 407.367C409.626 407.367 492.515 324.206 505.295 298.806C510.22 288.997 510.789 267.537 509.632 244.885C498.139 242.967 482.048 238.252 482.048 238.252L507.498 216.941C504.987 191.239 501.585 169.857 501.585 169.857Z" fill="#7C9AF2"/>
<path d="M552.639 261.102C530.47 262.833 511.261 269.68 494.703 279.578C494.163 289.469 493.305 301.229 493.305 301.229L483.59 286.941C423.659 330.729 403.048 413.885 403.048 413.885C451.658 410.95 484.491 394.492 506.635 373.389C504.828 367.114 502.033 357.826 502.033 357.826L513.526 366.328C522.741 356.105 530.507 344.312 536.547 331.372C530.543 326.975 523.873 321.843 523.873 321.843L541.41 319.864C553.318 288.359 552.639 261.102 552.639 261.102Z" fill="#92B5F9"/>
<path d="M506.635 373.378C504.828 367.103 502.033 357.815 502.033 357.815L513.526 366.317C522.74 356.097 530.506 344.308 536.547 331.372C530.543 326.975 523.873 321.843 523.873 321.843L541.41 319.864C553.318 288.337 552.639 261.064 552.639 261.064C479.465 306.675 403.048 413.835 403.048 413.835C451.658 410.939 484.477 394.481 506.635 373.378Z" fill="#7C9AF2"/>
<path d="M746.184 366.476H760.94C758.362 364.496 755.321 363.449 752.213 363.47H382.297C362.943 363.47 347.252 379.33 347.252 398.893V421.391C347.252 440.955 362.943 456.815 382.297 456.815L748.068 456.688L746.184 366.476Z" fill="#4951EC"/>
<path d="M379.048 422.826V399.745C379.048 379.698 395.13 363.448 414.961 363.448H406.821C386.99 363.448 370.909 379.698 370.909 399.745V422.826C370.909 442.873 386.99 459.128 406.821 459.128H414.854C395.072 459.062 379.048 442.84 379.048 422.826Z" fill="#DDE8FE"/>
<path d="M467.832 422.826V399.745C467.832 379.698 483.913 363.448 503.744 363.448H495.605C475.769 363.448 459.692 379.698 459.692 399.745V422.826C459.692 442.873 475.769 459.128 495.605 459.128H503.638C483.841 459.062 467.832 442.84 467.832 422.826Z" fill="#DDE8FE"/>
<path d="M540.841 363.552C521.873 363.552 506.5 379.093 506.5 398.267V424.326C506.5 443.499 521.873 459.04 540.841 459.04H776.843V453.21H775.879L715.886 447.467L703.761 399.382C703.761 399.382 727.163 372.812 728.69 372.125C730.218 371.438 775.879 369.378 775.879 369.378H776.843V363.552H540.841Z" fill="#7C9AF2"/>
<path d="M761.528 411.126C761.528 383.012 775.899 369.361 775.899 369.361H545.675C528.254 369.361 514.134 383.649 514.134 401.234V421.293C514.134 438.878 528.254 453.166 545.675 453.166H775.88C775.88 453.166 761.528 446.527 761.528 411.126Z" fill="#DDE8FE"/>
<g style="mix-blend-mode:multiply">
<path d="M514.134 401.267V421.326C514.135 423.909 514.443 426.48 515.049 428.97C522.818 409.769 537.699 391.271 566.026 385.325C632.169 371.438 775.899 369.389 775.899 369.389H545.675C528.254 369.383 514.134 383.66 514.134 401.267Z" fill="#BED1F9"/>
</g>
<path d="M749.813 557.781H766.94C764.026 555.273 760.471 553.922 756.82 553.935H327.773C305.325 553.935 287.128 574.268 287.128 599.371V628.232C287.128 653.324 305.325 673.668 327.773 673.668L752.02 673.509L749.813 557.781Z" fill="#7C9AF2"/>
<path d="M506.235 553.995C484.766 553.995 467.364 573.449 467.364 597.447V630.068C467.364 654.066 484.766 673.52 506.235 673.52H773.33V666.222H772.227L704.325 659.034L690.581 598.843C690.581 598.843 717.086 565.585 718.797 564.728C720.508 563.87 772.207 561.266 772.207 561.266H773.311V554.006L506.235 553.995Z" fill="#4951EC"/>
<path d="M756.005 613.543C756.005 578.372 772.27 561.293 772.27 561.293H511.704C491.985 561.293 476.004 579.164 476.004 601.206V626.309C476.004 648.351 491.985 666.222 511.704 666.222H772.27C772.27 666.222 756.005 657.852 756.005 613.543Z" fill="#DDE8FE"/>
<g style="mix-blend-mode:multiply">
<path d="M476.004 601.195V626.298C476.003 629.526 476.352 632.741 477.045 635.871C485.831 611.834 502.673 588.682 534.74 581.236C609.595 563.859 772.27 561.282 772.27 561.282H511.704C491.985 561.293 476.004 579.164 476.004 601.195Z" fill="#BED1F9"/>
</g>
<path d="M272.984 461.947H255.852C258.922 459.904 262.418 458.845 265.972 458.881H695.188C717.645 458.881 735.852 475.026 735.852 494.936V517.835C735.852 537.745 717.645 553.891 695.188 553.891L270.772 553.764L272.984 461.947Z" fill="#FA7167"/>
<path d="M516.664 458.969C538.138 458.969 555.545 474.406 555.545 493.447V519.314C555.545 538.355 538.138 553.792 516.664 553.792H249.462V548.016H250.566L318.516 542.312L332.245 494.552C332.245 494.552 305.74 468.174 304.015 467.481C302.29 466.789 250.585 464.734 250.585 464.734H249.482V458.969H516.664Z" fill="#E8605D"/>
<path d="M266.792 506.218C266.792 478.291 250.518 464.755 250.518 464.755H511.189C530.914 464.755 546.904 478.934 546.904 496.425V516.346C546.904 533.838 530.914 548.016 511.189 548.016H250.518C250.518 548.016 266.792 541.378 266.792 506.218Z" fill="#DDE8FE"/>
<g style="mix-blend-mode:multiply">
<path d="M546.904 496.425V516.346C546.903 518.924 546.552 521.486 545.863 523.941C537.072 504.866 520.22 486.495 488.149 480.593C413.259 466.8 250.518 464.755 250.518 464.755H511.189C530.914 464.755 546.904 478.934 546.904 496.425Z" fill="#BED1F9"/>
</g>
<path d="M657.223 517.835V494.936C657.223 475.026 639.021 458.881 616.564 458.881H657.329C679.781 458.881 697.988 475.026 697.988 494.936V517.835C697.988 537.745 679.781 553.891 657.329 553.891H617.109C639.31 553.621 657.223 537.586 657.223 517.835Z" fill="#E8605D"/>
<path d="M240.58 677.295H222.113C225.4 675.019 229.178 673.834 233.023 673.871H695.732C719.938 673.871 739.586 691.907 739.586 714.153V739.739C739.586 761.984 719.962 780.02 695.732 780.02L238.199 779.877L240.58 677.295Z" fill="#4951EC"/>
<path d="M503.271 673.965C526.403 673.965 545.197 691.209 545.197 712.488V741.404C545.197 762.677 526.432 779.927 503.271 779.927H215.222V773.459H216.412L289.663 767.084L304.468 713.724C304.468 713.724 275.9 684.236 274.035 683.499C272.17 682.763 216.437 680.433 216.437 680.433H215.246V674.003L503.271 673.965Z" fill="#7C9AF2"/>
<path d="M233.906 726.753C233.906 695.556 216.365 680.433 216.365 680.433H497.368C518.635 680.433 535.873 696.276 535.873 715.818V738.074C535.873 757.616 518.635 773.459 497.368 773.459H216.379C216.379 773.459 233.906 766.056 233.906 726.753Z" fill="#DDE8FE"/>
<g style="mix-blend-mode:multiply">
<path d="M535.887 715.818V738.074C535.884 740.95 535.505 743.81 534.764 746.559C525.285 725.253 507.122 704.723 472.544 698.123C391.795 682.713 216.379 680.433 216.379 680.433H497.382C518.635 680.433 535.887 696.265 535.887 715.818Z" fill="#BED1F9"/>
</g>
<path d="M883.582 779.289H104.3C101.695 779.289 99.5825 781.698 99.5825 784.669V785.626C99.5825 788.597 101.695 791.006 104.3 791.006H883.582C886.188 791.006 888.3 788.597 888.3 785.626V784.669C888.3 781.698 886.188 779.289 883.582 779.289Z" fill="#7C9AF2"/>
<path d="M94.8018 393.48L245.452 295.223L265.818 341.214L111.664 434.212L94.8018 393.48Z" fill="#BED1F9"/>
<path d="M378.702 113.59C378.702 113.59 377.516 126.949 368.268 127.878C377.516 128.801 378.702 142.166 378.702 142.166C378.702 142.166 379.892 128.806 389.135 127.878C379.892 126.943 378.702 113.59 378.702 113.59Z" fill="#92B5F9"/>
<path d="M218.948 10.9468C218.948 10.9468 217.367 28.7463 205.05 29.9773C217.367 31.2083 218.948 49.0023 218.948 49.0023C218.948 49.0023 220.534 31.2083 232.847 29.9773C220.534 28.7463 218.948 10.9468 218.948 10.9468Z" fill="#BED1F9"/>
<path d="M154.424 170.126C154.424 170.126 153.364 182.073 145.094 182.903C153.364 183.727 154.424 195.68 154.424 195.68C154.424 195.68 155.489 183.727 163.759 182.903C155.489 182.073 154.424 170.126 154.424 170.126Z" fill="#FA7167"/>
<path d="M887.202 455.254C887.202 455.254 885.621 473.054 873.303 474.285C885.621 475.516 887.202 493.31 887.202 493.31C887.202 493.31 888.787 475.516 901.1 474.285C888.787 473.054 887.202 455.254 887.202 455.254Z" fill="#FA7167"/>
<path d="M13.8984 298.553C13.8984 298.553 12.3177 316.353 0 317.584C12.3177 318.815 13.8984 336.609 13.8984 336.609C13.8984 336.609 15.479 318.815 27.7967 317.584C15.479 316.353 13.8984 298.553 13.8984 298.553Z" fill="#92B5F9"/>
<path d="M920.102 279.523C920.102 279.523 918.526 297.3 906.203 298.553C918.516 299.784 920.102 317.584 920.102 317.584C920.102 317.584 921.682 299.784 934 298.553C921.682 297.3 920.102 279.523 920.102 279.523Z" fill="#92B5F9"/>
<path d="M535.887 0C535.887 0 534.301 17.7941 521.988 19.0305C534.301 20.2615 535.887 38.0555 535.887 38.0555C535.887 38.0555 537.467 20.2615 549.785 19.0305C537.453 17.7941 535.887 0 535.887 0Z" fill="#FA7167"/>
<path d="M799.72 148.628C799.72 148.628 798.862 159.866 792.164 160.641C798.862 161.421 799.72 172.659 799.72 172.659C799.72 172.659 800.583 161.421 807.272 160.641C800.583 159.866 799.72 148.628 799.72 148.628Z" fill="#BED1F9"/>
<path d="M259.27 696.298L238.47 697.496L235.839 767.837L225.198 773.679L225.714 776.245L229.666 777.305C229.666 777.305 242.46 777.058 242.846 777.058C243.231 777.058 245.863 773.761 245.863 773.761L245.468 773.211L247.593 771.563L259.27 696.298Z" fill="#FB9390"/>
<path d="M315.653 773.7C315.653 773.7 305.263 767.749 305.008 767.859L307.359 696.21L281.577 696.298L293.23 771.552L294.507 772.541C294.189 773.794 293.933 774.877 293.876 775.217C293.712 776.157 298.266 776.217 299.861 776.531C301.456 776.844 306.063 777.41 309.017 778.35C311.971 779.289 315.716 776.531 315.716 776.531L315.653 773.7Z" fill="#FB9390"/>
<path d="M316.323 502.899C313.321 493.997 310.4 497.525 304.979 486.759C304.105 484.877 303.457 482.87 303.051 480.791C301.799 474.673 298.903 469.153 294.767 465.003C282.064 452.49 267.688 458.046 267.688 458.046C267.688 458.046 271.418 482.225 272.132 487.133C268.956 492.079 265.751 497.09 265.751 497.09C265.751 497.09 259.067 536.844 269.558 540.196C280.05 543.548 281.963 538.174 287.09 535.371C292.218 532.569 297.21 540.218 304.873 534.893C310.723 530.827 307.764 520.688 310.844 518.786C313.923 516.885 319.562 512.51 316.323 502.899Z" fill="#0B0754"/>
<path d="M262.262 478.098C262.074 478.005 257.264 474.911 252.758 472.009L280.709 436.493C280.709 436.493 272.232 434.619 271.717 434.547C271.201 434.476 259.042 438.79 259.042 438.79L246.513 442.637C236.966 482.495 225.053 489.677 225.053 489.683C223.343 490.994 221.916 492.73 220.88 494.76C216.133 503.52 220.938 508.999 223.665 511.527C226.393 514.055 221.829 523.386 226.913 528.617C233.573 535.47 239.732 529.008 244.315 532.843C248.898 536.679 249.891 542.394 260.748 541.295C271.606 540.196 271.5 499.739 271.5 499.739C271.5 499.739 262.613 478.28 262.262 478.098Z" fill="#0B0754"/>
<path d="M309.754 550.665C309.754 550.665 318.987 600.926 316.308 606.361C313.628 611.796 278.482 613.505 278.482 613.505L276.993 548.989L290.395 525.908L309.754 550.665Z" fill="#FA7167"/>
<path d="M298.608 608.85L292.039 588.33C292.039 588.33 270.426 579.356 269.057 579.246C267.688 579.137 249.385 588.33 249.385 588.33C249.385 588.33 243.79 601.244 242.696 603.558C242.094 604.844 243.492 612.746 244.855 619.539L237.101 619.951L231.95 749.675C231.95 749.675 243.116 756.527 255.135 750.653L265.009 637.349L273.592 635.882L286.468 748.207C286.468 748.207 296.772 757 311.369 749.675L301.678 624.666C301.266 619.263 300.234 613.946 298.608 608.85Z" fill="#1E5EFC"/>
<path d="M256.57 510.614C256.57 510.614 266.16 508.323 284.001 509.763C301.841 511.202 275.75 522.671 275.75 522.671C275.75 522.671 266.594 522.331 266.199 522.248C265.804 522.166 256.57 510.614 256.57 510.614Z" fill="#FB9390"/>
<path d="M279.264 499.124H263.423V530.821H279.264V499.124Z" fill="#FB9390"/>
<path d="M279.235 504.537V493.727H263.423V502.927C266.826 505.026 271.866 506.213 279.235 504.537Z" fill="#EF7F7F"/>
<path d="M301.422 463.81C300.652 463.409 299.811 463.22 298.965 463.258C298.12 463.297 297.294 463.561 296.555 464.03C296.601 460.126 295.967 456.251 294.69 452.629C293.412 449.007 291.516 445.71 289.112 442.931C286.707 440.151 283.843 437.944 280.684 436.438C277.525 434.932 274.136 434.156 270.712 434.156C267.288 434.156 263.899 434.932 260.74 436.438C257.582 437.944 254.717 440.151 252.313 442.931C249.908 445.71 248.012 449.007 246.734 452.629C245.457 456.251 244.823 460.126 244.869 464.03C244.129 463.558 243.302 463.293 242.454 463.254C241.607 463.216 240.763 463.407 239.993 463.81C237.101 465.459 236.181 470.13 237.973 474.252C239.766 478.373 243.573 480.428 246.479 478.796C246.874 478.569 247.24 478.282 247.568 477.944C249.231 491.441 259.134 501.575 270.7 501.377C282.266 501.564 292.164 491.441 293.832 477.944C294.159 478.281 294.524 478.568 294.916 478.796C297.808 480.445 301.629 478.395 303.422 474.252C305.215 470.108 304.328 465.459 301.422 463.81Z" fill="#FB9390"/>
<path d="M264.185 469.855C264.209 470.346 264.105 470.834 263.886 471.257C263.667 471.68 263.342 472.02 262.954 472.233C262.566 472.446 262.131 472.523 261.704 472.454C261.277 472.385 260.878 472.173 260.557 471.845C260.236 471.518 260.007 471.089 259.9 470.613C259.793 470.137 259.812 469.635 259.955 469.172C260.097 468.708 260.357 468.303 260.702 468.008C261.047 467.713 261.46 467.541 261.891 467.514C262.467 467.48 263.031 467.707 263.461 468.145C263.891 468.584 264.151 469.199 264.185 469.855Z" fill="#0B0754"/>
<path d="M282.907 470.086C282.932 470.577 282.827 471.065 282.608 471.488C282.389 471.912 282.065 472.251 281.676 472.464C281.287 472.677 280.852 472.754 280.425 472.685C279.998 472.615 279.599 472.403 279.278 472.075C278.957 471.746 278.729 471.317 278.622 470.841C278.515 470.364 278.535 469.862 278.678 469.399C278.822 468.935 279.083 468.531 279.428 468.236C279.773 467.942 280.188 467.771 280.618 467.745C281.194 467.711 281.758 467.938 282.187 468.376C282.616 468.815 282.875 469.43 282.907 470.086Z" fill="#0B0754"/>
<path d="M266.57 464.777C265.542 464.359 264.487 464.035 263.413 463.81C262.411 463.596 261.387 463.548 260.373 463.667C259.362 463.779 258.372 464.067 257.438 464.519L257.067 464.679C256.946 464.734 256.835 464.816 256.71 464.876L255.982 465.278C255.5 465.558 255.043 465.915 254.503 466.19C254.793 465.619 255.129 465.08 255.505 464.58C255.91 464.081 256.365 463.639 256.859 463.261C257.859 462.468 259.021 461.984 260.233 461.854C261.441 461.715 262.66 461.915 263.785 462.436C264.872 462.935 265.831 463.74 266.57 464.777Z" fill="#0B0754"/>
<path d="M275.336 464.739C276.073 463.693 277.034 462.881 278.126 462.382C279.245 461.849 280.462 461.639 281.668 461.772C282.878 461.891 284.04 462.364 285.042 463.145C285.531 463.519 285.982 463.954 286.386 464.442C286.767 464.939 287.107 465.474 287.403 466.042C286.858 465.772 286.405 465.421 285.914 465.146L285.186 464.75C285.061 464.69 284.95 464.607 284.83 464.552L284.459 464.398C283.521 463.954 282.53 463.674 281.519 463.569C280.503 463.461 279.479 463.519 278.478 463.739C277.409 463.976 276.358 464.31 275.336 464.739Z" fill="#0B0754"/>
<path d="M271.799 466.465C271.698 467.767 271.76 469.078 271.982 470.361C272.091 471.017 272.253 471.661 272.464 472.284C272.686 472.968 273.032 473.589 273.481 474.109C274.059 474.614 274.31 474.768 274.473 475.208C274.546 475.437 274.576 475.681 274.561 475.924C274.547 476.168 274.487 476.405 274.387 476.62C273.982 477.62 273.052 478.368 272.03 478.923C272.635 478.917 273.231 478.749 273.768 478.432C274.305 478.115 274.77 477.658 275.124 477.098C275.324 476.771 275.456 476.396 275.512 476.003C275.568 475.609 275.546 475.206 275.447 474.823C275.243 474.174 274.848 473.626 274.329 473.273C273.929 472.864 273.614 472.359 273.404 471.795C273.175 471.241 272.974 470.672 272.801 470.092C272.435 468.927 272.126 467.707 271.799 466.465Z" fill="#EF7F7F"/>
<path d="M264.657 482.017C265.251 482.491 265.876 482.914 266.527 483.28C267.165 483.66 267.827 483.987 268.507 484.259C269.853 484.811 271.27 485.104 272.7 485.127C274.127 485.127 275.541 484.812 276.864 484.198C278.19 483.542 279.43 482.676 280.545 481.626C280.042 482.227 279.495 482.778 278.912 483.275C278.319 483.778 277.687 484.216 277.023 484.583C276.349 484.945 275.643 485.223 274.917 485.413C274.188 485.589 273.445 485.681 272.7 485.687C271.209 485.665 269.736 485.312 268.363 484.649C267.003 484.023 265.749 483.133 264.657 482.017Z" fill="#EF7F7F"/>
<path d="M302.159 516.951C293.576 507.449 281.711 509.466 281.711 509.466C280.531 510.833 279.196 512.014 277.74 512.978C275.604 514.256 273.245 514.977 270.835 515.088H270.555C268.156 514.971 265.809 514.25 263.683 512.978C262.228 512.014 260.892 510.833 259.712 509.466C259.712 509.466 247.852 507.449 239.269 516.951C230.686 526.452 222.104 547.401 222.104 547.401C222.104 547.401 232.956 558.683 243.308 560.123C243.308 560.123 248.353 586.605 249.365 588.33C253.456 590.34 257.749 591.766 262.146 592.578C264.806 593.146 267.506 593.435 270.213 593.441H271.177C273.882 593.435 276.58 593.146 279.239 592.578C283.636 591.767 287.929 590.341 292.019 588.33C293.031 586.605 298.082 560.123 298.082 560.123C308.429 558.683 319.286 547.401 319.286 547.401C319.286 547.401 310.718 526.458 302.159 516.951Z" fill="#92B5F9"/>
<path d="M271.64 581.186C271.64 581.186 274.825 580.587 276.584 583.252L276.459 590.133L272.565 592.199C272.565 592.199 267.746 587.517 268.102 587.396C268.459 587.275 271.64 581.186 271.64 581.186Z" fill="#FA7167"/>
<path d="M281.558 626.1L230.234 643.037L225.261 600.184L276.584 583.252L281.558 626.1Z" fill="#FA7167"/>
<path d="M225.993 636.14L230.504 640.482L279.625 624.424L275.211 584.044L271.746 582.384L225.993 636.14Z" fill="#DDE8FE"/>
<g style="mix-blend-mode:multiply">
<path d="M279.625 624.424L276.122 620.945L269.712 612.922L270.103 590.825L271.746 582.384L275.225 583.978L279.625 624.424Z" fill="#BED1F9"/>
</g>
<path d="M276.122 620.945L224.798 637.882L220.312 598.118L271.64 581.186L276.122 620.945Z" fill="#FA7167"/>
<path d="M250.937 537.141C249.757 538.782 248.663 540.502 247.66 542.29C246.665 544.058 245.795 545.914 245.058 547.84C244.322 549.757 243.785 551.766 243.458 553.825C243.149 555.906 243.105 558.027 243.328 560.122C242.757 558.055 242.57 555.875 242.778 553.72C242.985 551.555 243.481 549.439 244.248 547.444C245.01 545.462 245.965 543.583 247.096 541.845C248.202 540.103 249.492 538.523 250.937 537.141Z" fill="#DAEEF7"/>
<path d="M240.287 609.438C231.251 591.99 235.434 570.767 239.005 559.029C231.911 556.424 225.338 550.533 223.015 548.307C208.587 585.445 233.02 617.225 233.02 617.225L233.068 617.17C233.55 618.368 233.873 619.44 233.873 619.44C239.632 631.31 239.882 631.123 240.297 630.952C240.711 630.782 239.569 625.138 240.08 625.155C240.591 625.171 244.224 631.974 244.489 631.332C244.754 630.689 242.08 623.951 242.465 623.836C242.851 623.72 246.258 630.32 247.034 629.771C247.81 629.221 243.819 622.077 244.581 621.912C245.342 621.748 249.241 629.139 249.882 628.507C250.398 627.957 246.21 619.56 244.865 616.901C244.826 616.823 244.806 616.734 244.808 616.644C244.809 616.554 244.831 616.466 244.873 616.39C244.914 616.313 244.973 616.251 245.043 616.209C245.113 616.168 245.191 616.148 245.27 616.153C250.614 616.505 251.053 616.153 250.947 615.499C250.855 614.983 244.436 611.57 240.287 609.438Z" fill="#FB9390"/>
<path d="M300.747 511.323C289.663 556.787 303.041 570.201 303.094 570.553L301.094 581.131C301.094 581.131 273.813 560.903 291.104 507.01C291.206 506.648 291.373 506.316 291.595 506.033C291.817 505.751 292.089 505.524 292.392 505.369C292.696 505.213 293.024 505.132 293.357 505.131C293.69 505.13 294.019 505.208 294.323 505.361L299.499 508.109C300.01 508.386 300.416 508.863 300.645 509.452C300.874 510.042 300.91 510.706 300.747 511.323Z" fill="#FA7167"/>
<path d="M324.929 622.347C324.929 622.347 324.578 621.341 324.245 620.149L323.725 615.752C323.397 605.756 321.942 570.322 317.156 549.467C313.518 552.764 305.778 558.996 298.265 560.117C302.973 571.339 312.829 597.211 314.539 620.731C312.804 625.215 310.462 631.42 310.684 631.788C310.983 632.337 311.474 632.26 315.065 628.183C315.117 628.123 315.183 628.08 315.256 628.059C315.328 628.038 315.404 628.039 315.476 628.064C315.547 628.088 315.612 628.134 315.662 628.196C315.713 628.259 315.748 628.336 315.763 628.419C316.279 631.271 317.942 640.223 318.607 640.24C319.397 640.24 318.081 632.216 318.718 631.799C319.354 631.381 320.462 639.262 321.31 639.124C322.158 638.987 320.939 631.843 321.281 631.639C321.623 631.436 323.431 638.151 323.975 638.41C324.52 638.668 323.344 631.266 323.696 630.87C324.047 630.474 326.351 635.316 326.737 635.135C327.122 634.953 327.387 634.893 324.929 622.347Z" fill="#FB9390"/>
<path d="M240.316 463.662C240.316 463.662 238.711 429.86 271.741 427.629C271.741 427.629 270.715 460.832 244.87 464.052L242.875 459.656L240.316 463.662Z" fill="#0B0754"/>
<path d="M271.741 427.629C271.741 427.629 298.535 425.914 299.952 463.349C298.792 463.275 297.635 463.523 296.578 464.074C296.578 464.074 275.374 458.029 270.073 434.575L271.741 427.629Z" fill="#0B0754"/>
<path d="M234.238 776.267C228.855 776.882 226.311 775.547 225.217 773.7L221.569 776.415C221.256 776.643 221.017 776.98 220.887 777.376C220.756 777.771 220.742 778.205 220.845 778.611C220.949 779.017 221.165 779.373 221.461 779.628C221.758 779.882 222.118 780.019 222.489 780.02H246.194C246.393 780.02 246.59 779.976 246.774 779.889C246.957 779.802 247.124 779.675 247.264 779.515C247.405 779.355 247.516 779.164 247.593 778.955C247.669 778.746 247.708 778.521 247.708 778.295V771.002C246.18 772.783 242.59 775.316 234.238 776.267Z" fill="#0B0754"/>
<path d="M306.607 776.267C311.99 776.882 314.535 775.547 315.629 773.7L319.277 776.415C319.589 776.643 319.829 776.98 319.959 777.376C320.089 777.771 320.104 778.205 320 778.611C319.897 779.017 319.68 779.373 319.384 779.628C319.088 779.882 318.727 780.019 318.356 780.02H294.656C294.457 780.021 294.259 779.977 294.075 779.89C293.891 779.804 293.724 779.677 293.583 779.517C293.442 779.356 293.33 779.166 293.253 778.956C293.177 778.747 293.138 778.522 293.138 778.295V771.002C294.665 772.783 298.256 775.316 306.607 776.267Z" fill="#0B0754"/>
<path d="M818.086 766.633V777.624C818.086 778.061 818.239 778.481 818.51 778.79C818.781 779.099 819.149 779.273 819.532 779.273H842.071C842.424 779.271 842.767 779.138 843.049 778.896C843.331 778.653 843.537 778.313 843.636 777.926C843.734 777.539 843.721 777.126 843.597 776.749C843.473 776.372 843.245 776.051 842.948 775.833L830.303 766.617C830.303 766.617 825.339 770.777 818.086 766.633Z" fill="#FA7167"/>
<path d="M773.841 299.976C773.768 300.01 773.689 300.02 773.612 300.007C773.534 299.994 773.461 299.958 773.4 299.902C773.338 299.846 773.291 299.773 773.263 299.689C773.235 299.606 773.226 299.515 773.239 299.427C773.803 296.372 775.528 286.738 774.877 286.397C774.106 285.991 772.381 294.553 771.6 294.64C770.82 294.728 772.68 286.441 771.793 286.161C770.906 285.881 769.427 293.514 769.017 293.547C768.608 293.58 769.34 286.084 768.902 285.562C768.463 285.04 766.834 292.931 766.347 293.129C765.861 293.327 765.384 287.452 764.955 287.442C764.526 287.431 764.213 287.332 761.924 300.889C761.924 300.889 761.793 305.835 761.018 307.022L762.733 311.017L768.034 311.215C768.034 311.215 779.6 299.295 779.489 298.575C779.378 297.855 778.911 297.712 773.841 299.976Z" fill="#FB9390"/>
<path d="M828.572 302.977C828.625 303.046 828.693 303.097 828.769 303.125C828.845 303.153 828.926 303.158 829.004 303.137C829.083 303.117 829.154 303.073 829.212 303.01C829.27 302.947 829.312 302.867 829.333 302.779C830.056 299.768 832.369 290.299 833.087 290.332C833.936 290.37 832.047 298.888 832.702 299.388C833.357 299.888 835.015 291.53 835.921 291.739C836.827 291.948 835.083 299.515 835.439 299.757C835.796 299.998 838.133 292.948 838.731 292.712C839.328 292.475 837.627 300.339 837.984 300.773C838.34 301.207 841.092 296.212 841.497 296.432C841.902 296.652 842.2 296.723 838.817 309.978C838.817 309.978 836.948 314.468 837.169 315.908L834.046 318.573L829.227 315.984C829.227 315.984 823.709 299.372 824.085 298.778C824.461 298.185 824.962 298.328 828.572 302.977Z" fill="#FB9390"/>
<path d="M786.313 411.533L786.399 434.707L766.65 431.239L769.947 405.175L786.313 411.533Z" fill="#FB9390"/>
<path opacity="0.6" d="M768.43 417.171L769.948 405.175L786.333 413.731V418.303C782.391 419.408 775.003 420.397 768.43 417.171Z" fill="#EF7F7F"/>
<path d="M750.637 765.408V777.498C750.637 777.735 750.597 777.97 750.518 778.189C750.439 778.409 750.322 778.608 750.176 778.776C750.029 778.944 749.854 779.077 749.662 779.168C749.47 779.259 749.264 779.306 749.056 779.306H724.262C723.873 779.307 723.495 779.163 723.184 778.898C722.874 778.632 722.647 778.259 722.538 777.834C722.429 777.409 722.445 776.955 722.582 776.54C722.719 776.126 722.97 775.773 723.298 775.536L737.206 765.424C737.206 765.424 742.661 769.953 750.637 765.408Z" fill="#FA7167"/>
<path d="M727.997 560.254C728.045 557.672 722.151 565.288 722.262 563.227C724.575 520.363 798.043 556.298 798.043 556.298L815.975 571.306L836.215 770.03C836.215 770.03 825.223 773.657 817.994 770.689L773.176 600.398L767.663 597.98C767.663 597.98 743.134 578.472 727.997 560.254Z" fill="#1E5EFC"/>
<path d="M722.175 564.975C722.175 565.475 722.136 565.986 722.117 566.519C722.136 565.986 722.156 565.475 722.175 564.975Z" fill="#1E5EFC"/>
<path d="M722.118 566.541C722.118 567.091 722.084 567.64 722.069 568.19C722.084 567.635 722.099 567.08 722.118 566.541Z" fill="#1E5EFC"/>
<path d="M722.06 568.415C722.06 568.997 722.031 569.596 722.021 570.206C722.031 569.596 722.046 568.997 722.06 568.415Z" fill="#1E5EFC"/>
<path d="M722.263 563.227C722.233 563.689 722.214 564.172 722.189 564.662C722.214 564.172 722.233 563.689 722.263 563.227Z" fill="#1E5EFC"/>
<path d="M722.267 553.484C737.408 571.701 767.653 597.997 767.653 597.997L773.166 600.415L767.653 597.997L750.608 770.046C750.608 770.046 738.459 772.684 731.515 768.397C731.515 768.381 721.284 604.613 722.267 553.484Z" fill="#1E5EFC"/>
<path d="M836.22 770.03C832.941 771.037 829.578 771.639 826.187 771.827C829.578 771.639 832.941 771.037 836.22 770.03Z" fill="#1E5EFC"/>
<path d="M820.12 771.359C820.602 771.469 821.083 771.563 821.609 771.634C821.103 771.552 820.606 771.469 820.12 771.359Z" fill="#1E5EFC"/>
<path d="M826.186 771.827C824.912 771.89 823.635 771.857 822.364 771.728C823.635 771.857 824.912 771.89 826.186 771.827Z" fill="#1E5EFC"/>
<path d="M815.975 571.305L818.867 599.667C811.223 603.041 792.588 606.652 778.545 571.641C774.116 560.589 772.974 552.638 773.793 546.911C782.046 549.445 790.147 552.58 798.048 556.298L815.975 571.305Z" fill="#1E5EFC"/>
<path d="M748.565 455.567C749.413 455.567 762.141 422.677 762.141 422.677C773.022 431.382 787.798 425.337 787.798 425.337C787.798 425.337 847.246 549.395 807.378 568.767C767.509 588.138 729.905 564.579 729.905 564.579C729.905 564.579 721.424 539.377 721.424 538.41C721.424 537.443 747.717 455.567 748.565 455.567Z" fill="#DDE8FE"/>
<path d="M826.042 316.254C826.042 316.254 828.615 375.109 823.777 385.897C807.734 421.688 787.797 425.315 787.797 425.315C787.797 425.315 780.939 550.5 786.597 580.488C786.597 580.488 805.392 587.083 833.111 572.245C833.111 572.245 811.907 475.191 813.035 462.937C813.035 462.937 846.966 428.437 848.094 387.809C849.221 347.182 839.901 311.072 839.901 311.072L826.042 316.254Z" fill="#1EA5FC"/>
<path d="M734.57 575.977C734.57 575.977 736.691 529.381 746.02 485.209C755.35 441.037 762.14 422.655 762.14 422.655C749.611 406.939 751.702 392.727 752.806 374.296C754.078 353.018 772.318 310.456 772.318 310.456L760.015 301.262C701.063 382.044 733.722 446.34 733.722 446.34C733.722 446.34 711.665 535.333 708.696 562.414C716.993 567.707 725.645 572.242 734.57 575.977Z" fill="#1EA5FC"/>
<path d="M812.462 462.827C811.581 462.085 810.784 461.221 810.091 460.255C807.594 456.815 806.293 452.94 805.402 448.61C805.941 450.462 807.392 455.831 810.447 459.919C811.228 461.035 812.159 462.003 813.204 462.788L813.035 462.958C813.035 463.041 813.035 463.129 813.035 463.217C812.25 463.398 810.871 463.453 808.553 462.013C807.196 461.156 805.932 460.121 804.785 458.93C806.016 459.972 807.324 460.891 808.693 461.678C809.729 462.299 811.281 462.92 812.462 462.827Z" fill="white"/>
<path d="M734.17 446.055C735.182 445.265 736.089 444.313 736.864 443.23C739.365 439.883 740.719 435.921 741.91 431.926C741.018 436.234 739.732 440.114 737.221 443.571C736.527 444.537 735.73 445.401 734.85 446.143C735.409 446.167 735.968 446.093 736.508 445.923C737.243 445.707 737.957 445.405 738.638 445.022C740.008 444.237 741.315 443.317 742.546 442.274C741.397 443.462 740.133 444.496 738.777 445.357C738.09 445.787 737.365 446.134 736.614 446.39C735.836 446.684 735.004 446.734 734.204 446.533L733.756 446.395L734.17 446.055Z" fill="white"/>
<path d="M757.991 364.24L756.796 380.143L759.003 381.726L763.075 362.36L757.991 364.24Z" fill="#0B0754"/>
<path d="M760.94 378.5C761.548 382.105 759.977 385.474 757.461 386.029C754.945 386.584 752.411 384.127 751.784 380.506C751.158 376.884 752.748 373.532 755.264 372.977C757.779 372.422 760.348 374.9 760.94 378.5Z" fill="#EF7F7F"/>
<path d="M757.341 393.206C756.776 388.78 756.709 384.291 757.143 379.846C757.221 378.978 757.254 378.104 757.274 377.236C757.355 373.303 758.153 369.431 759.616 365.868C761.08 362.305 763.177 359.128 765.775 356.539C768.373 353.949 771.415 352.004 774.707 350.827C778 349.65 781.471 349.267 784.9 349.701C788.33 350.136 791.642 351.378 794.628 353.351C797.613 355.323 800.207 357.982 802.243 361.158C804.279 364.335 805.714 367.959 806.456 371.802C807.198 375.644 807.232 379.621 806.554 383.479C807.346 383.15 808.195 383.039 809.032 383.153C809.87 383.268 810.671 383.605 811.373 384.138C814.009 386.276 814.264 391.057 811.908 394.816C809.551 398.575 805.532 399.888 802.896 397.75C802.535 397.457 802.211 397.11 801.932 396.717C798.328 410.06 786.689 418.342 774.989 415.44C766.117 413.253 758.782 404.839 757.341 393.206Z" fill="#FB9390"/>
<path d="M784.328 380.484C784.152 380.977 784.12 381.523 784.237 382.038C784.354 382.554 784.614 383.013 784.978 383.348C785.342 383.682 785.79 383.874 786.257 383.894C786.724 383.915 787.185 383.763 787.57 383.462C787.955 383.161 788.245 382.726 788.397 382.222C788.549 381.718 788.554 381.172 788.412 380.664C788.27 380.156 787.988 379.714 787.608 379.404C787.228 379.093 786.771 378.931 786.304 378.94C785.878 378.948 785.464 379.099 785.113 379.373C784.761 379.648 784.489 380.034 784.328 380.484Z" fill="#0B0754"/>
<path d="M765.841 377.329C765.665 377.823 765.633 378.368 765.75 378.884C765.867 379.4 766.127 379.859 766.491 380.193C766.855 380.528 767.304 380.719 767.771 380.74C768.238 380.761 768.698 380.609 769.083 380.308C769.469 380.006 769.759 379.572 769.911 379.068C770.062 378.564 770.067 378.017 769.925 377.51C769.783 377.002 769.501 376.56 769.122 376.249C768.742 375.939 768.285 375.776 767.817 375.785C767.391 375.794 766.977 375.944 766.626 376.219C766.275 376.494 766.002 376.88 765.841 377.329Z" fill="#0B0754"/>
<path d="M781.451 397.811C780.342 398.436 779.168 398.896 777.957 399.179C776.761 399.46 775.534 399.514 774.323 399.338C773.117 399.142 771.957 398.679 770.906 397.976C769.853 397.243 768.897 396.341 768.068 395.299C768.783 396.479 769.685 397.497 770.728 398.3C771.794 399.101 773.002 399.623 774.265 399.828C775.526 400.01 776.805 399.915 778.034 399.547C779.253 399.201 780.409 398.613 781.451 397.811Z" fill="#EF7F7F"/>
<path d="M782.573 375.456C783.644 375.229 784.728 375.096 785.817 375.06C786.836 375.031 787.854 375.17 788.838 375.472C789.82 375.765 790.756 376.228 791.614 376.846C792.534 377.524 793.422 378.258 794.274 379.044C793.876 377.783 793.215 376.651 792.347 375.747C791.471 374.789 790.394 374.104 789.219 373.758C788.05 373.402 786.822 373.377 785.643 373.686C784.504 373.968 783.448 374.577 782.573 375.456Z" fill="#0B0754"/>
<path d="M773.952 373.834C773.374 372.674 772.544 371.701 771.543 371.01C770.513 370.284 769.343 369.857 768.135 369.768C766.945 369.683 765.753 369.926 764.663 370.478C763.572 371.03 762.614 371.874 761.871 372.939C762.896 372.505 763.941 372.138 765.003 371.84C765.988 371.568 767.004 371.472 768.015 371.554C769.032 371.629 770.035 371.87 770.993 372.268C772.014 372.7 773.004 373.223 773.952 373.834Z" fill="#0B0754"/>
<path d="M777.701 376.983C776.688 378.076 775.742 379.246 774.867 380.484C773.977 381.716 773.163 383.018 772.434 384.38C771.941 385.26 771.581 386.228 771.369 387.243C771.296 387.793 771.33 388.271 772.091 389.128C772.59 389.707 773.141 390.225 773.735 390.672C774.312 391.124 774.919 391.522 775.552 391.865C774.483 390.89 773.494 389.807 772.597 388.628C772.409 388.368 772.247 388.084 772.115 387.782C772.096 387.478 772.146 387.173 772.26 386.897C772.508 386.194 772.81 385.518 773.161 384.875C773.85 383.534 774.631 382.242 775.397 380.935C776.164 379.627 776.954 378.302 777.701 376.983Z" fill="#EF7F7F"/>
<path d="M760.588 347.259C760.588 347.259 753.258 345.649 762.285 340.604C771.311 335.559 793.435 332.619 805.001 343.901C805.001 343.901 808.89 338.213 812.384 340.714C815.878 343.214 808.746 345.978 808.746 345.978C808.746 345.978 813.632 347.05 814.572 350.144C815.271 352.43 812.283 351.754 810.678 351.243C813.329 352.49 821.136 360.898 811.001 383.864C809.204 382.902 797.604 364.031 797.604 364.031C797.604 364.031 774.279 372.768 778.535 365.52C778.535 365.52 751.355 373.318 757.943 359.266C757.943 359.283 747.928 357.568 760.588 347.259Z" fill="#0B0754"/>
<path d="M811.001 383.88C811.001 383.88 809.242 382.341 806.553 383.479C803.864 384.616 802.153 391.497 802.153 391.497C802.153 391.497 793.354 399.74 797.647 363.893C801.864 328.723 807.7 369.751 807.7 369.751L811.001 383.88Z" fill="#0B0754"/>
<path d="M750.719 272.653L746.912 272.225C747.62 271.786 748.429 271.604 749.23 271.703L844.591 282.391C849.584 282.941 853.265 287.496 852.841 292.541L852.359 298.339C851.921 303.384 847.54 307.016 842.538 306.455L748.242 295.849L750.719 272.653Z" fill="#FA7167"/>
<path d="M844.34 297.443L844.822 291.64C845.255 286.601 841.564 282.056 836.571 281.496L838.619 281.726C843.612 282.276 847.294 286.826 846.865 291.871L846.383 297.674C845.944 302.713 841.564 306.351 836.562 305.791L834.538 305.565C839.521 306.093 843.906 302.477 844.34 297.443Z" fill="#BED1F9"/>
<path d="M822.004 294.937L822.486 289.14C822.92 284.095 819.228 279.55 814.24 278.99L816.288 279.22C821.276 279.77 824.963 284.326 824.534 289.365L824.052 295.168C823.618 300.213 819.233 303.845 814.231 303.285L812.211 303.059C817.19 303.603 821.57 299.971 822.004 294.937Z" fill="#BED1F9"/>
<path d="M804.925 277.967C809.696 278.517 813.229 282.847 812.809 287.667L812.246 294.223C811.831 299.048 807.624 302.521 802.853 301.988L743.486 295.333L743.612 293.866H743.857L759.076 294.113L763.168 282.358C763.168 282.358 757.867 275.011 757.491 274.797C757.115 274.582 745.679 272.769 745.679 272.769L745.433 272.741L745.559 271.285L804.925 277.967Z" fill="#FA7167"/>
<path d="M748.377 283.71C748.984 276.638 745.669 272.802 745.669 272.802L803.58 279.297C807.966 279.786 811.209 283.776 810.809 288.211L810.375 293.256C809.995 297.685 806.13 300.878 801.749 300.4L743.847 293.893C743.847 293.893 747.611 292.613 748.377 283.71Z" fill="#DDE8FE"/>
<g style="mix-blend-mode:multiply">
<path d="M810.823 288.211L810.389 293.256C810.333 293.905 810.2 294.543 809.994 295.151C808.457 290.101 805.112 285.029 798.115 282.732C781.778 277.374 745.668 272.802 745.668 272.802L803.58 279.297C807.965 279.786 811.209 283.776 810.823 288.211Z" fill="#BED1F9"/>
</g>
<path d="M635.069 439.631L631.137 449.632C630.982 450.03 630.971 450.481 631.106 450.887C631.242 451.294 631.513 451.623 631.86 451.803L652.399 462.299C652.721 462.464 653.08 462.505 653.424 462.417C653.768 462.329 654.078 462.116 654.307 461.81C654.535 461.504 654.671 461.121 654.693 460.72C654.714 460.319 654.622 459.92 654.428 459.584L646.476 445.461C646.476 445.461 640.192 446.775 635.069 439.631Z" fill="#7C9AF2"/>
<path d="M608.969 439.631L605.036 449.632C604.882 450.03 604.872 450.482 605.008 450.889C605.144 451.295 605.416 451.624 605.764 451.803L626.303 462.299C626.625 462.462 626.984 462.502 627.326 462.413C627.669 462.323 627.978 462.11 628.205 461.805C628.433 461.499 628.568 461.118 628.59 460.718C628.612 460.318 628.52 459.92 628.327 459.584L620.381 445.461C620.381 445.461 614.096 446.775 608.969 439.631Z" fill="#7C9AF2"/>
<path d="M564.604 163.845L562.421 179.463L557.804 158.635C557.804 158.635 564.272 155.058 564.551 156.36C564.831 157.662 564.604 163.845 564.604 163.845Z" fill="#0B0754"/>
<path d="M527.892 197.465L525.896 224.47L546.792 223.332L544.383 199.416L527.892 197.465Z" fill="#FB9390"/>
<path d="M545.525 210.792L544.378 199.416L527.887 197.465L527.198 206.808C530.48 210.544 536.369 214.402 545.525 210.792Z" fill="#EF7F7F"/>
<path d="M558.344 179.27C557.086 182.232 557.756 185.563 559.833 186.711C561.91 187.86 564.614 186.381 565.871 183.414C567.129 180.446 566.464 177.122 564.382 175.973C562.3 174.825 559.602 176.303 558.344 179.27Z" fill="#EF7F7F"/>
<path d="M561.376 181.441C561.486 180.666 561.636 179.902 561.795 179.144C562.526 175.711 562.624 172.141 562.08 168.663C561.537 165.185 560.364 161.873 558.638 158.94C556.911 156.006 554.668 153.514 552.051 151.622C549.434 149.731 546.501 148.481 543.438 147.952C540.374 147.423 537.248 147.627 534.257 148.55C531.266 149.474 528.477 151.097 526.066 153.316C523.655 155.536 521.676 158.303 520.254 161.442C518.832 164.581 517.998 168.023 517.806 171.549C517.183 171.051 516.465 170.727 515.711 170.606C514.957 170.485 514.188 170.569 513.469 170.851C510.751 172.005 509.57 176.089 510.837 179.963C512.105 183.837 515.338 186.046 518.066 184.909C518.436 184.751 518.785 184.534 519.102 184.266C519.521 196.784 527.931 207.039 538.663 207.61C543.744 207.87 548.721 205.917 552.585 202.148C557.747 197.834 560.359 188.64 561.376 181.441Z" fill="#FB9390"/>
<path d="M545.096 173.275C545.14 174.731 545.149 176.155 545.217 177.55C545.284 178.946 545.424 180.375 545.906 181.337C546.388 182.112 546.778 182.612 546.793 183.568C546.795 184.018 546.71 184.463 546.544 184.87C546.377 185.278 546.133 185.638 545.829 185.925C545.291 186.406 544.662 186.733 543.991 186.881C543.321 187.029 542.629 186.994 541.974 186.777C543.222 186.524 544.422 186.035 545.116 185.129C545.28 184.936 545.408 184.707 545.491 184.455C545.574 184.204 545.611 183.935 545.598 183.667C545.545 183.117 545.4 183.024 544.836 182.128C544.487 181.411 544.28 180.616 544.229 179.798C544.166 179.052 544.166 178.302 544.229 177.556C544.338 176.089 544.63 174.647 545.096 173.275Z" fill="#EF7F7F"/>
<path d="M537.679 174.847C537.722 175.307 537.637 175.771 537.435 176.173C537.233 176.575 536.925 176.893 536.555 177.083C536.184 177.274 535.771 177.326 535.373 177.232C534.976 177.139 534.614 176.904 534.34 176.563C534.066 176.221 533.894 175.789 533.847 175.329C533.801 174.869 533.884 174.404 534.083 174.001C534.282 173.597 534.588 173.276 534.957 173.082C535.326 172.889 535.739 172.833 536.137 172.923C536.541 173.014 536.908 173.25 537.185 173.596C537.463 173.942 537.636 174.38 537.679 174.847Z" fill="#0B0754"/>
<path d="M554.349 176.995C554.391 177.456 554.304 177.92 554.101 178.321C553.898 178.722 553.589 179.039 553.218 179.228C552.848 179.417 552.434 179.468 552.037 179.373C551.639 179.278 551.278 179.042 551.005 178.7C550.732 178.357 550.561 177.925 550.516 177.465C550.471 177.005 550.554 176.54 550.755 176.137C550.955 175.734 551.262 175.414 551.631 175.222C552 175.029 552.414 174.975 552.812 175.066C553.215 175.159 553.582 175.396 553.858 175.743C554.135 176.09 554.307 176.529 554.349 176.995Z" fill="#0B0754"/>
<path d="M534.44 190.25C534.947 190.759 535.485 191.225 536.05 191.646C536.603 192.077 537.182 192.461 537.785 192.794C538.974 193.469 540.252 193.916 541.568 194.119C542.884 194.295 544.217 194.183 545.495 193.789C546.784 193.352 548.013 192.714 549.148 191.893C548.109 192.916 546.909 193.705 545.611 194.218C544.291 194.725 542.888 194.888 541.505 194.696C540.131 194.487 538.805 193.975 537.602 193.19C536.406 192.427 535.336 191.432 534.44 190.25Z" fill="#EF7F7F"/>
<path d="M540.137 170.181C539.205 169.845 538.253 169.584 537.289 169.401C536.393 169.239 535.482 169.217 534.58 169.335C533.682 169.447 532.803 169.712 531.973 170.121C531.327 170.351 529.751 171.406 529.342 171.615C529.832 170.523 530.55 169.585 531.433 168.884C532.317 168.183 533.338 167.742 534.407 167.598C535.494 167.452 536.595 167.618 537.612 168.082C538.601 168.515 539.472 169.24 540.137 170.181Z" fill="#0B0754"/>
<path d="M548.726 171.286C549.536 170.507 550.515 169.989 551.559 169.785C552.634 169.554 553.742 169.634 554.783 170.016C555.808 170.391 556.735 171.05 557.483 171.933C558.23 172.816 558.775 173.896 559.067 175.077C558.696 174.781 557.337 173.429 556.74 173.033C555.999 172.45 555.187 171.994 554.33 171.681C553.467 171.359 552.568 171.174 551.66 171.132C550.68 171.1 549.699 171.151 548.726 171.286Z" fill="#0B0754"/>
<path d="M539.4 324.145C539.4 324.145 535.063 357.854 563.607 363.712C592.15 369.57 627.701 367.833 627.701 367.833L632.645 445.269L647.585 446.137C647.585 446.137 685.979 338.543 632.833 321.722L585.042 322.029L565.39 320.381C565.39 320.381 545.487 314.775 545.255 315.842C545.024 316.908 539.868 324.678 539.4 324.145Z" fill="#1E5EFC"/>
<path d="M513.151 324.321C513.151 324.321 508.813 358.03 537.357 363.888C565.901 369.746 601.452 368.009 601.452 368.009L606.396 445.45L621.306 446.319C621.306 446.319 659.705 338.719 606.56 321.903L558.797 322.167L539.131 320.568C539.131 320.568 519.228 314.962 518.996 316.029C518.765 317.095 513.618 324.854 513.151 324.321Z" fill="#1E5EFC"/>
<path d="M549.13 213.699C549.13 213.699 568.797 216.546 573.79 221.178C578.782 225.811 602.82 293.794 602.82 293.794L582.845 320.496L540.388 320.848C540.388 320.848 508.543 340.428 488.568 321.92C468.593 303.411 478.891 238.978 490.438 225.091C501.985 211.204 522.596 211.572 522.596 211.572C522.596 211.572 541.323 226.514 549.13 213.699Z" fill="#1EA5FC"/>
<path d="M511.044 247.518C511.724 251.229 512.206 254.984 512.49 258.761C512.659 260.646 512.731 262.542 512.827 264.432C512.924 266.323 512.914 268.224 512.89 270.126C512.872 273.932 512.598 277.731 512.071 281.49C511.512 285.232 510.702 288.991 509.179 292.371C510.148 288.777 510.794 285.079 511.107 281.336C511.468 277.61 511.589 273.857 511.637 270.109C511.685 266.361 511.637 262.591 511.521 258.827C511.406 255.063 511.218 251.298 511.044 247.518Z" fill="white"/>
<path d="M569.886 245.028C570.787 250.524 571.736 256.019 572.705 261.514C573.674 267.01 574.715 272.467 575.876 277.891C577.037 283.314 578.285 288.711 579.852 293.998C580.613 296.643 581.498 299.241 582.502 301.779C583.461 304.35 584.731 306.754 586.276 308.923C584.469 307 583.138 304.565 581.938 302.109C580.783 299.622 579.77 297.052 578.907 294.415C578.025 291.783 577.264 289.101 576.546 286.408C575.828 283.716 575.221 280.99 574.618 278.264C574.016 275.539 573.515 272.769 573.028 270.021C572.541 267.273 572.103 264.526 571.712 261.734C570.917 256.189 570.295 250.617 569.886 245.028Z" fill="white"/>
<path d="M612.472 257.327C608.839 250.881 579.081 239.934 579.081 239.934V250.848L609.374 262.938L612.472 257.327Z" fill="#DDE8FE"/>
<path d="M610.333 256.887L575.775 238.714V245.77L609.48 259.635L610.333 256.887Z" fill="white"/>
<path d="M608.411 256.887L571.935 241.148V253.315L608.044 259.635L608.411 256.887Z" fill="#DDE8FE"/>
<path d="M612.473 255.645C612.473 255.645 619.504 236.895 622.386 232.999C622.386 245.336 618.015 260.855 618.015 260.855L612.473 255.645Z" fill="white"/>
<path d="M615.542 256.475L624.072 231.905V243.61L618.212 259.635L615.542 256.475Z" fill="#DDE8FE"/>
<path d="M618.212 256.887L627.504 232.999V241.516L618.212 256.887Z" fill="white"/>
<path d="M618.212 330.498L629.928 307.483V233.878L618.212 256.887V330.498Z" fill="#4951EC"/>
<path d="M564.229 319.375L605.716 330.498V256.887L564.229 245.77V319.375Z" fill="#92B5F9"/>
<path d="M605.716 256.887C609.374 254.892 617.026 255.601 618.212 256.887C617.585 261.097 606.646 261.921 605.716 256.887Z" fill="#DDE8FE"/>
<path d="M605.716 330.498C605.716 332.3 618.246 332.3 618.246 330.498V256.887C616.973 259.03 607.109 258.97 605.716 256.887V330.498Z" fill="#7C9AF2"/>
<path d="M579.77 305.109C579.645 303.977 572.142 302.724 569.385 302.559C567.294 302.433 553.443 301.905 548.73 301.663L549.077 303.048L549.005 309.148L548.234 313.193C552.369 313.49 562.47 313.94 564.576 314.413C567.385 315.05 572.286 317.463 572.286 317.463C572.286 317.463 574.315 316.913 571.737 315.671C570.167 314.886 568.759 313.734 567.602 312.292C567.25 311.841 567.631 311.039 567.886 311.116C574.903 313.209 575.626 313.561 575.626 313.561C575.626 313.561 583.871 313.506 575.669 311.363C570.759 310.099 568.995 309.363 568.561 308.731C568.373 308.467 568.706 307.555 569.004 307.533C573.264 307.236 580.903 308.956 578.811 307.824C577.105 306.906 571.727 305.895 569.655 305.516C569.53 305.516 569.322 304.603 569.891 304.549C573.905 304.191 579.886 306.153 579.77 305.109Z" fill="#FB9390"/>
<path d="M506.245 291.437C507.97 291.915 509.671 292.464 511.406 292.882C513.141 293.3 514.876 293.69 516.601 294.102C520.087 294.835 523.579 295.474 527.078 296.02C530.581 296.569 534.09 297.025 537.612 297.416C541.135 297.806 544.682 298.152 548.152 298.372H548.634L548.735 298.833C549.021 300.149 549.235 301.483 549.376 302.829C549.52 304.167 549.589 305.514 549.583 306.862C549.574 308.214 549.471 309.563 549.275 310.896C549.061 312.234 548.716 313.541 548.248 314.792L548.21 314.896L548.133 314.957L544.277 317.902C542.991 318.892 541.704 319.864 540.422 320.82C541.632 319.721 542.832 318.622 544.075 317.556L547.752 314.319L547.636 314.484C548.022 313.274 548.292 312.019 548.441 310.742C548.583 309.466 548.639 308.18 548.61 306.895C548.567 305.597 548.464 304.302 548.301 303.015C548.139 301.737 547.91 300.471 547.617 299.224L548.186 299.718C546.354 299.663 544.615 299.526 542.832 299.377C541.048 299.229 539.285 299.07 537.531 298.855C533.998 298.438 530.47 297.938 526.957 297.295C523.444 296.652 519.955 295.871 516.495 294.937C514.77 294.437 513.044 293.954 511.348 293.338C509.652 292.723 507.936 292.118 506.245 291.437Z" fill="white"/>
<path d="M565.023 149.062C565.023 149.062 571.577 149.304 564.7 142.984C557.824 136.665 539.347 129.246 527.506 136.39C527.506 136.39 525.135 130.647 521.723 131.994C518.311 133.34 523.95 137.313 523.95 137.313C523.95 137.313 519.579 137.154 518.244 139.599C517.28 141.407 519.936 141.484 521.396 141.407C518.909 141.885 509.348 148.76 514.167 170.692C515.868 170.263 525.564 154.206 525.564 154.206C525.564 154.206 547.732 168.258 545.549 157.085C545.549 157.085 568.522 173.434 565.264 159.932C565.245 159.965 574.127 160.707 565.023 149.062Z" fill="#0B0754"/>
<path d="M514.129 170.835C514.129 170.835 515.965 170.099 517.941 171.885C519.917 173.671 519.7 179.952 519.7 179.952C519.7 179.952 529.126 186.882 528.129 157.553C527.073 126.35 520.268 160.053 520.268 160.053L514.129 170.835Z" fill="#0B0754"/>
<path d="M411.809 755.852L415.741 765.853C415.895 766.25 415.905 766.7 415.77 767.105C415.634 767.51 415.364 767.838 415.018 768.018L394.475 778.52C394.153 778.683 393.794 778.723 393.451 778.633C393.109 778.544 392.8 778.331 392.572 778.026C392.345 777.72 392.21 777.339 392.188 776.939C392.166 776.538 392.258 776.141 392.451 775.805L400.397 761.682C400.397 761.682 406.681 762.996 411.809 755.852Z" fill="#0B0754"/>
<path d="M438.425 754.659L442.357 764.661C442.438 764.859 442.483 765.073 442.49 765.292C442.497 765.51 442.466 765.728 442.399 765.932C442.332 766.137 442.229 766.324 442.098 766.483C441.967 766.642 441.809 766.77 441.634 766.859L421.095 777.355C420.774 777.52 420.414 777.561 420.07 777.473C419.726 777.385 419.416 777.172 419.187 776.866C418.959 776.56 418.823 776.177 418.801 775.776C418.78 775.375 418.873 774.976 419.066 774.64L427.018 760.517C427.018 760.517 433.302 761.803 438.425 754.659Z" fill="#0B0754"/>
<path d="M462.434 430.734C462.434 430.734 440.049 426.425 432.555 454.946L441.827 470.773C441.827 470.773 461.272 462.255 461.349 461.431C461.427 460.607 462.434 430.734 462.434 430.734Z" fill="#FA7167"/>
<path d="M498.466 443.582C498.466 443.582 504.992 454.776 508.322 459.216C516.702 470.383 517.782 466.91 522.991 476.488C528.61 486.858 522.924 493.348 519.69 496.337C516.456 499.327 521.868 510.378 515.835 516.577C507.95 524.688 500.659 517.039 495.233 521.583C489.806 526.128 488.626 532.865 475.768 531.59C462.911 530.315 463.036 482.385 463.036 482.385C463.036 482.385 473.561 456.974 473.98 456.765C474.4 456.556 498.466 443.582 498.466 443.582Z" fill="#FA7167"/>
<path d="M432.536 454.946C432.536 454.946 431.77 463.739 429.221 468.806C422.802 481.555 419.346 477.378 415.79 487.924C411.935 499.3 418.595 504.476 422.257 506.729C425.92 508.982 422.402 520.99 429.332 525.804C438.396 532.107 444.319 523.056 450.386 526.353C456.454 529.651 458.719 536.036 471.142 532.069C483.566 528.101 475.648 481.038 475.648 481.038C475.648 481.038 461.191 458.293 460.709 458.178C460.227 458.062 432.536 454.946 432.536 454.946Z" fill="#FA7167"/>
<path d="M465.017 511.708C465.017 511.708 486.472 507.207 496.341 507.587C506.211 507.966 490.361 537.223 490.361 537.223L474.246 537.63C474.246 537.63 464.367 525.051 465.017 523.584C465.668 522.116 464.988 512.521 464.988 512.521L465.017 511.708Z" fill="#FB9390"/>
<path d="M484.148 488.364L489.806 507.949C489.806 507.949 484.881 519.566 469.792 514.544C469.792 514.544 471.513 510.488 469.204 502.135C466.843 493.606 484.148 488.364 484.148 488.364Z" fill="#FB9390"/>
<path opacity="0.6" d="M484.149 488.364L486.805 497.513C485.224 504.201 480.087 508.757 470.42 510.153C470.38 507.424 469.976 504.719 469.22 502.13C466.844 493.606 484.149 488.364 484.149 488.364Z" fill="#EF7F7F"/>
<path d="M449.625 474.021C450.849 477.203 450.03 480.687 447.798 481.802C445.567 482.918 442.767 481.253 441.534 478.065C440.3 474.878 441.124 471.405 443.355 470.284C445.586 469.163 448.401 470.839 449.625 474.021Z" fill="#EF7F7F"/>
<path d="M449.002 488.468C447.665 484.516 446.776 480.384 446.357 476.175C446.265 475.356 446.135 474.526 445.99 473.735C445.342 470.084 445.366 466.319 446.062 462.68C446.757 459.04 448.109 455.605 450.03 452.593C451.952 449.581 454.402 447.057 457.225 445.182C460.047 443.307 463.181 442.121 466.427 441.701C469.672 441.28 472.959 441.634 476.079 442.739C479.198 443.844 482.082 445.677 484.548 448.121C487.013 450.564 489.006 453.566 490.4 456.935C491.793 460.304 492.558 463.966 492.644 467.69C493.315 467.196 494.079 466.888 494.873 466.793C495.668 466.697 496.471 466.816 497.218 467.141C500.046 468.481 501.15 472.834 499.685 476.867C498.22 480.901 494.731 483.083 491.907 481.742C491.52 481.56 491.158 481.316 490.832 481.016C489.965 494.205 480.751 504.647 469.411 504.773C460.901 504.855 452.515 498.981 449.002 488.468Z" fill="#FB9390"/>
<path d="M463.802 468.284C464.236 469.746 464.489 471.27 464.554 472.812C464.595 473.6 464.57 474.391 464.482 475.175C464.399 476.028 464.156 476.851 463.768 477.587C463.253 478.34 462.983 478.593 462.906 479.197C462.881 479.483 462.909 479.772 462.987 480.045C463.065 480.319 463.191 480.571 463.359 480.785C464.072 481.802 465.325 482.357 466.636 482.665C465.939 482.851 465.214 482.849 464.519 482.658C463.823 482.467 463.177 482.093 462.631 481.566C462.321 481.254 462.076 480.867 461.914 480.434C461.752 480 461.678 479.531 461.696 479.06C461.764 478.021 462.178 477.56 462.703 476.768C462.989 476.199 463.186 475.578 463.286 474.933C463.414 474.224 463.505 473.506 463.556 472.784C463.667 471.322 463.72 469.817 463.802 468.284Z" fill="#EF7F7F"/>
<path d="M471.566 470.273C471.501 470.763 471.574 471.265 471.775 471.705C471.975 472.145 472.293 472.502 472.682 472.723C473.071 472.945 473.512 473.02 473.941 472.938C474.37 472.856 474.766 472.621 475.07 472.266C475.375 471.912 475.573 471.457 475.637 470.966C475.7 470.475 475.625 469.974 475.424 469.535C475.222 469.095 474.903 468.74 474.513 468.52C474.123 468.3 473.682 468.227 473.253 468.311C472.827 468.394 472.434 468.629 472.131 468.981C471.829 469.333 471.631 469.785 471.566 470.273Z" fill="#0B0754"/>
<path d="M453.914 471.801C453.85 472.291 453.923 472.792 454.125 473.232C454.326 473.671 454.644 474.027 455.034 474.248C455.423 474.468 455.864 474.542 456.293 474.459C456.722 474.377 457.116 474.141 457.42 473.786C457.724 473.432 457.922 472.976 457.985 472.486C458.048 471.995 457.973 471.494 457.771 471.055C457.569 470.616 457.25 470.261 456.86 470.042C456.47 469.822 456.029 469.749 455.6 469.833C455.174 469.918 454.781 470.153 454.478 470.506C454.176 470.86 453.978 471.312 453.914 471.801Z" fill="#0B0754"/>
<g style="mix-blend-mode:multiply" opacity="0.3">
<path d="M471.909 488.485C470.958 488.152 469.956 488.057 468.971 488.206C467.985 488.355 467.039 488.744 466.198 489.347C466.198 489.347 463.205 487.215 460.849 489.254C461.202 490.723 461.998 492.003 463.097 492.87C464.196 493.736 465.528 494.133 466.858 493.991C468.158 493.984 469.406 493.41 470.346 492.385C471.285 491.361 471.844 489.965 471.909 488.485Z" fill="#FA7167"/>
</g>
<path d="M474.482 486.66C473.932 487.177 473.349 487.645 472.737 488.061C472.139 488.489 471.514 488.868 470.868 489.194C469.591 489.854 468.229 490.27 466.834 490.424C465.441 490.556 464.038 490.379 462.704 489.902C461.361 489.386 460.086 488.661 458.916 487.748C459.448 488.299 460.02 488.797 460.627 489.237C461.238 489.672 461.883 490.04 462.554 490.337C463.238 490.631 463.947 490.84 464.67 490.958C465.399 491.067 466.135 491.09 466.868 491.023C468.325 490.865 469.741 490.383 471.036 489.606C472.328 488.863 473.495 487.866 474.482 486.66Z" fill="#EF7F7F"/>
<path d="M469.137 465.245C470.132 464.929 471.145 464.696 472.168 464.547C473.118 464.412 474.08 464.428 475.026 464.596C475.968 464.757 476.884 465.075 477.744 465.541C478.419 465.811 480.048 466.998 480.472 467.228C479.992 466.055 479.266 465.034 478.358 464.256C477.451 463.478 476.389 462.966 475.267 462.766C474.133 462.572 472.974 462.7 471.894 463.14C470.827 463.549 469.876 464.276 469.137 465.245Z" fill="#FA7167"/>
<path d="M460.043 466.008C459.211 465.155 458.198 464.566 457.103 464.299C455.978 464.013 454.807 464.048 453.696 464.404C452.578 464.749 451.559 465.423 450.742 466.36C449.937 467.242 449.339 468.34 449.002 469.553C449.402 469.262 450.892 467.86 451.528 467.503C452.333 466.919 453.21 466.475 454.13 466.184C455.05 465.887 456.002 465.737 456.959 465.739C457.991 465.743 459.022 465.833 460.043 466.008Z" fill="#FA7167"/>
<path d="M502.336 631.387C502.336 631.387 508.664 665.343 479.956 673.41C451.248 681.477 415.013 682.29 415.013 682.29L414.339 761.385L399.231 763.358C399.231 763.358 354.133 656.775 407.216 635.783L455.793 632.557L475.701 629.491C475.701 629.491 495.618 622.347 495.917 623.402C496.216 624.457 501.893 631.969 502.336 631.387Z" fill="#FB9390"/>
<path d="M529.039 629.65C529.039 629.65 535.366 663.606 506.654 671.668C477.941 679.729 441.711 680.548 441.711 680.548L441.041 759.643L425.929 761.616C425.929 761.616 380.831 655.006 433.924 634.041L482.496 630.821L502.403 627.749C502.403 627.749 522.321 620.605 522.644 621.66C522.967 622.715 528.591 630.227 529.039 629.65Z" fill="#FB9390"/>
<path d="M425.808 625.644C401.602 626.067 379.521 641.921 371.665 672.706C363.81 703.491 345.893 735.244 347.599 734.936C385.569 759.176 397.506 734.832 423.741 742.025C449.976 749.218 459.287 745.971 459.287 745.971C451.692 702.519 441.702 680.576 441.702 680.576C443.904 681.026 508.312 682.109 524.225 662.001C528.687 656.358 532.109 649.269 531.424 631.931C530.162 599.64 432.835 625.523 425.808 625.644Z" fill="#1EA5FC"/>
<path d="M433.028 682.818C433.857 682.647 434.685 682.483 435.5 682.268C436.314 682.054 437.124 681.796 437.909 681.526C438.309 681.384 438.709 681.23 439.105 681.065C438.692 680.964 438.286 680.83 437.89 680.664C437.107 680.337 436.363 679.901 435.673 679.367C435.002 678.82 434.38 678.198 433.818 677.509C433.273 676.818 432.788 676.067 432.372 675.267L433.196 676.284C433.49 676.597 433.765 676.932 434.069 677.223C434.664 677.832 435.309 678.373 435.996 678.839C436.669 679.303 437.383 679.684 438.126 679.977C438.852 680.281 439.611 680.466 440.382 680.526L441.726 680.581L440.536 681.213C439.746 681.614 438.929 681.939 438.093 682.186C437.271 682.441 436.438 682.645 435.596 682.796C434.758 682.95 433.919 683.087 433.071 683.159C432.223 683.23 431.379 683.274 430.536 683.274C431.365 683.104 432.199 682.988 433.028 682.818Z" fill="#DAEEF7"/>
<path d="M440.632 559.375C440.632 559.375 438.681 614.878 433.206 623.545L463.302 615.747V555.369L440.632 559.375Z" fill="#FB9390"/>
<path d="M452.791 566.953C452.791 566.953 457.643 580.917 458.405 588.336C460.294 606.751 458.241 619.747 454.896 630.232C450.207 644.938 486.5 639.344 487.373 639.366C525.723 640.404 525.367 638.618 525.367 638.618L531.487 633.013C530.634 615.049 528.456 599.491 528.793 583.483L529.145 566.953L527.386 550.242L473.103 545.367L452.791 566.953Z" fill="#1EA5FC"/>
<path d="M434.203 579.29C437.519 573.405 464.67 563.42 464.67 563.42V573.377L437.032 584.368L434.203 579.29Z" fill="#EDEDED"/>
<path d="M434.203 579.29C437.519 573.405 464.67 563.42 464.67 563.42V573.377L437.032 584.368L434.203 579.29Z" fill="#DDE8FE"/>
<path d="M436.16 578.889L467.691 562.31V568.745L436.94 581.395L436.16 578.889Z" fill="white"/>
<path d="M437.914 578.889L471.194 564.53V575.625L438.246 581.395L437.914 578.889Z" fill="#DDE8FE"/>
<path d="M434.203 577.757C434.203 577.757 427.789 560.645 425.158 557.095C425.158 568.349 429.148 582.505 429.148 582.505L434.203 577.757Z" fill="white"/>
<path d="M431.408 578.51L423.625 556.094V566.777L428.97 581.395L431.408 578.51Z" fill="#DDE8FE"/>
<path d="M428.97 646.048L421.191 625.627V558.468L428.97 578.889V646.048Z" fill="#FA7167"/>
<path d="M478.226 635.904L440.372 646.048V578.889L478.226 568.745V635.904Z" fill="#FA7167"/>
<path d="M440.372 578.889C437.037 577.07 430.054 577.713 428.97 578.889C429.543 582.731 439.504 583.483 440.372 578.889Z" fill="#DDE8FE"/>
<path d="M440.372 646.048C440.372 647.697 428.922 647.697 428.922 646.048V578.889C430.078 580.84 439.081 580.785 440.372 578.889V646.048Z" fill="#FA7167"/>
<path d="M540.513 552.676L514.75 566.288C514.75 566.288 512.746 603.871 511.502 605.536C509.247 608.542 486.404 617.17 474.366 619.692C472.43 620.093 470.435 619.903 468.583 619.143C462.617 616.741 452.049 612.417 450.386 611.774C447.769 610.762 440.386 608.773 439.909 609.768C439.432 610.762 445.654 611.389 449.302 613.455C449.813 613.746 449.331 614.483 449.205 614.45C447.138 613.9 441.818 612.598 439.933 612.735C437.62 612.906 445.283 614.521 449.143 616.582C449.413 616.725 449.427 617.714 449.143 617.884C448.531 618.286 446.656 618.225 441.678 617.335C433.375 615.846 441.022 619.368 441.022 619.368C441.022 619.368 441.803 619.368 449.003 620.352C449.268 620.39 449.364 621.297 448.887 621.566C447.346 622.42 445.665 622.897 443.952 622.968C441.148 623.061 442.863 624.402 442.863 624.402C442.863 624.402 448.164 624.21 450.993 624.803C453.099 625.248 462.636 629.084 466.578 630.546L467.06 629.853C472.525 631.304 522.856 635.497 528.967 618.472C540.224 587.204 540.513 552.676 540.513 552.676Z" fill="#FB9390"/>
<path d="M465.017 511.708C465.017 511.708 479.605 531.123 496.341 507.587C496.341 507.587 514.625 505.889 528.109 516.808C541.593 527.727 549.66 552.248 549.66 552.248C549.66 552.248 530.311 566.953 514.717 566.953L478.135 552.017L452.791 566.953C452.791 566.953 441.023 566.063 431.062 560.271C431.062 560.271 432.758 521.292 465.017 511.708Z" fill="#1EA5FC"/>
<path d="M510.263 544.829C510.895 547.236 511.458 549.665 512.022 552.094C513.073 556.864 514.042 561.436 514.75 566.288C516.128 566.305 517.506 566.184 518.865 565.926C525.906 564.491 530.533 562.244 536.802 559.331C546.2 554.451 544.932 554.935 549.66 552.259C545.644 555.211 541.481 557.896 537.193 560.298C531.704 563.2 526.456 565.887 519.063 567.371C515.834 567.871 514.904 567.761 513.68 567.607C513.198 564.024 512.654 560.364 511.155 552.336L509.762 544.988L508.316 537.641C509.02 540.015 509.642 542.422 510.263 544.829Z" fill="#0B0754"/>
<path d="M452.289 549.346C451.802 552.279 451.596 555.264 451.672 558.249C451.716 559.694 452.636 563.744 453.73 567.811L453.128 568.074C451.879 563.958 450.81 559.831 450.67 558.342C450.397 555.254 450.517 552.137 451.026 549.088C451.512 546.06 452.249 543.092 453.229 540.224C454.171 537.35 455.359 534.589 456.776 531.981C455.812 534.831 454.944 537.698 454.173 540.581C453.391 543.457 452.762 546.384 452.289 549.346Z" fill="#0B0754"/>
<path d="M492.645 467.657C492.645 467.657 467.586 460.766 455.625 441.356C455.625 441.356 455.417 423.678 478.414 427.689C500.761 431.602 506.009 456.397 492.645 467.657Z" fill="#FA7167"/>
</g>
<defs>
<clipPath id="clip0">
<rect width="934" height="791" fill="white"/>
</clipPath>
</defs>
</svg>
