<svg width="780" height="565" viewBox="0 0 780 565" fill="none" xmlns="http://www.w3.org/2000/svg">
<g clip-path="url(#clip0)">
<path d="M496.52 423.392V559.536H155.429C116.567 559.536 84.9475 528.998 84.9475 491.464C84.9475 453.93 116.567 423.392 155.429 423.392H496.52Z" fill="#F2F2F2"/>
<path d="M504.898 558.489C504.898 559.877 504.346 561.209 503.364 562.191C502.382 563.172 501.051 563.724 499.662 563.725H149.354C130.328 563.725 112.081 556.167 98.6281 542.714C85.1748 529.26 77.6167 511.014 77.6167 491.988C77.6167 472.962 85.1748 454.715 98.6281 441.262C112.081 427.808 130.328 420.25 149.354 420.25H499.662C501.051 420.25 502.383 420.802 503.365 421.784C504.347 422.766 504.898 424.098 504.898 425.487C504.898 426.875 504.347 428.207 503.365 429.189C502.383 430.171 501.051 430.723 499.662 430.723H149.354C133.106 430.723 117.523 437.178 106.033 448.667C94.544 460.156 88.0893 475.739 88.0893 491.988C88.0893 508.236 94.544 523.819 106.033 535.308C117.523 546.798 133.106 553.252 149.354 553.252H499.662C501.051 553.253 502.382 553.805 503.364 554.787C504.346 555.768 504.898 557.1 504.898 558.489Z" fill="#00ADB5"/>
<path d="M496.52 454.81H129.98C129.702 454.81 129.436 454.7 129.239 454.503C129.043 454.307 128.932 454.04 128.932 453.763C128.932 453.485 129.043 453.219 129.239 453.022C129.436 452.826 129.702 452.715 129.98 452.715H496.52C496.798 452.715 497.065 452.826 497.261 453.022C497.457 453.219 497.568 453.485 497.568 453.763C497.568 454.04 497.457 454.307 497.261 454.503C497.065 454.7 496.798 454.81 496.52 454.81Z" fill="#CCCCCC"/>
<path d="M496.52 479.944H129.98C129.702 479.944 129.436 479.834 129.239 479.637C129.043 479.441 128.932 479.175 128.932 478.897C128.932 478.619 129.043 478.353 129.239 478.156C129.436 477.96 129.702 477.85 129.98 477.85H496.52C496.798 477.85 497.065 477.96 497.261 478.156C497.457 478.353 497.568 478.619 497.568 478.897C497.568 479.175 497.457 479.441 497.261 479.637C497.065 479.834 496.798 479.944 496.52 479.944Z" fill="#CCCCCC"/>
<path d="M496.52 505.078H129.98C129.702 505.078 129.436 504.968 129.239 504.772C129.043 504.575 128.932 504.309 128.932 504.031C128.932 503.753 129.043 503.487 129.239 503.291C129.436 503.094 129.702 502.984 129.98 502.984H496.52C496.798 502.984 497.065 503.094 497.261 503.291C497.457 503.487 497.568 503.753 497.568 504.031C497.568 504.309 497.457 504.575 497.261 504.772C497.065 504.968 496.798 505.078 496.52 505.078Z" fill="#CCCCCC"/>
<path d="M496.52 530.213H129.98C129.702 530.213 129.436 530.102 129.239 529.906C129.043 529.709 128.932 529.443 128.932 529.165C128.932 528.888 129.043 528.621 129.239 528.425C129.436 528.228 129.702 528.118 129.98 528.118H496.52C496.798 528.118 497.065 528.228 497.261 528.425C497.457 528.621 497.568 528.888 497.568 529.165C497.568 529.443 497.457 529.709 497.261 529.906C497.065 530.102 496.798 530.213 496.52 530.213Z" fill="#CCCCCC"/>
<path d="M760.134 449.02L674.714 555.032L409.113 341.024C378.852 316.641 373.391 273.023 396.94 243.796C420.49 214.569 464.271 210.629 494.533 235.012L760.134 449.02Z" fill="#F2F2F2"/>
<path d="M681.895 559.473C681.024 560.554 679.758 561.244 678.378 561.393C676.997 561.542 675.614 561.136 674.532 560.265L401.754 340.474C386.939 328.537 377.473 311.204 375.438 292.287C373.403 273.37 378.966 254.42 390.903 239.605C402.841 224.789 420.174 215.323 439.091 213.288C458.008 211.253 476.958 216.816 491.773 228.754L764.551 448.544C765.087 448.976 765.533 449.508 765.863 450.112C766.193 450.715 766.401 451.378 766.474 452.062C766.548 452.746 766.487 453.438 766.293 454.098C766.099 454.758 765.777 455.373 765.346 455.909C764.914 456.445 764.381 456.89 763.777 457.22C763.174 457.549 762.511 457.757 761.827 457.83C761.143 457.903 760.451 457.841 759.791 457.647C759.131 457.453 758.516 457.131 757.981 456.699L485.203 236.908C478.938 231.857 471.74 228.089 464.019 225.82C456.298 223.551 448.206 222.825 440.204 223.684C432.203 224.543 424.449 226.971 417.386 230.827C410.323 234.684 404.089 239.894 399.039 246.16C393.99 252.427 390.225 259.626 387.959 267.348C385.693 275.07 384.971 283.162 385.833 291.164C386.695 299.165 389.126 306.917 392.985 313.979C396.844 321.041 402.057 327.273 408.325 332.32L681.103 552.11C682.184 552.982 682.875 554.247 683.023 555.628C683.172 557.008 682.766 558.391 681.895 559.473Z" fill="#CCCCCC"/>
<path d="M740.422 473.484L455.004 243.509C454.896 243.422 454.807 243.316 454.741 243.195C454.676 243.074 454.634 242.942 454.619 242.805C454.605 242.668 454.617 242.53 454.656 242.398C454.695 242.266 454.759 242.143 454.845 242.036C454.931 241.929 455.038 241.84 455.159 241.774C455.279 241.708 455.412 241.667 455.549 241.652C455.685 241.637 455.824 241.65 455.956 241.688C456.088 241.727 456.211 241.791 456.318 241.878L741.736 471.853C741.843 471.939 741.932 472.046 741.998 472.166C742.064 472.287 742.106 472.42 742.121 472.557C742.136 472.693 742.123 472.832 742.085 472.964C742.046 473.096 741.981 473.219 741.895 473.326C741.809 473.434 741.702 473.523 741.581 473.589C741.461 473.655 741.328 473.696 741.191 473.711C741.054 473.725 740.916 473.713 740.784 473.674C740.652 473.635 740.529 473.57 740.422 473.484V473.484Z" fill="#CCCCCC"/>
<path d="M724.652 493.055L439.234 263.08C439.018 262.906 438.88 262.653 438.851 262.377C438.821 262.101 438.902 261.825 439.076 261.608C439.251 261.392 439.503 261.254 439.779 261.224C440.055 261.194 440.332 261.275 440.548 261.449L725.966 491.425C726.073 491.511 726.162 491.617 726.229 491.738C726.295 491.859 726.336 491.991 726.351 492.128C726.366 492.265 726.354 492.403 726.315 492.535C726.276 492.668 726.212 492.791 726.125 492.898C726.039 493.005 725.932 493.094 725.812 493.16C725.691 493.226 725.558 493.268 725.421 493.282C725.284 493.297 725.146 493.284 725.014 493.245C724.882 493.206 724.759 493.142 724.652 493.055Z" fill="#CCCCCC"/>
<path d="M708.882 512.627L423.464 282.652C423.248 282.477 423.11 282.224 423.08 281.948C423.05 281.672 423.131 281.395 423.306 281.179C423.48 280.963 423.733 280.825 424.009 280.795C424.285 280.765 424.562 280.846 424.778 281.021L710.196 510.996C710.303 511.082 710.392 511.189 710.458 511.31C710.524 511.43 710.566 511.563 710.58 511.699C710.595 511.836 710.583 511.974 710.544 512.106C710.505 512.238 710.441 512.361 710.355 512.469C710.268 512.576 710.162 512.665 710.041 512.731C709.92 512.797 709.788 512.838 709.651 512.853C709.514 512.867 709.376 512.855 709.244 512.816C709.112 512.778 708.989 512.713 708.882 512.627V512.627Z" fill="#CCCCCC"/>
<path d="M693.112 532.198L407.694 302.223C407.587 302.137 407.498 302.03 407.432 301.91C407.366 301.789 407.325 301.656 407.31 301.52C407.295 301.383 407.308 301.245 407.347 301.113C407.385 300.981 407.45 300.858 407.536 300.751C407.622 300.644 407.729 300.555 407.849 300.489C407.97 300.423 408.103 300.381 408.239 300.366C408.376 300.352 408.514 300.364 408.646 300.403C408.778 300.442 408.901 300.506 409.008 300.592L694.426 530.568C694.534 530.654 694.623 530.76 694.689 530.881C694.755 531.002 694.797 531.134 694.812 531.271C694.826 531.408 694.814 531.546 694.775 531.678C694.737 531.811 694.672 531.934 694.586 532.041C694.5 532.148 694.393 532.237 694.272 532.303C694.151 532.369 694.019 532.411 693.882 532.425C693.745 532.44 693.607 532.427 693.475 532.388C693.342 532.349 693.219 532.285 693.112 532.198Z" fill="#CCCCCC"/>
<path d="M778.113 564.772H1.04726C0.769509 564.772 0.503133 564.662 0.306734 564.465C0.110335 564.269 0 564.003 0 563.725C0 563.447 0.110335 563.181 0.306734 562.984C0.503133 562.788 0.769509 562.678 1.04726 562.678H778.113C778.391 562.678 778.658 562.788 778.854 562.984C779.05 563.181 779.161 563.447 779.161 563.725C779.161 564.003 779.05 564.269 778.854 564.465C778.658 564.662 778.391 564.772 778.113 564.772Z" fill="#CCCCCC"/>
<path d="M354.058 409.082L342.086 409.081L336.392 362.901L354.063 362.904L354.058 409.082Z" fill="#FFB8B8"/>
<path d="M333.534 405.661H356.623V420.199H318.996C318.996 418.289 319.372 416.399 320.102 414.635C320.833 412.871 321.904 411.269 323.254 409.919C324.604 408.569 326.206 407.498 327.97 406.767C329.734 406.037 331.624 405.661 333.534 405.661Z" fill="#2F2E41"/>
<path d="M231.744 409.082L219.772 409.081L214.078 362.901L231.748 362.904L231.744 409.082Z" fill="#FFB8B8"/>
<path d="M211.219 405.661H234.309V420.199H196.681C196.681 418.289 197.057 416.399 197.788 414.635C198.519 412.871 199.59 411.269 200.94 409.919C202.29 408.569 203.892 407.498 205.656 406.767C207.42 406.037 209.31 405.661 211.219 405.661Z" fill="#2F2E41"/>
<path d="M271.733 66.5356V61.2993C271.733 52.3418 275.292 43.7512 281.625 37.4174C287.959 31.0835 296.55 27.5252 305.507 27.5252H305.507C314.465 27.5252 323.055 31.0835 329.389 37.4174C335.723 43.7512 339.281 52.3418 339.281 61.2993V66.5356C339.281 72.9933 336.716 79.1865 332.15 83.7528C327.584 88.3191 321.39 90.8844 314.933 90.8844H296.082C292.884 90.8844 289.718 90.2546 286.764 89.031C283.81 87.8073 281.126 86.0138 278.865 83.7528C276.604 81.4918 274.81 78.8076 273.587 75.8535C272.363 72.8994 271.733 69.7331 271.733 66.5356Z" fill="#2F2E41"/>
<path d="M305.507 92.6861C319.713 92.6861 331.229 81.1701 331.229 66.9644C331.229 52.7587 319.713 41.2426 305.507 41.2426C291.302 41.2426 279.786 52.7587 279.786 66.9644C279.786 81.1701 291.302 92.6861 305.507 92.6861Z" fill="#FFB8B8"/>
<path d="M165.597 155.367C166.641 154.381 167.888 153.636 169.251 153.185C170.614 152.733 172.059 152.586 173.485 152.754C174.911 152.921 176.283 153.399 177.504 154.154C178.725 154.909 179.766 155.923 180.553 157.123L202.602 152.952L208.405 165.734L177.184 171.187C175.079 172.375 172.612 172.75 170.249 172.241C167.886 171.731 165.792 170.373 164.364 168.423C162.936 166.473 162.272 164.067 162.5 161.66C162.727 159.254 163.829 157.015 165.597 155.367V155.367Z" fill="#FFB8B8"/>
<path d="M285.454 108.885L285.742 109.322L249.585 133.141L188.573 152.623C187.765 152.883 187.071 153.415 186.61 154.129C186.15 154.843 185.951 155.694 186.047 156.538L187.378 168.002C187.437 168.51 187.602 168.999 187.861 169.439C188.12 169.879 188.469 170.26 188.884 170.558C189.299 170.856 189.772 171.063 190.272 171.168C190.772 171.272 191.288 171.27 191.788 171.163L249.209 158.855C251.987 158.263 254.615 157.106 256.928 155.456L297.549 126.555C299.022 125.502 300.197 124.085 300.96 122.443C301.723 120.801 302.048 118.99 301.904 117.185C301.755 115.378 301.138 113.64 300.114 112.144C299.09 110.647 297.694 109.443 296.063 108.649C294.433 107.856 292.623 107.501 290.814 107.619C289.004 107.737 287.256 108.323 285.742 109.322L285.454 108.885Z" fill="#CCCCCC"/>
<path d="M342.3 395.978C341.381 395.978 340.482 395.71 339.712 395.208C338.943 394.706 338.336 393.99 337.967 393.149L283.08 257.528C282.952 257.234 282.737 256.986 282.463 256.818C282.19 256.649 281.872 256.569 281.552 256.587C281.231 256.605 280.924 256.721 280.672 256.918C280.419 257.116 280.233 257.387 280.139 257.693L235.36 389.725C235.171 390.34 234.858 390.909 234.441 391.398C234.024 391.887 233.511 392.286 232.934 392.569C232.357 392.853 231.728 393.016 231.086 393.047C230.444 393.079 229.802 392.979 229.2 392.753L214.184 387.122C213.369 386.819 212.654 386.296 212.118 385.611C211.583 384.926 211.248 384.106 211.15 383.242C204.395 324.394 263.304 175.854 263.9 174.361L264.065 173.947L317.765 185.826L317.877 185.948C339.301 209.32 356.912 356.737 360.225 386.051C360.348 387.11 360.107 388.179 359.541 389.083C358.976 389.987 358.119 390.671 357.113 391.022L343.859 395.71C343.358 395.887 342.831 395.978 342.3 395.978Z" fill="#2F2E41"/>
<path d="M296.031 190.607C283.021 190.607 268.515 188.013 264.05 177.306L263.948 177.06L264.086 176.832C267.611 171.05 272.269 161.186 269.765 159.334C264.833 155.688 262.44 149.689 262.652 141.504C263.114 123.736 275.22 107.962 292.778 102.25H292.778C297.679 100.682 302.666 99.3977 307.715 98.4043C311.396 97.6616 315.195 97.7433 318.841 98.6435C322.486 99.5437 325.887 101.24 328.799 103.611C331.748 105.997 334.131 109.007 335.778 112.424C337.425 115.841 338.295 119.58 338.325 123.373C338.509 142.361 335.586 168.807 320.613 186.963C319.912 187.806 318.935 188.373 317.856 188.567C310.653 189.87 303.351 190.552 296.031 190.607Z" fill="#CCCCCC"/>
<path d="M291.192 189.896C291.9 187.356 293.581 185.198 295.872 183.891C298.162 182.585 300.875 182.234 303.422 182.917C303.942 183.062 304.449 183.25 304.938 183.479L321.68 168.242L333.324 176.086L309.382 197.273C308.3 199.223 306.598 200.754 304.546 201.625C302.494 202.495 300.21 202.654 298.057 202.077C296.803 201.734 295.63 201.145 294.604 200.346C293.579 199.546 292.722 198.551 292.084 197.418C291.446 196.286 291.038 195.038 290.885 193.747C290.732 192.455 290.836 191.147 291.192 189.896Z" fill="#FFB8B8"/>
<path d="M319.028 190.09C317.942 190.09 316.889 189.715 316.048 189.026L309.446 183.631C308.896 183.181 308.454 182.613 308.155 181.968C307.855 181.324 307.705 180.62 307.716 179.909C307.727 179.199 307.899 178.5 308.218 177.865C308.537 177.23 308.996 176.675 309.56 176.243L337.252 155.004C337.58 154.751 337.795 154.379 337.851 153.968C337.906 153.558 337.798 153.142 337.548 152.811L320.457 130.215C318.471 127.598 317.475 124.364 317.645 121.083C317.815 117.803 319.141 114.689 321.386 112.292C323.751 109.737 326.99 108.165 330.46 107.888C333.931 107.61 337.378 108.647 340.119 110.793L340.227 110.907L358.075 136.463C360.005 137.976 361.559 139.915 362.615 142.128C363.672 144.341 364.203 146.769 364.167 149.221C364.13 151.673 363.527 154.084 362.405 156.264C361.283 158.445 359.672 160.337 357.698 161.792L321.834 189.166C321.021 189.766 320.038 190.09 319.028 190.09Z" fill="#CCCCCC"/>
<path d="M282.724 59.7283V46.9663L305.507 37.0173L327.232 46.9663V59.7283C327.232 60.2838 327.011 60.8166 326.619 61.2094C326.226 61.6022 325.693 61.8229 325.138 61.8229H284.818C284.263 61.8229 283.73 61.6022 283.337 61.2094C282.944 60.8166 282.724 60.2838 282.724 59.7283Z" fill="#2F2E41"/>
<path d="M304.461 29.2182C301.111 18.4958 308.147 6.20744 318.548 1.96325C328.949 -2.28095 341.392 0.685876 350.168 7.69793C358.945 14.71 364.39 25.2127 367.275 36.0694C370.16 46.9261 370.708 58.247 371.24 69.4679C384.019 71.8152 392.712 86.9721 388.285 99.1874C383.859 111.403 367.474 117.471 356.158 111.087C344.842 104.702 341.565 87.5394 349.731 77.4343C353.596 72.6529 355.754 66.7188 355.865 60.5719C355.976 54.4251 354.034 48.417 350.344 43.499C346.655 38.5811 341.431 35.0345 335.499 33.421C329.566 31.8075 323.265 32.2194 317.593 34.5913C311.295 37.225 303.393 30.3819 304.461 29.2182Z" fill="#2F2E41"/>
<path d="M160.874 105.86C145.574 105.759 130.466 102.45 116.524 96.1466C115.694 95.7768 114.99 95.1735 114.497 94.4104C114.004 93.6473 113.743 92.7572 113.747 91.8487V53.7097C113.749 52.4602 114.246 51.2623 115.129 50.3788C116.013 49.4953 117.21 48.9984 118.46 48.997H203.288C204.537 48.9984 205.735 49.4954 206.619 50.3789C207.502 51.2624 207.999 52.4602 208 53.7097V91.8487C208.004 92.7573 207.744 93.6473 207.251 94.4105C206.758 95.1736 206.053 95.7768 205.223 96.1467C191.282 102.45 176.174 105.759 160.874 105.86Z" fill="#00ADB5"/>
<path d="M160.862 74.9627C160.233 74.9632 159.611 74.8381 159.031 74.5945L91.7634 46.2142C90.8959 45.8483 90.158 45.2309 89.6447 44.4416C89.1314 43.6523 88.8662 42.7274 88.8835 41.7861C88.9007 40.8448 89.1996 39.9302 89.7415 39.1602C90.2834 38.3903 91.0434 37.8004 91.9237 37.4665L159.192 11.9471C160.276 11.5342 161.473 11.5368 162.555 11.9543L228.922 37.4736C229.797 37.8102 230.552 38.4003 231.09 39.1683C231.628 39.9364 231.925 40.8476 231.942 41.7852C231.96 42.7228 231.697 43.6443 231.188 44.4317C230.678 45.2192 229.946 45.8368 229.083 46.2055L162.716 74.5853C162.13 74.8349 161.499 74.9633 160.862 74.9627Z" fill="#00ADB5"/>
<path d="M121.602 98.7418C125.072 98.7418 127.885 95.9286 127.885 92.4582C127.885 88.9879 125.072 86.1747 121.602 86.1747C118.131 86.1747 115.318 88.9879 115.318 92.4582C115.318 95.9286 118.131 98.7418 121.602 98.7418Z" fill="#3F3D56"/>
<path opacity="0.2" d="M229.313 42.1771L162.945 70.5569C162.427 70.7782 161.871 70.8929 161.308 70.8943C160.745 70.8956 160.188 70.7836 159.67 70.5649L92.4021 42.1854C91.5573 41.8375 90.8525 41.218 90.3991 40.4248C90.1025 40.9392 89.9187 41.5107 89.8599 42.1015C89.8011 42.6923 89.8687 43.2889 90.0581 43.8516C90.2476 44.4143 90.5545 44.9303 90.9587 45.3652C91.3628 45.8002 91.8548 46.1442 92.4021 46.3744L159.67 74.7539C160.188 74.9726 160.745 75.0847 161.308 75.0833C161.871 75.0819 162.427 74.9672 162.945 74.746L229.313 46.3661C229.857 46.1339 230.346 45.7888 230.748 45.3536C231.149 44.9184 231.453 44.4031 231.641 43.8416C231.828 43.2802 231.895 42.6853 231.835 42.0963C231.776 41.5073 231.593 40.9376 231.297 40.4248C230.847 41.2116 230.149 41.8276 229.313 42.1771Z" fill="black"/>
<path d="M122.13 92.4337C122.407 92.4337 122.674 92.3233 122.87 92.1269C123.067 91.9306 123.177 91.6642 123.177 91.3864V56.3436L157.717 43.7607C157.994 43.7648 158.262 43.6584 158.462 43.465C158.661 43.2715 158.775 43.0068 158.78 42.729C158.784 42.4513 158.677 42.1832 158.484 41.9839C158.29 41.7846 158.026 41.6703 157.748 41.6662L123.208 54.2491C122.93 54.2427 122.654 54.2928 122.396 54.3964C122.138 54.4999 121.903 54.6548 121.707 54.8515C121.508 55.0459 121.351 55.2781 121.244 55.5344C121.136 55.7906 121.082 56.0658 121.082 56.3436V91.3864C121.082 91.6642 121.193 91.9305 121.389 92.1269C121.586 92.3233 121.852 92.4337 122.13 92.4337Z" fill="#3F3D56"/>
</g>
<defs>
<clipPath id="clip0">
<rect width="779.161" height="564.772" fill="white"/>
</clipPath>
</defs>
</svg>
