<svg xmlns="http://www.w3.org/2000/svg" viewBox="0 0 280.65 98.92"><defs><style>.cls-1{fill:#1ea5fc;}.cls-2{fill:#3c8dad;}</style></defs><g id="Layer_2" data-name="Layer 2"><g id="Layer_1-2" data-name="Layer 1"><path class="cls-1" d="M111.42,52.34h11.12v42.1H111.42Zm18.71,0h11.11V85.45H159v9H130.13Zm69.12,18.33V91.78a34,34,0,0,1-7.56,2.36,42.74,42.74,0,0,1-8.52.83,25.94,25.94,0,0,1-11.94-2.6,18.39,18.39,0,0,1-7.75-7.45,23.58,23.58,0,0,1-2.72-11.59A22.83,22.83,0,0,1,163.48,62a18.37,18.37,0,0,1,7.69-7.51,24.1,24.1,0,0,1,11.59-2.66A30.19,30.19,0,0,1,191.33,53,18.53,18.53,0,0,1,198,56.24l-3.48,7.87a22,22,0,0,0-5.62-2.72,18.12,18.12,0,0,0-5.74-.89q-5.61,0-8.39,3.19T172,73.33q0,6.74,2.84,10t8.86,3.25a26.2,26.2,0,0,0,5.56-.59v-7.8h-7.33V70.67Zm35.42,15.08H216l-3.73,8.69H201.15l19.69-42.1h8.75l19.74,42.1H238.4Zm-3.61-8.34-5.73-13.3-5.74,13.3Zm20.67-25.07h11.12V85.45h17.8v9H251.73Z"/><path class="cls-1" d="M98.21,59.62V88.77A10.15,10.15,0,0,1,78,90.37a51.61,51.61,0,0,1-28.49,8.55A49.52,49.52,0,0,1,0,47.51a46.39,46.39,0,0,1,.51-5.3h0A49.74,49.74,0,0,1,45.83.13a50.52,50.52,0,0,1,11.3.45,8.56,8.56,0,0,1,5,2.72,2.62,2.62,0,0,1,.22.25,8.78,8.78,0,0,1-8.13,14.34,30.74,30.74,0,0,0-4.71-.36A32,32,0,1,0,76.28,67.05H53a8.82,8.82,0,0,1-3.6-16.88,8.68,8.68,0,0,1,3.6-.78H89.65a8.57,8.57,0,0,1,8.52,9.38C98.19,59.05,98.21,59.33,98.21,59.62Z"/><ellipse class="cls-2" cx="73.54" cy="12.48" rx="7.23" ry="7.04"/></g></g></svg>