<svg width="631" height="427" viewBox="0 0 631 427" fill="none" xmlns="http://www.w3.org/2000/svg">
<g clip-path="url(#clip0)">
<path d="M54.8545 382.553C68.6702 373.509 72.1794 356.184 72.0244 340.486C72.0244 337.874 72.3676 335.128 71.1609 332.804C69.9543 330.479 67.065 328.852 64.6627 329.892C62.6812 330.756 61.7734 332.992 60.6221 334.829C59.0871 337.29 56.8882 339.266 54.2789 340.531C52.5741 341.35 50.4818 341.826 48.8434 340.885C46.6294 339.59 46.3969 336.457 46.4744 333.877C46.6294 329.036 46.777 324.198 46.9172 319.364C47.1441 316.766 46.9421 314.148 46.3194 311.615C45.9893 310.361 45.3638 309.204 44.4952 308.241C43.6267 307.278 42.5402 306.537 41.3267 306.08C38.8359 305.327 35.7141 306.678 35.1164 309.202C34.9924 310.275 34.9406 311.355 34.9614 312.434C34.9636 312.976 34.8048 313.506 34.5052 313.958C34.2056 314.409 33.7787 314.761 33.2787 314.969C32.7346 315.02 32.1867 314.93 31.6869 314.709C31.1871 314.488 30.7519 314.143 30.4226 313.707C27.9021 310.889 25.8603 307.677 24.3783 304.198C22.8984 300.725 21.0106 297.44 18.7546 294.412C16.3634 291.49 13.0092 289.143 9.24529 288.877C5.48142 288.611 1.41865 290.781 0.389121 294.412C-0.640408 298.043 1.41865 301.818 3.71018 304.829C7.10155 309.318 11.1248 313.293 15.6549 316.63C16.5369 317.138 17.2347 317.914 17.6476 318.844C18.1679 320.593 16.4631 322.265 14.725 322.796C12.7435 323.394 10.618 323.139 8.57 323.327C6.52201 323.516 4.26369 324.357 3.44449 326.25C2.33747 328.885 4.48509 331.719 6.64378 333.59C10.998 337.354 15.9621 340.349 21.3229 342.446C23.2997 343.037 25.1526 343.982 26.7916 345.235C28.3193 346.608 29.2049 348.966 28.2196 350.771C27.2344 352.575 24.7989 353.106 22.7731 352.686C20.8197 352.104 18.9197 351.356 17.0941 350.449C13.5073 349.021 8.83568 349.154 6.44452 352.188C5.70615 353.223 5.22131 354.418 5.02904 355.676C4.83676 356.933 4.94241 358.218 5.3375 359.427C6.16434 361.832 7.467 364.046 9.16779 365.937C14.7501 372.885 22.0718 378.232 30.3894 381.435C38.7031 384.512 46.4633 385.476 54.8656 382.664" fill="#1EA5FC"/>
<path d="M4.26367 290.991L4.51828 291.246L5.28213 291.943C5.95741 292.563 6.94266 293.471 8.19359 294.678C11.7237 298.078 14.9949 301.738 17.9797 305.626C19.8727 308.073 21.8432 310.851 23.9022 313.862C25.9613 316.874 28.12 320.128 30.2787 323.615C32.5554 327.247 34.6287 331.001 36.489 334.863C37.4632 336.866 38.3156 338.97 39.1791 341.106C40.0426 343.243 40.9282 345.413 41.8138 347.615C45.2077 355.841 48.1313 364.254 50.5703 372.811C52.5331 379.809 53.8267 386.978 54.4338 394.221C54.8307 399.104 54.7937 404.013 54.3231 408.889C54.146 410.605 53.98 411.944 53.8361 412.852C53.7696 413.284 53.7254 413.627 53.6811 413.882C53.6736 414 53.6736 414.118 53.6811 414.236C53.7184 414.124 53.748 414.009 53.7696 413.893C53.7696 413.638 53.8803 413.295 53.9578 412.863C54.1349 411.967 54.3342 410.649 54.5445 408.911C55.0872 404.026 55.1761 399.101 54.8102 394.199C54.2541 386.927 52.9898 379.727 51.0353 372.701C48.6133 364.115 45.697 355.676 42.3009 347.427C41.4005 345.213 40.5223 343.047 39.6662 340.929C38.7916 338.793 37.9282 336.678 36.954 334.652C35.0753 330.779 32.9835 327.013 30.6882 323.372C28.4742 319.885 26.3266 316.652 24.2675 313.641C22.2085 310.63 20.2048 307.862 18.2785 305.416C15.2494 301.535 11.9179 297.9 8.31536 294.545C7.04229 293.36 6.02383 292.464 5.32641 291.877L4.54043 291.202C4.3633 291.058 4.27474 290.98 4.26367 290.991Z" fill="#263238"/>
<path d="M36.7878 334.63C36.9193 334.272 37.0121 333.901 37.0645 333.523C37.2195 332.803 37.4188 331.774 37.6291 330.479C38.0609 327.899 38.5479 324.324 39.0572 320.383C39.5664 316.442 40.0978 312.877 40.5738 310.309C40.8063 309.036 41.0055 307.995 41.1494 307.276C41.2494 306.914 41.3088 306.543 41.3266 306.169C41.1589 306.521 41.0362 306.893 40.9613 307.276C40.762 307.973 40.5074 309.003 40.2306 310.276C39.6771 312.833 39.1236 316.397 38.5812 320.35C38.0387 324.302 37.6291 327.767 37.297 330.468C37.131 331.674 36.9871 332.682 36.8874 333.523C36.8115 333.887 36.778 334.258 36.7878 334.63Z" fill="#263238"/>
<path d="M3.12354 327.59C3.56316 327.694 4.01162 327.757 4.46303 327.778C5.32651 327.878 6.58851 328.01 8.12727 328.232C11.2159 328.63 15.4668 329.339 20.1163 330.313C24.7658 331.287 28.9725 332.383 31.9282 333.236C33.4338 333.656 34.6404 334.033 35.4707 334.287C35.8969 334.446 36.3383 334.561 36.788 334.63C36.3838 334.428 35.9658 334.254 35.5371 334.11C34.7179 333.8 33.5223 333.379 32.0279 332.914C29.05 331.962 24.8765 330.833 20.2159 329.848C16.2367 328.993 12.2168 328.339 8.17156 327.889C6.61066 327.711 5.34865 327.634 4.48517 327.601C4.03282 327.551 3.57663 327.548 3.12354 327.59Z" fill="#263238"/>
<path d="M50.6035 372.07C50.7017 371.948 50.7836 371.814 50.8471 371.671L51.4559 370.476C51.9762 369.435 52.6958 367.918 53.5593 366.048C55.2862 362.262 57.5003 356.959 59.8582 351.081C62.2162 345.202 64.397 339.878 66.0354 336.069L67.9948 331.553L68.5262 330.324C68.6369 330.036 68.6922 329.881 68.6701 329.881C68.5789 330.006 68.501 330.139 68.4376 330.28L67.8288 331.475C67.2974 332.516 66.5889 334.033 65.7254 335.903C63.9985 339.689 61.7844 344.992 59.4154 350.87C57.0464 356.749 54.8877 362.073 53.2382 365.882C52.4412 367.741 51.777 369.269 51.2788 370.398L50.7585 371.627C50.6879 371.767 50.6358 371.916 50.6035 372.07Z" fill="#263238"/>
<path d="M6.02393 356.704C6.02393 356.704 6.16784 356.793 6.45566 356.903L7.75088 357.357L12.5332 359.018C16.5628 360.413 22.1089 362.405 28.2308 364.619C34.3526 366.833 39.9209 368.771 43.9837 370.088C46.0206 370.752 47.659 371.262 48.8103 371.594L50.1276 371.97C50.4376 372.059 50.6036 372.092 50.6036 372.07C50.4629 371.992 50.3145 371.929 50.1608 371.881L48.8656 371.417L44.0944 369.767C40.0648 368.372 34.5186 366.38 28.3968 364.166C22.275 361.952 16.6956 360.003 12.6439 358.686C10.607 358.033 8.95753 357.512 7.8173 357.18L6.48887 356.804C6.33758 356.755 6.18183 356.722 6.02393 356.704Z" fill="#263238"/>
<path d="M504.094 265.74L437.308 265.43C435.396 265.426 433.504 265.044 431.741 264.307C429.978 263.569 428.377 262.49 427.032 261.133C425.686 259.775 424.622 258.165 423.901 256.394C423.179 254.624 422.815 252.729 422.828 250.818L423.536 83.8457C423.547 81.9374 423.933 80.0498 424.673 78.2909C425.413 76.5319 426.492 74.9359 427.849 73.5943C429.206 72.2527 430.814 71.1916 432.582 70.4718C434.349 69.7519 436.241 69.3874 438.149 69.3991L504.936 69.698C508.788 69.7126 512.477 71.2547 515.194 73.9858C517.91 76.717 519.433 80.4142 519.427 84.2664L518.718 251.249C518.712 253.162 518.329 255.054 517.591 256.819C516.852 258.583 515.772 260.184 514.414 261.53C513.055 262.876 511.445 263.941 509.674 264.664C507.903 265.386 506.007 265.752 504.094 265.74Z" fill="#455A64"/>
<path d="M504.847 75.5099H491.895C491.474 75.5156 491.058 75.6045 490.671 75.7713C490.285 75.9381 489.935 76.1797 489.642 76.4821C489.349 76.7844 489.118 77.1417 488.963 77.5334C488.809 77.9251 488.733 78.3434 488.74 78.7645V81.1114C488.749 81.9612 488.423 82.7803 487.832 83.3915C487.242 84.0027 486.435 84.3568 485.585 84.3771L460.334 84.2553C459.91 84.2454 459.492 84.1512 459.105 83.9783C458.717 83.8054 458.368 83.5572 458.078 83.2481C457.787 82.9391 457.561 82.5754 457.413 82.1782C457.264 81.7809 457.196 81.3581 457.212 80.9343V78.5652C457.227 78.1418 457.158 77.7196 457.008 77.323C456.859 76.9264 456.633 76.5633 456.343 76.2546C456.053 75.9458 455.704 75.6976 455.318 75.5242C454.931 75.3508 454.514 75.2556 454.09 75.2442H449.529H438.193C436.857 75.2369 435.533 75.4928 434.296 75.9974C433.059 76.5019 431.933 77.2452 430.983 78.1847C430.034 79.1243 429.278 80.2418 428.76 81.4733C428.242 82.7048 427.972 84.0263 427.965 85.3623L427.267 248.349C427.261 251.048 428.327 253.639 430.231 255.553C432.134 257.467 434.719 258.547 437.419 258.556L504.072 258.866C506.771 258.877 509.364 257.819 511.283 255.923C513.202 254.026 514.292 251.446 514.312 248.748L514.999 85.7609C515.009 84.4202 514.754 83.0908 514.249 81.8489C513.743 80.6071 512.997 79.4774 512.054 78.5248C511.111 77.5722 509.988 76.8154 508.752 76.298C507.515 75.7806 506.188 75.5127 504.847 75.5099Z" fill="white"/>
<path d="M503.751 186.411H437.795V190.828H503.751V186.411Z" fill="#455A64"/>
<path d="M501.404 203.78C501.404 203.935 487.323 204.068 469.965 204.068C452.607 204.068 438.515 203.935 438.515 203.78C438.515 203.625 452.596 203.492 469.965 203.492C487.334 203.492 501.404 203.625 501.404 203.78Z" fill="#455A64"/>
<path d="M501.404 99.156C501.404 99.322 487.323 99.4438 469.965 99.4438C452.607 99.4438 438.515 99.322 438.515 99.156C438.515 98.9899 452.596 98.8682 469.965 98.8682C487.334 98.8682 501.404 98.9678 501.404 99.156Z" fill="#455A64"/>
<path d="M501.404 211.817C501.404 211.972 487.323 212.105 469.965 212.105C452.607 212.105 438.515 211.972 438.515 211.817C438.515 211.662 452.596 211.529 469.965 211.529C487.334 211.529 501.404 211.651 501.404 211.817Z" fill="#455A64"/>
<path d="M501.404 219.821C501.404 219.976 487.323 220.109 469.965 220.109C452.607 220.109 438.515 219.976 438.515 219.821C438.515 219.666 452.596 219.533 469.965 219.533C487.334 219.533 501.404 219.688 501.404 219.821Z" fill="#455A64"/>
<path d="M501.404 227.88C501.404 228.035 487.323 228.168 469.965 228.168C452.607 228.168 438.515 228.035 438.515 227.88C438.515 227.725 452.596 227.592 469.965 227.592C487.334 227.592 501.404 227.714 501.404 227.88Z" fill="#455A64"/>
<path d="M501.404 235.906C501.404 236.072 487.323 236.194 469.965 236.194C452.607 236.194 438.515 236.072 438.515 235.906C438.515 235.74 452.596 235.618 469.965 235.618C487.334 235.618 501.404 235.751 501.404 235.906Z" fill="#455A64"/>
<path d="M502.301 245.017C502.301 245.172 488.22 245.305 470.862 245.305C453.504 245.305 439.411 245.172 439.411 245.017C439.411 244.862 453.492 244.729 470.862 244.729C488.231 244.729 502.301 244.851 502.301 245.017Z" fill="#455A64"/>
<path d="M504.637 108.289H438.515V172.263H504.637V108.289Z" fill="#E0E0E0"/>
<path d="M443.651 166.784L461.939 133.861L476.895 154.905L485.994 143.736L499.511 166.784H443.651Z" fill="#1EA5FC"/>
<path d="M483.271 127.462C483.271 128.404 482.992 129.324 482.469 130.107C481.946 130.89 481.203 131.5 480.333 131.86C479.463 132.22 478.506 132.315 477.582 132.131C476.659 131.947 475.811 131.494 475.145 130.828C474.479 130.163 474.026 129.314 473.842 128.391C473.659 127.468 473.753 126.51 474.113 125.641C474.474 124.771 475.084 124.027 475.866 123.504C476.649 122.981 477.57 122.702 478.511 122.702C479.773 122.705 480.982 123.208 481.874 124.1C482.766 124.992 483.268 126.201 483.271 127.462Z" fill="#1EA5FC"/>
<path d="M499.511 166.961C499.511 166.961 499.511 166.872 499.511 166.695C499.511 166.518 499.511 166.263 499.511 165.953C499.511 165.267 499.511 164.315 499.511 163.075C499.511 160.54 499.511 156.865 499.434 152.204C499.434 142.861 499.356 129.555 499.301 113.58L499.567 113.846H443.706C443.629 113.912 444.293 113.248 444.016 113.536V127.927C444.016 132.632 444.016 137.237 444.016 141.71C444.016 150.677 444.016 159.145 444.016 166.939L443.74 166.662L484.135 166.806L495.537 166.872H498.559H499.334H499.611H499.367H498.615H495.648L484.312 166.939L443.74 167.083H443.463V166.806C443.463 159.057 443.463 150.544 443.463 141.577C443.463 137.149 443.463 132.499 443.463 127.794V113.403C443.175 113.68 443.839 113.005 443.784 113.082H499.644H499.755V113.547C499.688 129.599 499.644 142.961 499.611 152.348C499.611 156.976 499.611 160.629 499.544 163.153C499.544 164.37 499.544 165.311 499.544 165.976C499.544 166.275 499.544 166.507 499.544 166.695C499.546 166.785 499.535 166.874 499.511 166.961Z" fill="#455A64"/>
<path d="M157.065 12.7862V160.263C157.065 167.325 162.79 173.05 169.852 173.05L392.628 173.05C399.69 173.05 405.414 167.325 405.414 160.263V12.7862C405.414 5.72464 399.69 0.00012207 392.628 0.00012207L169.852 0.00012207C162.79 0.00012207 157.065 5.72464 157.065 12.7862Z" fill="#455A64"/>
<path d="M174.058 5.45757V167.592H381.458V5.45757H174.058Z" fill="white"/>
<path d="M392.927 79.8826C394.241 79.8826 395.525 80.2721 396.617 81.002C397.71 81.7318 398.561 82.7692 399.064 83.9829C399.567 85.1966 399.698 86.5321 399.442 87.8205C399.185 89.109 398.553 90.2925 397.624 91.2214C396.695 92.1503 395.512 92.7829 394.223 93.0392C392.935 93.2955 391.599 93.1639 390.385 92.6612C389.172 92.1585 388.134 91.3071 387.405 90.2149C386.675 89.1226 386.285 87.8384 386.285 86.5247C386.285 84.7631 386.985 83.0737 388.231 81.828C389.476 80.5824 391.166 79.8826 392.927 79.8826Z" fill="#263238"/>
<path d="M164.217 61.816V111.233C164.217 111.979 164.821 112.584 165.567 112.584H165.612C166.358 112.584 166.962 111.979 166.962 111.233V61.816C166.962 61.0701 166.358 60.4655 165.612 60.4655H165.567C164.821 60.4655 164.217 61.0701 164.217 61.816Z" fill="#263238"/>
<path d="M334.61 17.6459H268.653V22.0629H334.61V17.6459Z" fill="#455A64"/>
<path d="M248.694 93.4989H182.737V97.9159H248.694V93.4989Z" fill="#455A64"/>
<path d="M350.672 34.0631C350.672 34.2291 332.318 34.3509 309.712 34.3509C287.107 34.3509 268.697 34.2291 268.697 34.0631C268.697 33.897 287.052 33.7753 309.712 33.7753C332.373 33.7753 350.672 33.9081 350.672 34.0631Z" fill="#455A64"/>
<path d="M350.672 43.7052C350.672 43.8602 332.318 43.993 309.712 43.993C287.107 43.993 268.697 43.8602 268.697 43.7052C268.697 43.5502 287.052 43.4174 309.712 43.4174C332.373 43.4174 350.672 43.5391 350.672 43.7052Z" fill="#455A64"/>
<path d="M350.672 53.3362C350.672 53.4912 332.318 53.624 309.712 53.624C287.107 53.624 268.697 53.4912 268.697 53.3362C268.697 53.1812 287.052 53.0483 309.712 53.0483C332.373 53.0483 350.672 53.1812 350.672 53.3362Z" fill="#455A64"/>
<path d="M350.672 62.9673C350.672 63.1333 332.318 63.2551 309.712 63.2551C287.107 63.2551 268.697 63.1333 268.697 62.9673C268.697 62.8012 287.052 62.6794 309.712 62.6794C332.373 62.6794 350.672 62.8123 350.672 62.9673Z" fill="#455A64"/>
<path d="M350.672 72.5874C350.672 72.7424 332.318 72.8752 309.712 72.8752C287.107 72.8752 268.697 72.7424 268.697 72.5874C268.697 72.4324 287.052 72.2996 309.712 72.2996C332.373 72.2996 350.672 72.4435 350.672 72.5874Z" fill="#455A64"/>
<path d="M332.683 82.2406C332.683 82.3956 318.347 82.5284 300.668 82.5284C282.989 82.5284 268.653 82.3956 268.653 82.2406C268.653 82.0856 282.978 81.9528 300.668 81.9528C318.359 81.9528 332.683 82.0856 332.683 82.2406Z" fill="#455A64"/>
<path d="M291.059 110.868C291.059 111.023 266.971 111.156 237.258 111.156C207.546 111.156 183.457 111.023 183.457 110.868C183.457 110.713 207.546 110.58 237.258 110.58C266.971 110.58 291.059 110.702 291.059 110.868Z" fill="#455A64"/>
<path d="M291.059 118.894C291.059 119.06 266.971 119.182 237.258 119.182C207.546 119.182 183.457 119.06 183.457 118.894C183.457 118.728 207.546 118.606 237.258 118.606C266.971 118.606 291.059 118.739 291.059 118.894Z" fill="#455A64"/>
<path d="M291.059 126.931C291.059 127.086 266.971 127.219 237.258 127.219C207.546 127.219 183.457 127.086 183.457 126.931C183.457 126.776 207.546 126.643 237.258 126.643C266.971 126.643 291.059 126.765 291.059 126.931Z" fill="#455A64"/>
<path d="M291.059 134.957C291.059 135.123 266.971 135.245 237.258 135.245C207.546 135.245 183.457 135.123 183.457 134.957C183.457 134.791 207.546 134.669 237.258 134.669C266.971 134.669 291.059 134.802 291.059 134.957Z" fill="#455A64"/>
<path d="M291.059 142.994C291.059 143.149 266.971 143.282 237.258 143.282C207.546 143.282 183.457 143.149 183.457 142.994C183.457 142.839 207.546 142.706 237.258 142.706C266.971 142.706 291.059 142.839 291.059 142.994Z" fill="#455A64"/>
<path d="M249.579 15.3765H183.457V79.3512H249.579V15.3765Z" fill="#1EA5FC"/>
<path d="M188.583 73.8715L206.882 40.9487L221.837 61.9932L230.926 50.8234L244.454 73.8715H188.583Z" fill="#E0E0E0"/>
<path d="M228.214 34.5389C228.216 35.4809 227.939 36.4023 227.417 37.1865C226.895 37.9708 226.152 38.5827 225.283 38.9446C224.413 39.3066 223.456 39.4025 222.532 39.2201C221.608 39.0376 220.758 38.5851 220.092 37.9199C219.425 37.2546 218.97 36.4064 218.786 35.4827C218.601 34.559 218.695 33.6014 219.055 32.7309C219.415 31.8605 220.025 31.1164 220.808 30.5928C221.591 30.0693 222.512 29.7898 223.454 29.7898C224.714 29.7898 225.923 30.2898 226.816 31.1801C227.708 32.0704 228.211 33.2784 228.214 34.5389Z" fill="#E0E0E0"/>
<path d="M244.454 74.0486C244.454 74.0486 244.454 73.9489 244.454 73.7829C244.454 73.6168 244.454 73.3512 244.454 73.0412C244.454 72.3548 244.454 71.3917 244.454 70.1629C244.454 67.6168 244.454 63.9525 244.387 59.292C244.387 49.9487 244.31 36.6423 244.255 20.668L244.52 20.9337H188.66C188.582 21.0001 189.247 20.347 188.97 20.6348V27.8637C188.97 30.2548 188.97 32.6349 188.97 34.9818V48.7642C188.97 57.7311 188.97 66.1998 188.97 73.9932L188.693 73.7165L229.088 73.8493L240.48 73.9268H243.502H244.288H244.564H244.321H243.568H240.601L229.265 74.0043L188.693 74.1371H188.416V73.8604C188.416 66.1112 188.416 57.5982 188.416 48.6314C188.416 44.1516 188.416 39.5575 188.416 34.849V20.4577C188.129 20.7345 188.793 20.0592 188.737 20.1256H244.598H244.874V20.4024C244.819 36.4431 244.775 49.8159 244.742 59.2034C244.742 63.8308 244.686 67.4839 244.675 70.0079C244.675 71.2146 244.675 72.222 244.675 72.8308C244.675 73.1297 244.675 73.3622 244.675 73.5504C244.667 73.7386 244.588 73.9166 244.454 74.0486Z" fill="#455A64"/>
<path d="M352.698 101.99H305.904V147.267H352.698V101.99Z" fill="#1EA5FC"/>
<path d="M309.535 143.392L322.476 120.09L333.07 134.979L339.502 127.075L349.078 143.392H309.535Z" fill="#E0E0E0"/>
<path d="M337.576 115.551C337.576 116.208 337.381 116.85 337.017 117.396C336.652 117.942 336.133 118.368 335.526 118.619C334.919 118.87 334.251 118.936 333.607 118.808C332.963 118.68 332.371 118.363 331.907 117.899C331.442 117.435 331.126 116.843 330.998 116.199C330.87 115.554 330.936 114.887 331.187 114.28C331.438 113.673 331.864 113.154 332.41 112.789C332.956 112.424 333.598 112.23 334.255 112.23C335.136 112.23 335.981 112.58 336.603 113.202C337.226 113.825 337.576 114.67 337.576 115.551Z" fill="#E0E0E0"/>
<path d="M349.067 143.503C349.067 143.503 349.067 143.437 349.067 143.326C349.067 143.215 349.067 143.016 349.067 142.795C349.067 142.308 349.067 141.688 349.067 140.758C349.067 138.964 349.067 136.33 349.067 133.009C349.067 126.366 349.012 116.979 348.968 105.676L349.156 105.864H309.624C309.569 105.864 310.045 105.444 309.845 105.654V115.817C309.845 119.138 309.845 122.389 309.845 125.569C309.845 131.913 309.845 137.902 309.845 143.415L309.657 143.226L338.13 143.437H346.189H348.337H349.078C349.078 143.437 349.023 143.437 348.912 143.437H348.381H346.278L338.252 143.492L309.547 143.592H309.347V143.392C309.347 137.857 309.347 131.89 309.347 125.547V105.798C309.148 105.986 309.624 105.51 309.58 105.566H349.112H349.311V105.754C349.311 117.112 349.233 126.566 349.211 133.208C349.211 136.529 349.211 139.075 349.156 140.857C349.156 141.721 349.156 142.385 349.156 142.861C349.156 143.071 349.156 143.237 349.156 143.37C349.156 143.503 349.078 143.514 349.067 143.503Z" fill="#455A64"/>
<path d="M386.396 190.551H71.5038C62.5958 190.551 55.3745 197.773 55.3745 206.681V403.985C55.3745 412.893 62.5958 420.114 71.5038 420.114H386.396C395.304 420.114 402.525 412.893 402.525 403.985V206.681C402.525 197.773 395.304 190.551 386.396 190.551Z" fill="#263238"/>
<path d="M40.8506 403.144H416.961V403.531C416.961 408.757 414.885 413.769 411.189 417.465C407.494 421.16 402.482 423.236 397.256 423.236H60.5556C55.3295 423.236 50.3174 421.16 46.622 417.465C42.9266 413.769 40.8506 408.757 40.8506 403.531V403.144Z" fill="#263238"/>
<path d="M392.23 199.673H64.6846V393.535H392.23V199.673Z" fill="#E0E0E0"/>
<path d="M194.727 403.144L199.387 410.561H265.067L269.395 403.144H194.727Z" fill="#455A64"/>
<path d="M377.174 212.581H75.6108V393.457H377.174V212.581Z" fill="#FAFAFA"/>
<path d="M88.4857 221.493C88.4879 221.994 88.341 222.486 88.0638 222.904C87.7866 223.322 87.3914 223.649 86.9284 223.842C86.4654 224.036 85.9553 224.088 85.4628 223.991C84.9703 223.895 84.5176 223.654 84.162 223.3C83.8063 222.946 83.5638 222.494 83.4651 222.002C83.3663 221.51 83.4159 221 83.6074 220.536C83.799 220.072 84.1239 219.676 84.541 219.397C84.9582 219.117 85.4487 218.969 85.9506 218.969C86.621 218.968 87.2642 219.234 87.7393 219.707C88.2144 220.18 88.4827 220.822 88.4857 221.493Z" fill="#455A64"/>
<path d="M98.803 221.493C98.8052 221.995 98.6581 222.487 98.3804 222.905C98.1027 223.324 97.7069 223.65 97.2432 223.844C96.7795 224.037 96.2689 224.088 95.7761 223.99C95.2833 223.893 94.8306 223.651 94.4754 223.296C94.1202 222.941 93.8786 222.488 93.7811 221.995C93.6836 221.503 93.7348 220.992 93.928 220.528C94.1212 220.065 94.4479 219.669 94.8665 219.391C95.2851 219.113 95.7767 218.966 96.279 218.969C96.9484 218.969 97.5904 219.234 98.0638 219.708C98.5371 220.181 98.803 220.823 98.803 221.493Z" fill="#455A64"/>
<path d="M109.132 221.493C109.134 221.994 108.987 222.486 108.71 222.904C108.433 223.322 108.037 223.649 107.574 223.843C107.111 224.036 106.601 224.088 106.109 223.991C105.616 223.895 105.164 223.654 104.808 223.3C104.452 222.946 104.21 222.494 104.111 222.002C104.012 221.51 104.062 221 104.253 220.536C104.445 220.072 104.77 219.676 105.187 219.397C105.604 219.117 106.095 218.969 106.597 218.969C106.929 218.967 107.258 219.031 107.566 219.157C107.873 219.284 108.153 219.469 108.388 219.704C108.624 219.938 108.811 220.217 108.938 220.524C109.066 220.831 109.132 221.16 109.132 221.493Z" fill="#455A64"/>
<path d="M377.174 232.563C377.174 232.729 309.646 232.851 226.398 232.851C143.15 232.851 75.6108 232.729 75.6108 232.563C75.6108 232.397 143.139 232.275 226.398 232.275C309.657 232.275 377.174 232.408 377.174 232.563Z" fill="#455A64"/>
<path d="M402.525 403.287H55.3745V404.394H402.525V403.287Z" fill="#455A64"/>
<path d="M166.298 320.449H100.342V324.866H166.298V320.449Z" fill="#455A64"/>
<path d="M251.484 259.198H185.527V263.615H251.484V259.198Z" fill="#455A64"/>
<path d="M349.588 275.626C349.588 275.781 312.857 275.914 267.558 275.914C222.258 275.914 185.527 275.781 185.527 275.626C185.527 275.471 222.247 275.327 267.558 275.327C312.868 275.327 349.588 275.46 349.588 275.626Z" fill="#455A64"/>
<path d="M349.588 285.257C349.588 285.412 312.857 285.545 267.558 285.545C222.258 285.545 185.527 285.412 185.527 285.257C185.527 285.102 222.247 284.969 267.558 284.969C312.868 284.969 349.588 285.135 349.588 285.257Z" fill="#455A64"/>
<path d="M349.588 294.888C349.588 295.054 312.857 295.176 267.558 295.176C222.258 295.176 185.527 295.054 185.527 294.888C185.527 294.722 222.247 294.6 267.558 294.6C312.868 294.6 349.588 294.733 349.588 294.888Z" fill="#455A64"/>
<path d="M349.588 304.53C349.588 304.685 312.857 304.818 267.558 304.818C222.258 304.818 185.527 304.685 185.527 304.53C185.527 304.375 222.247 304.231 267.558 304.231C312.868 304.231 349.588 304.364 349.588 304.53Z" fill="#455A64"/>
<path d="M349.588 314.161C349.588 314.316 312.857 314.449 267.558 314.449C222.258 314.449 185.527 314.316 185.527 314.161C185.527 314.006 222.247 313.873 267.558 313.873C312.868 313.873 349.588 313.995 349.588 314.161Z" fill="#455A64"/>
<path d="M249.568 323.792C249.568 323.947 235.233 324.08 217.553 324.08C199.874 324.08 185.527 323.947 185.527 323.792C185.527 323.637 199.919 323.505 217.553 323.505C235.188 323.505 249.568 323.637 249.568 323.792Z" fill="#455A64"/>
<path d="M348.381 342.49C348.381 342.656 324.237 342.778 294.469 342.778C264.701 342.778 240.557 342.656 240.557 342.49C240.557 342.324 264.69 342.202 294.469 342.202C324.248 342.202 348.381 342.335 348.381 342.49Z" fill="#455A64"/>
<path d="M348.381 352.719C348.381 352.874 324.237 353.007 294.469 353.007C264.701 353.007 240.557 352.874 240.557 352.719C240.557 352.564 264.69 352.431 294.469 352.431C324.248 352.431 348.381 352.564 348.381 352.719Z" fill="#455A64"/>
<path d="M348.381 362.948C348.381 363.103 324.237 363.235 294.469 363.235C264.701 363.235 240.557 363.103 240.557 362.948C240.557 362.793 264.69 362.66 294.469 362.66C324.248 362.66 348.381 362.782 348.381 362.948Z" fill="#455A64"/>
<path d="M348.381 373.177C348.381 373.331 324.237 373.464 294.469 373.464C264.701 373.464 240.557 373.331 240.557 373.177C240.557 373.022 264.69 372.889 294.469 372.889C324.248 372.889 348.381 373.01 348.381 373.177Z" fill="#455A64"/>
<path d="M166.453 341.516C166.453 341.671 152.062 341.804 134.35 341.804C116.637 341.804 102.246 341.671 102.246 341.516C102.246 341.361 116.637 341.228 134.35 341.228C152.062 341.228 166.453 341.35 166.453 341.516Z" fill="#455A64"/>
<path d="M166.453 349.542C166.453 349.708 152.062 349.83 134.35 349.83C116.637 349.83 102.246 349.708 102.246 349.542C102.246 349.376 116.637 349.254 134.35 349.254C152.062 349.254 166.453 349.342 166.453 349.542Z" fill="#455A64"/>
<path d="M166.453 357.579C166.453 357.734 152.062 357.867 134.35 357.867C116.637 357.867 102.246 357.734 102.246 357.579C102.246 357.424 116.637 357.291 134.35 357.291C152.062 357.291 166.453 357.424 166.453 357.579Z" fill="#455A64"/>
<path d="M166.453 365.605C166.453 365.771 152.062 365.892 134.35 365.892C116.637 365.892 102.246 365.771 102.246 365.605C102.246 365.439 116.637 365.317 134.35 365.317C152.062 365.317 166.453 365.45 166.453 365.605Z" fill="#455A64"/>
<path d="M166.453 373.697C166.453 373.852 152.062 373.985 134.35 373.985C116.637 373.985 102.246 373.852 102.246 373.697C102.246 373.542 116.637 373.409 134.35 373.409C152.062 373.409 166.453 373.486 166.453 373.697Z" fill="#455A64"/>
<path d="M166.464 244.773H100.342V308.748H166.464V244.773Z" fill="#E0E0E0"/>
<path d="M105.467 303.279L123.755 270.357L138.722 291.401L147.811 280.22L161.339 303.279H105.467Z" fill="#1EA5FC"/>
<path d="M145.088 263.947C145.088 264.888 144.809 265.809 144.286 266.591C143.762 267.374 143.019 267.984 142.149 268.345C141.279 268.705 140.322 268.799 139.399 268.616C138.476 268.432 137.627 267.979 136.962 267.313C136.296 266.647 135.843 265.799 135.659 264.875C135.475 263.952 135.569 262.995 135.93 262.125C136.29 261.255 136.9 260.512 137.683 259.989C138.466 259.466 139.386 259.187 140.328 259.187C141.59 259.187 142.801 259.688 143.694 260.581C144.586 261.474 145.088 262.684 145.088 263.947Z" fill="#1EA5FC"/>
<path d="M161.327 303.445C161.323 303.361 161.323 303.276 161.327 303.191C161.327 302.992 161.327 302.748 161.327 302.438C161.327 301.763 161.327 300.8 161.327 299.56C161.327 297.025 161.327 293.36 161.25 288.7C161.25 279.357 161.172 266.05 161.117 250.065L161.383 250.342H105.523C105.445 250.408 106.109 249.744 105.832 250.032V264.423C105.832 269.117 105.832 273.722 105.832 278.205C105.832 287.161 105.832 295.63 105.832 303.423L105.556 303.158L145.951 303.29L157.353 303.368H160.375H161.427C161.427 303.368 161.35 303.368 161.184 303.368H160.431H157.464L146.128 303.445L105.556 303.578H105.29V303.301C105.29 295.552 105.29 287.039 105.29 278.084C105.29 273.6 105.29 268.995 105.29 264.301V249.91L105.611 249.589H161.471H161.748V249.855C161.748 265.906 161.637 279.268 161.604 288.656C161.604 293.294 161.604 296.936 161.538 299.46C161.538 300.678 161.538 301.619 161.538 302.294C161.538 302.593 161.538 302.825 161.538 303.003C161.538 303.18 161.338 303.456 161.327 303.445Z" fill="#455A64"/>
<path d="M232.288 337.619H185.494V382.896H232.288V337.619Z" fill="#E0E0E0"/>
<path d="M189.114 379.022L202.066 355.719L212.649 370.608L219.081 362.704L228.657 379.022H189.114Z" fill="#1EA5FC"/>
<path d="M217.155 351.18C217.155 351.837 216.96 352.479 216.595 353.025C216.23 353.571 215.712 353.997 215.105 354.248C214.498 354.5 213.83 354.566 213.186 354.437C212.542 354.309 211.95 353.993 211.485 353.529C211.021 353.064 210.705 352.472 210.577 351.828C210.448 351.184 210.514 350.516 210.765 349.909C211.017 349.302 211.443 348.784 211.989 348.419C212.535 348.054 213.177 347.859 213.834 347.859C214.715 347.859 215.559 348.209 216.182 348.832C216.805 349.455 217.155 350.299 217.155 351.18Z" fill="#1EA5FC"/>
<path d="M228.657 379.143C228.653 379.081 228.653 379.018 228.657 378.955C228.657 378.822 228.657 378.645 228.657 378.424C228.657 377.948 228.657 377.317 228.657 376.387C228.657 374.594 228.657 371.959 228.601 368.693C228.601 362.051 228.601 352.664 228.513 341.361L228.701 341.549H189.158C189.158 341.549 189.579 341.128 189.38 341.339V361.265C189.38 367.608 189.38 373.597 189.38 379.121L189.18 378.922L217.775 379.022L225.834 379.077H227.97H225.867H217.852L189.136 379.177H188.948V378.988C188.948 373.453 188.948 367.475 188.948 361.132C188.948 357.966 188.948 354.7 188.948 351.379V341.239C188.749 341.427 189.214 340.951 189.169 341.007H228.712H228.9V341.195C228.9 352.553 228.823 362.007 228.801 368.66C228.801 371.981 228.801 374.516 228.801 376.298C228.801 377.162 228.801 377.826 228.801 378.302C228.801 378.512 228.801 378.678 228.801 378.811C228.775 378.93 228.726 379.043 228.657 379.143Z" fill="#455A64"/>
<path d="M623.021 403.586L611.951 402.269L609.35 423.015L625.545 425.107L625.789 423.834C626.829 418.144 630.649 394.852 629.962 390.878C629.198 386.45 623.021 403.586 623.021 403.586Z" fill="#1EA5FC"/>
<path d="M628.999 389.394C629.199 389.394 628.435 397.21 627.295 406.786C626.154 416.362 625.081 424.111 624.881 424.088C624.682 424.066 625.457 416.339 626.586 406.697C627.715 397.055 628.8 389.372 628.999 389.394Z" fill="#263238"/>
<path d="M625.324 402.612C625.213 402.767 624.638 402.546 624.106 402.037C623.575 401.527 623.353 400.93 623.508 400.83C623.663 400.73 624.128 401.051 624.615 401.527C625.103 402.004 625.446 402.479 625.324 402.612Z" fill="#263238"/>
<path d="M626.21 401.372C626.121 401.55 625.468 401.372 624.826 400.885C624.184 400.398 623.83 399.778 623.974 399.668C624.118 399.557 624.66 399.856 625.258 400.31C625.856 400.764 626.31 401.195 626.21 401.372Z" fill="#263238"/>
<path d="M625.556 417.823C625.556 417.911 625.28 418.188 624.726 418.586C624.023 419.065 623.367 419.61 622.767 420.214C622.2 420.814 621.79 421.544 621.571 422.339C621.416 422.959 621.46 423.369 621.35 423.391C621.239 423.413 621.04 423.003 621.073 422.284C621.151 421.34 621.54 420.448 622.18 419.749C622.813 419.088 623.564 418.551 624.394 418.166C625.092 417.856 625.501 417.734 625.556 417.823Z" fill="#263238"/>
<path d="M623.254 402.302C623.431 402.225 623.785 402.634 623.918 403.243C624.051 403.852 623.918 404.35 623.719 404.35C623.52 404.35 623.343 403.908 623.221 403.365C623.099 402.823 623.066 402.38 623.254 402.302Z" fill="#263238"/>
<path d="M622.147 402.479C622.335 402.479 622.435 403.055 622.368 403.764C622.302 404.472 622.069 405.003 621.881 404.959C621.693 404.915 621.582 404.35 621.66 403.686C621.737 403.022 621.948 402.479 622.147 402.479Z" fill="#263238"/>
<path d="M616.269 424.675L554.907 418.454L427.677 421.299L461.507 394.022L546.427 389.937L620.675 400.166L616.269 424.675Z" fill="#263238"/>
<path d="M512.552 407.627C512.552 407.793 500.607 407.915 485.873 407.915C471.138 407.915 459.205 407.793 459.205 407.627C459.205 407.461 471.138 407.339 485.873 407.339C500.607 407.339 512.552 407.472 512.552 407.627Z" fill="#455A64"/>
<path d="M506.618 391.852L510.98 419.295H519.349L512.984 391.542L506.618 391.852Z" fill="black"/>
<path d="M539.01 419.649L537.77 408.579L516.969 410.793L518.574 427H519.869C525.648 426.712 549.194 425.14 552.903 423.568C557.087 421.764 539.01 419.649 539.01 419.649Z" fill="#1EA5FC"/>
<path d="M553.334 422.406C553.334 422.605 545.585 423.635 536.01 424.708C526.434 425.782 518.64 426.491 518.618 426.291C518.596 426.092 526.367 425.074 535.932 424C545.497 422.926 553.312 422.251 553.334 422.406Z" fill="#263238"/>
<path d="M539.608 421.875C539.42 421.797 539.508 421.188 539.885 420.557C540.261 419.926 540.781 419.572 540.925 419.694C541.069 419.815 540.848 420.347 540.504 420.923C540.161 421.498 539.807 421.952 539.608 421.875Z" fill="#263238"/>
<path d="M541.036 422.406C540.847 422.406 540.869 421.686 541.202 420.945C541.534 420.203 542.021 419.738 542.187 419.838C542.353 419.937 542.187 420.535 541.855 421.221C541.523 421.908 541.224 422.506 541.036 422.406Z" fill="#263238"/>
<path d="M524.862 425.55C524.796 425.616 524.441 425.361 523.932 424.919C523.306 424.344 522.628 423.829 521.906 423.38C521.192 422.964 520.385 422.732 519.559 422.705C518.928 422.705 518.53 422.826 518.452 422.705C518.375 422.583 518.751 422.317 519.482 422.184C520.433 422.05 521.402 422.245 522.227 422.738C523.014 423.21 523.705 423.826 524.264 424.553C524.729 425.118 524.939 425.483 524.862 425.55Z" fill="#263238"/>
<path d="M539.452 419.782C539.574 419.937 539.253 420.369 538.689 420.646C538.124 420.922 537.582 420.9 537.582 420.712C537.582 420.524 537.925 420.247 538.423 420.004C538.921 419.76 539.342 419.616 539.452 419.782Z" fill="#263238"/>
<path d="M539.01 418.742C539.01 418.941 538.512 419.162 537.814 419.251C537.117 419.339 536.541 419.251 536.53 419.052C536.519 418.852 537.061 418.631 537.726 418.542C538.39 418.454 538.965 418.553 539.01 418.742Z" fill="#263238"/>
<path d="M417.304 293.017L435.016 292.696C435.26 290.648 435.603 282.667 435.603 282.667C435.603 282.667 443.02 281.969 443.562 274.641C444.105 267.312 443.872 250.353 443.872 250.353C439.808 248.301 435.269 247.371 430.725 247.659C426.181 247.947 421.797 249.442 418.024 251.991L416.917 252.766L417.304 293.017Z" fill="#B78876"/>
<path d="M441.426 262.873C441.233 262.668 441.125 262.397 441.125 262.115C441.125 261.833 441.233 261.562 441.426 261.357C441.578 261.195 441.775 261.083 441.992 261.034C442.208 260.986 442.434 261.004 442.64 261.086C442.847 261.167 443.024 261.309 443.148 261.493C443.273 261.676 443.34 261.893 443.34 262.115C443.34 262.337 443.273 262.553 443.148 262.737C443.024 262.92 442.847 263.062 442.64 263.144C442.434 263.226 442.208 263.244 441.992 263.195C441.775 263.147 441.578 263.035 441.426 262.873Z" fill="#263238"/>
<path d="M443.297 261.301C443.175 261.423 442.489 260.825 441.481 260.759C440.474 260.692 439.699 261.168 439.599 261.035C439.5 260.903 439.677 260.748 440.009 260.526C440.461 260.242 440.993 260.11 441.526 260.15C442.057 260.183 442.562 260.389 442.965 260.737C443.297 261.013 443.374 261.246 443.297 261.301Z" fill="#263238"/>
<path d="M431.607 261.467C431.765 261.655 431.857 261.889 431.867 262.135C431.878 262.38 431.806 262.622 431.664 262.822C431.522 263.022 431.318 263.17 431.083 263.241C430.848 263.312 430.596 263.304 430.367 263.216C430.209 263.156 430.067 263.06 429.952 262.937C429.837 262.813 429.751 262.665 429.702 262.504C429.653 262.342 429.642 262.171 429.669 262.005C429.696 261.838 429.76 261.679 429.858 261.542C429.956 261.404 430.084 261.29 430.232 261.209C430.381 261.129 430.545 261.083 430.714 261.076C430.883 261.069 431.051 261.1 431.206 261.168C431.361 261.236 431.498 261.338 431.607 261.467Z" fill="#263238"/>
<path d="M432.227 261.511C432.105 261.633 431.418 261.035 430.4 260.969C429.382 260.902 428.629 261.379 428.518 261.246C428.407 261.113 428.596 260.958 428.939 260.736C429.39 260.452 429.921 260.32 430.453 260.36C430.985 260.399 431.491 260.609 431.894 260.958C432.227 261.224 432.326 261.467 432.227 261.511Z" fill="#263238"/>
<path d="M435.813 270.113C436.345 269.938 436.903 269.856 437.463 269.869C437.728 269.869 437.95 269.803 437.972 269.67C437.999 269.403 437.949 269.134 437.828 268.895L437.153 266.792C436.503 264.998 436.036 263.144 435.758 261.257C436.589 262.967 437.242 264.759 437.706 266.604C437.928 267.334 438.127 268.032 438.337 268.718C438.488 269.067 438.516 269.458 438.415 269.825C438.369 269.924 438.301 270.011 438.217 270.08C438.133 270.149 438.034 270.198 437.928 270.224C437.777 270.244 437.624 270.244 437.474 270.224C436.918 270.279 436.357 270.241 435.813 270.113Z" fill="#263238"/>
<path d="M432.459 271.032C431.441 270.334 435.26 272.748 437.33 272.77C436.952 273.28 436.414 273.649 435.801 273.815C435.189 273.982 434.538 273.937 433.953 273.689C431.806 272.748 432.459 271.032 432.459 271.032Z" fill="white"/>
<path d="M435.647 282.556C432.25 282.407 428.975 281.251 426.237 279.235C426.237 279.235 428.175 284.659 435.547 284.449L435.647 282.556Z" fill="#A36957"/>
<path d="M444.404 247.707C444.825 247.693 445.237 247.583 445.609 247.384C445.98 247.186 446.302 246.906 446.548 246.564C446.794 246.222 446.959 245.829 447.03 245.413C447.1 244.998 447.075 244.572 446.955 244.168C446.835 243.764 446.624 243.393 446.339 243.084C446.053 242.774 445.701 242.534 445.308 242.382C444.915 242.229 444.493 242.169 444.073 242.206C443.653 242.242 443.247 242.375 442.887 242.592C443.766 241.868 444.483 240.967 444.99 239.947C445.234 239.434 445.315 238.859 445.222 238.299C445.129 237.738 444.866 237.22 444.47 236.814C444.008 236.496 443.468 236.31 442.909 236.275C442.349 236.24 441.791 236.357 441.293 236.615C439.732 237.29 438.503 238.607 436.865 239.161C435.226 239.714 433.477 239.437 431.761 239.515C429.849 239.551 427.997 240.19 426.47 241.342C425.718 241.923 425.113 242.672 424.704 243.53C424.294 244.387 424.092 245.329 424.112 246.279C421.71 245.991 419.053 245.958 417.16 247.452C416.398 248.13 415.796 248.968 415.396 249.906C414.996 250.843 414.808 251.858 414.846 252.877C415.031 254.911 415.516 256.907 416.285 258.799C416.419 259.354 416.668 259.874 417.016 260.327L417.913 265.596L421.178 265.53L420.968 254.57C420.968 254.57 420.636 249.943 424.621 250.353C428.606 250.762 433.998 255.246 441.736 254.105C443.001 254.039 444.235 253.687 445.345 253.076C445.882 252.737 446.32 252.261 446.612 251.697C446.904 251.132 447.04 250.5 447.005 249.866C446.938 249.238 446.628 248.661 446.143 248.258C445.657 247.855 445.033 247.657 444.404 247.707Z" fill="#263238"/>
<path d="M418.322 259.275C418.156 259.22 412.865 258.534 413.363 264.81C413.861 271.087 420.005 268.486 420.005 268.309C420.005 268.131 418.322 259.275 418.322 259.275Z" fill="#B78876"/>
<path d="M417.924 266.238C417.924 266.238 417.813 266.316 417.636 266.415C417.387 266.546 417.099 266.578 416.828 266.504C416.405 266.28 416.049 265.947 415.797 265.541C415.544 265.135 415.403 264.669 415.389 264.19C415.326 263.656 415.387 263.114 415.566 262.607C415.608 262.406 415.698 262.218 415.83 262.06C415.961 261.902 416.129 261.778 416.319 261.699C416.441 261.657 416.575 261.659 416.697 261.706C416.818 261.753 416.92 261.84 416.983 261.954C417.082 262.12 417.049 262.242 417.082 262.253C417.116 262.264 417.215 262.142 417.138 261.888C417.095 261.732 416.996 261.598 416.861 261.511C416.772 261.453 416.672 261.413 416.568 261.394C416.463 261.375 416.356 261.378 416.252 261.401C415.987 261.472 415.745 261.612 415.551 261.807C415.357 262.001 415.217 262.242 415.145 262.508C414.918 263.069 414.838 263.678 414.913 264.279C414.925 264.836 415.101 265.377 415.42 265.835C415.74 266.292 416.187 266.644 416.706 266.847C416.878 266.884 417.056 266.881 417.227 266.839C417.397 266.796 417.556 266.716 417.691 266.604C417.924 266.382 417.946 266.249 417.924 266.238Z" fill="#A36957"/>
<path d="M402.935 402.479C406.256 407.428 426.392 437.738 450.437 415.697C481.068 387.645 505.29 363.07 505.29 363.07L514.389 418.587L542.906 417.037C542.906 417.037 531.836 334.376 524.773 326.859C516.924 318.468 509.707 319.176 448.068 367.819L402.935 402.479Z" fill="#455A64"/>
<path d="M504.936 308.338L531.57 288.91L532.877 290.991L506.419 310.663L504.936 308.338Z" fill="#263238"/>
<path d="M511.522 307.741C511.522 307.741 515.087 298.442 515.951 296.46C516.814 294.478 518.109 291.025 518.618 290.925C519.128 290.825 520.987 291.146 518.618 297.058C516.249 302.969 521.497 299.36 521.497 299.36L526.622 295.685C526.622 295.685 530.674 307.796 528.371 311.449C526.561 314.177 524.528 316.75 522.294 319.143L511.522 307.741Z" fill="#B78876"/>
<path d="M511.821 306.656C511.29 305.449 477.415 335.361 470.673 336.379L450.924 310.663C450.924 310.663 446.828 304.154 438.027 293.017C432.337 285.833 416.662 287.327 412.566 296.084C405.569 310.962 405.481 327.501 401.75 359.682L400.123 381.446C399.772 386.078 399.843 390.731 400.333 395.35C400.931 400.741 402.149 406.42 404.651 405.612L449.828 368.272L451.278 351.313C460.777 360.944 463.732 362.959 468.67 362.184C481.101 360.258 524.618 321.124 524.618 321.124C524.618 321.124 512.342 307.873 511.821 306.656Z" fill="#1EA5FC"/>
<path d="M518.784 326.56C517.903 326.03 517.088 325.394 516.36 324.667C514.509 323.014 512.774 321.235 511.168 319.342C509.552 317.457 508.072 315.459 506.74 313.364C506.147 312.52 505.646 311.614 505.246 310.663C505.916 311.439 506.527 312.264 507.072 313.132C508.179 314.671 509.729 316.774 511.6 318.966C513.471 321.158 515.286 323.04 516.637 324.368C517.403 325.047 518.121 325.78 518.784 326.56Z" fill="#263238"/>
<path d="M468.758 346.575C468.776 344.842 468.984 343.115 469.378 341.427C469.595 339.707 469.996 338.014 470.574 336.379C470.557 338.113 470.349 339.839 469.954 341.527C469.739 343.248 469.338 344.94 468.758 346.575Z" fill="#263238"/>
<path d="M473.075 345.512C472.391 344.104 471.886 342.617 471.57 341.084C471.081 339.601 470.765 338.067 470.629 336.512C471.313 337.92 471.819 339.407 472.134 340.94C472.622 342.423 472.938 343.957 473.075 345.512Z" fill="#263238"/>
<path d="M424.167 315.18C424.573 315.626 424.943 316.104 425.275 316.608L428.219 320.615C430.71 323.992 434.186 328.641 438.072 333.722L448.09 346.719L451.112 350.671C451.521 351.138 451.891 351.638 452.219 352.165C451.775 351.744 451.364 351.289 450.991 350.804C450.227 349.907 449.153 348.59 447.825 346.973C445.179 343.708 441.559 339.169 437.673 334.077C433.788 328.984 430.356 324.29 427.954 320.848C426.747 319.132 425.739 317.726 425.142 316.741C424.776 316.247 424.45 315.725 424.167 315.18Z" fill="#263238"/>
<path d="M418.389 337.055C417.218 336.391 416.148 335.564 415.211 334.597C414.148 333.765 413.205 332.789 412.411 331.697C413.588 332.36 414.662 333.192 415.599 334.165C416.666 334.986 417.605 335.96 418.389 337.055Z" fill="#263238"/>
<path d="M414.514 349.531C413.359 351.922 411.868 354.137 410.086 356.106C410.573 354.864 411.241 353.7 412.068 352.652C412.73 351.5 413.554 350.449 414.514 349.531Z" fill="#263238"/>
<path d="M419.961 366.745C419.839 366.844 418.854 365.848 417.747 364.531C417.001 363.78 416.393 362.903 415.953 361.94C416.075 361.841 417.06 362.837 418.167 364.154C418.915 364.904 419.522 365.781 419.961 366.745Z" fill="#263238"/>
<path d="M409.422 377.782C408.724 378.6 407.884 379.286 406.942 379.808C406.107 380.485 405.159 381.009 404.142 381.357C404.84 380.539 405.68 379.853 406.621 379.332C407.457 378.654 408.405 378.13 409.422 377.782Z" fill="#263238"/>
<path d="M424.156 380.704C422.983 380.193 421.967 379.379 421.211 378.346C420.313 377.422 419.675 376.276 419.363 375.025C419.518 374.948 420.326 376.409 421.643 377.948C422.961 379.487 424.256 380.56 424.156 380.704Z" fill="#263238"/>
<path d="M437.894 370.276C437.085 371.335 436.131 372.274 435.06 373.066C434.107 373.997 433.026 374.787 431.85 375.413C432.659 374.354 433.613 373.415 434.684 372.623C435.635 371.689 436.716 370.899 437.894 370.276Z" fill="#263238"/>
<path d="M409.621 390.413C407.73 389.545 406.227 388.007 405.403 386.096C405.536 386.007 406.366 387.07 407.529 388.243C408.691 389.417 409.721 390.302 409.621 390.413Z" fill="#263238"/>
<path d="M440.341 360.413C438.439 361.501 436.246 361.973 434.064 361.763C436.133 361.21 438.228 360.759 440.341 360.413Z" fill="#263238"/>
<path d="M430.112 348.778C429.883 350.127 429.512 351.448 429.005 352.719C428.644 353.997 428.212 355.253 427.71 356.483H427.588C427.588 356.416 427.654 356.394 427.676 356.394C427.699 356.394 427.676 356.394 427.676 356.516H427.555C427.685 355.187 427.975 353.879 428.418 352.619C428.756 351.25 429.329 349.951 430.112 348.778Z" fill="#263238"/>
<path d="M434.441 341.394C433.239 340.892 432.12 340.213 431.12 339.379C430.022 338.702 429.033 337.862 428.186 336.888C429.365 337.401 430.465 338.079 431.452 338.903C432.567 339.579 433.575 340.419 434.441 341.394Z" fill="#263238"/>
<path d="M425.584 325.121C425.249 326.219 424.692 327.237 423.946 328.11C423.347 329.088 422.556 329.935 421.621 330.6C422.117 329.58 422.742 328.627 423.481 327.767C424.059 326.794 424.767 325.903 425.584 325.121Z" fill="#263238"/>
<path d="M412.101 322.907C411.916 321.663 411.916 320.398 412.101 319.154C412.115 317.898 412.316 316.652 412.699 315.456C412.898 316.696 412.898 317.959 412.699 319.198C412.696 320.458 412.494 321.71 412.101 322.907Z" fill="#263238"/>
<path d="M406.842 347.306C406.542 345.981 406.423 344.622 406.488 343.265C406.376 341.914 406.45 340.555 406.71 339.224C407.138 341.898 407.182 344.619 406.842 347.306Z" fill="#263238"/>
<path d="M406.112 370.708C405.609 369.99 405.273 369.17 405.127 368.306C404.799 367.494 404.649 366.623 404.684 365.749C405.529 367.272 406.017 368.968 406.112 370.708Z" fill="#263238"/>
<path d="M424.754 304.652C423.875 305.661 422.92 306.601 421.898 307.464C421.013 308.468 420.046 309.397 419.009 310.243C419.61 309.02 420.458 307.934 421.5 307.054C422.404 306.034 423.513 305.216 424.754 304.652Z" fill="#263238"/>
<path d="M416.839 302.006C416.599 300.8 416.554 299.563 416.706 298.342C416.661 297.112 416.811 295.883 417.149 294.7C417.382 295.907 417.427 297.143 417.282 298.364C417.32 299.594 417.171 300.822 416.839 302.006Z" fill="#263238"/>
<path d="M436.234 299.371C434.153 298.113 432.143 296.742 430.212 295.264C432.542 296.088 434.617 297.503 436.234 299.371Z" fill="#263238"/>
<path d="M432.016 313.187C431.71 311.92 431.587 310.615 431.651 309.313C431.532 308.014 431.602 306.705 431.861 305.427C432.295 307.988 432.348 310.6 432.016 313.176V313.187Z" fill="#263238"/>
<path d="M443.374 321.268C441.14 320.824 438.924 320.292 436.732 319.674C439.055 319.533 441.368 320.088 443.374 321.268Z" fill="#263238"/>
<path d="M444.149 313.032C443.758 310.876 443.758 308.668 444.149 306.512C444.44 307.571 444.549 308.671 444.47 309.766C444.557 310.865 444.449 311.971 444.149 313.032Z" fill="#263238"/>
<path d="M452.806 326.859C452.453 325.519 452.293 324.137 452.33 322.752C452.178 321.377 452.215 319.988 452.441 318.623C452.938 321.338 453.061 324.11 452.806 326.859Z" fill="#263238"/>
<path d="M446.153 331.531C446.031 331.641 445.134 330.822 444.149 329.715C443.164 328.608 442.455 327.612 442.577 327.501C442.699 327.39 443.596 328.21 444.581 329.328C445.566 330.446 446.275 331.431 446.153 331.531Z" fill="#263238"/>
<path d="M454.566 337.907C453.522 338.262 452.426 338.442 451.323 338.438C450.224 338.63 449.1 338.63 448.001 338.438C449.039 338.071 450.133 337.891 451.234 337.907C452.335 337.701 453.465 337.701 454.566 337.907Z" fill="#263238"/>
<path d="M460.898 341.139C460.43 338.737 460.337 336.276 460.622 333.844C461.104 336.245 461.198 338.708 460.898 341.139Z" fill="#263238"/>
<path d="M467.142 353.261C465.815 353.515 464.451 353.515 463.124 353.261C461.774 353.208 460.447 352.896 459.216 352.342C460.549 352.337 461.879 352.455 463.19 352.697C464.523 352.754 465.847 352.943 467.142 353.261Z" fill="#263238"/>
<path d="M477.88 347.671C477.423 350.185 476.587 352.615 475.4 354.878C475.53 353.61 475.855 352.371 476.363 351.202C476.68 349.953 477.192 348.761 477.88 347.671Z" fill="#263238"/>
<path d="M485.618 337.885C483.316 337.643 481.071 337.019 478.976 336.036C481.275 336.291 483.518 336.915 485.618 337.885Z" fill="#263238"/>
<path d="M491.84 341.593C491.181 342.556 490.37 343.405 489.437 344.106C488.627 344.946 487.689 345.652 486.659 346.198C487.311 345.227 488.123 344.374 489.061 343.674C489.871 342.837 490.809 342.135 491.84 341.593Z" fill="#263238"/>
<path d="M494.331 332.438C493.718 331.344 493.341 330.133 493.224 328.885C492.906 327.663 492.853 326.387 493.069 325.143C493.421 326.332 493.662 327.551 493.788 328.785C494.083 329.983 494.265 331.206 494.331 332.438Z" fill="#263238"/>
<path d="M506.175 330.335C503.898 332.608 501.596 334.856 499.268 337.077C501.026 334.332 503.389 332.026 506.175 330.335Z" fill="#263238"/>
<path d="M507.349 326.095C506.078 325.916 504.842 325.542 503.685 324.988C502.457 324.627 501.291 324.078 500.231 323.361C501.497 323.545 502.729 323.918 503.884 324.468C505.113 324.836 506.281 325.384 507.349 326.095Z" fill="#263238"/>
<path d="M506.22 321.545C505.657 320.626 505.263 319.614 505.058 318.556C504.67 317.549 504.464 316.481 504.449 315.401C504.992 316.324 505.367 317.336 505.556 318.39C505.956 319.396 506.18 320.463 506.22 321.545Z" fill="#263238"/>
<path d="M444.249 353.438C444.116 353.538 443.142 352.442 442.168 351.003C441.466 350.186 440.919 349.248 440.551 348.235C441.385 348.917 442.089 349.742 442.632 350.671C443.324 351.495 443.871 352.431 444.249 353.438Z" fill="#263238"/>
<path d="M528.648 409.21C528.601 409.055 528.572 408.895 528.56 408.734C528.515 408.402 528.449 407.937 528.36 407.339C528.205 406.088 527.962 404.284 527.663 401.981C527.032 397.332 526.135 390.59 524.796 382.298C523.456 374.007 521.674 364.165 519.139 353.361C518.879 352.004 518.436 350.69 517.821 349.453C517.126 348.233 516.227 347.139 515.165 346.221C512.91 344.354 510.027 343.42 507.106 343.608C505.615 343.691 504.159 344.087 502.832 344.77C501.499 345.522 500.229 346.381 499.035 347.339L491.419 352.996C481.168 360.689 471.57 368.228 463.002 375.302C454.433 382.376 446.961 388.996 440.706 394.608C437.54 397.332 434.164 399.513 430.743 399.867C429.174 400.045 427.585 399.851 426.105 399.302C424.873 398.838 423.714 398.2 422.662 397.409C421.222 396.314 419.888 395.088 418.677 393.745L417.736 392.704C417.621 392.589 417.517 392.463 417.426 392.328C417.553 392.424 417.668 392.536 417.769 392.66L418.754 393.668C420 394.966 421.351 396.158 422.795 397.232C423.841 397.987 424.984 398.598 426.193 399.048C427.64 399.562 429.186 399.732 430.71 399.546C434.031 399.18 437.352 397.022 440.452 394.298C446.662 388.664 454.112 381.966 462.681 374.892C471.249 367.819 480.825 360.224 491.087 352.531L498.703 346.874C499.926 345.9 501.226 345.026 502.589 344.261C503.984 343.541 505.516 343.126 507.083 343.043C510.148 342.85 513.17 343.836 515.53 345.8C516.648 346.761 517.589 347.911 518.309 349.198C518.943 350.478 519.401 351.837 519.67 353.239C522.183 364.077 523.91 373.94 525.205 382.232C526.501 390.524 527.331 397.287 527.895 401.948C528.15 404.262 528.349 406.066 528.493 407.328C528.493 407.926 528.593 408.435 528.626 408.734C528.648 408.892 528.656 409.051 528.648 409.21Z" fill="#263238"/>
<path d="M541.578 408.59C541.219 408.701 540.846 408.76 540.471 408.767C539.751 408.845 538.711 408.934 537.427 409.022C534.847 409.199 531.294 409.387 527.364 409.553L517.301 409.985L514.246 410.096C513.878 410.139 513.506 410.139 513.139 410.096C513.497 409.978 513.869 409.911 514.246 409.897C514.965 409.808 516.006 409.708 517.29 409.598C519.869 409.387 523.423 409.177 527.353 409L537.427 408.635L540.482 408.568C540.847 408.53 541.215 408.538 541.578 408.59Z" fill="#263238"/>
<path d="M513.205 354.413C510.685 358.516 507.4 362.097 503.53 364.962C503.419 364.83 505.744 362.671 508.445 359.759C511.146 356.848 513.039 354.313 513.205 354.413Z" fill="#263238"/>
<path d="M514.279 357.778C512.786 358.917 511.209 359.942 509.563 360.844C508.015 361.919 506.386 362.874 504.692 363.7C506.062 362.4 507.595 361.284 509.253 360.379C510.809 359.299 512.498 358.425 514.279 357.778Z" fill="#263238"/>
<path d="M607.545 411.446C607.321 411.471 607.094 411.471 606.87 411.446L604.922 411.336L597.837 410.66L574.49 408.225C565.368 407.273 557.132 406.21 551.143 405.911C548.154 405.756 545.718 405.767 544.047 405.834L542.12 405.911C541.893 405.94 541.662 405.94 541.434 405.911C541.656 405.856 541.882 405.819 542.109 405.801C542.541 405.734 543.216 405.679 544.036 405.601C546.409 405.446 548.788 405.412 551.165 405.502C557.187 405.701 565.434 406.697 574.545 407.649L597.892 410.229L604.966 411.081L606.881 411.336C607.106 411.346 607.329 411.383 607.545 411.446Z" fill="#455A64"/>
<path d="M606.14 423.823C605.985 423.823 606.483 418.288 607.247 411.413C608.01 404.539 608.785 399.059 608.94 399.081C609.095 399.103 608.597 404.616 607.833 411.48C607.07 418.343 606.295 423.834 606.14 423.823Z" fill="#455A64"/>
</g>
<defs>
<clipPath id="clip0">
<rect width="629.939" height="427" fill="white" transform="translate(0.101074)"/>
</clipPath>
</defs>
</svg>
