<svg xmlns="http://www.w3.org/2000/svg" xmlns:xlink="http://www.w3.org/1999/xlink" viewBox="0 0 500 500"><defs><style>.cls-1,.cls-6{fill:#fff;}.cls-2,.cls-29,.cls-30{fill:#ffc9af;}.cls-3{isolation:isolate;}.cls-4{fill:#ffd231;}.cls-13,.cls-19,.cls-27,.cls-35,.cls-37,.cls-38,.cls-5,.cls-9{fill:#00bcff;}.cls-5{opacity:0.4;}.cls-6{opacity:0.83;}.cls-7{opacity:0.36;}.cls-16,.cls-17,.cls-8{fill:#004cc2;}.cls-10{fill:#fc9f8a;}.cls-11{fill:#e62811;}.cls-12,.cls-23,.cls-25{fill:#f44259;}.cls-13,.cls-27{opacity:0.38;}.cls-14,.cls-22,.cls-24{fill:#ff9700;}.cls-14,.cls-36{opacity:0.51;}.cls-15{fill:#ff5e00;opacity:0.5;}.cls-16{opacity:0.54;}.cls-17{opacity:0.45;}.cls-17,.cls-19,.cls-21,.cls-23,.cls-24,.cls-25,.cls-27,.cls-29,.cls-30,.cls-34,.cls-37{mix-blend-mode:multiply;}.cls-18{clip-path:url(#clip-path);}.cls-19{opacity:0.24;}.cls-20{clip-path:url(#clip-path-2);}.cls-21{fill:#7338ff;opacity:0.29;}.cls-23,.cls-30{opacity:0.3;}.cls-24{opacity:0.27;}.cls-25{opacity:0.1;}.cls-26{fill:#ffa18a;}.cls-28{clip-path:url(#clip-path-3);}.cls-31{clip-path:url(#clip-path-4);}.cls-32{opacity:0.21;}.cls-33,.cls-36{fill:#6ed5ff;}.cls-35{opacity:0.8;}.cls-37{opacity:0.35;}.cls-38{opacity:0.46;}.cls-39{opacity:0.45;}</style><clipPath id="clip-path"><path class="cls-1" d="M258.38,408.27s-29.91,5.09-22.93,11.06,46.77,11.69,48.69,9.41S292,409.52,292,409.52l-27.62-10.71Z"/></clipPath><clipPath id="clip-path-2"><path class="cls-1" d="M298.14,423.15s-25,15-15.84,18,48.31-5.39,49-8.13-1.81-20.31-1.81-20.31l-30.31-.31Z"/></clipPath><clipPath id="clip-path-3"><path class="cls-1" d="M456.66,258.56c-2.75-34.83-4.61-43.5-9.35-48.59s-22.05-7.27-34.27-7.68-30.05,2.56-35.12,5.54-8.13,15.69-7.35,31.48c.68,13.68,4,28.21,3.9,34.54-.25,11.75-2.94,16.28-4.89,25,15.27,9.12,74.37,14,87.05,11.83C457.88,298.83,458,275.42,456.66,258.56Z"/></clipPath><clipPath id="clip-path-4"><path class="cls-2" d="M393.86,192.56,414.67,190,417,204.71a3.48,3.48,0,0,1-1,3,18.56,18.56,0,0,1-11.77,5.5c-6.39.65-7.19-1.87-7.1-3.44a16,16,0,0,0-.45-4.34Z"/></clipPath></defs><title>Asset 4</title><g class="cls-3"><g id="Layer_2" data-name="Layer 2"><g id="Layer_1-2" data-name="Layer 1"><rect class="cls-4" x="165.21" width="230.92" height="131.17"/><path class="cls-4" d="M208.8,129.21c-.12.49.56,32,.56,32l19.75-31.82Z"/><rect class="cls-1" x="171.09" y="5.74" width="219.17" height="119.7"/><path class="cls-5" d="M200.24,5.74h190a0,0,0,0,1,0,0v98.05a0,0,0,0,1,0,0H203.2a3,3,0,0,1-3-3V5.74A0,0,0,0,1,200.24,5.74Z"/><path class="cls-6" d="M212.85,5.74H390.26a0,0,0,0,1,0,0v90.2a0,0,0,0,1,0,0H214.56a1.72,1.72,0,0,1-1.72-1.72V5.74A0,0,0,0,1,212.85,5.74Z"/><g class="cls-7"><path class="cls-8" d="M376.86,30.67c-2.15-1.63-6.42-1.12-9.24-1.18-8.51-.16-17-.25-25.53-.21-.47,0-.89.27-.9.61a148.3,148.3,0,0,0,.62,15.63A76,76,0,0,0,330.05,35.1c-.25-.18-.74,0-.52.27,4.28,4.09,8.71,8.06,12.53,12.39.38.43,1.52.33,1.47-.26a160.19,160.19,0,0,1-.57-17c6.75,0,13.5.11,20.25.22,3.33.05,6.72,0,10,.19,3.74.23,2.92,2.74,3.83,4.56a.65.65,0,0,0,1.05,0A3.91,3.91,0,0,0,376.86,30.67Z"/><path class="cls-8" d="M375.53,41.38c-1,.85-2.35,2.77-4.35,2.34-1.15-.24-1.45-1.41-1.82-2.09s-.83-1.54-1.23-2.31a.89.89,0,0,0-1.34-.14,18.19,18.19,0,0,1-1.92,2.14c-.52.49-1.82,1.89-2.88,1.58-.85-.25-1.17-1.41-1.28-2.08a4.21,4.21,0,0,0,.66-3c-.09-.44-1.12-.56-1.37-.15a4.69,4.69,0,0,0-.79,3.05,7.76,7.76,0,0,1-.74.91,8.85,8.85,0,0,1-3.82,2.59,3.18,3.18,0,0,1-3.87-2.1c-.27-.67-.94-3.16.46-3.27.43,0,.31-.5-.08-.52l-.76,0a.51.51,0,0,0-.38.15,4.26,4.26,0,0,0-.24,4.62,4.55,4.55,0,0,0,4.49,2.31,9,9,0,0,0,5.11-2.81c.09-.1.17-.2.26-.29a3,3,0,0,0,1.49,1.59c2.37,1,4.79-1.45,6.15-3.12.43.84.86,1.68,1.34,2.5a3.08,3.08,0,0,0,2.46,1.6,4.52,4.52,0,0,0,5.06-3.15C376.2,41.42,375.8,41.16,375.53,41.38Z"/><path class="cls-8" d="M387.76,27.32a2.28,2.28,0,0,0-1.27-.31,6.77,6.77,0,0,1-1.36-.21c-.62-.18-1.24-.57-1.32-1.07s-1.09-.51-1.08,0c0,0,0,.06,0,.1h0a3.48,3.48,0,0,1-.08,2,2.81,2.81,0,0,1-.58.91,1.94,1.94,0,0,1-1.11.64c-.4,0-.48-.45-.52-.66a9.55,9.55,0,0,1-.17-1.4,10.94,10.94,0,0,1,.24-2.79c0-.18-.41-.23-.46,0a11.79,11.79,0,0,0-.4,2.62,11.64,11.64,0,0,0,0,1.32,2.31,2.31,0,0,0,.24,1,1.11,1.11,0,0,0,.8.54,2.1,2.1,0,0,0,1.36-.36A3.28,3.28,0,0,0,383.47,28a4.87,4.87,0,0,0,.23-.83,3.3,3.3,0,0,0,.65.33,7.06,7.06,0,0,0,1.69.38,2.6,2.6,0,0,0,1.71-.17A.2.2,0,0,0,387.76,27.32Z"/><path class="cls-8" d="M327.1,69.09a2.29,2.29,0,0,1-2.19.19,3.15,3.15,0,0,1-1.48-1.75.88.88,0,0,0-1.33-.14c-.68.69-1.36,1.39-2,2.09-.3.31-1.8,2.07-2,1a11.32,11.32,0,0,1,.59-5.11c.18-.6-1.13-.88-1.31-.27a9.3,9.3,0,0,1-2.52,4c-.95.92-3.07,2.81-5,2.48-1.11-.2-1.29-1.17-1.45-1.85a8,8,0,0,1-.19-2.49,9.22,9.22,0,0,1,1.87-4.8c.29-.4-.54-.76-.85-.37A10,10,0,0,0,307,67.72c-.07,1.43-.13,4,2.15,4.69s4.66-1,6-2.11a11.55,11.55,0,0,0,1.45-1.43h0c-.05.82-.38,2.25.73,2.81a2.72,2.72,0,0,0,2.89-.57c.83-.75,1.58-1.56,2.33-2.37a3.59,3.59,0,0,0,2.28,1.65c1.29.29,2.74-.05,3.1-1C328.09,69,327.4,68.79,327.1,69.09Z"/><path class="cls-8" d="M340.57,70.83a4.55,4.55,0,0,0-1-.76l-1.14-.8L338,69c.1-.22.22-.43.32-.65a9.53,9.53,0,0,0,1-4c0-.33-.67-.33-.71,0a9.87,9.87,0,0,1-1.48,3.8l-.09.15c-.28-.2-.55-.39-.84-.58l-4.55-3c-.44-.3-1.09.14-.68.46l4.26,3.3,1.15.85c-.13.19-.25.38-.37.57a13.59,13.59,0,0,0-1.18,1.94c-.25.56.93,1,1.34.42a14.92,14.92,0,0,0,1.17-1.94,1.86,1.86,0,0,1,.1-.2l1,.73a3.45,3.45,0,0,0,1.24.76C340.35,71.76,340.85,71.22,340.57,70.83Z"/><path class="cls-8" d="M379.27,65.2a.42.42,0,0,0-.68.12,3.29,3.29,0,0,1-2.65,2.61c-1.87.32-3.51-.92-3.45-2.18,0-.69-1.5-.88-1.74-.19-.39,1.15-1,3-3.06,3.14-2.94.15-3.37-2.51-3.17-4,.09-.59-1.29-.75-1.48-.16a6.27,6.27,0,0,1-4.32,4.06c-3.46.94-3.89-2.16-3.74-3.82,0-.55-1.24-.71-1.39-.15a.61.61,0,0,0,0,.13h0s0,0,0,0a5,5,0,0,0-.11,1.1,3.1,3.1,0,0,1-1.54,2.14,1.74,1.74,0,0,1-1.27.18c-.24-.15-.15-.75-.13-1a3.64,3.64,0,0,1,.91-2.07c.2-.24-.3-.45-.53-.22-.84.82-2.78,4.24,0,4.41a4,4,0,0,0,2.83-1.5c.05,0,.08-.11.13-.16a3.73,3.73,0,0,0,4,2.23,7.49,7.49,0,0,0,5.35-2.74,4.19,4.19,0,0,0,4,2.74,4.53,4.53,0,0,0,4.39-2.16,5.38,5.38,0,0,0,4.5,1.49C378.61,69,380.7,66.9,379.27,65.2Z"/><path class="cls-8" d="M298,11.4c-.09-.28-.58-.42-.92-.28-11,4.63-22.16,9.22-32.94,14.15a6.75,6.75,0,0,0-1.24-.68.48.48,0,0,0-.51.09c-.17.24-.23.44,0,.67s.4.06.36-.1v0l.55.42c-1,.46-2,.9-3,1.37-.27.12,0,.43.24.31,1.08-.44,2.14-.9,3.21-1.34a9.17,9.17,0,0,1,1.2,1,9,9,0,0,1,1.68,2.39,8.71,8.71,0,0,1,.62,1.76c-4.56-.25-9.11-.6-13.67-1-.66-.06-.84.73-.18.81,4.57.6,9.22,1,13.9,1.23a2.18,2.18,0,0,1-1,1.64c-.14.09-.08.28.11.31a1.71,1.71,0,0,0,2-1.49,2.71,2.71,0,0,0,0-.41,228.59,228.59,0,0,0,32.31-.93.56.56,0,0,0,.51-.45A71.68,71.68,0,0,0,298,11.4ZM276.69,31.49c-2.79,0-5.56-.12-8.33-.26a7.79,7.79,0,0,0-.48-1.53A9.38,9.38,0,0,0,266,26.85a12.49,12.49,0,0,0-1.35-1.24c10.76-4.47,21.42-9,32.28-13.4a79.75,79.75,0,0,1,2.92,18.23A225.94,225.94,0,0,1,276.69,31.49Z"/><path class="cls-8" d="M314.13,17.47a9.06,9.06,0,0,0-2.08.52c-.69.2-1.36.43-2,.65a43.83,43.83,0,0,0-4.14,1.44c-.2.09-.09.33.16.28a41.25,41.25,0,0,0,4.19-1.22c.69-.21,1.38-.41,2-.63a9.06,9.06,0,0,0,2-.78C314.39,17.64,314.32,17.46,314.13,17.47Z"/><path class="cls-8" d="M319.48,15.47a3.23,3.23,0,0,0-1.61-.07l-2.06.18-2.07.19c-.35,0-.69.06-1,.11a4.06,4.06,0,0,0-1.07.21c-.23.12-.19.33.06.41a3.2,3.2,0,0,0,.82,0c.3,0,.6,0,.89,0l1.78-.12,1.78-.11c.55,0,1.12-.12,1.67-.11h0a4.34,4.34,0,0,1-.28.46,7.92,7.92,0,0,1-.73.94,8.3,8.3,0,0,1-.83.85c-.16.15-.33.28-.48.42a2.79,2.79,0,0,0-.36.51c-.16.26.32.45.62.35a3.66,3.66,0,0,0,1.36-.89,9.62,9.62,0,0,0,1.81-2.24A.7.7,0,0,0,319.48,15.47Z"/><path class="cls-8" d="M349.83,13.58c-.52-.07-1.06-.12-1.59-.21s-1-.31-1.59-.44a2.46,2.46,0,0,0-1.78.19,8.56,8.56,0,0,0-1.41,1.18c-1.2.94-2.3-.14-2.85-1-.28-.42-1.12-.2-1.16.2-.07.72-1.26.95-2,.64a1.57,1.57,0,0,1-1.05-1.42c0-.41-.77-.58-1.1-.22a12.42,12.42,0,0,1-2.69,2.24,1.38,1.38,0,0,1-2-.51,1.71,1.71,0,0,1,.05-1.63c.21-.51-.83-.71-1.09-.23a4.46,4.46,0,0,1-2,2.27c-.72.42-2.08.73-2.65,0a2.69,2.69,0,0,1-.37-1.89c0-.07-.13-.08-.16,0-.36.77-.89,1.44-.33,2.26a2.41,2.41,0,0,0,2.14.9,5.13,5.13,0,0,0,3.18-1.48,2.32,2.32,0,0,0,2,1.54c1.63.24,3.15-1.1,4.16-2.19a2.72,2.72,0,0,0,2.23,1.41,3,3,0,0,0,2.39-.74c1,.95,2.47,1.67,4,.63.76-.53,1.15-1.6,2.39-1.24a4.59,4.59,0,0,0,3.36.14C350.14,13.93,350.14,13.63,349.83,13.58Z"/><path class="cls-8" d="M352,19c-1-.2-2.05,0-3.07-.21s-2.09-.42-3.17-.5a6.48,6.48,0,0,0-2.89.42c-.55.22-2.7,1.43-3,.42-.11-.35-.74-.44-1.1-.22a6.1,6.1,0,0,1-3.63,1.24c-1.26-.08-2.43-1.15-1.16-1.84.48-.26-.15-.86-.65-.61-1.49.77-1.24,2.35.33,3,1.87.77,3.84.09,5.39-.75a3,3,0,0,0,1.92.49c1.47-.09,2.4-1.08,3.85-1.18a19.45,19.45,0,0,1,4.11.54c1.1.16,2.57.34,3.3-.4C352.35,19.28,352.22,19.07,352,19Z"/></g><path class="cls-8" d="M319.7,125.44H213.44c1.54-6.86,7.23-29.3,15.87-34.33A68.51,68.51,0,0,1,256.84,82c.78-.11,1.56-.17,2.37-.23,1.07-.11,2.15-.19,3.3-.23h0a98.9,98.9,0,0,1,10.57.08h.15c.75,0,1.51.11,2.27.19s1.41.13,2.12.21c18.82,2.24,35.12,11.84,38.3,25.38.48,2.08.9,3.94,1.27,5.62v0C318.69,119.67,319.38,123.53,319.7,125.44Z"/><path class="cls-9" d="M284.42,125.44h-26.7c-.71-6.1-2.54-25.55-2.76-28.95-.46-7.12-.12-10.88,1.64-12.78a5,5,0,0,1,2.61-1.45,18.12,18.12,0,0,1,4.37-.31c1.39,0,3,.12,4.78.23.93.06,1.79.12,2.57.21a31.2,31.2,0,0,1,4.59.67,10.59,10.59,0,0,1,3.22,1.21c2.15,1.3,2.63,3.36,3.22,6.63C282.89,96.24,284.33,119,284.42,125.44Z"/><rect class="cls-10" x="257.62" y="69.12" width="19.24" height="14.74"/><path class="cls-10" d="M321.82,71.72a24.77,24.77,0,0,1,3.74-15.6c.72-1.07,2.35-2.19,3.38-1.33a2,2,0,0,1,.53,1.51,44.94,44.94,0,0,1-1.35,12.37,4.08,4.08,0,0,1,4.5-1.63,3.6,3.6,0,0,1,2.73,3.55c.44-1.55,3.2-1.74,4.53-.62s1.54,2.85,1.56,4.44a2.17,2.17,0,0,1,2.94.2,3.82,3.82,0,0,1,.79,2.77,14.47,14.47,0,0,1-2.58,8.53,11.88,11.88,0,0,1-8.36,4.78C323.32,91.67,322.25,78.13,321.82,71.72Z"/><path class="cls-10" d="M326.41,87.53s-9.09-4.41-5.92-9.33,12.44-2.37,10.47.51-6.33,2.38-6.33,2.38Z"/><path class="cls-1" d="M257,79.83c1-.09,6,3.18,11.35,2.94s8-2.35,8.82-3.06,5.18,6.82,4.51,7.64-2.62,4-4.57,3.45-7.47-6.25-7.47-6.25-5,6.85-6.87,6.85-7.9-2.4-8.22-6.16S255.68,80,257,79.83Z"/><polygon class="cls-8" points="344.01 87.54 343.62 125.44 314.62 125.44 317.21 113.03 317.21 113.01 322.65 87.02 325.55 87.08 325.58 87.08 325.85 87.1 326.29 87.1 341.22 87.48 344.01 87.54"/><path class="cls-8" d="M289.25,29.61a1.55,1.55,0,0,0-1.87.26,5.11,5.11,0,0,0-1.36,2,13.21,13.21,0,0,0,0,6.78,16.41,16.41,0,0,0,2.1,5.58,2.39,2.39,0,0,0,.13.21,10.64,10.64,0,0,0,1.85,2.13,1.29,1.29,0,0,0,.45.09,2.38,2.38,0,0,0,1.37-.61c2.6-2.14,2-5.54,1.53-8a18.66,18.66,0,0,0-3.67-8A2,2,0,0,0,289.25,29.61Z"/><path class="cls-10" d="M292.67,48.72c0,14.14-2.61,26.28-19.88,27.23-22.27,1.22-31.35-13.09-31.35-27.23a25.62,25.62,0,0,1,51.23,0Z"/><path class="cls-1" d="M265.44,61.57c.64-1,4.11-.72,8.17-1.11,4.59-.45,7.79-1.2,8.59-.82,1.51.72-1.6,6.48-7.54,7C270.44,66.94,264.26,63.3,265.44,61.57Z"/><path class="cls-8" d="M261.14,30.51a113.81,113.81,0,0,0,14.49,6.76c5.79,2,12.12,2.7,17.52-.6,1.24-.76,2.79-2.37.9-3.21-1.24-.56-2.9-.42-4.25-.53a7,7,0,0,0,4.37-1,3.2,3.2,0,0,0,1.5-3.47,4.8,4.8,0,0,0-2-2.23A24.88,24.88,0,0,0,284.18,23l-1.77-.27a2.33,2.33,0,0,0,.77-1.85c-.15-.7-.89-1.19-1.62-1.57-5.76-3-13-3.2-19.9-3.21-4.85,0-9.9.07-14.22,1.93-2,.86-4.09,2.3-4.31,4.15a12.39,12.39,0,0,0-10.31,7.07c-1.59,3.66-1,7.75.57,11.37s3.59,7.73,5.13,8.49,1.62-.13,3.48.63,2,3,3.41,3.13,1.38-3.17,1.76-4.67c.77-3.07.74-6.22,1.66-9.26a19.2,19.2,0,0,1,6.08-8.89,6.21,6.21,0,0,1,1.6-1,14.71,14.71,0,0,1,2,.33A11.51,11.51,0,0,1,261,30.42Z"/><path class="cls-10" d="M241.64,49.6c-1.85-2.89-4.63-4.84-7.33-2.84a4,4,0,0,0-1.38,3.12,9.19,9.19,0,0,0,.78,3.64c1.18,2.92,3.28,5.5,5.89,6.57a2.92,2.92,0,0,0,3-.08c1.13-.9,1.34-2.74,1.25-4.27A13.93,13.93,0,0,0,241.64,49.6Z"/><path class="cls-11" d="M235,49.8a1.39,1.39,0,0,1,.89-.58,2.61,2.61,0,0,1,2.27.94,11.7,11.7,0,0,1,1.68,2.34,9.66,9.66,0,0,1,1.09,2.82.15.15,0,1,1-.29.08,12,12,0,0,0-2.44-4.33,5,5,0,0,0-.51-.52,5.19,5.19,0,0,0-.06,2.48,8.74,8.74,0,0,0,1.15,2.7c.05.09,0,.19-.11.12a5.48,5.48,0,0,1-1.28-5.56,2,2,0,0,0-1-.42,1.4,1.4,0,0,0-1.4,1c0,.12-.22.08-.22,0A1.77,1.77,0,0,1,235,49.8Z"/><path d="M295.31,42.69a3.53,3.53,0,0,0-3.24-1.76c-1.44,0-2.9.11-4.36.16-2.52.1-5.11.12-7.7.34-1.86.16-3.36.89-3.47,2.72v.07h0A4,4,0,0,0,274,44a5.49,5.49,0,0,0-2.25,1.12h0c-.05-.35-.08-.71-.14-1.06-.32-1.85-2-2.52-4-2.6-2.85-.11-5.76,0-8.71,0-1.75,0-3.53,0-5.32,0a4.34,4.34,0,0,0-3.9,2.18,4.62,4.62,0,0,0-.33,2.41h-.11l-1.38.17-2.48.31c-.83.1-1.65.24-2.47.36a6.06,6.06,0,0,0-1.28.26c-.25.1-.57.38-.37.65.39.52,1.55.29,2.17.25.8-.06,1.61-.11,2.41-.2l2.4-.26,1.22-.14.11,0a36.2,36.2,0,0,0,2,7.27A3.43,3.43,0,0,0,253.68,57a10.86,10.86,0,0,0,3.51.24c1.5,0,3-.1,4.44-.22a45.08,45.08,0,0,0,7.88-1.15c2.38-.63,2.64-2.46,2.59-4.35,0-1.64-.08-3.32-.21-5a7.55,7.55,0,0,1,2.24-1.06,2.72,2.72,0,0,1,.85-.11,1,1,0,0,1,.3,0l.18.05.08,0h0a2.21,2.21,0,0,1,.34.18l0,0,.16.14.07.07c-.06-.07.06.1.07.11v0a2.43,2.43,0,0,0,.18.32s.08,0,.12.08c0,1.71.2,3.43.34,5.11.16,1.85.6,3.61,2.92,3.93a38.16,38.16,0,0,0,7.16.14c1.26-.06,2.5-.16,3.73-.31a8,8,0,0,0,2.79-.6,3.08,3.08,0,0,0,1.41-2.2,37.8,37.8,0,0,0,.9-7.1A5.21,5.21,0,0,0,295.31,42.69Z"/><path class="cls-1" d="M270.43,52.89c-.12,1-.67,1.42-1.75,1.64a54.81,54.81,0,0,1-13.08,1.11c-1.51-.06-1.89-.67-2.38-1.79a19.81,19.81,0,0,1-1.06-3,16.59,16.59,0,0,1-1-5c.13-2.26,1.27-2.61,3.76-2.62l3.54,0c2.33,0,4.62,0,6.89,0a23.94,23.94,0,0,1,2.81,0c1.08.11,1.51.43,1.65,1.37.29,1.91.41,3.86.52,5.78A15.15,15.15,0,0,1,270.43,52.89Z"/><path class="cls-1" d="M294.07,49.08a20.09,20.09,0,0,1-.54,2.76c-.29,1-.53,1.62-1.73,1.83a44.46,44.46,0,0,1-11.38.39c-1-.09-1.6-.45-1.82-1.4a14.36,14.36,0,0,1-.22-2.54c-.1-1.87-.19-3.77-.12-5.65,0-.93.41-1.26,1.41-1.42a22.32,22.32,0,0,1,2.58-.15c2-.08,4-.2,6-.29l2.91-.15c2-.1,2.9.16,3.21,2.14A16.08,16.08,0,0,1,294.07,49.08Z"/><path class="cls-12" d="M193.6,114.74c0,3.23-3,5.84-6.81,5.84S180,118,180,114.74s3.05-5.85,6.81-5.85S193.6,111.51,193.6,114.74Z"/><path class="cls-8" d="M122.12,375.93c1.86,0,3.15.25,4.22,1.69a5.71,5.71,0,0,1,1,2.86c.09.84-.22,1.95.61,2.46,1.26.78,3.66.8,5.1.63,2.58-.31,3.82-1.44,2.82-3.57a9.78,9.78,0,0,0-5.16-4.63,16.63,16.63,0,0,0-5.67-1.44,3.39,3.39,0,0,0-2.2.67C122.55,374.84,121.62,375.57,122.12,375.93Z"/><path class="cls-8" d="M99.14,400.06C95,398.9,87.66,412,85.89,414.17a87.38,87.38,0,0,0-15,27.89c-4.48,13.34-9.13,26.79-7.32,40.83,1.17,9.09,7.86,15.71,19.26,14.68,5.41-.49,15.9-1.24,20.37-3.91,2-1.21,2.18-2.8.41-5s-3.1-1.74-6.18-1.21c-5.82,1-10.83,2.32-15.85-1.54s-5.46-10.5-5.19-15.87a92.49,92.49,0,0,1,4.6-23.2c3-9.65,7.62-18.37,11.84-27.63,1.86-4.1,4.55-8.42,5.62-12.72.64-2.57,0-4.61,1-7C98.93,399.47,98.31,399.42,99.14,400.06Z"/><path class="cls-13" d="M78,494.55a19,19,0,0,1-5.56-6.88c-2.86-5.85-3.27-12.46-3-18.72a134.63,134.63,0,0,1,2.78-20.72,161.34,161.34,0,0,1,4.19-17.06q1-3.18,2.2-6.27a93.86,93.86,0,0,0-7.67,17.16c-4.48,13.34-9.13,26.79-7.32,40.83,1.17,9.09,7.86,15.7,19.26,14.68l1.08-.1A19,19,0,0,1,78,494.55Z"/><path class="cls-4" d="M177.79,493.47c-2.77,2.31-23.62,5.14-42.95,6-4,.17-8,.26-11.69.24-9.16,0-20.57.26-23.75-2-7.58-5.27-26.16-95.21,5.94-111,7.35-3.61,24.8-5.7,31.55-5.45.81,0,1.6.08,2.37.17,21.23,2.12,33.15,22.57,38.32,52.47C184.54,474.07,182.6,489.49,177.79,493.47Z"/><path class="cls-14" d="M134.84,499.45c-4,.17-8,.26-11.69.25-9.15,0-20.57.24-23.75-2-7.58-5.27-26.17-95.2,5.94-111,3.26-1.6,8.49-2.9,13.9-3.84,2.67-.46,5.4-.83,7.93-1.09a75.54,75.54,0,0,1,9.72-.52c.82,0,1.6.07,2.38.17-8.22.67-14.83,5.68-18,14.25C112,421.15,121.42,468.29,134.84,499.45Z"/><path class="cls-15" d="M127.17,381.78a31.39,31.39,0,0,0-8.17,5.41,46.08,46.08,0,0,0-11,17.5,71,71,0,0,0-4.07,19.44c-.54,7,.34,13.9.84,20.88.56,7.84,2.2,15.43,3.11,23.22.06.58-2,1-2.55.75-.68.14-1.41.14-1.5-.16-1.32-4.43-1.7-9.14-2.35-13.67s-1.11-8.93-1.4-13.41c-.87-13.7-.34-28,5.43-40.93,2.79-6.26,6.79-12.77,12.75-17.22.33-.25.65-.49,1-.72C121.91,382.41,124.64,382,127.17,381.78Z"/><path class="cls-8" d="M164.84,414.36a4.55,4.55,0,0,0-1.59-3c-1.12-.76-2.86-.72-4.23-.71-4.23,0-8.67.22-13.29.59a47.9,47.9,0,0,0-6.35.68c-.47.1-2.82.06-3.58,1.21-.36.54-.14,2.86,0,4.86.17,2.24.35,4.16,1.55,4.54.52,0,1,.17,1.47.2a14.9,14.9,0,0,0,1.76-.14l3.59-.31c2.27-.19,4.5-.4,6.67-.62q6.25-.62,12-1.28a2.49,2.49,0,0,0,2.2-1.22,3.76,3.76,0,0,0,.2-1.7A21.64,21.64,0,0,0,164.84,414.36Z"/><path class="cls-9" d="M113.15,385.4c-1.54.07-.24-7.59,1.1-9.14,2.21-2.55,6.12-3.32,9.61-3.63,4-.37,12.21,3.21,12.1,7.65-2.37-3.68-9.92-7.66-14.05-3.33-1.8,1.88.06,4.83-1.13,6.37C119.24,385.32,114.7,385.33,113.15,385.4Z"/><path class="cls-9" d="M188.09,495.12c-2.43,1.58-23.67,4.62-37.72,4.86-5,.09-9.17-.18-11.17-1-4.43-1.77-7.18-18.74-6.6-36.09C133,450,137.79,438.82,147,435.22a33.83,33.83,0,0,1,12.13-2.42,27.92,27.92,0,0,1,4.87.39c13.8,2.25,24.05,14.34,26.25,30C193.3,484.72,191.42,493,188.09,495.12Z"/><path class="cls-16" d="M164,433.19c-5.56.51-9.4,3.9-10.34,5.37-5.08,7.94-6.47,17.86-6.79,27.09-.39,10.64,0,23.51,3.46,34.33-5,.09-9.17-.18-11.17-1-4.43-1.77-7.18-18.74-6.6-36.09C133,450,137.79,438.82,147,435.22a33.83,33.83,0,0,1,12.13-2.42A27.92,27.92,0,0,1,164,433.19Z"/><path class="cls-8" d="M105.71,467.4c2.51,0,3.53,6.85,3,7.51s-3.76.9-4.56.42S103.2,467.42,105.71,467.4Z"/><polygon points="293.89 499.79 288.23 499.79 307.36 354.29 323.12 354.29 293.89 499.79"/><polygon points="482.43 499.79 488.1 499.79 468.96 354.29 453.2 354.29 482.43 499.79"/><polygon points="442.87 499.79 448.54 499.79 429.4 354.29 413.64 354.29 442.87 499.79"/><polygon points="331.37 499.79 325.7 499.79 344.84 354.29 360.6 354.29 331.37 499.79"/><polygon class="cls-8" points="500 188.77 470.1 337.77 400.08 337.77 429.98 188.77 500 188.77"/><polygon class="cls-17" points="491.46 188.77 461.55 337.77 400.08 337.77 429.98 188.77 491.46 188.77"/><rect class="cls-8" x="304.68" y="337.78" width="165.41" height="20.06"/><rect class="cls-17" x="304.68" y="337.78" width="59.39" height="20.06"/><path class="cls-1" d="M258.38,408.27s-29.91,5.09-22.93,11.06,46.77,11.69,48.69,9.41S292,409.52,292,409.52l-27.62-10.71Z"/><g class="cls-18"><path class="cls-9" d="M276,424.33c3.48-2.24,7.24-4.46,11.57-4.89.79-.08,1.75,0,2.15.56a1.47,1.47,0,0,1,.17,1,10.83,10.83,0,0,1-2.81,5.39,20.2,20.2,0,0,1-4.81,4.44,11.7,11.7,0,0,1-6.61,1.88c-1.77-.08-5.93-1.31-5.8-3.33C270,427.62,274.53,425.31,276,424.33Z"/><path class="cls-9" d="M247.69,421.68c.15,1.84-.05,3.95-1.72,5.1s-4.43.82-6.49,0a13.52,13.52,0,0,1-6.7-5.5,8.16,8.16,0,0,1-.31-7.84,12.39,12.39,0,0,1,1.92-2.57,10.41,10.41,0,0,1,3.6-2.7c1.29-.53,3.43-.83,4.53.13s1.82,2.8,2.42,4A25.13,25.13,0,0,1,247.69,421.68Z"/><path class="cls-19" d="M252.53,424.13a74.8,74.8,0,0,0,16.82,1.23c2.92-.07,6.32-.57,7.16-3.05.64-1.92-.59-4.19-2-6a28.6,28.6,0,0,0-9.08-7.46,37.44,37.44,0,0,1-4.37-2.35,6.17,6.17,0,0,1-2.75-3.77,3.81,3.81,0,0,1,2-3.74,11.13,11.13,0,0,1,4.55-1.23c7.15-.75,15.16.53,21.56,4.86S297,414.73,295.13,421c-1,3.38-3.57,6-6.51,8.05-7,4.84-16.47,6.74-25.92,5.2a45.61,45.61,0,0,1-18.5-7.64c-2.61-1.82-8.76-5.25-10.62-7.77-2.81-3.81,4.31.63,5.75,1.38C243.07,422.21,248.49,423.3,252.53,424.13Z"/></g><path class="cls-1" d="M298.14,423.15s-25,15-15.84,18,48.31-5.39,49-8.13-1.81-20.31-1.81-20.31l-30.31-.31Z"/><g class="cls-20"><path class="cls-9" d="M321.82,431.78c2.14-3.25,4.55-6.58,8.31-8.47a2.44,2.44,0,0,1,2.24-.22,1.68,1.68,0,0,1,.63.88,10,10,0,0,1-.05,5.91,17.09,17.09,0,0,1-2.34,5.73,10.15,10.15,0,0,1-5.17,4c-1.67.53-6.05.84-6.88-1.05C317.83,436.87,320.89,433.2,321.82,431.78Z"/><path class="cls-9" d="M294.61,439.11c1,1.64,1.8,3.63.81,5.27s-3.68,2.27-6,2.2a15.68,15.68,0,0,1-8.7-2.73,8.89,8.89,0,0,1-3.94-7.08,10.52,10.52,0,0,1,.56-3,8.7,8.7,0,0,1,2-3.71c.93-.92,2.75-1.93,4.21-1.43a16.9,16.9,0,0,1,4.08,2.8A29.49,29.49,0,0,1,294.61,439.11Z"/><path class="cls-19" d="M300.19,439.69a71.74,71.74,0,0,0,16-4.66c2.64-1.07,5.53-2.7,5.14-5.27-.31-2-2.5-3.63-4.68-4.8a33,33,0,0,0-11.79-3.7,42.11,42.11,0,0,1-5.1-.66,7.36,7.36,0,0,1-4.28-2.51,3.49,3.49,0,0,1,.08-4.1,9.44,9.44,0,0,1,3.59-2.7,33.12,33.12,0,0,1,22-3c7.88,1.77,15.38,7.44,16.61,13.85.66,3.45-.46,6.75-2.2,9.62-4.13,6.84-11.94,11.85-21.32,13.68a49,49,0,0,1-20.52-.62c-3.23-.77-10.47-1.8-13.35-3.47-4.35-2.52,4.24-.91,5.91-.71C290.63,441.19,296.1,440.32,300.19,439.69Z"/></g><path class="cls-12" d="M431.78,298.68s8.66,35.23-16.33,35.79-92.3,2.8-92.3,2.8l-31.88,79.86-38.18-11.9s27.4-88.09,37.73-95.36,76-11.75,88.64-11.47S431.78,298.68,431.78,298.68Z"/><path class="cls-21" d="M431.78,298.68s8.66,35.23-16.33,35.79-92.3,2.8-92.3,2.8l-31.88,79.86-38.18-11.9s27.4-88.09,37.73-95.36,76-11.75,88.64-11.47S431.78,298.68,431.78,298.68Z"/><polygon class="cls-22" points="251.75 406.94 290.6 418.72 297.13 408.56 254.38 395.06 251.75 406.94"/><polygon class="cls-23" points="251.75 406.94 290.6 418.72 297.13 408.56 254.38 395.06 251.75 406.94"/><path class="cls-24" d="M270.27,409.29a48.49,48.49,0,0,1-8.57-8.22,32.29,32.29,0,0,1-3.2-4.71l-4.12-1.3-2.63,11.88,30.05,9.11A57.58,57.58,0,0,1,270.27,409.29Z"/><path class="cls-12" d="M453.8,300.08s9,37.41-16.95,38-95.78,3-95.78,3l-7.35,80.63-39.24-1.18s2.33-100.82,13-108.54,78.84-12.47,92-12.18S453.8,300.08,453.8,300.08Z"/><path class="cls-25" d="M323.39,420.58A32.78,32.78,0,0,1,320.5,413c-.75-2.69-1.48-5.39-2.14-8.09a135.25,135.25,0,0,1-3.05-19.44c-.55-5.68-1-11.36-1.58-17-.56-5.4-1.07-10.81-1.15-16.24-.15-10.54,1.38-21.38,8.51-30.25a74.16,74.16,0,0,1,22.12-18c-16.48,2-31.17,4.77-35.68,8-10.72,7.72-13,108.54-13,108.54l29.44.89C323.74,421.12,323.55,420.86,323.39,420.58Z"/><path class="cls-25" d="M453.8,300.08h-9.25c0,.54-.05,1.08-.09,1.61a42.09,42.09,0,0,1-1.09,6.94,23.05,23.05,0,0,1-2.27,6.31c-2.34,4-6.72,6.87-11,9.21a82.08,82.08,0,0,1-14.42,6.15c-10.78,3.45-22.24,5.16-33.64,6.27-7.64.74-15.3,1.05-23,1.62-3.74.28-7.49.61-11.19,1.18a34.25,34.25,0,0,0-4.17.86,4.83,4.83,0,0,0-1.84.81c7.81-.27,70.68-2.39,95-2.95C462.79,337.49,453.8,300.08,453.8,300.08Z"/><path class="cls-22" d="M323.81,408.28h0a.36.36,0,0,1-.36-.35l.17-1.95a.35.35,0,0,1,.41-.3.36.36,0,0,1,.35.35l-.17,1.94A.36.36,0,0,1,323.81,408.28Z"/><path class="cls-22" d="M324.32,402.37h0a.35.35,0,0,1-.35-.35l.35-4a.35.35,0,0,1,.41-.3.35.35,0,0,1,.35.35l-.35,4A.36.36,0,0,1,324.32,402.37Zm.7-7.94h0a.36.36,0,0,1-.35-.35l.36-4a.39.39,0,0,1,.76,0l-.36,4A.36.36,0,0,1,325,394.43Zm.72-7.94h0a.35.35,0,0,1-.35-.35c.12-1.29.25-2.61.37-4a.36.36,0,0,1,.41-.29.34.34,0,0,1,.35.35c-.13,1.35-.25,2.67-.37,4A.36.36,0,0,1,325.74,386.49Zm.75-7.95h0a.34.34,0,0,1-.34-.35l.38-4a.35.35,0,0,1,.41-.29.34.34,0,0,1,.34.35l-.38,4A.35.35,0,0,1,326.49,378.54Zm.76-7.93h0a.35.35,0,0,1-.35-.35l.4-4a.34.34,0,0,1,.41-.3.35.35,0,0,1,.34.36l-.39,4A.36.36,0,0,1,327.25,370.61Zm.79-7.93h0a.35.35,0,0,1-.34-.36l.41-4a.38.38,0,0,1,.75.06l-.41,4A.36.36,0,0,1,328,362.68Zm.84-7.94h0a.33.33,0,0,1-.34-.35c.14-1.34.29-2.67.43-4a.36.36,0,0,1,.42-.29.35.35,0,0,1,.34.35c-.15,1.3-.29,2.63-.44,4A.35.35,0,0,1,328.88,354.74Zm.88-7.92h0a.33.33,0,0,1-.34-.35c.16-1.37.32-2.69.47-4a.4.4,0,0,1,.42-.29.35.35,0,0,1,.34.36c-.16,1.28-.31,2.6-.47,4A.37.37,0,0,1,329.76,346.82Zm1-7.93h0a.35.35,0,0,1-.34-.36q.28-2.11.54-4a.38.38,0,0,1,.43-.28.34.34,0,0,1,.33.36c-.18,1.22-.36,2.55-.54,4A.36.36,0,0,1,330.73,338.89Zm1.15-7.9h-.05a.33.33,0,0,1-.32-.37c.29-1.72.57-3.05.81-3.95a.38.38,0,0,1,.46-.24.32.32,0,0,1,.28.39c-.24.88-.51,2.19-.8,3.9A.37.37,0,0,1,331.88,331Zm4.26-5.8a.37.37,0,0,1-.38-.28.34.34,0,0,1,.33-.37c1.18-.13,2.7-.26,4.64-.41a.37.37,0,0,1,.41.3.34.34,0,0,1-.35.35c-1.92.15-3.43.28-4.61.41Zm9.25-.72a.35.35,0,0,1-.37-.31.33.33,0,0,1,.35-.34l4.63-.29a.35.35,0,0,1,.4.31.33.33,0,0,1-.35.34l-4.63.28Zm9.27-.55a.33.33,0,1,1,0-.65l4.63-.25c.25,0,.39.13.4.31a.35.35,0,0,1-.35.34l-4.64.25Zm9.27-.49a.36.36,0,0,1-.38-.3.34.34,0,0,1,.35-.35l4.64-.23a.38.38,0,0,1,.4.31.35.35,0,0,1-.36.34l-4.63.23Zm9.26-.46a.33.33,0,1,1,0-.65l4.63-.23a.37.37,0,0,1,.4.31.35.35,0,0,1-.36.34l-4.63.23Zm9.26-.46a.33.33,0,1,1,0-.65l4.63-.23a.36.36,0,0,1,.4.31.33.33,0,0,1-.35.34l-4.64.23Zm9.27-.47a.36.36,0,0,1-.38-.3.34.34,0,0,1,.35-.35l4.63-.24a.35.35,0,0,1,.41.3.36.36,0,0,1-.36.35l-4.63.24Zm9.26-.49a.37.37,0,0,1-.38-.31.35.35,0,0,1,.36-.34l4.63-.27a.33.33,0,1,1,.05.65l-4.63.27Zm9.27-.57a.35.35,0,0,1-.38-.3.34.34,0,0,1,.35-.34l4.62-.34a.35.35,0,0,1,.41.3.33.33,0,0,1-.34.35c-1.4.11-3,.22-4.63.33Zm9.25-.75a.36.36,0,0,1-.38-.28.33.33,0,0,1,.33-.36,13.6,13.6,0,0,0,3.26-.55c.31-.16.63-.33,1-.52a.4.4,0,0,1,.52.09.3.3,0,0,1-.1.45l-1,.54a12.8,12.8,0,0,1-3.56.63Zm8-3.63a.38.38,0,0,1-.27-.1.3.3,0,0,1,0-.46,21.21,21.21,0,0,0,3-3,.42.42,0,0,1,.53-.08.29.29,0,0,1,.09.45,21.48,21.48,0,0,1-3,3.06A.44.44,0,0,1,427.46,316.6Z"/><path class="cls-22" d="M432.45,310.46l-.13,0a.31.31,0,0,1-.22-.42,10.42,10.42,0,0,0,.64-1.82.4.4,0,0,1,.45-.25.33.33,0,0,1,.29.38,11,11,0,0,1-.67,1.92A.4.4,0,0,1,432.45,310.46Z"/><polygon class="cls-22" points="293.68 421.53 334.86 422.59 337.48 411.2 291.96 409.52 293.68 421.53"/><path class="cls-24" d="M312.15,418.93a55.11,55.11,0,0,1-11.08-5.6,36.54,36.54,0,0,1-4.71-3.65l-4.4-.16,1.71,12,31.86.82A64.55,64.55,0,0,1,312.15,418.93Z"/><path class="cls-26" d="M367,225.61s-26.72,25.94-30.64,27S291,259.76,291,259.76l-2.21,11.39s50.25,4.23,56,1.27,39.76-27.61,39.76-27.61Z"/><path class="cls-9" d="M348.45,238.92s22.16-29.92,31.87-32.09,28.18,4.23,17.83,20.84a147.89,147.89,0,0,1-23.55,28.47S354.7,254.05,348.45,238.92Z"/><path class="cls-27" d="M384,206.43a75.08,75.08,0,0,0-7,9.65c-2.62,4.13-4.93,8.41-7.18,12.7a131.21,131.21,0,0,0-6.14,13.33,77.22,77.22,0,0,0-3,9.55,42.39,42.39,0,0,0,14,4.48,147.89,147.89,0,0,0,23.55-28.47C407.29,213,394,206.31,384,206.43Z"/><path class="cls-1" d="M456.66,258.56c-2.75-34.83-4.61-43.5-9.35-48.59s-22.05-7.27-34.27-7.68-30.05,2.56-35.12,5.54-8.13,15.69-7.35,31.48c.68,13.68,4,28.21,3.9,34.54-.25,11.75-2.94,16.28-4.89,25,15.27,9.12,74.37,14,87.05,11.83C457.88,298.83,458,275.42,456.66,258.56Z"/><g class="cls-28"><path class="cls-9" d="M391.77,210.38a4.79,4.79,0,0,0,1.64,4.47,10.81,10.81,0,0,0,4.94,2.19c3.48.82,11.34-.06,14.87-3.46,5.89,12,12.69,24.77,26.42,31.21a39.22,39.22,0,0,0,12.16,3.78c4.3.48,8.83-.16,12.16-2.34a13.34,13.34,0,0,0,5.7-11.35c0-4.33-1.57-8.61-3.37-12.72-3.07-7-7-14-13.41-19.13-9.64-7.69-23.3-9.94-35.91-10.31-10.61-.31-21.19.49-30.9,3.44s-18.35,8-24.08,15.27a33.7,33.7,0,0,0-4.73,33.41,5.27,5.27,0,0,0,2.51-.13c6.78-3.66,10.22-10.7,14.45-16.81A72.64,72.64,0,0,1,391.77,210.38Z"/><path class="cls-19" d="M433.88,288.81c-1.78,4.74-3.8,9.64-8,13.11-7,5.82-18,6.14-26.1,10.75,2.1,5.07,9.08,7.05,15.19,8.25,12.06,2.35,24.92,4.16,36.59.64,3.94-1.19,7.78-3.08,10.05-6.09a18.23,18.23,0,0,0,3-8c2.57-14,1.83-28.29.9-42.44q-1.48-22.3-3.66-44.57c-.42-4.23-.94-8.65-3.69-12.17a14.55,14.55,0,0,0-7-4.74c-4.37-1.38-3.59,1.4-3.34,4.29a134.59,134.59,0,0,1,.24,20,183.9,183.9,0,0,1-7,39.11C439,274.29,436.59,281.59,433.88,288.81Z"/><path class="cls-19" d="M403.4,308.25c-6.43-2-12.62-3.83-18.63-6.57-2.82-1.29-5.71-2.79-7-5.07a51.05,51.05,0,0,1,10.11.27l16.31,1.54c-5.72-1.66-11.08-4.38-16.28-6.92-2.62-1.28-9.94-3.87-7.83-7.47.72-1.23,2.34-1.78,3.59-2.52a2.37,2.37,0,0,0,.88-3.74c-1.24-1.91-3.65-3.13-5.72-4.28a40.39,40.39,0,0,1-6.36-4.36,36.53,36.53,0,0,1-3.14-3c-.42,2.88.32,5.88.17,8.81s-1.22,5.8-2,8.69a43.74,43.74,0,0,0-.76,19.76,7,7,0,0,0,1.4,3.42,10.63,10.63,0,0,0,4.3,2.48c8.46,3.1,18,4,27.43,4.66C405.5,314.39,409.72,310.21,403.4,308.25Z"/></g><path class="cls-2" d="M306.48,255.62c1.57-3.34,4.76-6.24,8.49-8.44a14.94,14.94,0,0,1,3.71-1.65,20,20,0,0,1,8.44.14,79.8,79.8,0,0,1,9.35,2.81c2.85.93,5.71,1.87,8.55,2.83a11.23,11.23,0,0,0,2.16.74c5.82.64,42.08,4.66,48.6,4.84,6.67-6.06,16.79-22.25,16.79-22.25s18.06,1.89,23.48,10.83c.06-.24-21.93,26.75-25.2,28.23s-18.11-.63-36.05-4.62c-13.57-3-25.31-6.16-30.22-7.51a14.64,14.64,0,0,1-2.4.33c-9.5.57-8.06-4.06-8.51-4.33l.24-.27c-1.83.55-3.68,1.08-5.54,1.55-.76.18-1.76.3-2.08-.21s.11-.91.48-1.3a36.7,36.7,0,0,1,4-3.71l-9.2,5.25c-.6.35-1.44.71-2,.39s-.32-1,0-1.53a20.51,20.51,0,0,1,6.68-6.58l-6.2,4c-1.42.92-2.84,1.84-4.35,2.66s-3.06,1.42-4.5,1a.62.62,0,0,1-.43-.29.52.52,0,0,1,.12-.43c1.77-3,4.91-5.35,8-7.65l-8.21,5.4c-1.05.7-2.37,1.45-3.62,1.19a1.2,1.2,0,0,1-.67-.35C306.17,256.39,306.31,256,306.48,255.62Z"/><path class="cls-29" d="M406.83,256.24a20,20,0,0,1-4.52-6.78c5.27-6.85,10.26-14.82,10.26-14.82s18.06,1.89,23.48,10.83c0-.16-9.18,11.12-16.57,19.49C414.39,263.46,409.78,259.18,406.83,256.24Z"/><path class="cls-30" d="M333.52,256.05a62,62,0,0,1,6.3,1.46c2.05.42,4.21.58,6.3.9a134.79,134.79,0,0,1,16.3,4c10,2.82,20.25,5.23,30.72,7.16,6.35,1.17,13.07,2.73,19.8,2.37a10.67,10.67,0,0,1-2.09,1.71c-3.28,1.48-18.11-.63-36.05-4.62-13.57-3-25.31-6.16-30.22-7.51a14.64,14.64,0,0,1-2.4.33c-9.5.57-8.06-4.06-8.51-4.33l.24-.27c-1.83.55-3.68,1.08-5.54,1.55a3.93,3.93,0,0,1-1.51.12C329,257.84,331.25,257,333.52,256.05Z"/><path class="cls-9" d="M399.83,247.08c1.68-2,15.18-20.14,19.82-26.89,2.44-3.56,5.18-7.15,9.24-9.82,2.89-1.91,11-6.21,16.87-.37.31.31.61.63.89,1a11.12,11.12,0,0,1,.84,1.14c3.89,5.79,2.74,13.71.44,20.4a30.06,30.06,0,0,1-1.64,3.85,122.54,122.54,0,0,1-17.62,25.59C419.68,261.37,404.32,254.4,399.83,247.08Z"/><path class="cls-27" d="M446.85,232.94c-1.73,2-3.52,3.94-5.38,5.83-3.15,3.19-6.55,6.2-10,9.15s-6.85,5.72-10.47,8.38q-1.92,1.41-3.9,2.74a40.87,40.87,0,0,0,11.56,2.9,122.54,122.54,0,0,0,17.62-25.59,30.06,30.06,0,0,0,1.64-3.85c.15-.45.3-.9.44-1.36C447.87,231.74,447.37,232.35,446.85,232.94Z"/><path class="cls-2" d="M393.86,192.56,414.67,190,417,204.71a3.48,3.48,0,0,1-1,3,18.56,18.56,0,0,1-11.77,5.5c-6.39.65-7.19-1.87-7.1-3.44a16,16,0,0,0-.45-4.34Z"/><g class="cls-31"><path class="cls-29" d="M390.13,202.67c17.17.55,24.54-13.62,24.05-14.22s-2.26-.7-3.59-.51c-9.39,1.37-22.47,5-24,8S387.7,202.59,390.13,202.67Z"/></g><path d="M429.8,176.24a5.58,5.58,0,0,1-3.24-.77c-.78-.64-.95-1.68-1.41-2.46a5.81,5.81,0,0,0-8-2.13c-7.53,4.42-4,11.92-3.3,13.11a9,9,0,0,0,5.21,3.85c.72.19,2.07.42,2.27-.45.11-.52-.58-1-.67-1.48A13.68,13.68,0,0,0,425,187c1.86.05,5-.4,5.9-1.94s-.9-2.31-2.31-3c2.41.08,4.77-2.69,5.63-4.27C435.27,175.8,431.29,176.3,429.8,176.24Z"/><path d="M362.23,143.26a8.44,8.44,0,0,0-1.36,3.39,24.59,24.59,0,0,0-.2,9.09,8.48,8.48,0,0,0,1.39,3.79,11.89,11.89,0,0,0,5.16,3.44,5.94,5.94,0,0,0,4,.53,3.72,3.72,0,0,0,1.91-1.61c1.49-2.37,1.05-5.21.56-7.85a25.87,25.87,0,0,0-2.2-7.44,11.74,11.74,0,0,0-4.12-4.57C365.33,140.75,363.52,141.5,362.23,143.26Z"/><path class="cls-2" d="M394.78,198.17c-12.44,2.58-19.17,0-22.83-3.61-.28-.27-.52-.55-.77-.83-3.42-4-6.22-13-7-16.48-.06-.3-.12-.59-.2-.9a.31.31,0,0,0,0-.1,65.15,65.15,0,0,1-1.18-15.91c1-23.83,24.3-34.1,44.1-26.25a35.62,35.62,0,0,1,17.66,15.21c.29.51.57,1,.83,1.57C437.18,174.77,418.42,193.31,394.78,198.17Z"/><g class="cls-32"><path class="cls-12" d="M374.32,193.24a4.79,4.79,0,0,1-2.37,1.32c-.28-.27-.52-.55-.77-.83-3.42-4-6.22-13-7-16.48-.06-.3-.12-.59-.2-.9a8.48,8.48,0,0,1,4.24,1.93,17.64,17.64,0,0,1,6.89,11.47A4.25,4.25,0,0,1,374.32,193.24Z"/><path class="cls-12" d="M411.15,189.28c.29-.18.57-.38.83-.57,4.42-3.29,9.43-10,4.94-15.11-2.22-2.51-6.36-3.18-9.64-2.11a13.49,13.49,0,0,0-7.31,6.34,11.67,11.67,0,0,0-1.77,6.76,7.62,7.62,0,0,0,3.8,6C405,192.22,408.55,191,411.15,189.28Z"/></g><path d="M437.34,156.12a52.45,52.45,0,0,1-1.5,6c-.24.74-1.25,5.36-2,5.57a3,3,0,0,1-1,.13A3.33,3.33,0,0,1,431,167c-1-.86-2-2-3.73-1.76-2.44.27-4.27,5-6.76,5.09-3,.09-4.23-2.41-5.1-4.86a59,59,0,0,1,.7-9.29,3.86,3.86,0,0,0,.06-.49,4.42,4.42,0,0,0-.43-.57c-1.88-2.25-5-3.08-7.79-4.28a24.84,24.84,0,0,1-4.82-3.18,14.2,14.2,0,0,1-4.27-4.66,41.39,41.39,0,0,1-2.08-5.59,40.67,40.67,0,0,1-13.76,9.1,74.09,74.09,0,0,1-11.62,3.68c-3.08.65-7.85,1.33-10.49-.57-2.42-1.75-2.31-4.36-1.73-6.8.9-3.69,3.89-6.17,7.22-8.52a62.24,62.24,0,0,1,32.7-11.22,51.81,51.81,0,0,1,7.87.25,46.2,46.2,0,0,1,10,2.17c1.11.36,2.18.78,3.25,1.24.83.38,1.66.76,2.46,1.19a33.36,33.36,0,0,1,7.51,5.29,23.37,23.37,0,0,1,6.89,10.61c0,.05,0,.1,0,.16A27.53,27.53,0,0,1,437.34,156.12Z"/><path class="cls-8" d="M430.19,133.2c-2,.65-5.24-1.21-6.92-1.48-4.69-.72.37,5-.11,6.46s-2.92,1.65-4.55,1.49c-2.71-.23-4.08-1.8-6.37-2.68a2.8,2.8,0,0,0-3.88,1.62c-.35,1.11,1.28,4,.32,4.75-1.44,1.13-5.27-.7-6.3-1.5-1.92-1.47-3.4-4.29-2.33-6.45.28-.68,2.42-.88,3.29-1.3,1.79-.79,3.42-1.79,5.19-2.6,2.51-1.14,4.91-2.68,7.59-3.6,1.2-.41,2.62-.84,4.1-1.19.83.38,1.66.76,2.46,1.19A33.36,33.36,0,0,1,430.19,133.2Z"/><path class="cls-8" d="M417,125.48c-1.29.54-2.57,1.08-4,1.51a70.41,70.41,0,0,0-8.59,3.33,43.91,43.91,0,0,0-7,3.78c-1.24.9-2.74,3-3.79,3-2.49,3.13-7.68,3-11.28,1.6-2.11-.81-2.66-2.12-.26-3.18,2.62-1.16,5.85-1.12,8.57-2.18,2.14-.85,4.08-2.32,3.25-4.41-.52-1.29-2.27-3.25.37-3.74,2-.36,4.34,1.32,6.33,1.62s2.72,0,3.81-1.29a7.08,7.08,0,0,1,2.47-2.23A46.2,46.2,0,0,1,417,125.48Z"/><path d="M373.77,173.3c.32,1.7-.43,3.22-1.68,3.38s-2.53-1.1-2.85-2.8.43-3.22,1.68-3.38S373.44,171.59,373.77,173.3Z"/><path d="M399.73,170.4c.34,1.77-.56,3.35-2,3.54s-2.89-1.1-3.22-2.87.57-3.35,2-3.54A3.22,3.22,0,0,1,399.73,170.4Z"/><path class="cls-11" d="M380.29,184.17a27.42,27.42,0,0,0,8.34-1.79,28.94,28.94,0,0,0,6.9-4.1c.18-.14.5,0,.35.22-3.27,4-9.81,6.34-15.59,6.15C379.91,184.64,379.91,184.19,380.29,184.17Z"/><path class="cls-11" d="M380.48,180c-1.67-.33-3.37-1.41-3.33-2.95a2.11,2.11,0,0,1,1.09-1.78c.55-.3,1.23-.39,1.79-.68,1.44-.72.74-2,.34-3a17.59,17.59,0,0,0-2.06-4.66c-.15-.19-.59-.13-.56.13a10.24,10.24,0,0,0,.82,2.47c.36.87.71,1.75,1.05,2.62.17.44.63,1.15.32,1.59a2,2,0,0,1-.95.5,5,5,0,0,0-1.8.92,2.62,2.62,0,0,0-.47,3.2,4.82,4.82,0,0,0,3.71,2A.15.15,0,1,0,380.48,180Z"/><path d="M373.23,159.42c.45,1-1.2.85-3.67,1.45s-2.62,2.45-3.37,2.38-.64-3.33,2.55-4.45C371.18,158,372.93,158.79,373.23,159.42Z"/><path d="M388.64,157.11c-.23.87,2.82.51,6.2.31s5.81,1.88,6.19,1.12-2-3.2-6.13-3.28S388.79,156.54,388.64,157.11Z"/><path class="cls-2" d="M421.17,167c1.79-3.93,5.51-7.08,10.83-5.66a5.53,5.53,0,0,1,3.63,3.14,7.94,7.94,0,0,1,.31,4.45,13.56,13.56,0,0,1-6.83,9.49,6.65,6.65,0,0,1-4.91.86,6.22,6.22,0,0,1-3.91-4.51A11.93,11.93,0,0,1,421.17,167Z"/><path class="cls-30" d="M427.13,163.38c-1.31,1.12-2,2.67-3.26,3.77-.88.77-1.44,1.9-2.94.6l0-.05c.09-.23.18-.46.28-.69,1.67-3.68,5-6.68,9.84-5.88A11.61,11.61,0,0,0,427.13,163.38Z"/><path class="cls-11" d="M432.27,165.06a3.14,3.14,0,0,0-1.72-.39,4.71,4.71,0,0,0-3.33,1.83,12.52,12.52,0,0,0-1.73,3.24,8.3,8.3,0,0,0-.57,3.61c0,.24.51.24.52,0a11.13,11.13,0,0,1,2.12-5.77,5.5,5.5,0,0,1,.61-.78,4.94,4.94,0,0,1,1.18,2.84,7.75,7.75,0,0,1-.71,3.49c-.05.11.14.21.23.1a5,5,0,0,0-.32-6.82,3.66,3.66,0,0,1,1.49-.81,2.91,2.91,0,0,1,2.76.72c.1.13.39,0,.34-.13A2,2,0,0,0,432.27,165.06Z"/><polygon points="7.19 499.79 0 499.79 24.3 289.52 44.3 289.52 7.19 499.79"/><polygon points="409.64 499.79 416.83 499.79 392.53 289.52 372.52 289.52 409.64 499.79"/><rect class="cls-8" x="12.93" y="271.26" width="390.96" height="22.99"/><rect class="cls-17" x="12.93" y="271.25" width="390.96" height="9"/><rect class="cls-8" x="4.42" y="264.63" width="407.98" height="11.37"/><path class="cls-33" d="M138,190h106.4a5,5,0,0,1,4.69,2.79l28.6,65.53H163l-28.14-64.49C134.07,192,135.66,190,138,190Z"/><rect class="cls-33" x="159.13" y="258.3" width="169.31" height="6.82" transform="translate(487.58 523.42) rotate(180)"/><path class="cls-9" d="M308.28,264.2c4.31-.73,12.63-2.54,17.36-5.9h2.81v6.82H302.1C304.19,264.85,306.26,264.54,308.28,264.2Z"/><rect class="cls-9" x="159.13" y="258.3" width="114.64" height="6.82" transform="translate(432.9 523.42) rotate(180)"/><g class="cls-34"><rect class="cls-35" x="228.57" y="260.39" width="32.97" height="2.93"/><rect class="cls-35" x="162.85" y="260.39" width="7.62" height="2.93"/><rect class="cls-35" x="172.97" y="260.39" width="7.62" height="2.93"/></g><path class="cls-9" d="M134.08,190H240.49a5,5,0,0,1,4.69,2.79l28.59,65.53H159.13L131,193.81C130.18,192,131.78,190,134.08,190Z"/><path class="cls-36" d="M134.08,190h89.65c-43.59,1-66.89,2.08-75.86,3.22s-15,2.83-13.43,8.51l-3.45-7.9C130.18,192,131.78,190,134.08,190Z"/><path class="cls-37" d="M158.56,252.87c23.47,5.47,53.52,4.11,72.27-10.65A39,39,0,0,0,245.43,211c-.11-6.44-1.5-14.41-5-21h.05a5,5,0,0,1,4.69,2.79l28.59,65.53H159.13l-2.59-5.93Z"/><g class="cls-34"><path class="cls-38" d="M264.68,261.71a2.22,2.22,0,1,0,2.19-1.88A2.05,2.05,0,0,0,264.68,261.71Z"/><path class="cls-35" d="M265.4,261.71a1.48,1.48,0,1,0,1.47-1.25A1.38,1.38,0,0,0,265.4,261.71Z"/></g><g id="Layer_1-2-2" data-name="Layer 1-2"><path class="cls-1" d="M196.85,234.07l7.93-.34-.47-3.32-7.74.34a3.29,3.29,0,0,1-3.67-2.94l-.27-6c0-1.63,1.59-3,3.51-3l3.65-.16c.39,0,.57-.43.28-.65L198,215.71a1.26,1.26,0,0,0-.93-.35l-1.14,0c-4.09.18-7.3,3.1-7.22,6.55l.26,6C189.06,231.53,192.67,234.25,196.85,234.07Z"/><path class="cls-1" d="M208.26,230.52l-.17-4.11a3.34,3.34,0,0,0-3.7-2.86h0a.36.36,0,0,0-.37.33l.43,9.86C206.69,233.74,208.35,232.45,208.26,230.52Z"/><path class="cls-1" d="M204.33,223.49l-6.76.29a.36.36,0,0,0-.37.33l.12,2.7a.35.35,0,0,0,.39.3l10.37-.45C208.12,224.77,206.62,223.39,204.33,223.49Z"/><ellipse class="cls-1" cx="203.57" cy="216.81" rx="2.04" ry="1.73" transform="matrix(1, -0.04, 0.04, 1, -9.21, 9.03)"/></g></g></g></g></svg>