<svg xmlns="http://www.w3.org/2000/svg" xmlns:xlink="http://www.w3.org/1999/xlink" viewBox="0 0 529.48 500"><defs><style>.cls-1{fill:#ffce68;}.cls-2{fill:#47648f;}.cls-3{fill:#798ec9;}.cls-4{fill:#ffd555;}.cls-5{fill:#dd7e62;}.cls-6{fill:#ffeaaa;}.cls-7{fill:#ffd1bb;}.cls-8{isolation:isolate;}.cls-11,.cls-9{fill:#1d262d;}.cls-9{opacity:0.1;}.cls-11,.cls-15,.cls-22,.cls-25,.cls-9{mix-blend-mode:multiply;}.cls-10{fill:#215b74;}.cls-11,.cls-15,.cls-22{opacity:0.2;}.cls-12,.cls-24{fill:#fff;}.cls-13{fill:#dc894e;}.cls-14{clip-path:url(#clip-path);}.cls-15{fill:#cc2a3a;}.cls-16{fill:#abd5e6;}.cls-17{fill:#23809b;}.cls-18{clip-path:url(#clip-path-2);}.cls-19{clip-path:url(#clip-path-3);}.cls-20{clip-path:url(#clip-path-4);}.cls-21{clip-path:url(#clip-path-5);}.cls-22,.cls-25{fill:#d15579;}.cls-23{clip-path:url(#clip-path-6);}.cls-24{opacity:0.43;}.cls-25{opacity:0.5;}.cls-26{clip-path:url(#clip-path-7);}.cls-27{fill:#ffaa4d;}.cls-28{fill:#27305c;}.cls-29{clip-path:url(#clip-path-8);}.cls-30{fill:#ffa690;}.cls-31{fill:#0a303e;}</style><clipPath id="clip-path"><rect class="cls-1" x="302.1" y="13.15" width="92.52" height="39.93"/></clipPath><clipPath id="clip-path-2"><path class="cls-2" d="M76.17,457.36l-2.2,14s-13.91,3.88-14.75,8,29.2,1.29,29.2,1.29l3.19-23.26"/></clipPath><clipPath id="clip-path-3"><path class="cls-2" d="M151.69,457.36l-.35,14s13.91,3.88,14.75,8-29.2,1.29-29.2,1.29l-.64-23.26"/></clipPath><clipPath id="clip-path-4"><path class="cls-3" d="M95.22,293.55S80.89,397.69,74,460c14.88,2.1,18,.82,18,.82L119.62,333.5h12.13c.9,1.23,3.63,127.32,3.63,127.32s12.49,2.37,17.41-.9c0,0,5.61-97,7.12-149.66Z"/></clipPath><clipPath id="clip-path-5"><path class="cls-4" d="M134.8,186.21s-15.7,1.15-20.06,6.56-13.66,42.15-19.52,100.78c23.39,31.66,64.69,16.71,64.69,16.71s2.11-106.83-.11-112.2C155.56,187.79,134.8,186.21,134.8,186.21Z"/></clipPath><clipPath id="clip-path-6"><path class="cls-5" d="M32.74,299.57,29.8,286.41c-1.26-5.66,1.29-11.56,5.69-13.18L182.77,219l7.51,33.65L43,306.87C38.6,308.5,34,305.22,32.74,299.57Z"/></clipPath><clipPath id="clip-path-7"><polygon class="cls-6" points="182.76 219.03 208.1 227.92 190.28 252.68 182.76 219.03"/></clipPath><clipPath id="clip-path-8"><polyline class="cls-7" points="123.13 161.33 126.22 191.66 138.37 204.95 148.5 191.66 148.5 172.11"/></clipPath></defs><title>Asset 3</title><g class="cls-8"><g id="Layer_2" data-name="Layer 2"><g id="Layer_1-2" data-name="Layer 1"><ellipse class="cls-9" cx="280.97" cy="481.98" rx="248.51" ry="18.02"/><rect class="cls-10" x="213.92" y="18.45" width="268.9" height="460.5"/><rect class="cls-11" x="230.37" y="49.49" width="235.98" height="412.52"/><rect class="cls-12" x="230.37" y="42.44" width="235.98" height="412.52"/><polygon class="cls-13" points="212.74 47.11 212.74 16.94 236.24 16.94 212.74 47.11"/><polygon class="cls-13" points="483.99 47.11 483.99 16.94 460.48 16.94 483.99 47.11"/><polygon class="cls-13" points="212.74 451.47 212.74 481.64 236.24 481.64 212.74 451.47"/><polygon class="cls-13" points="483.99 451.47 483.99 481.64 460.48 481.64 483.99 451.47"/><path class="cls-1" d="M348.36,29.8h0c-9.27,0-16.8,5.5-16.8-6.41V21.57C331.56,9.66,339.09,0,348.36,0h0c9.28,0,16.8,9.66,16.8,21.57v1.82C365.16,35.3,357.64,29.8,348.36,29.8Z"/><rect class="cls-11" x="304.49" y="47.11" width="87.75" height="10.13"/><rect class="cls-1" x="302.1" y="13.15" width="92.52" height="39.93"/><g class="cls-14"><rect class="cls-15" x="292.86" y="35.08" width="113.47" height="22.89"/></g><rect class="cls-16" x="253.98" y="118.87" width="32.28" height="41.44"/><path class="cls-16" d="M289.68,164.71H250.56V114.49h39.12Zm-37.94-1.52H288.5V116H251.74Z"/><rect class="cls-16" x="253.98" y="182.37" width="32.28" height="41.44"/><path class="cls-16" d="M289.68,228.2H250.56V178h39.12Zm-37.94-1.51H288.5V179.5H251.74Z"/><rect class="cls-16" x="253.98" y="245.87" width="32.28" height="41.44"/><path class="cls-16" d="M289.68,291.7H250.56V241.48h39.12Zm-37.94-1.51H288.5V243H251.74Z"/><path class="cls-17" d="M267.24,154.11l-18.63-23.67a5.12,5.12,0,0,1,0-6,2.81,2.81,0,0,1,4.65,0L267,141.92l21.83-31a2.81,2.81,0,0,1,4.64-.3,5.09,5.09,0,0,1,.23,6Z"/><path class="cls-17" d="M267.24,218.08l-18.63-23.67a5.11,5.11,0,0,1,0-6,2.8,2.8,0,0,1,4.65,0L267,205.89l21.83-30.95a2.8,2.8,0,0,1,4.64-.3,5.09,5.09,0,0,1,.23,6Z"/><path class="cls-17" d="M267.24,280.54l-18.63-23.67a5.11,5.11,0,0,1,0-6,2.8,2.8,0,0,1,4.65,0L267,268.35l21.83-31a2.81,2.81,0,0,1,4.64-.29,5.07,5.07,0,0,1,.23,6Z"/><rect class="cls-16" x="253.98" y="309.37" width="32.28" height="41.44"/><path class="cls-16" d="M289.68,355.2H250.56V305h39.12Zm-37.94-1.52H288.5V306.49H251.74Z"/><rect class="cls-16" x="253.98" y="372.86" width="32.28" height="41.44"/><path class="cls-16" d="M289.68,418.7H250.56V368.48h39.12Zm-37.94-1.52H288.5V370H251.74Z"/><rect class="cls-17" x="301.37" y="125.08" width="142.87" height="5"/><rect class="cls-17" x="301.37" y="137.1" width="142.87" height="5"/><rect class="cls-17" x="301.37" y="149.11" width="44.17" height="5"/><rect class="cls-17" x="301.37" y="187.78" width="142.87" height="5"/><rect class="cls-17" x="301.37" y="199.79" width="142.87" height="5"/><rect class="cls-17" x="301.37" y="211.81" width="93.36" height="5"/><rect class="cls-17" x="301.37" y="250.48" width="142.87" height="5"/><rect class="cls-17" x="301.37" y="262.49" width="122.2" height="5"/><rect class="cls-17" x="301.37" y="274.5" width="44.17" height="5"/><rect class="cls-17" x="301.37" y="313.18" width="142.87" height="5"/><rect class="cls-17" x="301.37" y="325.19" width="72" height="5"/><rect class="cls-17" x="301.37" y="375.88" width="142.87" height="5"/><rect class="cls-17" x="301.37" y="387.89" width="142.87" height="5"/><rect class="cls-17" x="301.37" y="399.9" width="104.17" height="5"/><rect class="cls-17" x="280.64" y="74.07" width="135.83" height="12.36"/><path class="cls-12" d="M352.23,9.62c0,2.74-1.73,5-3.87,5s-3.86-2.22-3.86-5,1.73-5,3.86-5S352.23,6.88,352.23,9.62Z"/><path class="cls-2" d="M76.17,457.36l-2.2,14s-13.91,3.88-14.75,8,29.2,1.29,29.2,1.29l3.19-23.26"/><g class="cls-18"><path class="cls-9" d="M71.52,451.12A5,5,0,0,0,70.34,455a8.72,8.72,0,0,0,1.41,3.89,14.58,14.58,0,0,0,7,5.53,22.73,22.73,0,0,0,7.82,1.66c3.3.1,6.78-.65,9.34-3.32s3.85-7.64,2.22-11.32A10.55,10.55,0,0,0,94.09,447a24.91,24.91,0,0,0-9.24-3.81"/></g><path class="cls-2" d="M151.69,457.36l-.35,14s13.91,3.88,14.75,8-29.2,1.29-29.2,1.29l-.64-23.26"/><g class="cls-19"><path class="cls-9" d="M136.86,449.93a16.9,16.9,0,0,0-5.14,6.51,12,12,0,0,0-1.23,4.71,6.05,6.05,0,0,0,1.5,4.43,4.37,4.37,0,0,0,2.24,1.07,29.88,29.88,0,0,0,6.71.65c4.49-.57,7.29-2.07,10.85-5.63,4.19-4.21,5.79-12.19,3.69-18.47"/></g><path class="cls-7" d="M213.43,133s-10.32-4.13-10.11-8,7.18-.71,7.18-.71-3.87-18.3-2.21-19.78,4.18,10,4.18,10,.48-11.16,2.73-11,1.81,9.15,1.81,9.15,2.51-7.11,4.7-5.94-1.41,8.93-1.41,8.93,5.57-4,6.44-2.1-3.5,8.4-3.5,8.4,5.41,6.54-1.11,19.09c-1.78-1-6.85-4-9.5-3.27Z"/><path class="cls-4" d="M146.45,188.51s46.72,5.3,64.58-52.85c12.76-2.46,12.76,9.1,12.76,9.1s-17.67,85.15-72.47,74"/><path class="cls-3" d="M95.22,293.55S80.89,397.69,74,460c14.88,2.1,18,.82,18,.82L119.62,333.5h12.13c.9,1.23,3.63,127.32,3.63,127.32s12.49,2.37,17.41-.9c0,0,5.61-97,7.12-149.66Z"/><g class="cls-20"><path class="cls-9" d="M66.52,294.61c20.22,19.92,46.28,29.83,71.69,27.25s49.94-17.61,67.47-41.36c-43.55-4.07-88.51-7.33-129.77,11"/></g><path class="cls-4" d="M134.8,186.21s-15.7,1.15-20.06,6.56-13.66,42.15-19.52,100.78c23.39,31.66,64.69,16.71,64.69,16.71s2.11-106.83-.11-112.2C155.56,187.79,134.8,186.21,134.8,186.21Z"/><g class="cls-21"><path class="cls-22" d="M114.26,294.71c24.27,2.51,44.64-13.3,53.4-22,1.72-1.71,4.15-1.94,5.81-3.75a9.19,9.19,0,0,0,2.37-7.38c-.69-4.31-4.64-6.13-8-7-16-3.93-32.59-2.43-48.46,2.06-7.07,2-39.28,8.57-28.33,25.14C95.75,288.93,107.2,294,114.26,294.71Z"/></g><path class="cls-5" d="M32.74,299.57,29.8,286.41c-1.26-5.66,1.29-11.56,5.69-13.18L182.77,219l7.51,33.65L43,306.87C38.6,308.5,34,305.22,32.74,299.57Z"/><g class="cls-23"><polygon class="cls-24" points="173.66 276.89 157.84 206.07 162.72 204.28 178.54 275.09 173.66 276.89"/><polygon class="cls-24" points="54.46 320.75 38.65 249.93 43.53 248.14 59.34 318.95 54.46 320.75"/><polygon class="cls-10" points="15.81 337 0 266.18 39.41 251.68 55.23 322.49 15.81 337"/><polygon class="cls-25" points="22.01 304 29.6 337.98 213.41 270.34 205.82 236.36 22.01 304"/><polygon class="cls-22" points="10.98 254.65 18.57 288.63 202.38 220.99 194.79 187 10.98 254.65"/></g><polygon class="cls-6" points="182.76 219.03 208.1 227.92 190.28 252.68 182.76 219.03"/><g class="cls-26"><ellipse class="cls-17" cx="215.22" cy="225.79" rx="16.42" ry="21.08"/></g><path class="cls-7" d="M111.62,271.22s7.76-.51,11.23,1.38,5.17,3,5.17,3l6.93-2.55s-1.67,11.72-10,12.58a34,34,0,0,1-15.38-2.22Z"/><path class="cls-4" d="M125.82,187.79s-49,3.87-53.13,59.4c-2.84,38.19,38.64,40.12,38.64,40.12l1.94-16.93s-17.41-9.26-17.41-22.93,18.88-23.79,18.88-23.79Z"/><path class="cls-27" d="M135.37,185.29c-8.67,0-17,3.91-17,3.91l20.24,22.06,16.3-22.91S149.3,185.29,135.37,185.29Z"/><path class="cls-28" d="M124.24,169.71s-7.33.71-9.88-2.26c-5.15-6-8.81-40.46-9-47.7s6.52-17.47,14.31-17.53c1.11-10.65,5.74-7.36,5.74-7.36s-2.18-4.48.56-7.69c1.56,3.81,2.44,6.75,2.44,6.75s4.33-4.56,14.13-2.23,15.85-3.71,18.17,2.37,6.12,24.71-.22,28.25S121.32,148.1,124.24,169.71Z"/><polyline class="cls-7" points="123.13 161.33 126.22 191.66 138.37 204.95 148.5 191.66 148.5 172.11"/><g class="cls-29"><path class="cls-22" d="M133.91,146.44c-2.93.07-5.55,2.75-6.9,6.08a27.13,27.13,0,0,0-1.51,11,30.59,30.59,0,0,0,1.38,8.89,20.56,20.56,0,0,0,5.63,8.49c3.18,2.91,7.1,4.74,11,4.25a11.51,11.51,0,0,0,9.13-8.23c1.62-5.19.15-11.21-2.23-15.89-2.75-5.4-6.91-9.88-11.83-11.16-2.1-.55-4.52-.39-6.08,1.52"/></g><path class="cls-7" d="M127.64,108.36c-8.14,4.47-15.9,43.09-5.75,59.74s34.45,13.49,42.9.8C171.67,158.57,161.57,89.73,127.64,108.36Z"/><path class="cls-30" d="M151.75,131.6c-1.43.88,1.13,19,1.13,19,1.93.32,7.93-3.8,7.93-5.41C160.81,145.15,154.47,129.93,151.75,131.6Z"/><path class="cls-28" d="M111.84,147.9a8.29,8.29,0,0,1,4.31-6.64c2.15-1.23,5.53,5.85,7.89,5.69,3.84-.26,7-2.68,7.41-4.69.3-1.42.05-18.13,1.68-20.52,2.77-4.08,7.56-4.3,11.78-4.26s9-.31,11.68-4.5a7.66,7.66,0,0,0,1.2-3.36,9.36,9.36,0,0,0-1.35-5.47c-3.09-5.43-8.85-7.26-14.08-6.88-8.5.6-16.63,6.13-22.15,14.45s-8.44,19.29-8.51,30.22"/><path class="cls-7" d="M125.43,149.84s1-20.2-7.06-17.28-6.17,23.24,3,22.85"/><path class="cls-28" d="M138.45,131c-.37,1,.67,3.74,1.81,3.52s6.68-1.14,7.24-2.81-.41-3.74-1.18-4.08S138.9,129.77,138.45,131Z"/><path class="cls-28" d="M155.8,125.6c-.4,1,.3,3.81,1.32,3.75s6-.18,6.64-1.76-.06-3.77-.71-4.22S156.3,124.4,155.8,125.6Z"/><path class="cls-31" d="M145.65,143a1.51,1.51,0,0,0,1.31,0,2.13,2.13,0,0,0,1.5-1.82,6.82,6.82,0,0,0-.47-3.12,6.26,6.26,0,0,0-.67-1.45c-.77-1.17-1.89-1.12-2.46,0C144.13,138,144.21,142.14,145.65,143Z"/><path class="cls-31" d="M159.34,138.72a1.51,1.51,0,0,0,1.31,0,2.13,2.13,0,0,0,1.5-1.82,7,7,0,0,0-.46-3.12,6.71,6.71,0,0,0-.68-1.45c-.77-1.17-1.89-1.12-2.46,0C157.82,133.72,157.9,137.89,159.34,138.72Z"/><path class="cls-30" d="M123.12,141.33a6.4,6.4,0,0,0-2.52-5,2.64,2.64,0,0,0-3.24.08,3.25,3.25,0,0,0-.59,3.81c.36.58.94.95,1.11,1.65a3.71,3.71,0,0,1-.36,2c-.47,1.35-.62,3.1.18,4.17a1.71,1.71,0,0,0,1.92.67C121.68,148.05,123.26,143.83,123.12,141.33Z"/><path class="cls-7" d="M118.82,272.81s6.49-3.83,8.13-4.1,2.5,1.62,2.08,2.72-5,4.65-5,4.65"/></g></g></g></svg>