<svg xmlns="http://www.w3.org/2000/svg" xmlns:xlink="http://www.w3.org/1999/xlink" viewBox="0 0 500 500"><defs><style>.cls-1{fill:none;}.cls-2{fill:#ffa07a;}.cls-3{fill:#e88861;}.cls-4{fill:#000644;}.cls-5{fill:#fff;}.cls-6{fill:#aee1f4;}.cls-7{clip-path:url(#clip-path);}.cls-8{fill:#f5e34c;}.cls-9{fill:#e5c83c;}.cls-10{fill:#ff4747;}.cls-11{fill:#f08459;}.cls-12{fill:#b9e4f4;}</style><clipPath id="clip-path"><path class="cls-1" d="M257.71,26.05H239.64V29.2c0,5.85-5.15,10.59-11.53,10.6l-92.28.08c-6.38,0-11.55-4.73-11.56-10.58V26.12l-22.22,0c-9.47,0-17.14,7-17.14,15.73l.18,314.72c0,8.69,7.69,15.73,17.16,15.72l155.66-.08c9.48,0,17.15-7.05,17.14-15.74l-.18-314.72C274.87,33.08,267.18,26.05,257.71,26.05Z"/></clipPath></defs><title>Asset 2</title><g id="Layer_2" data-name="Layer 2"><g id="Layer_1-2" data-name="Layer 1"><path class="cls-2" d="M80.87,157.41s-11.52-3.7-28.09-10c-4.84-1.83-10.12-3.89-15.66-6.13C12.61,131.38-7.29,124,2.59,101c6.21-14.46,23-12.72,37.36-8a139.67,139.67,0,0,1,20.32,8.82Z"/><path class="cls-3" d="M52.78,147.44c.45-27.36-8.7-47-12.83-54.38a167.75,167.75,0,0,1,22.27,9.62l18.65,54.73S69.35,153.71,52.78,147.44Z"/><path class="cls-2" d="M500,464.89V500H333.64l-23.71-72c-14.24-6.87-27.45-8.78-46.44-22.45-19.48-14-42.24-20.13-43.18-22.43C198,329,262,279.67,273.82,256.8c.41-.79.79-1.59,1.16-2.39,10.14-22.43,9.33-57.91,7.29-75.17-.72-6.12-1.55-16.87-.83-22.06,5-36.13,38.78-61.31,59.41-43.89,11.12,9.39-14.66,46.91,5.18,83.49,21.08,38.84,41.88,80.63,48.6,139.57C410.19,353.79,461.89,418.23,500,464.89Z"/><path class="cls-3" d="M338.22,164.42c-22.94,3.92-17.2-28.21-15.24-40.63.23,6.16.29,12.26.6,18.39C323.75,151.58,325.45,163.73,338.22,164.42Z"/><path class="cls-3" d="M270.26,410.11s59.29-33,50.63-63.7c-28.49-24.92-17.2-69-16.43-90.08s-8.13-97.43-8.13-97.43L248.44,395.72Z"/><path class="cls-4" d="M256.8,397.85l-153.33.08c-22.67,0-41.06-16.83-41.07-37.62L62.18,37.75C62.16,17,80.53.1,103.2.08L256.52,0c22.67,0,41.06,16.83,41.08,37.62l.22,322.56C297.83,381,279.47,397.83,256.8,397.85Z"/><path class="cls-5" d="M256.53,386.83l-152.8.09c-15.56,0-28.18-11.56-28.19-25.83L75.32,39.34c0-14.27,12.59-25.85,28.15-25.86l152.8-.08c15.56,0,28.18,11.55,28.19,25.82L284.68,361C284.69,375.25,272.09,386.82,256.53,386.83Z"/><path class="cls-6" d="M275.05,356.49c0,8.68-7.66,15.73-17.13,15.74l-155.67.08c-9.47,0-17.15-7-17.16-15.72l0-36.06L84.91,41.87c0-8.68,7.67-15.73,17.14-15.73l22.22,0v3.19c0,5.84,5.18,10.58,11.56,10.57l92.28-.08c6.38,0,11.54-4.76,11.53-10.6V26.06h18.07c9.47,0,17.16,7,17.16,15.72L275,320.53Z"/><path class="cls-6" d="M219.65,33.67H140.31a3.91,3.91,0,0,1-4.07-3.74h0a3.91,3.91,0,0,1,4.07-3.73h79.34a3.91,3.91,0,0,1,4.07,3.73h0A3.91,3.91,0,0,1,219.65,33.67Z"/><g class="cls-7"><path class="cls-4" d="M71.06,141c4.32-9,8.49-12,10.51-15.81,3-5.74,6.91-15.81,10.6-21.21,7.5-11,21.45-3.87,27.9-8.09,11.18-7.32,1.65-11.38,19.85-18.76,13.21-5.35,18.08,4.67,23.57,4s12.87-11.34,26.69-9.22c9.31,1.42,11.52,9.91,17.32,13.81s14.63-4.5,24.25,1c14.85,8.52,6.94,16.29,12,18.73,7,3.4,11.52-3.71,20.35,6.28,10.12,11.45,1.59,15.29,10.83,24.9,11.05,11.49.54,19.14.12,26.81-.58,10.7,11.54,11.14,4.89,34.65C278.27,204,263.4,205.2,259.27,210c-5.17,6,5.72,20-5.21,27.75-11.57,8.19-22.65,1.2-27.39,9.18-10.55,17.74-18.58,7.44-39.19,14.9-22.28,8.06-13.9-9.65-39.42-5.53-12.64.59-19.14-7.66-20.3-19-6.44-7.36-17.64-2-26.68-6.17C93,228,84,215.94,84.91,208c2.35-9.25-3.42-4.58-8.84-16.58s7.46-17,6.49-19.54C79.75,164.41,67.28,148.88,71.06,141Z"/><path class="cls-8" d="M194.64,263.56s57.76,4.07,77.41,49.77c10.41,24.21,8.94,58.76,6.51,78.78S243,426.18,243,426.18H125.68s-39.93-33.53-44.42-49.49-6.33-44.27,8.63-69.17c22-36.58,63.32-42.38,74.56-43.34A242.19,242.19,0,0,1,194.64,263.56Z"/><rect class="cls-2" x="164.45" y="237.7" width="32.94" height="42.2"/><path class="cls-2" d="M181.6,244.71h0c-26.77.39-48.86-21.59-49.34-49.09l-.58-33.54c-.48-27.5,20.84-50.11,47.6-50.5h0c26.77-.39,48.86,21.59,49.34,49.09l.58,33.53C229.68,221.71,208.37,244.32,181.6,244.71Z"/><path class="cls-5" d="M169,214.23c-1.35,0-2.36.94-2.06,2,1.25,4.4,6.93,7.84,13.87,8s12.84-2.92,14.38-7.25c.37-1-.57-2.06-1.93-2.09Z"/><path class="cls-2" d="M138.12,179.77c3.11,9,0,18-6.93,20S116.12,196.07,113,187s0-18,6.93-20S135,170.75,138.12,179.77Z"/><path class="cls-2" d="M220.85,179.77c-3.11,9,0,18,6.93,20S242.85,196.07,246,187s0-18-6.93-20S224,170.75,220.85,179.77Z"/><path class="cls-4" d="M163.47,178.94a5.32,5.32,0,0,1-5.15,5.59,5.52,5.52,0,0,1-6.1-4.72,5.33,5.33,0,0,1,5.16-5.59A5.51,5.51,0,0,1,163.47,178.94Z"/><polygon class="cls-4" points="157.38 174.22 149.61 175.23 152.21 179.08 157.38 174.22"/><path class="cls-4" d="M213.28,178.94a5.32,5.32,0,0,1-5.15,5.59,5.52,5.52,0,0,1-6.1-4.72,5.33,5.33,0,0,1,5.16-5.59A5.51,5.51,0,0,1,213.28,178.94Z"/><polygon class="cls-4" points="208.09 174.22 214.87 174.2 213.28 178.94 208.09 174.22"/><path class="cls-4" d="M131.49,170.05s23.73-9.22,32-29.35c14.86,13.76,64.95,28.62,64.95,28.62s8.42-60.64-48.44-58.77C127.05,112.29,118.14,153.44,131.49,170.05Z"/><ellipse class="cls-2" cx="180.44" cy="275.21" rx="27.06" ry="13.69"/><path class="cls-9" d="M129,297.25a6.36,6.36,0,0,1-8.45,0,5.16,5.16,0,0,1,0-7.75,6.36,6.36,0,0,1,8.45,0A5.17,5.17,0,0,1,129,297.25Z"/><path class="cls-9" d="M161.21,308.76a5.36,5.36,0,1,1-5.34-4.89A5.14,5.14,0,0,1,161.21,308.76Z"/><path class="cls-9" d="M224.12,337.22a5.36,5.36,0,1,1-5.34-4.9A5.13,5.13,0,0,1,224.12,337.22Z"/><path class="cls-9" d="M202.73,352.67a5.36,5.36,0,1,1-5.34-4.9A5.13,5.13,0,0,1,202.73,352.67Z"/><path class="cls-9" d="M232.39,368.42a5.36,5.36,0,1,1-5.33-4.89A5.13,5.13,0,0,1,232.39,368.42Z"/><path class="cls-9" d="M138.31,375.05a5.35,5.35,0,1,1-5.33-4.9A5.13,5.13,0,0,1,138.31,375.05Z"/><path class="cls-9" d="M124.1,325.86a5.78,5.78,0,0,1-7.67,0,4.71,4.71,0,0,1,0-7,5.78,5.78,0,0,1,7.67,0A4.69,4.69,0,0,1,124.1,325.86Z"/><path class="cls-9" d="M98.25,337.83a5.62,5.62,0,0,1-7.48,0,4.57,4.57,0,0,1,0-6.86,5.64,5.64,0,0,1,7.48,0A4.57,4.57,0,0,1,98.25,337.83Z"/><path class="cls-9" d="M105.73,367a5.62,5.62,0,0,1-7.48,0,4.58,4.58,0,0,1,0-6.86,5.62,5.62,0,0,1,7.48,0A4.57,4.57,0,0,1,105.73,367Z"/><path class="cls-9" d="M149.64,353.5a5.64,5.64,0,0,1-7.48,0,4.57,4.57,0,0,1,0-6.86,5.62,5.62,0,0,1,7.48,0A4.57,4.57,0,0,1,149.64,353.5Z"/><path class="cls-9" d="M175.44,339a5.64,5.64,0,0,1-7.48,0,4.57,4.57,0,0,1,0-6.86,5.62,5.62,0,0,1,7.48,0A4.57,4.57,0,0,1,175.44,339Z"/><path class="cls-9" d="M175.67,370.52a5.64,5.64,0,0,1-7.48,0,4.58,4.58,0,0,1,0-6.86,5.62,5.62,0,0,1,7.48,0A4.57,4.57,0,0,1,175.67,370.52Z"/><path class="cls-9" d="M196.83,317.09a5.64,5.64,0,0,1-7.48,0,4.58,4.58,0,0,1,0-6.87,5.64,5.64,0,0,1,7.48,0A4.59,4.59,0,0,1,196.83,317.09Z"/><path class="cls-9" d="M209.1,297.09a5.62,5.62,0,0,1-7.48,0,4.57,4.57,0,0,1,0-6.86,5.64,5.64,0,0,1,7.48,0A4.58,4.58,0,0,1,209.1,297.09Z"/><path class="cls-9" d="M236.13,290.19a5.64,5.64,0,0,1-7.48,0,4.58,4.58,0,0,1,0-6.86,5.62,5.62,0,0,1,7.48,0A4.57,4.57,0,0,1,236.13,290.19Z"/><path class="cls-9" d="M237.92,315.23a5.62,5.62,0,0,1-7.48,0,4.57,4.57,0,0,1,0-6.86,5.64,5.64,0,0,1,7.48,0A4.58,4.58,0,0,1,237.92,315.23Z"/><ellipse class="cls-9" cx="263.54" cy="320.06" rx="5.29" ry="4.85"/><path class="cls-9" d="M254.29,346.19a5.64,5.64,0,0,1-7.48,0,4.57,4.57,0,0,1,0-6.86,5.62,5.62,0,0,1,7.48,0A4.58,4.58,0,0,1,254.29,346.19Z"/><path class="cls-9" d="M269.46,367a5.62,5.62,0,0,1-7.48,0,4.57,4.57,0,0,1,0-6.86,5.62,5.62,0,0,1,7.48,0A4.58,4.58,0,0,1,269.46,367Z"/><path class="cls-10" d="M131.49,170.05c-6.47-20.62,2.25-45.27,25.19-53.47,18-6.82,40.52-6.52,56.13,5.09,15.06,11,21.7,30.88,15.63,47.65,2-31.69-24.26-55-58.9-48.24C142.13,124.94,130.76,146.44,131.49,170.05Z"/><path class="cls-11" d="M176.14,185.61a45.22,45.22,0,0,1-1.51,14.81c3.9,1.61,8.43,1.72,12.71,1.54-4.94,2.44-11.45,2.76-16.17-.33C172.8,196.29,173.89,190.79,176.14,185.61Z"/><path class="cls-4" d="M216.62,171.55a1.71,1.71,0,0,1-1.1-.38,16.18,16.18,0,0,0-14.1-3.11,1.69,1.69,0,0,1-2.08-.95,1.48,1.48,0,0,1,1-1.91,19.62,19.62,0,0,1,17.34,3.72,1.42,1.42,0,0,1,.13,2.13A1.7,1.7,0,0,1,216.62,171.55Z"/><path class="cls-4" d="M145.23,171.55a1.73,1.73,0,0,1-1.2-.47,1.42,1.42,0,0,1,.07-2.13,19,19,0,0,1,19-3.7,1.46,1.46,0,0,1,.83,2,1.71,1.71,0,0,1-2.16.77,15.52,15.52,0,0,0-15.37,3.13A1.67,1.67,0,0,1,145.23,171.55Z"/><path class="cls-11" d="M222.51,187.56c.46,1.79-3.35,4.16-8.51,5.27s-9.72.57-10.18-1.23,3.34-4.16,8.51-5.28S222,185.76,222.51,187.56Z"/><path class="cls-11" d="M159.53,190.67c-.16,1.84-4.58,3-9.87,2.61s-9.43-2.21-9.26-4.06,4.58-3,9.86-2.61S159.7,188.83,159.53,190.67Z"/></g><path class="cls-12" d="M275.05,356.49c0,8.68-7.66,15.73-17.13,15.74l-155.67.08c-9.47,0-17.15-7-17.16-15.72l0-36.06H275Z"/><path class="cls-10" d="M201,346.41c0,11.63-10.28,21.06-23,21.06s-23-9.43-23-21.06,10.28-21.06,23-21.06S201,334.78,201,346.41Z"/><path class="cls-5" d="M140.44,346.41c0,11.63-10.28,21.06-23,21.06s-23-9.43-23-21.06,10.28-21.06,23-21.06S140.44,334.78,140.44,346.41Z"/><path class="cls-5" d="M261.55,346.41c0,11.63-10.28,21.06-23,21.06s-23-9.43-23-21.06,10.28-21.06,23-21.06S261.55,334.78,261.55,346.41Z"/><path class="cls-5" d="M177.89,353.27a8,8,0,0,0-2.8-1.52H175c-1.15-.3-3.21-2-1.36-3.84l6.76-6.7c1.85-1.82,3.87-.07,4.27,1l0,0v0h0a7.1,7.1,0,0,0,1.86,2.44l8.26-8.18c-4.68-4-13.93-4.49-20,1.53l-6,6c-6.08,6-3.87,13.52.81,17.49Z"/><path class="cls-12" d="M132.44,337.69l-27.65-.09a1.06,1.06,0,0,0-1.11,1l-.06,15.51a1.07,1.07,0,0,0,1.1,1l27.65.08a1.06,1.06,0,0,0,1.11-1l.05-15.51A1,1,0,0,0,132.44,337.69ZM118.55,354.3c-4.76,0-8.6-3.56-8.58-7.92s3.88-7.88,8.64-7.87,8.6,3.56,8.58,7.93S123.31,354.32,118.55,354.3Z"/><path class="cls-12" d="M124.9,338.25l-12.53,0,.34-1.81a2.69,2.69,0,0,1,2.67-2l6.5,0a2.67,2.67,0,0,1,2.66,2Z"/><path class="cls-12" d="M107.87,335.65H109a1.23,1.23,0,0,1,1.23,1.23v2.76a0,0,0,0,1,0,0h-3.55a0,0,0,0,1,0,0v-2.76A1.23,1.23,0,0,1,107.87,335.65Z" transform="translate(1.07 -0.34) rotate(0.18)"/><path class="cls-12" d="M124.53,346.43A6,6,0,1,1,118.6,341,5.72,5.72,0,0,1,124.53,346.43Z"/><path class="cls-12" d="M244.87,340.6V345a5.77,5.77,0,0,1-4,5.45,6.52,6.52,0,0,1-7.86-2.69,5,5,0,0,1-.7-2.48c0-3.18,0-6.37,0-9.55a5.92,5.92,0,0,1,5.65-5.44,6.15,6.15,0,0,1,6.71,4.53,6.49,6.49,0,0,1,.14,1.39C244.88,337.7,244.87,339.15,244.87,340.6Z"/><path class="cls-12" d="M239.58,357.36h4.3a1,1,0,0,1,1.12.92c0,.52-.46.87-1.12.88H233.32c-.66,0-1.1-.37-1.11-.89s.47-.91,1.12-.91h4.27v-3.12l-.77-.11c-3.87-.58-7.25-3.64-7.89-7.2a18.88,18.88,0,0,1-.18-2.71c0-.92,0-1.85,0-2.78a1,1,0,0,1,1.27-.92.89.89,0,0,1,.67.87c0,.47,0,.94,0,1.4,0,1.15,0,2.31.11,3.45a6.83,6.83,0,0,0,4.12,5.4,8.17,8.17,0,0,0,10.88-3.47,7,7,0,0,0,.68-3.13c0-1.2,0-2.39,0-3.59a1,1,0,0,1,1.29-.92.84.84,0,0,1,.65.81c0,1.79,0,3.58-.16,5.36a7.74,7.74,0,0,1-2.52,4.73,10,10,0,0,1-5.83,2.75c-.3,0-.36.14-.36.4C239.59,355.5,239.58,356.41,239.58,357.36Z"/><path class="cls-2" d="M54,160.17c-8.62-3.18-25-1.16-31.24,15-8.91,23,4.61,24.69,20,33.86s32.3,13.4,43.84-1.41S89.72,178,79,172.34,60.29,162.46,54,160.17Z"/><path class="cls-3" d="M74.58,177.62c-12.18-4.64-20.22-5.49-27.22,6.2-7,10.7,2.31,18,11.07,24.13-11.52-4.8-21.18-13.48-13.7-25.43C52.24,170.1,62.66,170,74.58,177.62Z"/><path class="cls-2" d="M25.94,236c-9.62,10.47-7,28.09,15.32,38.67s42.3,13.41,50-4.93-4.62-28.22-21.54-37.39S38.25,222.54,25.94,236Z"/><path class="cls-3" d="M81.26,251.34c-7.14-3.5-15.85-9.18-24.16-6.7-16.18,11.52-8.44,29.27,10.49,32.77-21.46-.48-30.18-22.08-12.93-34.41C63.73,238.51,74.49,246.16,81.26,251.34Z"/><path class="cls-2" d="M29.72,311.3c-4,12,4,25.91,24.72,29.44s36.93,4.68,39.89-16c2.31-16.14-18.27-22.86-29.75-24.93C54.07,297.88,35.11,295.08,29.72,311.3Z"/><path class="cls-3" d="M81.57,314.1c-5.23-.44-19.88-2.69-23.77.07A12.14,12.14,0,0,0,56,327.23c3.27,6.7,12.69,9.85,20.34,9.24-8.22,2.31-19-.81-22.9-8.17a13.72,13.72,0,0,1,2.4-16C61.09,308.39,75.59,312.24,81.57,314.1Z"/></g></g></svg>