<svg xmlns="http://www.w3.org/2000/svg" viewBox="0 0 500 490.5"><defs><style>.cls-1{fill:#a8d29f;}.cls-2{fill:#afcdfb;}.cls-3{fill:#599dad;}.cls-4{fill:#6bb7bf;}.cls-5{fill:#86d1cd;}.cls-6{fill:#efcbab;}.cls-7{fill:#ffebdc;}.cls-8{fill:#efcdaf;}.cls-9{fill:#9abcef;}.cls-10{fill:#e9f3fe;}.cls-11{fill:#d8e8fd;}.cls-12{fill:#bbd5fc;}.cls-13{fill:#d2e4fd;}.cls-14{fill:#c65447;}.cls-15{fill:#ffb27d;}.cls-16{fill:#e58638;}.cls-17{fill:#233862;}.cls-18{fill:#2b478b;}.cls-19{fill:#ee9849;}.cls-20{fill:#ed985f;}.cls-21{fill:#2c3a64;}</style></defs><title>Asset 1</title><g id="Layer_2" data-name="Layer 2"><g id="Layer_1-2" data-name="Layer 1"><path class="cls-1" d="M0,490S2.17,472,29.92,467.19s53.56-43.5,99.32-37.89S213,470.14,265.06,459.35s84.71,3,96.4,13.81,60-2.54,63.61,17.34Z"/><path class="cls-2" d="M114.07,62.63S82.75,60.7,99.36,180.82c0,0,11.18,40.78-2.93,67.06h207.7V62.63Z"/><path class="cls-3" d="M135.4,374.94s-14.51-21.3-.89-34.84c0,0,9.94-7.57,18.05-7,0,0-11.49,24.25-7.77,26.66S156,331.62,156,331.62s22.64-2.76,29.92,1.64c0,0-19.35,19.93-15.28,21.11s25-18.37,25-18.37,21.06,4.51,19.94,20.69-8.38,21.16-11.57,20.73-21.85-9.39-22.26-6.1,10.83,14,18.69,14.54c0,0-14.85,20.61-24.72,14.66S165,385.14,158.88,381.61s-11.41-3.53-8.87.08,13.68,7.11,17.19,14.94,6.68,13.12-3.53,11.18-26.81-11.33-27.54-22.1Z"/><path class="cls-3" d="M205.25,357.12S148,354.35,135.4,374.94A54.53,54.53,0,0,1,124,395.06l-1.34,4.6s9.91-13.16,13.46-14C136.13,385.71,130.58,360.2,205.25,357.12Z"/><path class="cls-3" d="M124,395.06s-12.28,11.43-13.14,31.85l2.23.25s3.93-21.11,11-29.37S124,395.06,124,395.06Z"/><path class="cls-4" d="M84.67,348.15S107.75,331.88,97,309.8c0,0-8.62-13.55-17.85-17,0,0,4.92,32.92,0,33.7s-3.39-37.19-3.39-37.19-24.31-14.71-33.85-13.55c0,0,15.08,32.15,10.15,31.37s-21.85-33.31-21.85-33.31S5.26,268,1.26,286.56s2.46,27.89,6.16,29.05,27.39.78,26.77,4.65-16.62,10.07-25.54,6.58c0,0,9.85,30.6,22.77,29.05s16.93-11.62,24.93-12.39,13.85,1.94,9.85,4.65-17.54.89-24,7.8-11.7,11.18.3,14.27,33.55,1.17,37.86-10.45Z"/><path class="cls-4" d="M12.65,292.37s64.63,26.34,72,55.78a75,75,0,0,0,6.15,28.27v5.81s-6.77-19.75-10.46-22.46C80.36,359.77,94.82,334.2,12.65,292.37Z"/><path class="cls-4" d="M90.82,376.42a65.34,65.34,0,0,1,4.29,42.24l-2.57-.87s2.49-25.54-2.72-38.38S90.82,376.42,90.82,376.42Z"/><path class="cls-5" d="M121.39,325.71S91,304.27,105.16,275.17c0,0,11.36-17.87,23.53-22.47,0,0-6.49,43.4,0,44.42s4.46-49,4.46-49,32-19.4,44.63-17.87c0,0-19.88,42.37-13.39,41.35s28.81-43.91,28.81-43.91,32.86-7.65,38.13,16.85-3.24,36.76-8.11,38.29-36.11,1-35.3,6.13,21.91,13.28,33.68,8.68c0,0-13,40.34-30,38.29s-22.31-15.31-32.86-16.33-18.25,2.55-13,6.12,23.13,1.17,31.65,10.29,15.41,14.73-.41,18.81-44.22,1.54-49.9-13.78Z"/><path class="cls-4" d="M216.32,252.19s-85.19,34.72-94.93,73.52A99.12,99.12,0,0,1,113.28,363v7.66s8.92-26,13.79-29.61C127.07,341,108,307.33,216.32,252.19Z"/><path class="cls-4" d="M113.28,363s-13.14,25.11-5.65,55.68l3.38-1.15s-3.28-33.66,3.59-50.59S113.28,363,113.28,363Z"/><path class="cls-6" d="M120.36,484.94c32.92,0,59.61-33.59,59.61-75H60.76C60.76,451.35,87.45,484.94,120.36,484.94Z"/><path class="cls-7" d="M135,484.36a47.76,47.76,0,0,1-7.4.58c-32.92,0-59.6-33.59-59.6-75h14.8C82.83,448.2,105.61,479.77,135,484.36Z"/><path class="cls-6" d="M180.79,488.75H59.94c0-5.11,3.29-9.25,7.35-9.25H173.44c4.06,0,7.35,4.14,7.35,9.25Z"/><rect class="cls-8" x="58.8" y="409.93" width="122.52" height="2.3"/><path class="cls-3" d="M336,124.73s-10.44-24.79,5.2-34.23c0,0,11-4.65,18.83-1.81,0,0-15.44,20.48-12.24,23.86s15.9-24.38,15.9-24.38,22.56,3.56,28.9,9.86c0,0-22.35,14.1-18.58,16.38s27.56-11,27.56-11,19.77,10.22,15.85,25.68-11.87,18.34-14.9,17-19.68-15.2-20.65-12.11,8.11,16.69,15.7,19.35c0,0-18.09,16-26.68,7.48s-7.77-18-13.15-23.11-10.51-6.59-8.67-2.37,12.11,10.71,14.17,19.33,4.23,14.64-5.4,9.93-24.18-18.47-23-29.17Z"/><path class="cls-3" d="M407.29,126.64S352,108.13,336,124.73a47.59,47.59,0,0,1-14.63,16.48l-2.11,4.12s12-10.1,15.57-9.89C334.87,135.44,333.91,109,407.29,126.64Z"/><path class="cls-3" d="M321.41,141.21s-14,7.76-18.37,27.45l2.14.86S312.68,150,321,143.91,321.41,141.21,321.41,141.21Z"/><path class="cls-5" d="M249.29,102.26S218.37,82,231.87,52.35c0,0,10.94-18.29,23-23.34,0,0-5.46,43.62,1,44.4s3.3-49.16,3.3-49.16S290.79,3.66,303.4,4.72c0,0-18.87,43.1-12.41,41.83s27.76-45,27.76-45S351.41-7.3,357.26,17s-2.37,36.86-7.2,38.58S314,58,314.92,63s22.22,12.45,33.87,7.42c0,0-12,40.8-29.1,39.4S297,95.36,286.45,94.74s-18.19,3.23-12.83,6.61,23.14.3,31.87,9.09,15.76,14.15,0,18.83-44.16,3.18-50.2-11.91Z"/><path class="cls-4" d="M342.44,25.22s-84.34,37.89-93.15,77a99.55,99.55,0,0,1-7.23,37.56l.18,7.65s8.31-26.36,13.09-30.11C255.33,117.36,235.47,84.39,342.44,25.22Z"/><path class="cls-4" d="M242.06,139.82s-12.54,25.59-4.33,55.86l3.35-1.27s-4.07-33.53,2.4-50.71S242.06,139.82,242.06,139.82Z"/><rect class="cls-9" x="127.24" y="133.73" width="216.85" height="355.9"/><rect class="cls-10" x="134.33" y="133.73" width="213.2" height="355.9"/><path class="cls-1" d="M497.86,488.76h-43c-2.3-2.46,1.59-8,5.66-8.42a20.15,20.15,0,0,1,6.56,1c.59-9.88,4-54.31,16.69-52.52,14.31,2,0,19.56-4,30-3,7.7-6.16,18.75-7.6,24,1.16.32,2.36.63,3.59.91,1.9-7.32,8.95-32,17.93-30.54,10.53,1.69,6.3,11.57-1.17,17.43-5.48,4.32-12.21,10.45-15.4,13.41a36.52,36.52,0,0,0,8.4.85C492.88,484.56,496.47,487.29,497.86,488.76Z"/><path class="cls-10" d="M347.53,133.72H134.33c1.18-20.29-.6-35-3.45-45.62C125.41,67.74,116,62.62,116,62.62H317.06c17.16,0,30.47,13,34.09,30.29.14.65.26,1.29.37,1.94C355,114.61,347.67,133.36,347.53,133.72Z"/><path class="cls-11" d="M347.53,133.72H134.33c1.18-20.29-.6-35-3.45-45.62,21.79,5,75.75,15.72,133.52,13.92a807.19,807.19,0,0,0,87.12-7.18C355,114.61,347.67,133.36,347.53,133.72Z"/><rect class="cls-12" x="176.04" y="209.12" width="117.29" height="6.67" rx="3.13"/><rect class="cls-12" x="176.04" y="220.35" width="73.08" height="6.67" rx="3.13"/><path class="cls-12" d="M165.15,225.94V212.31h-1.43c-.87,0-1.3-.45-1.3-1.36a1.42,1.42,0,0,1,1-1.39,5.88,5.88,0,0,1,1.66-.33c.76-.07,1.37-.11,1.83-.11s.73.11.85.34a5.21,5.21,0,0,1,.17,1.73v14.75h1.47c1,0,1.43.52,1.43,1.56s-.47,1.63-1.43,1.63h-5.93a1.42,1.42,0,0,1-1-.42,1.62,1.62,0,0,1-.43-1.19c0-1.05.49-1.58,1.46-1.58Z"/><rect class="cls-13" x="176.04" y="279.41" width="117.29" height="6.67" rx="3.13"/><rect class="cls-13" x="176.04" y="290.64" width="73.08" height="6.67" rx="3.13"/><path class="cls-13" d="M171.07,296c0,.91-.51,1.36-1.51,1.36h-6.29a1.2,1.2,0,0,1-1.35-1.37,2,2,0,0,1,.36-1c.36-.52.88-1.29,1.57-2.32q1.58-2.48,2.62-4.28c.25-.41.59-1,1-1.84a5.24,5.24,0,0,0,.55-2.07,2.45,2.45,0,0,0-.48-1.55,1.48,1.48,0,0,0-1.22-.62,1.7,1.7,0,0,0-1.27.58,3.09,3.09,0,0,0-.57,1.45c-.18.91-.29,1.44-.35,1.59a1,1,0,0,1-.93.77,1,1,0,0,1-.9-.53,2.11,2.11,0,0,1-.31-1.21,7.27,7.27,0,0,1,.21-1.71,5.28,5.28,0,0,1,1.63-2.84,4,4,0,0,1,2.7-.94,3.71,3.71,0,0,1,2.91,1.33,5.29,5.29,0,0,1,1.21,3.57,7.32,7.32,0,0,1-.87,3.33c-.32.63-1,1.74-2,3.33-.51.82-1.31,2-2.41,3.57h4.13Q171.07,294.54,171.07,296Z"/><rect class="cls-13" x="176.04" y="338.04" width="117.29" height="6.67" rx="3.13"/><rect class="cls-13" x="176.04" y="349.27" width="73.08" height="6.67" rx="3.13"/><path class="cls-13" d="M171.07,350.36a5.86,5.86,0,0,1-1.43,4.11,4.46,4.46,0,0,1-3.43,1.48,4.11,4.11,0,0,1-2.74-1,4.66,4.66,0,0,1-1.8-3.67,1.78,1.78,0,0,1,.32-1.06.94.94,0,0,1,.8-.45q.51,0,1,.87c.48.95.76,1.47.84,1.57a2,2,0,0,0,1.66.86,2,2,0,0,0,2-1.28,4.15,4.15,0,0,0,.27-1.62,2.37,2.37,0,0,0-2.25-2.69,1.25,1.25,0,0,1-1.27-1.35,1.31,1.31,0,0,1,.74-1.26c.92-.42,1.39-.65,1.4-.66a2.68,2.68,0,0,0,.74-2.15,2.23,2.23,0,0,0-.43-1.44,1.42,1.42,0,0,0-1.15-.53,1.85,1.85,0,0,0-1.41.55,3.93,3.93,0,0,0-.72,1.6c-.15.57-.45.86-.89.86a.87.87,0,0,1-.77-.52,2.11,2.11,0,0,1-.31-1.13,3.69,3.69,0,0,1,.34-1.53,4.21,4.21,0,0,1,1.68-2,4.07,4.07,0,0,1,2.27-.67,3.51,3.51,0,0,1,2.77,1.27,4.89,4.89,0,0,1,1.1,3.34,5,5,0,0,1-1.64,3.94C170.27,346.65,171.07,348.16,171.07,350.36Z"/><rect class="cls-12" x="205.42" y="149.61" width="74.82" height="7.75" rx="3.64"/><rect class="cls-12" x="186.55" y="161.57" width="112.54" height="7.75" rx="3.64"/><path class="cls-14" d="M234.56,251.78c-23.22,0-45.26-3.66-61.69-8.91-16.6-5.29-25.54-14-25.54-21.63,0-7,7.28-13.36,21.07-18.51h0c-13.21,4.94-20.28,12.18-20.28,18.51,0,7,9.16,14,25.13,19.07,16.37,5.22,38.15,8.1,61.31,8.1s44.94-2.88,61.32-8.1c16-5.1,25.13-12.05,25.13-19.07,0-7.43-9.65-16.67-25.17-24.11-17.66-8.46-39.42-11.6-61.28-11.6-41,0-57.93,6-72.59,13.58h0c14.72-7.58,31.41-16.18,72.59-16.18,21.95,0,43.81,4.68,61.54,13.17,15.85,7.6,25.7,17.23,25.7,25.14,0,7.68-9.14,14.83-25.74,20.12C279.63,246.6,257.79,251.78,234.56,251.78Z"/><path class="cls-15" d="M375.6,320.31s-.76,9.35-1.6,11.12-4.41,7.43-5.94,8.54.93-7.45.62-9.12-1.25,3-1.92,3.15-.5-4.12-.52-5.67,3.26-5.34,4.42-8.63S375.6,320.31,375.6,320.31Z"/><path class="cls-15" d="M284.25,234l-1.71-4.06a12.94,12.94,0,0,0-6.35-11.8,3,3,0,0,0-4.11,1.35c-1.37,2.49,2.6,2,2.39,6.3s1.39,6.75,3.63,8.13l1.84,2.7Z"/><path class="cls-16" d="M352.29,224.3s-6.18,38.19-40.21,50.67c-10.62,3.89-34.74-40.11-34.74-40.11s.85-4.06,6.16-3.13c0,0,23.49,19.58,26.45,21.7,2.62,1.89,19.88-24.25,27.75-28.47A16.31,16.31,0,0,1,352.29,224.3Z"/><polygon class="cls-14" points="293.35 222.9 292.39 230.8 260.8 224.7 261.76 216.79 293.35 222.9"/><polygon class="cls-15" points="253.93 219.32 260.8 224.7 261.76 216.79 253.93 219.32"/><path class="cls-15" d="M296.71,226.23l-.31,2.5c-.19,1.54-1.33,2.59-2.55,2.36l-1.46-.29,1-7.9,1.59.31A2.64,2.64,0,0,1,296.71,226.23Z"/><path class="cls-17" d="M392.9,464.36s4.22,4.84,3.4,8.29-4.63,5.74-5.15,10-2.57,6.5-4.42,6.5h-8.84a2.67,2.67,0,0,1,1.93-3.85c3.3-.9,4.54-5.84,4.33-10.43a103.37,103.37,0,0,1,.31-10.72l7-2Z"/><path class="cls-17" d="M341.13,476.89s.75,11-1.1,12.18L316.32,489a4.45,4.45,0,0,1,3.81-4.21c3.8-.76,10.5-3.57,11.63-9.82S341.13,476.89,341.13,476.89Z"/><path class="cls-18" d="M321.11,321.06s1.25,19.34,2.72,42.59c2,31.57,4.4,70.35,4.63,77.7.42,12.76,2.06,33.17,2.06,33.17s3.91,4.85,11.74,2.8a405.35,405.35,0,0,0,9-59.95c0-.51.07-1,.1-1.53,1.85-31.38,4.73-97.45,4.73-97.45Z"/><path class="cls-17" d="M321.11,321.06s1.25,19.34,2.72,42.59l27.39,53.72c0-.51.07-1,.1-1.53,1.85-31.38,4.73-97.45,4.73-97.45Z"/><path class="cls-18" d="M326.82,323.36s22.54,70,37.36,102.94,19.46,42.1,19.46,42.1,8.49-4.21,9.26-7.08c0,0-5.66-63.54-15.59-79-5.61-8.75-12.2-35-12.51-44.2s-2-27.36-2-27.36Z"/><path class="cls-15" d="M356.48,215.44s-15.25,9.26-24.05,5.82a23,23,0,0,1,5.95-6c-.3-2.22-.54-4.15-.67-5.78-.37-3.77-.37-5.91-.37-5.91l5.88-5.83,5.58-5.57C348.36,207.85,356.48,215.44,356.48,215.44Z"/><path class="cls-19" d="M364.52,314.32c0,1.17-2,2.51-2.84,3-6.53,3.6-12.62,6.12-19.52,7-8.15,1-17.79-1.25-21.1-1.17a1.27,1.27,0,0,1-.92-.46c-.23-.21-.4-12.57-.23-28.12,0-.63,0-1.26,0-1.89v-.21c.07-6.07.24-12.44.47-18.81.48-14,1.36-27.5,2.84-35a40,40,0,0,1,9.54-18.86l3-3.35a12,12,0,0,0,9.47-1.43c3.51-2.13,7.3-4.44,7.91-3.85,4.6,4.23,7.71,13.75,9.37,25.9a169.07,169.07,0,0,1,1.39,23c0,3-.07,6.12-.21,9.18a362.37,362.37,0,0,0,.48,39.35C364.38,311.09,364.48,313,364.52,314.32Z"/><path class="cls-16" d="M364.25,313.56c-53.42-.14-9.86-72.94-9.86-72.94l8.66-3.54c.68,7.48,1,15.85,1,24.63,0,3.22-.05,6.53-.15,9.8C363.32,289.24,363.9,304.65,364.25,313.56Z"/><path class="cls-20" d="M348.9,198.17s-3.85,8.85-11.19,11.32c-.37-3.77-.37-5.91-.37-5.91l5.88-5.83Z"/><path class="cls-15" d="M334.65,203.32s14.55,3,15.92-8.26,4.16-18.45-5.07-20.84-11.56,1.57-12.76,5.19S330.9,202.25,334.65,203.32Z"/><path class="cls-21" d="M355.86,172.87c.13-.19.43-.34,1.11-.39a2.33,2.33,0,0,0-1.26-.45c-.15-1.18-.65-3.29-2.27-3.8a2.61,2.61,0,0,1,1,1.85c-1.88-2.43-5.91-4.2-17.06-3.09-14.7,1.46-9.86,13.3-7.95,14.72s6.69-2.46,10.23-2.11,4.22,6.8,5.43,7.69.73-.68,2.35-1.61,1.78,2.47,1.31,4.67,1.77,5.12,1.77,5.12l2.26-3.06c2.26-3.06,4.39-16,3.36-18.8Z"/><path class="cls-19" d="M353.21,211.09s9.21,5.48,13.62,13.92c6.85,13.08,14.79,60.76,14.94,65.18s-5.8,35.59-5.8,35.59-6-.5-7.58-4.33c0,0,1.21-32,.45-34.09s-25.12-43-22.38-51.69S353.21,211.09,353.21,211.09Z"/><path class="cls-15" d="M282.51,229.75s.5-2.49-.87-3.61S279,222,278.43,222.4c-1.2.85.66,3.5.32,6.82C278.63,230.38,280.77,233.41,282.51,229.75Z"/><path class="cls-1" d="M58.8,465.45S37.18,395.76,22,406.86,58.8,465.45,58.8,465.45Z"/><path class="cls-1" d="M48.11,465.45s-28.57-31.07-41.62-25.3S48.11,465.45,48.11,465.45Z"/><path class="cls-1" d="M350.62,475.49s6.58-28.81,14.3-25.41S350.62,475.49,350.62,475.49Z"/><path class="cls-1" d="M356.63,473.92s16.8-13.89,20.5-9.6S356.63,473.92,356.63,473.92Z"/><path class="cls-13" d="M299.19,412.23H168.09a1.84,1.84,0,0,1-1.6-2h0a1.85,1.85,0,0,1,1.6-2h131.1a1.84,1.84,0,0,1,1.59,2h0A1.84,1.84,0,0,1,299.19,412.23Z"/><path class="cls-13" d="M299.19,420.27H168.09a1.85,1.85,0,0,1-1.6-2h0a1.84,1.84,0,0,1,1.6-2h131.1a1.84,1.84,0,0,1,1.59,2h0A1.84,1.84,0,0,1,299.19,420.27Z"/><path class="cls-13" d="M299.19,429.17H168.09a1.84,1.84,0,0,1-1.6-2h0a1.84,1.84,0,0,1,1.6-2h131.1a1.83,1.83,0,0,1,1.59,2h0A1.84,1.84,0,0,1,299.19,429.17Z"/><rect class="cls-13" x="166.49" y="434.06" width="116.98" height="4.02" rx="1.88"/></g></g></svg>