<svg xmlns="http://www.w3.org/2000/svg" xmlns:xlink="http://www.w3.org/1999/xlink" viewBox="0 0 500 500"><defs><style>.cls-1{fill:#15a0c9;}.cls-2{fill:#2c5f68;}.cls-3{fill:#3c7c87;}.cls-4{fill:#336e7b;}.cls-5{fill:#418c99;}.cls-6{fill:#556270;}.cls-7{fill:#fecea8;}.cls-8{fill:#ffb380;}.cls-9{opacity:0.5;}.cls-10{fill:#ca9e67;}.cls-11{fill:#dc4437;}.cls-12{fill:#e57368;}.cls-13{fill:#ff847c;}.cls-14{fill:#95d8e9;}.cls-15{fill:#ffde00;}.cls-16{fill:#ea5b0c;}.cls-17{fill:#f8ca00;}.cls-18{fill:#109d59;}.cls-19{fill:#34b67a;}.cls-20{fill:#89695e;}.cls-21{fill:#795547;}.cls-22{fill:#666;}.cls-23{fill:#4dbfd9;}.cls-24{fill:#8dc375;}.cls-25{fill:#8a9b0f;}.cls-26{fill:#f5815a;}.cls-27{fill:#f7971e;}.cls-28{fill:#424242;}.cls-29{fill:#c7f464;}.cls-30{fill:#1abc9c;}.cls-31{fill:#3ad8ba;}.cls-32{fill:#f15723;}.cls-33{fill:#b8f2ff;}.cls-34{fill:#67e5d8;}.cls-35{fill:#84f7e9;}.cls-36{opacity:0.4;}.cls-37{fill:#73e5da;}.cls-38{fill:#fff;}.cls-39{fill:#ab948c;}.cls-40{fill:#bcbcbc;}.cls-41{fill:#ffdd4d;}.cls-42{fill:#f9af7d;}.cls-43{clip-path:url(#clip-path);}.cls-44{fill:#2ecc71;}.cls-45{opacity:0.29;}.cls-46{fill:#6f85bf;}.cls-47{fill:#f9b256;}.cls-48{fill:#27ae60;}.cls-49{fill:#ffe167;}.cls-50{fill:#9e69af;}.cls-51{fill:#f90;}.cls-52{fill:#fcab3f;}</style><clipPath id="clip-path"><ellipse class="cls-1" cx="129.17" cy="146.31" rx="35.32" ry="39.97"/></clipPath></defs><title>Asset 1</title><g id="Layer_2" data-name="Layer 2"><g id="Layer_1-2" data-name="Layer 1"><polygon class="cls-2" points="133.48 372.19 199.54 271.44 253.78 389.16 133.48 372.19"/><polygon class="cls-3" points="249.57 381.79 307.18 250.74 350.87 371.72 249.57 381.79"/><polygon class="cls-4" points="285.83 398.56 343.44 267.51 377.36 369.56 285.83 398.56"/><polygon class="cls-4" points="104.64 375.15 164.79 264.68 224.94 392.12 104.64 375.15"/><polygon class="cls-5" points="194.53 379.58 252.7 202.4 310.87 396.55 194.53 379.58"/><path class="cls-6" d="M492,474H272.44c-3.19,0-5.77,2.93-5.77,6.54h0a132.43,132.43,0,0,1-16.67.89,132.43,132.43,0,0,1-16.67-.89h0c0-3.61-2.58-6.54-5.77-6.54H8c-4.4,0-8,4-8,9v6.76H218.6c4.85,6,17.08,10.2,31.4,10.2s26.55-4.24,31.4-10.2H500V483C500,478.07,496.44,474,492,474Z"/><path class="cls-7" d="M250,474H492l-35-44.44-134-6c-21.07-1-55.72-.18-63.37,22.05Z"/><path class="cls-7" d="M250,474H8l35-44.44,134-6c21.07-1,55.72-.18,63.37,22.05Z"/><polygon class="cls-8" points="250 474.03 242.59 452.5 24.9 452.5 7.96 474.03 250 474.03"/><polygon class="cls-8" points="250 474.03 257.41 452.5 475.1 452.5 492.04 474.03 250 474.03"/><g class="cls-9"><rect class="cls-10" x="161.15" y="448.11" width="51.36" height="4.39"/></g><polygon class="cls-11" points="204.41 496.13 186.83 482.79 169.25 496.13 169.25 450.3 204.41 450.3 204.41 496.13"/><polygon class="cls-12" points="186.83 450.3 186.83 482.79 204.41 496.13 204.41 450.3 186.83 450.3"/><path class="cls-8" d="M440.62,417.63c-81.86-5.48-129.15,2.95-156.48,14.58A135.53,135.53,0,0,1,303,423.52c30.79-11.62,73.44-17.76,123.35-17.76a3.47,3.47,0,1,0,0-6.94c-74.84,0-130.55,13.22-158.92,36.17,22.9-31.37,72.05-53.11,128.85-53.11a3.47,3.47,0,1,0,0-6.94c-71.33,0-131.19,33.34-146.24,77.84-15.05-44.5-74.91-77.84-146.24-77.84a3.47,3.47,0,1,0,0,6.94c56.8,0,106,21.74,128.85,53.11C204.24,412,148.52,398.82,73.69,398.82a3.47,3.47,0,1,0,0,6.94c49.91,0,92.56,6.14,123.35,17.76a134.28,134.28,0,0,1,18.81,8.69c-27.32-11.63-74.61-20.06-156.47-14.58A3.55,3.55,0,0,0,56,421.34a3.59,3.59,0,0,0,3.91,3.21c116.43-7.8,159.24,13.52,174.4,26.92,7.88,7,12,15,12,23.23a3.67,3.67,0,0,0,7.32,0c0-8.23,4.16-16.27,12-23.23,15.15-13.4,58-34.72,174.41-26.92a3.6,3.6,0,0,0,3.9-3.21A3.55,3.55,0,0,0,440.62,417.63Z"/><rect class="cls-13" x="235.73" y="474.03" width="28.62" height="4.18" rx="0.74"/><path class="cls-14" d="M227.71,166.33a26.75,26.75,0,0,0,.3-3.83c0-12.65-9-22.9-20.23-22.9-6.71,0-12.65,3.72-16.33,9.42a12.55,12.55,0,0,0-6.66-1.92c-6.45,0-11.86,5-13.45,11.68h-4.71c-8.35,0-15.19,7.74-15.19,17.2h0c0,9.45,6.84,17.19,15.19,17.19h48.52c8.36,0,15.2-7.74,15.2-17.19h0A18.69,18.69,0,0,0,227.71,166.33Z"/><path class="cls-15" d="M180.44,113.45a2.88,2.88,0,0,1-2.69-3v-4.29a2.71,2.71,0,1,1,5.37,0v4.29A2.88,2.88,0,0,1,180.44,113.45Z"/><path class="cls-16" d="M209.9,105.35H195.8a2.29,2.29,0,0,1,0-4.55h14.1a2.29,2.29,0,0,1,0,4.55Z"/><path class="cls-16" d="M202.85,113.33a2.16,2.16,0,0,1-2-2.28v-16a2,2,0,1,1,4,0v16A2.16,2.16,0,0,1,202.85,113.33Z"/><path class="cls-16" d="M323.66,91.71h-6.27a1,1,0,0,1,0-2h6.27a1,1,0,0,1,0,2Z"/><path class="cls-16" d="M320.53,95.26a1,1,0,0,1-.9-1v-7.1a.9.9,0,1,1,1.79,0v7.1A1,1,0,0,1,320.53,95.26Z"/><path class="cls-16" d="M170.15,45.48H163a1,1,0,0,1,0-2h7.14a1,1,0,0,1,0,2Z"/><path class="cls-16" d="M166.58,49.52a1,1,0,0,1-.9-1V40.43a.91.91,0,1,1,1.8,0V48.5A1,1,0,0,1,166.58,49.52Z"/><path class="cls-16" d="M380,191.4H372.9a1,1,0,0,1,0-2H380a1,1,0,0,1,0,2Z"/><path class="cls-16" d="M376.46,195.43a1,1,0,0,1-.89-1v-8.07a.9.9,0,1,1,1.79,0v8.07A1,1,0,0,1,376.46,195.43Z"/><path class="cls-16" d="M434.17,310.53H427a1,1,0,0,1,0-2h7.13a1,1,0,0,1,0,2Z"/><path class="cls-16" d="M430.61,314.57a1,1,0,0,1-.9-1v-8.07a.9.9,0,1,1,1.79,0v8.07A1,1,0,0,1,430.61,314.57Z"/><path class="cls-15" d="M302,59c-25.25,0-34.78,10.78-34.78,39.36,0-28.58-9.52-39.36-34.77-39.36,25.25,0,34.77-10.77,34.77-39.35C267.18,48.23,276.71,59,302,59Z"/><path class="cls-17" d="M229,68.18c-12.62,0-17.38,5.38-17.38,19.67,0-14.29-4.76-19.67-17.38-19.67,12.62,0,17.38-5.39,17.38-19.68C211.62,62.79,216.38,68.18,229,68.18Z"/><path class="cls-17" d="M355.71,66.3c-5.63,0-7.75,2.41-7.75,8.78,0-6.37-2.12-8.78-7.75-8.78,5.63,0,7.75-2.4,7.75-8.77C348,63.9,350.08,66.3,355.71,66.3Z"/><path class="cls-15" d="M291,38.32a2.88,2.88,0,0,1-2.69-3V20.64a2.71,2.71,0,1,1,5.37,0V35.28A2.88,2.88,0,0,1,291,38.32Z"/><path class="cls-15" d="M312.88,151.53a2.89,2.89,0,0,1-2.69-3.05v-8.91a2.71,2.71,0,1,1,5.38,0v8.91A2.89,2.89,0,0,1,312.88,151.53Z"/><path class="cls-15" d="M203.69,173.4c-3.32,0-6-3-6-6.8V135.72c0-3.75,2.69-6.79,6-6.79s6,3,6,6.79V166.6C209.69,170.36,207,173.4,203.69,173.4Z"/><path class="cls-15" d="M238.44,28a2.89,2.89,0,0,1-2.69-3.05V14.39a2.71,2.71,0,1,1,5.38,0V24.91A2.89,2.89,0,0,1,238.44,28Z"/><path class="cls-15" d="M265.21,11.35a2.89,2.89,0,0,1-2.69-3V3a2.71,2.71,0,1,1,5.38,0V8.3A2.89,2.89,0,0,1,265.21,11.35Z"/><path class="cls-15" d="M284.6,93.2a2.88,2.88,0,0,1-2.69-3v-8a2.71,2.71,0,1,1,5.38,0v8A2.88,2.88,0,0,1,284.6,93.2Z"/><path class="cls-15" d="M290.46,126.69a2.88,2.88,0,0,1-2.69-3V113.58a2.71,2.71,0,1,1,5.37,0v10.07A2.88,2.88,0,0,1,290.46,126.69Z"/><path class="cls-18" d="M185.39,391.09C197,381,213.72,373.42,233.18,369.74,222.79,354,209.91,343.38,181,343.38c-32.07,0-68.95,13.31-78.49,31.77a3.7,3.7,0,0,1,1.21-.21C133.85,374.94,161.88,380.89,185.39,391.09Z"/><path class="cls-18" d="M395.43,375c-11.5-17.12-34.73-32-61.54-32a76.76,76.76,0,0,0-56.47,25.41c19.67,2.42,37,8.79,50,17.71A211.73,211.73,0,0,1,395.43,375Z"/><path class="cls-19" d="M250,452.78c9.82-29,38.72-53.31,77.42-66.68-13-8.92-30.33-15.29-50-17.71a144.78,144.78,0,0,0-17.76-1.09,143.24,143.24,0,0,0-26.48,2.44C213.72,373.42,197,381,185.39,391.09,217.6,405.07,241.3,427.05,250,452.78Z"/><rect class="cls-12" x="241.73" y="379.88" width="29.35" height="35.59"/><rect class="cls-20" x="238.08" y="410.15" width="35.77" height="5.32"/><polygon class="cls-21" points="256.41 360.55 233.61 386.32 236.99 390.14 256.41 368.16 275.82 390.14 279.2 386.32 256.41 360.55"/><polygon class="cls-22" points="256.41 368.16 246.06 379.88 266.76 379.88 256.41 368.16"/><rect class="cls-6" x="245.05" y="395.11" width="6.38" height="15.04"/><rect class="cls-23" x="255.97" y="395.11" width="10.79" height="10.97"/><path class="cls-6" d="M265.55,396.47v8.25h-8.38c0-4.08,0-6.64-.07-8.25Zm1.21-1.36H256v11h10.79v-11Z"/><path class="cls-23" d="M256,391.68a4.21,4.21,0,1,1,3.69-4.18A4,4,0,0,1,256,391.68Z"/><path class="cls-6" d="M256,384a3.53,3.53,0,1,1-3.09,3.5A3.32,3.32,0,0,1,256,384Zm0-1.36a4.9,4.9,0,1,0,4.29,4.86,4.61,4.61,0,0,0-4.29-4.86Z"/><rect class="cls-21" x="197.04" y="352.17" width="1.88" height="16.76"/><path class="cls-24" d="M206.38,350.28c0,5.25-3.76,9.5-8.4,9.5s-8.4-4.25-8.4-9.5,3.76-9.5,8.4-9.5S206.38,345,206.38,350.28Z"/><rect class="cls-21" x="288.84" y="363.77" width="2.15" height="18.8"/><path class="cls-25" d="M294.11,360.55c0,6.93.44,12.54-4.2,12.54-4.2,0-4.2-5.61-4.2-12.54s1.88-12.54,4.2-12.54S294.11,353.62,294.11,360.55Z"/><rect class="cls-17" x="208.88" y="362.1" width="18.54" height="22.48"/><rect class="cls-22" x="206.58" y="381.23" width="22.6" height="3.36"/><polygon class="cls-26" points="218.16 349.89 203.76 366.17 205.89 368.58 218.16 354.7 230.42 368.58 232.56 366.17 218.16 349.89"/><polygon class="cls-27" points="218.16 354.7 211.62 362.1 224.7 362.1 218.16 354.7"/><rect class="cls-28" x="210.98" y="371.72" width="4.03" height="9.5"/><rect class="cls-23" x="217.88" y="371.72" width="6.82" height="6.93"/><path class="cls-23" d="M217.88,369.56a2.66,2.66,0,1,1,2.33-2.64A2.5,2.5,0,0,1,217.88,369.56Z"/><path class="cls-6" d="M217.88,364.71a2.23,2.23,0,1,1-1.95,2.21,2.09,2.09,0,0,1,1.95-2.21Zm0-.86a3.09,3.09,0,1,0,2.71,3.07,2.9,2.9,0,0,0-2.71-3.07Z"/><path class="cls-6" d="M224.47,372.06v6.26h-6.36c0-3.1,0-5-.06-6.26Zm.91-1h-8.19v8.33h8.19V371Z"/><rect class="cls-21" x="226.87" y="385.1" width="2.15" height="18.8"/><path class="cls-29" d="M232.15,381.88c1,6.83.43,12.54-4.21,12.54-4.2,0-5.48-5.77-4.2-12.54s2.77-12.54,4.2-12.54S231.11,374.68,232.15,381.88Z"/><path class="cls-30" d="M276.58,171.78c0-47.63-26.3-86.24-26.3-86.24S224,124.15,224,171.78l7.7,75.45h37.21Z"/><path class="cls-31" d="M276.58,171.78c0-47.63-26.3-86.24-26.3-86.24l0,161.69h18.62Z"/><path class="cls-32" d="M271.26,247.23l4.58-44.57,18.84,36.16v38s-2.81-18-11.71-26.29C279.39,247.17,271.26,247.23,271.26,247.23Z"/><path class="cls-32" d="M229.3,247.23l-4.58-44.57-18.84,36.16v38s2.81-18,11.71-26.29C221.17,247.17,229.3,247.23,229.3,247.23Z"/><path class="cls-14" d="M268.15,167.56c0,11.17-8,20.22-17.87,20.22s-17.87-9.05-17.87-20.22,8-20.22,17.87-20.22S268.15,156.39,268.15,167.56Z"/><path class="cls-33" d="M239.31,151.61l9.5,36.09c.48,0,1,.08,1.47.08a16,16,0,0,0,7.37-1.82l-10.1-38.37A16.85,16.85,0,0,0,239.31,151.61Z"/><path class="cls-33" d="M263.36,181.3,254.59,148a15.8,15.8,0,0,0-4.31-.61h0L260,184.49A18.88,18.88,0,0,0,263.36,181.3Z"/><path class="cls-26" d="M294.68,276.79v-38L283,216.34V250.5C291.87,258.79,294.68,276.79,294.68,276.79Z"/><path class="cls-26" d="M224.72,202.66l-7.13,13.68V250.5c3.58-3.33,11.71-3.27,11.71-3.27Z"/><path class="cls-34" d="M294.68,278.33a10.52,10.52,0,0,0-5.19,1.39,8.46,8.46,0,0,0-6.52-3.24,7.91,7.91,0,0,0-2.48.41c-.72-6.34-5.49-11.23-11.29-11.23a10.64,10.64,0,0,0-7.52,3.22,11,11,0,0,1-1.56-2.84V251.41H240.4v13.37a10.83,10.83,0,0,1-4.19,6.27,8.78,8.78,0,0,0-5.29-1.81,9.49,9.49,0,0,0-8.49,5.86,13.12,13.12,0,0,0-4.84-.94c-8.14,0-14.75,7.47-14.76,16.68a12.39,12.39,0,0,0-6.26,11.07c0,6.75,4.83,12.22,10.8,12.22a10.71,10.71,0,0,0,9.57-6.58c.22,0,.43,0,.65,0,5.52,0,10.32-3.43,12.85-8.5a10.2,10.2,0,0,0,17.11.31,7.16,7.16,0,0,0,5.53,2.73,7.35,7.35,0,0,0,6.21-3.67,7.22,7.22,0,0,0,5.69,2.93,7,7,0,0,0,1.31-.13c.36,6.08,4.83,10.89,10.29,10.89s10-4.86,10.3-11a10.84,10.84,0,0,0,7.8,3.42c6.4,0,11.6-5.87,11.6-13.12S301.08,278.33,294.68,278.33Z"/><path class="cls-35" d="M231.94,273.07a9.11,9.11,0,0,1,5.49,1.88,8.14,8.14,0,0,0-6.51-3.44c-4.7,0-8.5,4.3-8.5,9.61,0,0,0,.07,0,.1C223.6,276.52,227.41,273.07,231.94,273.07Z"/><path class="cls-35" d="M278.72,279.69a12,12,0,0,0-2.93-8.51,9.11,9.11,0,0,0-14,.13,11.33,11.33,0,0,0-2.16,3.82,11.72,11.72,0,0,1,7.86-3.1C272.36,272,276.59,275.14,278.72,279.69Z"/><path class="cls-35" d="M219.18,279.7a12,12,0,0,1,6.15,1.71,10.49,10.49,0,0,0-8.53-4.65c-6,0-10.92,5.54-10.92,12.36a14.37,14.37,0,0,0,.26,2.66C207.36,284.89,212.73,279.7,219.18,279.7Z"/><path class="cls-35" d="M302.94,292.94a11,11,0,0,0,.07-1.16c0-5.2-3.73-9.42-8.33-9.42a8.17,8.17,0,0,0-7.14,4.57,10,10,0,0,1,5.29-1.53C297.37,285.4,301.26,288.51,302.94,292.94Z"/><path class="cls-15" d="M235.75,261a2.88,2.88,0,0,1-2.69-3V217.94a2.71,2.71,0,1,1,5.38,0V258A2.88,2.88,0,0,1,235.75,261Z"/><path class="cls-15" d="M250.26,254.39a2.88,2.88,0,0,1-2.69-3V224.59a2.71,2.71,0,1,1,5.38,0v26.76A2.88,2.88,0,0,1,250.26,254.39Z"/><path class="cls-15" d="M265.21,264.71a2.88,2.88,0,0,1-2.69-3V228.31a2.71,2.71,0,1,1,5.38,0v33.36A2.88,2.88,0,0,1,265.21,264.71Z"/><path class="cls-15" d="M201.21,276.87a2.88,2.88,0,0,1-2.69-3V250.22a2.71,2.71,0,1,1,5.38,0v23.61A2.88,2.88,0,0,1,201.21,276.87Z"/><path class="cls-15" d="M213.32,269.32a2.88,2.88,0,0,1-2.69-3V245a2.71,2.71,0,1,1,5.38,0v21.29A2.88,2.88,0,0,1,213.32,269.32Z"/><path class="cls-15" d="M288.82,273a2.88,2.88,0,0,1-2.69-3V245a2.71,2.71,0,1,1,5.38,0v25A2.88,2.88,0,0,1,288.82,273Z"/><path class="cls-15" d="M278.73,258.37a2.88,2.88,0,0,1-2.68-3V225.89a2.71,2.71,0,1,1,5.37,0v29.44A2.88,2.88,0,0,1,278.73,258.37Z"/><path class="cls-15" d="M300.1,267.44a2.88,2.88,0,0,1-2.69-3V257a2.71,2.71,0,1,1,5.38,0v7.4A2.88,2.88,0,0,1,300.1,267.44Z"/><polygon class="cls-20" points="409.02 151.2 405.47 158.42 380.07 142.4 383.63 135.18 409.02 151.2"/><polygon class="cls-28" points="382.57 137.59 381.11 140.55 375.25 136.86 376.71 133.9 382.57 137.59"/><g class="cls-36"><path class="cls-37" d="M377.19,136.14c-4.34,8.81-14.21,12-22,7.07s-10.59-16.08-6.25-24.89,14.2-12,22-7.07S381.53,127.33,377.19,136.14Z"/><path class="cls-38" d="M352.12,115.69l17.57,26.72a15.37,15.37,0,0,0,4.95-4.46L357.32,111.6A15.12,15.12,0,0,0,352.12,115.69Z"/><path class="cls-38" d="M359.63,110.75,376,135.69a1.51,1.51,0,0,0,.11-.22,17.94,17.94,0,0,0,1.35-3.71L363.37,110.3A13.88,13.88,0,0,0,359.63,110.75Z"/></g><polygon class="cls-39" points="382.8 137.13 408.2 153.15 409.02 151.49 383.62 135.46 382.8 137.13"/><polygon class="cls-21" points="380.06 142.69 405.46 158.71 406.28 157.05 380.88 141.02 380.06 142.69"/><path class="cls-6" d="M350,119c4-8.17,13.14-11.1,20.35-6.55s9.81,14.87,5.78,23S363,146.57,355.78,142,346,127.15,350,119Zm-2.11-1.34c-4.66,9.47-1.65,21.47,6.72,26.75s19,1.88,23.64-7.6,1.65-21.46-6.72-26.74-19-1.88-23.64,7.59Z"/><path class="cls-40" d="M327.31,252l-3-1.93c-1.73-1.11-2.89-4.08-2.57-6.65q.82-5.28,1.66-10.55l17.42,11.15-7.14,7C331.89,252.72,329,253.14,327.31,252Z"/><path class="cls-17" d="M352.12,230.32c7.22-.95,14-5.63,17.83-13.34,6.41-12.83,2.42-29.11-8.91-36.37s-25.73-2.75-32.14,10.08a29.76,29.76,0,0,0-.93,24.17l-4,7.95a17.32,17.32,0,0,0-1.7,9.39l19.6,12.55a14.58,14.58,0,0,0,6.24-6.48Z"/><path class="cls-28" d="M324.3,250.1l3,1.93c1.71,1.1,4.51.7,6.3-.88l-11.89-7.61C321.45,246.08,322.59,249,324.3,250.1Z"/><path class="cls-41" d="M361.19,180.72l-28.93,57.86,9.64,6.17a14.58,14.58,0,0,0,6.24-6.48l4-8c7.22-.95,14-5.63,17.83-13.34C376.33,204.21,372.4,188,361.19,180.72Z"/><polygon class="cls-7" points="332.11 301.18 398.45 218.75 383.25 328.91 332.11 301.18"/><polygon class="cls-42" points="357.68 315.04 398.45 218.75 332.11 301.18 357.68 315.04"/><polygon class="cls-42" points="367.38 320.33 353.02 326.05 347.96 309.8 398.45 218.75 367.38 320.33"/><polygon class="cls-7" points="347.96 309.8 353.02 326.05 398.45 218.75 347.96 309.8"/><path class="cls-11" d="M154.15,215.21c-11.48,5.81-16.62,21-11.49,34s39.83,37.65,39.83,37.65,6.88-45.7,1.75-58.69S165.63,209.39,154.15,215.21Zm15,37.91c-7,3.53-15.14,0-18.26-7.89s0-17.14,7-20.66,15.15,0,18.26,7.89S176.11,249.6,169.14,253.12Z"/><path class="cls-12" d="M154.15,215.21l3.7,9.36c7-3.53,15.15,0,18.26,7.89s0,17.14-7,20.66l13.35,33.78s6.88-45.7,1.75-58.69S165.63,209.39,154.15,215.21Z"/><ellipse class="cls-1" cx="129.17" cy="146.31" rx="35.32" ry="39.97"/><g class="cls-43"><path class="cls-44" d="M121.92,158.51c-1-.93-2.9-.91-3.89-1.33-.3-.22-1.17-2.35-2.13-.22.19-4.41-4.32-4.33-5.64-7.06.07,0,.46,0,.45-.14.19.94-3.93-.84-3.51-.84.17,0-.72.94-.7.8s-.1-.22-.1-.33.55-.18.37-.46c-.65-1-2.74,2.37-2.6,2.37a3.27,3.27,0,0,1-2.8-2.28c-.91-2.31.78-1.2-2-2.15.22-.35,1.33-2.76,1.18-3.09-.35-.77-3.4,2.8-3.55,1.71,0,0-.64-5.35-.38-4.88,1.83-.94,2.16-1.37,3.61-.89-.58-.18.64-.88.75-1,.09-1.24,3.13,3.19,2.32,3.19.91,0,.14-4.41,1.91-4.84.94-.23,1.09-1.08,1.39-1.33.14-.11,0-1.78.59-1.84,0,.11-.46,1.17-.36,1.31s.59-1.17.59-1.26c.09.88,1.22-1.59,1.62-1a1.47,1.47,0,0,0-.45.06c.73-.22.91-.43.94-.13,0-.1.64-.1.52-.42,0,0-.42.25-.37-.18s.94-.82,1.26-1.14c0,.22,1.42-.35,1.86-.75,0,.08-.28.2-.28.23s.35,0,.39,0c0,.4-1.34.15-1,1,.11.32,3.39-1.87,2.66-1.87-1.77,0-.53,1.13-1.3-.47a3.24,3.24,0,0,1-.81,0,0,0,0,0,1,0,0c.48.14.7-.34,1.06-.43.26-.89-3,1-2.92,1,1.76-1.85,3.54-1.14,5.35-2.22,1.63,0,1.56-2.33.46-1.51.15-.22.67-.07.79-.3,0,0-.2-.31-.24-.36-1.86-.1.28-2-1-2.79,1.67,1-4.38-.26-1.59-.26,0,0,0,0,0,0s-.67-.13-.69-.13c.56-.32-1-.75-1.32-.6-1.1-.19-1.64,3.15-2.54,3.73-2.92,1.92-.39,2.2-1.53.08a7.89,7.89,0,0,0-3-1c-.41.63,2-4.47,2.69-3.22-.14-.26-.63,0-.77-.3,1.49.37,1.91-.5,3.21-.93-.41.43-.82.87-1.18,1.2.16,0,2,.21,2.35-.09-.24.21-.66-1.19-.89-1.19-.08,0,0,.35-.18.39.08-.14.17-.33,0-.35a.22.22,0,0,0,0-.16l.22,0s.36.45.46.45c-.13,0,1.86-1.31,1.53-1.94,0,0,1.73.11,1.38-.46.28,0,.35.78.62.55,0,.23-.44,0-.42.28,0,.11.57.07.63,0,0,.22-.28.37-.27.4.09.54.4-.27.41-.29.06.15.06.07.18.11-.07.38-2.5,2.15-2.72,1.78a32.26,32.26,0,0,0,3.34,1.4c.36,0-.45-.92-.46-1,.4,0,.73.71,1,.71.08,0,.51-1.33.48-1,0-.11-.69-.71-.66-.72-.1.35,1.89-.21,2.39-.47-.14-.06-1.67-.9-1.68-.92,0-.2.74-.17.75-.32,0-.65-.38.48-.05-.19,0,0-1.07-1.37-1.53-.69,0,0-.57-.74-.53-.67.13-.68-1-.49-1-.3,0-.13.2.34.11.26.18.12.55-.11.66,0a8.21,8.21,0,0,1-1.16.32c0-.12.41-.43.4-.66,0-.85-1.79.87-1.79.93l-.17.1s-.21-.13-.21-.18c-.06-.45,1.13-.8,1.09-.95-.12-.49-2.29.52-2.45,1.1v0a3.78,3.78,0,0,1,.7.11c-.08,0-.78-.11-.74.1.08.43,1.78.37,1.78.38s-.14.13-.15.13c-.39.25-1.66.42-1.56.66a7.71,7.71,0,0,1-.67.52.56.56,0,0,0-.14-.25c.09-.16.67-.29.44-.61,0,0-.15-.19-.18-.19-.18,0-.56.36-.62.58-.28-.55.42-.32.44-.5,0-.37-.65-.16-.67-.2.21-.17.89-.68.25-1v0c.38-.12,1.91-.43,2.09-.83-.07.14-3.15.73-3.49,1.58-.14.35.45.28.51.3s0,.08.09.11c-.2.09-1.19.59-1.19.94l-.16.06s-.06-.06-.1-.07a2.84,2.84,0,0,1,.39-.39c0-.07-.34,0-.39-.09a6.22,6.22,0,0,0,1-.45c.12-.28-1.66-.15-1.59.23,0,.17.34,0,.41.06a2.16,2.16,0,0,1-2.29.29,3.66,3.66,0,0,0-1.36.59s-.13,0-.14,0,0-.41-.26-.39c0,0,.28-.14.28-.15s-1.7.4-2,.13c0-.21.78,0,.65-.32-.34-.72-2.22-.32-2.74-.41a.12.12,0,0,1,.08,0A2.1,2.1,0,0,0,100,118c-.06-.33-.85.45-.94.28s.14-.41.1-.49-.13-.07-.16-.07c-.51,0-.42.67-.49.22.14.81-7.5-.36-7.74-.36,0-.29-5.12.87-5.09,1.27,0,.18.33.84.62.57,0,.47-.79.51-1,.45,0,0,.31-.23.22-.27a6.67,6.67,0,0,0-2,.57c0,.12.31.12.36.11s-.44.2-.43.33c0,.48,1.65-.06,1.87-.09,0,0,.13-.21.15-.06-.86.49-4.51,1.35-4,2.63.17.36.93-.47,1.09-.48-.15.08-1,1.14-1.1,1.06.28.31,1.26-.12,1.53-.26-.34.35,0,.26.24.16-.6.41-5,2.08-5.05,2.24s5.1-1.58,5.75-1.84c-.06.06-.85.37-.69.57,0,0,.08,0,.09.07a5.42,5.42,0,0,0,1.57-.77c0-.14,0,0,0-.13a7,7,0,0,0-.94.25,8.35,8.35,0,0,1,2.45-1.48c-.22.2-1.06.63-1.12.83.09-.3,2.73-.17,2.73-.83,0,.09-.45.25-.36.43s.5-.58.57.21c2.93-.48.94,1.44,1.71,2.65.16.26.6-.53.66-.86,0,0-.2,2.92-.11,2.87s.26-.07.15.08-.63-.49-.69-.09c-.28,1.94-.81,6.53-1.58,8.39-.19.46,2.54,3.86,1,3.86.49,0,1,3.06,1.53,3.1,0,.13.32-.25.2-.07.1-.15-1.33-4.85-1-4.85s1.64,3.49,2.21,4.43a14.8,14.8,0,0,1,1,3c.11.48,2.49.94,2.54,1.4-.12-.89,6.8,4.47,6,4.2a2.8,2.8,0,0,1,.31.09s-.39.43-.1.43,1.36-1.12,1.42-.68c.09.68.51,2.64.44,2.64-1.23,0-1.54,3.91-1.18,3.4-.53,4.91,4.85,7.16,5,12.28,0,1.74,1.15,8.89.76,9.44-.09.13.17,1,.29,1,.27,0,0-.77.08-1h.11a3.5,3.5,0,0,1,.24,1.64c-.12,0-.17-.37-.32-.37.14,0-.06,1.69,0,1.69s.64-.13.64-.34c0,0,.11.35.16.36s0,.21,0,.26c-.39.77.84,3,1,2.64a.78.78,0,0,1,0,.14c-.14,0-.28-.18-.27.1s3.36,1.78,3.5,1.59c0,0,0-.05,0,0,.09-.28.16-.21.43-.69-2.47-.78-2.7-5.14-2.23-6.41.18-.4.32.47.53.12s-1.28-.68-.87-1.12c.09-.08,1.13.72,1.13,0,0-.07-.31-1.05-.3-1.05,3.27-1,1-.55,1-2.49,0,2.12,3.32-2.24,2.77-2.24.11,0-.33.71-.14.71.37,0,1.26-4.3,2.4-4.74s4.2-9,3.2-10Zm-6-32.26c.67-.35.25-.14,0,0C116,126.22,115.91,126.26,115.92,126.25Zm-1.53-5.13c-.25.24.14-.22,0,0C114.38,121.12,114.39,121.11,114.39,121.12Zm.29-2.54c.2-.06.09-.06,0,0ZM113,117c.15,0,0,0,0,0Zm-4.06,1.53Zm-.15,1.44c1.07-.14.35,0,0,0C108.78,120,108.71,120,108.74,120Zm-1.51-.94c.31.16-.1,0,0,0Zm-2.14-.25c0-.08,0-.07,0,0ZM100,139c.11-.15,0-.06,0,0ZM86.26,119.74Zm.58,2.62c-.73.16.16,0,0,0Zm3.28,2.42c.08-.14.22-.32,0,0Zm.57.67c-.17.32-.13.23,0,0C90.66,125.51,90.69,125.44,90.69,125.45Zm10.13,24c-.55.45.22-.17,0,0C100.78,149.52,100.84,149.47,100.82,149.48Zm5.86,1c-.45.71.62-.94,0,0C106.63,150.59,106.72,150.45,106.68,150.5Zm2.58,30c.07-.09-.16.23,0,0Zm.11.58c-.25-.26,0-.39,0,0C109.36,181.08,109.37,181.09,109.37,181.1Zm.06.06Z"/><path class="cls-44" d="M108.23,127.66v0Z"/><path class="cls-44" d="M110.32,184.22Z"/><path class="cls-44" d="M111.08,149.79c-.47.36-.12.54,0,0Z"/><path class="cls-44" d="M109.89,149.53c0-.19.09.34,0,0Z"/><path class="cls-44" d="M113.79,130.18c.47.16-.68-.48-.54-.48,0,0-.23.16-.22.22C113.31,130.46,113.51,130.18,113.79,130.18Z"/><path class="cls-44" d="M114.46,128.72c.28,0-.68-.92-.86-.54S114.3,128.72,114.46,128.72Z"/><path class="cls-44" d="M114.77,122.55c-.64.32.14-.06,0,0S114.8,122.54,114.77,122.55Z"/><path class="cls-44" d="M112.51,121.22Z"/><path class="cls-44" d="M112.27,121.15Z"/><path class="cls-44" d="M112.43,121c.47-.17-.31.12,0,0Z"/><path class="cls-44" d="M113.25,121.46Z"/><path class="cls-44" d="M111.41,121.7c-.42-.52.38.46,0,0C111.38,121.66,111.42,121.71,111.41,121.7Z"/><path class="cls-44" d="M110.66,121.35c-.3-.1-.82.46-.72.48s1.08-.35.72-.48C110.59,121.33,110.68,121.36,110.66,121.35Z"/><path class="cls-44" d="M108.28,126.54c-.08-.68.06.65,0,0Z"/><path class="cls-44" d="M114,118.88c-1.1,1.11,1.07-1.14,0,0Z"/><path class="cls-44" d="M113.31,118.81c.26,0,.21-.29,0,0Z"/><path class="cls-44" d="M114.08,118.09Z"/><path class="cls-44" d="M114.41,118.26Z"/><path class="cls-44" d="M81.28,121.5c.22.53-.25-.62,0,0Z"/><path class="cls-44" d="M80.49,123c.69.74-.34-.34,0,0C80.53,123.09,80.46,123,80.49,123Z"/><path class="cls-44" d="M83.27,124.67c-.56-.45,0,0,0,0Z"/><path class="cls-44" d="M89.41,126.12c-.09.1-.19,1,0,1a8.93,8.93,0,0,1,.62-1.11c.09-.1-.57-.31-.67.08Z"/><path class="cls-44" d="M116.51,184.08c-.24-.06-1.06-.19-1.12-.06a1.59,1.59,0,0,0-.17.27c-.06.16.13.11.12.23.47.13.92-.49,1.17-.44C116.5,184.07,116.53,184.08,116.51,184.08Z"/><path class="cls-44" d="M105,144.69s.93-.05.91-.19c-.24-1.45-3.61-1.72-4.58-.87.15-.08.32-.08.25.07.32-.18.79-.64,1.18-.45,0,.07-.18.06-.16.14.11.38,2.58,1.35,2.4,1.3Z"/><path class="cls-44" d="M102.29,143.52Z"/><path class="cls-44" d="M104.66,142.18c.32-.46-.53.71,0,0Z"/><path class="cls-44" d="M106.17,144.15Z"/><path class="cls-44" d="M104.75,145.56c-.06,0-.94-.4-.81.06.16.62,1.06,0,.81-.06Z"/><path class="cls-44" d="M107.12,145.63c.28-.26.69.09.95.09a1.93,1.93,0,0,0,.17-.21c.49-.75-1.94-.8-2.12-.81-.12.22.38.66.4.69s-1-.19-1,.14,1.62.06,1.58.1S107.11,145.64,107.12,145.63Z"/><path class="cls-44" d="M108.68,145.81c.21.31.78-.35.69-.35s-1-.11-.69.35C108.7,145.83,108.66,145.77,108.68,145.81Z"/><path class="cls-44" d="M110.43,145.61c-.35.11.22-.1,0,0Z"/><path class="cls-44" d="M110.9,146.22c.1-.26-.09.22,0,0C110.91,146.18,110.88,146.25,110.9,146.22Z"/><path class="cls-44" d="M111.17,146.57c-.25-.34.3.42,0,0C111.15,146.55,111.18,146.59,111.17,146.57Z"/><path class="cls-44" d="M111,147.35c.29-.59.08,0,0,0Z"/><path class="cls-44" d="M111.26,147.72Z"/><path class="cls-44" d="M111.16,148.11c.3-.57-.41.95,0,0Z"/><path class="cls-44" d="M110.82,149.12c.11-.22,0-.28,0,0Z"/><path class="cls-44" d="M110.77,138.05c1-1.07-.62.66,0,0C110.79,138,110.74,138.09,110.77,138.05Z"/><path class="cls-44" d="M114.34,129.34c-.1-.14.22.28,0,0Z"/><path class="cls-44" d="M117.56,129.72c.25-.28,0-.66-.15-.44,0-.07.38-.37.28-.46s-.25.26-.36.26c0,0,.31-.64.32-.62s-.23-.22-.16-.22c-.56,0-.21.23-.48-.14-.09-.13-.4.08-.48.12.07-.32.79-.71.79-.87,0,.17-2.22,1.56-2.22,2a8.08,8.08,0,0,0,1.56.11s-.33.22-.33.24c0,.41.83-.37.82-.37a3.91,3.91,0,0,1-.19.49c.1.14.33.17.6-.14C117.58,129.7,117.55,129.74,117.56,129.72Z"/><path class="cls-44" d="M116.25,129.72Z"/><path class="cls-44" d="M116,122Z"/><path class="cls-44" d="M111.32,115.11c.15.2.77.29.84.31a.58.58,0,0,0-.39.53c0,.1.87.12,1-.09,0,.16-.16.22-.13.24a9.09,9.09,0,0,0,3-.39,13.54,13.54,0,0,0-2.65-.24c2.76-.91,5.15-1.27,9-2.29,0,0-.13,0-.11-.06.38-.09.9-.09,1.28-.15-2.66-.75-5.66-.21-8.42.19a3.85,3.85,0,0,0,1.17.43,3.84,3.84,0,0,0-3.11.37,6.21,6.21,0,0,0,2,.58C114.26,114.31,112.09,115.11,111.32,115.11Zm5.39-1.58c-.08.45-.28.06,0,0Z"/><path class="cls-44" d="M113.27,115c.13-.67-.21,0,0,0Z"/><path class="cls-44" d="M112,114.79c.57-.47.61.28.63-.37C112.63,113,111.19,115.41,112,114.79Z"/><path class="cls-44" d="M112.18,113.94c0-.59-.24,0,0,0Z"/><path class="cls-44" d="M110.2,114.35c.28,0,.72.34,1.15.18C110.79,113.89,110.37,113.92,110.2,114.35Z"/><path class="cls-44" d="M109.41,115Z"/><path class="cls-44" d="M109,115.47c-.16,0,2.58.59,1.89-.42A12.73,12.73,0,0,0,109,115.47Z"/><path class="cls-44" d="M110.62,115.72c-.41.26,1.12.49.94-.1s-.94.1-.94.1Z"/><path class="cls-44" d="M108.57,116.36c.41-.26-.9.47-.83.36a1.37,1.37,0,0,0,0,.29c.09.88,2.09-.11,2-.37.09.2-.47,0-.38,0,.23-.39.37.05.5-.52C109.52,116.13,108.79,116.1,108.57,116.36Zm-.33,1Z"/><path class="cls-44" d="M100.38,117.24a4,4,0,0,0,2.52-.37c-.71.48-.28.29-.79.64-.17.3,1.48.21,1.63.35-.26,0-1.82-.12-1.85.27s.73.21.89.21c.09.52,4.42.34,4.38-.36,0-.35-.63-.18-.68-.4s1.23-1.08,1.23-1.16c0-.69-1.91.78-2,.85,0-.24.37-.68-.21-.68.09,0-.23.36-.48.31C106,115.94,100.27,117.24,100.38,117.24Zm2.2.21c-.12,0,.15,0,0,0Zm3.64.76Zm-3.19-1.4h0S103,116.81,103,116.81Z"/><path class="cls-44" d="M106.41,118.56c-.38.49.06.09,0,0Z"/><path class="cls-44" d="M107,118.42Z"/><path class="cls-44" d="M107.52,117.69Z"/><path class="cls-44" d="M108.28,115.8c.56.33-.23-.16,0,0Z"/><path class="cls-44" d="M103.46,115.42c.05.27,1-.22,1.19,0-.09,0-.42.06-.35.22s.77-.26.76-.29-.25.14-.35.07a.06.06,0,0,0,0,0c.12-.07.35-.26.48-.22-.08,0-.12.23,0,.23s0,.07.06.09c-.13,0-.66.12-.7.23a8,8,0,0,0,1.54.07c0,.29-.91,0-1,.2,0,0,3.35.21,3.35-.51,0-.25-.58,0-.71-.12.07,0,.34-.21.27-.3-1.21.65-1,.16-2.14.1.06,0,.55-.31.51-.39-.15-.3-2.95.48-2.92.71C103.47,115.46,103.46,115.41,103.46,115.42Zm2.31-.3Zm-.17.06Z"/><path class="cls-44" d="M106.25,115c.55,0,.25-.25,0,0Z"/><path class="cls-44" d="M107.22,114.83c.18,0,1.55-.38,1.48-.56s-1.17,0-1.21.12l-.27.44Z"/><path class="cls-44" d="M130.09,118.71c.2-.1,1.5-.73,1.49-.74-.42-.06-.87,0-1.29-.07h1.53c.53,0-.84-1.3-.86-1.33a1,1,0,0,1,.51,0c-.55.42.06.2.32.51-.19,0,.3-.27.27-.4s-.48-.13-.4-.19.73-.09.94-.22c0,.13.55-.38.57-.31a4.25,4.25,0,0,1-.38-.85c-.1-.46.81.28.58.28s.28-.51.29-.47c-.08-.38-.4,0-.55-.23,0,0,.39.13.38,0,0-.54-.74,0-.79,0,.1-.24,2.88-1.82,3.12-1.54-1-1.08-3,.93-3.44-.07a4.22,4.22,0,0,0,1.13-.21c0-.53-3.15-.09-3.22-.11s.38,0,.38-.18c-.06-.47-3.7.53-3.9.23,0,0-.08-.12-.14-.12s.73.47.71.4-2.15-.32-1.3,0c-.12,0-1.15,0-1.07,0,.32-.21-4.19.28-4.14.55s.55-.07.59.06c.16.57-2.86.26-2.89.77a4.57,4.57,0,0,0,.71.28c-.2,0-.62-.13-.67.11-.16,1,3.21-.05,3.24.61,0,.4-.09,1.18.26,1,0,.12-.66.7-.53.85s.58,0,.76-.16c-.06.3.1.52.44.44,0,0,0,.14,0,.14-.76.13-.86-.66-1.38.45-.15.31.9.14,1,0a.94.94,0,0,1,0-.09c0-.06-.3-.16-.35-.22a1.85,1.85,0,0,1,.47,0c-2.16,0-.78,3.35-1.12,3.88-.23.36,1.39,1.26,1.67,1.26-.06,0,3.6-3,3.7-3.14.58-.57,1.17-.77,1.44-1.23A2.09,2.09,0,0,0,130.09,118.71Zm-10.74-3.93s.18,0,0,0Z"/><path class="cls-44" d="M133.28,115.89c.34.09.38-.32,0,0Z"/><path class="cls-44" d="M133.48,114.25c.39-.2-.12,0,0,0S133.47,114.25,133.48,114.25Z"/><path class="cls-44" d="M133.48,114.56Z"/><path class="cls-44" d="M133.69,114.65c0,.08.42,0,0,0Z"/><path class="cls-44" d="M133.76,114.25Z"/><path class="cls-44" d="M133.85,114.3Z"/><path class="cls-44" d="M134.1,114.1Z"/><path class="cls-44" d="M133.2,120.76c1,.39.34-1.15.47-1.07a3.09,3.09,0,0,0-2.25.53c-.24-.56-1.3-.35-1.16,0,.07.18.62-.12.75,0a2.88,2.88,0,0,1-.63.21c-.2.32.49.09.52.09s0,.29.09.18c-.06.15-.41.19-.31.35.47.75,2-.51,2.52-.28C133.22,120.76,133.2,120.75,133.2,120.76Z"/><path class="cls-44" d="M136,121.72c-.39.48-.32.42,0,0Z"/><path class="cls-44" d="M141.79,114c0,.28.29.32,0,.39.28.2,1.16-.14,1.23,0s-.59.11-.52.33c.19.57,3.21-.28,3.2-.06,0-.12-1.26-.28-1.25-.57.28.06,1.66.21,1.75-.25a9.91,9.91,0,0,0-2.51-.2.58.58,0,0,0-.05.14c0,.12.54.17.52.22a16.26,16.26,0,0,0-1.71,0c.29,0-.61-.37-.69.06C141.78,114,141.79,114,141.79,114Zm2.4.11c.38-.37,0,.2,0,0Z"/><path class="cls-44" d="M146.13,114.19Z"/><path class="cls-44" d="M146.48,114.32c.86-.46.06,0,0,0Z"/><path class="cls-44" d="M147.49,113.75c1,0-.53,0,0,0Z"/><path class="cls-44" d="M146.31,113.77c.28.08-.17-.06,0,0Z"/><path class="cls-44" d="M144.27,115.91Z"/><path class="cls-44" d="M145.92,115c-.33.27,0,0,0,0Z"/><path class="cls-44" d="M135.7,117.64c.61-.21.08-.25,0,0Z"/><path class="cls-44" d="M137.57,122.87Z"/><path class="cls-44" d="M135.34,124.47c-.05.1.71-.73.57-.85-.3-.24-.53.75-.57.85Z"/><path class="cls-44" d="M136.12,124s-.87.56-.59.81c0,0,0,0,0,0s.19-.32.31-.39-.21,1.07.14.24c.15.11-.43.37-.37.48s0-.12.21.25c0,.1.36-.31.37-.31s.19.59.64.82c-.11.5-.8.34-.8.51s.1.19.29.25c-.06.11-.45.46-.43.53s.67.17.84.14c-.26.25-.9.27-1.13.68-.39.68,4.54-2.23,2.35-1.47a13.08,13.08,0,0,1-.57-2.44c-.1-.35-.69.14-.8,0,0,0,.78-.72.62-.83,0,0-.15-.07-.14-.07A11.43,11.43,0,0,0,136.12,124Z"/><path class="cls-44" d="M135.62,126.79c.79-1.48-.68-1.73-.68-1.08-.1.13-.68.17-.68.16s-.18,1.49-.26,1.35c.24.41,1.51-.2,1.62-.43C135.63,126.78,135.62,126.81,135.62,126.79Zm-1.12-.33c-.15,0,.28,0,0,0Z"/><path class="cls-44" d="M136.15,126c.36.18,0,0,0,0Z"/><path class="cls-44" d="M133,124.11Z"/><path class="cls-44" d="M141.17,132.86c0,.06-.83,1.33-.1,1.33s.12-2.24.25-2.24c-.62,0-.12.86-.15.91Z"/><path class="cls-44" d="M138.6,133.93c.79.07-.19,0,0,0Z"/><path class="cls-44" d="M139.26,133.71Z"/><path class="cls-44" d="M138,134.27Z"/><path class="cls-44" d="M145.86,134.45c-.39-.07.28.06,0,0C145.83,134.45,145.88,134.46,145.86,134.45Z"/><path class="cls-44" d="M146.76,134.94c.52.18-.92-1-1-.18s1.89.42,1,.18C146.81,135,146.74,134.94,146.76,134.94Z"/><path class="cls-44" d="M131.76,139.73c.4-.19-1.06.55,0,0Z"/><path class="cls-44" d="M130.92,140.12c-.18.14-.14.48,0,0Z"/><path class="cls-44" d="M130.56,140.12c-.14-.35-.15.09,0,0Z"/><path class="cls-44" d="M130,139.66Z"/><path class="cls-44" d="M130.19,140.26Z"/><path class="cls-44" d="M130.05,140.39c.14-.3-.21.42,0,0Z"/><path class="cls-44" d="M130.43,137.71Z"/><path class="cls-44" d="M130.17,137.31c.51-.13-.48.11,0,0Z"/><path class="cls-44" d="M127.41,134.85Z"/><path class="cls-44" d="M126.72,134.31c-.11-.4,0,.17,0,0Z"/><path class="cls-44" d="M126.46,134.4c.06-.26-.14.57,0,0C126.46,134.39,126.45,134.44,126.46,134.4Z"/><path class="cls-44" d="M126.61,146.16c-.45-.12.21.05,0,0Z"/><path class="cls-44" d="M127,146.45c-.27.39.07,0,0,0Z"/><path class="cls-44" d="M127.59,146.71c-.21-.21.31.29,0,0C127.58,146.71,127.6,146.72,127.59,146.71Z"/><path class="cls-44" d="M127.49,146.56c0-.49,0,0,0,0Z"/><path class="cls-44" d="M127.31,147.39Z"/><path class="cls-44" d="M127.48,147c0,.08,0,.62,0,0Z"/><path class="cls-44" d="M126.91,147.39Z"/><path class="cls-44" d="M160.63,148.71c-.78-.45.07,0,0,0S160.64,148.71,160.63,148.71Z"/><path class="cls-44" d="M178.48,146.52c1-1.17,1.27,4.94,1.06,4.94.06,0,.11-.29.12-.34.07.11,2.22,4.86,2.79,4.12.27-.31-3.92-7.06-2.09-7.06.51,0,2.23,2.76,2.16,2.8,3.29-2.1-1.83-7.25,1.29-7.25-.13,0,.05.7.08.77s5.92-3.39,4.23-5.59c.09.12-.71,0-.7,0,.93-.17-.21-1.45-.54-1.8-1.46-1.51.14-1,.14-1.86a2.36,2.36,0,0,0,0-.28c-.1-.11-2.68-.12-2.34-.81a.78.78,0,0,1,.05-.14c.54,0,.74-1.1,1.22-.93.21.08,0,1.21.19,1.21,2.42,0,1.58.3,2.83,2.46.95,2,.31-4.87-.5-3.09,1.49-2.35,2.44-2.71,1.68-6.6,1,.19,1.47,3.26,2.26,3.26-.6,0,.88-.61.53-.14a10.66,10.66,0,0,1-1.16-1.68c.16-.07.77.31.78.28a32,32,0,0,0-2.88-3.08h0c-.23.06.31.46.36.51-.21.34.11,0,.07.7-.85-.92-1.62-1.37-2.33-.9a.11.11,0,0,1,0-.08c-.09.2.53-1-.18-.65-.32.15.29.32.21.47.1-.2-.84-.2-1-.24.9-1.25.79-3,2.57-2.27a11.91,11.91,0,0,0,2.68-.06c.22-2.58.42.47,1.63-1.13.06-.09-.37-.37-.42-.45a3,3,0,0,1,.85.8c-.05,0-.8,1.78-.83,1.57.15,1,2.39,3.65,2.61,4.06s.46-1.14.25-1.56c0,0,.5-.15.48,0,0-.13-.27-1.69-.56-1.69,0,0,.46.29.33,0-.43-1-1.43-.67-1.75-1.76-.12-.37,1.89,0,2.28,0-.71,0,1.95-2.09,1.7-1.25.19-.66-1.58-.79-1.8-1.16.18,0,.64.1.64-.26,0-.12-.53-.47-.49-.47s.12.14.14,0c.11.45,3.13,1,3.16.83s-.48-.44-.53-.49c1-.79-1.87-.78-1.84-.86a1.6,1.6,0,0,0,.35.28c-2.36-.67-4.49-1.59-7-1.7,0,0,.83.69.83.6-.3.56-8.39-1.43-9.89-1.55,0-.08.23,0,.26-.07a9,9,0,0,0-1.72-.17c0,.2-.23,0-.27.2,0-.15.63.41.64.42-.48,0-1.7-.47-2.36-.22-.08,0,.1.45.13.57-.31-.1-3.56-2.14-3.77-1.32,0,.12.34.28.4.38-1.15-.41-3.38.09-4-.49.09,0,.45,0,.45-.19,0-.38-1,.23-1,.25s.26.07.34.07c-.06.24-1.17.06-1.17.37,0-.45,1.53-.68,1.47-1.08-.24-1.23-4.39-.61-4.25-.55-.66-.15-1.15.14-1.8.1-.22.08-2.12.5-2.12.79,0,.07.66.11.76.16-.33.23-1.71,0-1.75.37s1.17.54,1.17.64a3.78,3.78,0,0,1-1.5-.33c.06,0,.29,0,.31-.06.18-.42-.87.27-.72.25s.39,0,.53.09c-.1,0-.59-.11-.63.07-.07.36,1.13.2.65.26-.28,0-1.34-.52-1.28-.71s-.07,1-.17.66a1.72,1.72,0,0,0,1.58,1s-.51.06-.55.16.44,1.9-1,1.06c1.71,0-.67-3.58-1.43-3.25-1.35.58.65,2.37.64,2.41-.36-.08-3.58-1.14-3.56-.89a8,8,0,0,0,1,.51c0,.18-.41.09-.21.27l0,0-.14,0c.12,0-.28-.44-.33-.49s-1.23,1-1.23.24c0-.2-2.66,1.41-2.82.71.08-.14.48-.06.49-.18s-1.14-.43-1.11-.4.53,1,.54.88c0,.12-.12.21-.07.34-1-.81-1,.5-1.09.67s-1.07-.34-1.13-.25-.14.11-.17.15.55.37.61.44c-.73.42-1.52-1-1.93-1.34.64-.23,4.1.69,2-.64-1.32-.81-2.14-.6-3.24-.79,0,0,.46-.16.45-.24-.07-.44-.94-.06-1-.08.35-.64-.77.14-.9.15,0-.08.32-.34.24-.44a5.19,5.19,0,0,1-1.34.21s.24.11.28.21c-1.27-.16-1.78.47-2.93,1a.38.38,0,0,0,0,.15c.07.09.58-.24.71-.27,0,1.57-2.6,2.17-2.62,2.7,0-.35.24,5.1,1.19,1.68a3.51,3.51,0,0,1,.19,2.41c0,.06.18.15.22.15,1.3,0,1.74-1.78,2.54-2.7.08-.08-1.21-1.08-.31-1.59.75-.42,2-.94,2.18-1-.4,0-1.86,1.23-1.15,2,.53.61,2,.3,2.94.43-.49.13-2.66.2-2.72.86a.84.84,0,0,1,.11.27,3,3,0,0,1,.84-.25c0,.21,0,.42,0,.61-.91.31-3.06,2.55-4.7,1.62-.51.43,0-1.78-.09-1.92-.81-1-.63,1.9-.63,1.91a38.05,38.05,0,0,1-4.07,2.22c.86,0-1.37,1.21-1.19.72-.16.48,3.16,2.68-.34,2.68-1.94,0-1.76,1.69-1.7,3.7,1.92.78,7.69-4.82,7.69-3.27,0,.38,4.53,2.51,1.1,2.51,0,0-.13.16-.13.16,0,2.31,2.69-1.38,1.81-1.38.14,0,.5.39.55.37a18.25,18.25,0,0,1-2.41-3.07c.11,0,.2-.15.29-.15.48,0,4.11,5,4.51,4.44,0,.06.26-.47.22-.29s-1.14-1.32-.93-1.32,1.53-.54,1.6,0c0,.09-.34.56-.3.69.18.46.39-.22.4-.22a.59.59,0,0,0,0,.37c.05.16-.69,0-.4.39,0-.06.49.16.57.12a3.5,3.5,0,0,0-.13.86s.37-.28.47-.32c0,.17-.26.29-.11.6-.28-.58,3.32.14,3.32-.5.68,3.06-1.61,3.39-3.8,2.94-.32-.07-4.15-.51-3.06.57a9.63,9.63,0,0,0-3.18-1.77c-.72-.22.35-1.38,0-1.89-.83-1.42-7.34,1.6-8.07,2.14-1.72,1.22-5.62,9-3.94,11.17.71.89,1.43,2.33,2.35,3.49,1.69,2.4,4.08.52,6.12.24,3.37-.38,3.43,5.66,4.36,8.54.79,2.32-1.33,4.06.18,6.62,1.06,1.76,1.05,5.33,1.91,6.84,2.54,4.46,6.6-5.54,7.31-6.86-.21-1.38,4.89-5.83,1.78-8.15-.8-.56,6.31-8.37,5.25-10.08.19.27-3.86.23-3.7.23.9-1.72-5.17-7.4-4.67-10.16.1.25.49,1.17.77,1.17.12,0,.18-.65.21-.81.06,1.13,4.87,8.78,4.62,9.09,1.6-2,6.3-2,6.22-5.31,0,.17-2.21-2.09-1.76-2.09-.56,0-.88,1.21-1.7,1.21-.53,0,.1-1.26-.48-1.26-.14,0-.1.49-.12.51s-2.14-2.88-.75-2.65c.23,0,1.93,2.73,2.57,1.85s5.5,2.35,6.56,2.11c-.1.41-.57.16-.63.31s1.49,1.82,1.49,0c-.82.26,3.2,10,3.56,7.24.06-.48-.21-3.58.54-3.89a8.17,8.17,0,0,0,2.56-3.25c0,.39,1.28.1,1.36-.27.35,1.38,1.93,4.06,2.55,3.33Zm9.45-6.92c.1-.15-.2.26,0,0Zm-5.42-22.46h0C182.6,117.09,182.5,117.14,182.51,117.14Zm-19.41,2c-.2,0-.41-.52-.68-.65C162.78,118.5,163.06,119.1,163.1,119.1Z"/><path class="cls-44" d="M194.06,122.44Z"/><path class="cls-44" d="M184.34,145Z"/><path class="cls-44" d="M195.36,123.32Z"/><path class="cls-44" d="M158.88,164c0-.08-.18-1.72-.41-1.72.75,0-2.51,2.49-2.36,2.21-.15.27-.51,5.09-.2,5.13,2.22.33,2.3-3.73,2.64-5.23,0,.13.65.23.33-.39C158.83,163.92,158.92,164.09,158.88,164Z"/><path class="cls-44" d="M172.37,151.21c-.12-.27-.36-1-.72-1-1.39,0,2.13,4,.72,1C172.37,151.19,172.41,151.28,172.37,151.21Z"/><path class="cls-44" d="M177,149.06c-.16.28.4-.19.19-.83-.09-.27-.2.85-.19.83Z"/><path class="cls-44" d="M177.1,149.77h0C177.08,149.71,177.11,149.84,177.1,149.77Z"/><path class="cls-44" d="M177.16,150.52c0,.38.06,0,0,0Z"/><path class="cls-44" d="M177.55,151.18c-.09-.41.14.62,0,0Z"/><path class="cls-44" d="M177.68,151.67c0,.09.19.4,0,0Z"/><path class="cls-44" d="M178.78,154.17c-.6-.43.75.55,0,0Z"/><path class="cls-44" d="M179.41,155c-.54-.63.76.85,0,0Z"/><path class="cls-44" d="M179.26,154.7c0-.31,0-.36,0,0Z"/><path class="cls-44" d="M179.82,155.88c-.07-.65.08.71,0,0Z"/><path class="cls-44" d="M179.82,155.67Z"/><path class="cls-44" d="M180,156.31c-.39-.34.39.2,0,0Z"/><path class="cls-44" d="M180.5,157.06Z"/><path class="cls-44" d="M182.58,158.89s.83-1.86.85-1.8-.5-.53-.53-.57c0,.12,0,0-.11,0s-.2.23-.17.29.32.15.37.41c-.24,0-.06-.1-.15-.2-1.29-1.47-2.12-3.76-4.55-4.36.44.65,3.48,6.61,4.29,6.24Z"/><path class="cls-44" d="M182.31,155.9Z"/><path class="cls-44" d="M183.7,157.54c.82.28-.59-.22,0,0Z"/><path class="cls-44" d="M184.61,160.1c.43.45,2.44.43,2.18.58a2.26,2.26,0,0,0,.33-.31c0-.13-1.19-.65-1.24-.59s.66-.08.61-.2c-.2-.69-4.08-.31-3.92-.31a22,22,0,0,0,2,.83Z"/><path class="cls-44" d="M188,160.69c.59.1-.62-.55-.66-.46s-.26.4-.15.46.49,0,.81,0C188,160.71,187.92,160.69,188,160.69Z"/><path class="cls-44" d="M188.25,160.59c.29.58-.62-1.14,0,0Z"/><path class="cls-44" d="M189.82,160.62c.32-.16-.79-.21-1-.05a1.65,1.65,0,0,0,1,.05Z"/><path class="cls-44" d="M188.43,161.12c.06,0,.87.51.82.16C189.13,160.47,188.33,161.12,188.43,161.12Z"/><path class="cls-44" d="M190.33,161.43c.41.07,1.36-.77,1.73-1.05-.49,0-2.07,1-1.73,1.05C190.37,161.43,190.31,161.42,190.33,161.43Z"/><path class="cls-44" d="M190.87,155.57c.12-.11.72-.84.29-.84-1.45,0-3.88,2.43-2.44,4.07l.11.08c.11,0,.23-.08.35-.08a7,7,0,0,0,0-1.44c.09-.08.24-.12.32-.19.11.14,0,1.26.42,1.26a13.43,13.43,0,0,1,.66-2.43,2.29,2.29,0,0,0-1.22.38c-.49-1.87.91-.19,1.53-.81Z"/><path class="cls-44" d="M190.34,156.6Z"/><path class="cls-44" d="M191.25,156.78Z"/><path class="cls-44" d="M190.07,158.74c.27.4.32-.27.34-.47.07-.5-.53.53-.44.45s.06,0,.1,0Z"/><path class="cls-44" d="M189.9,158.51Z"/><path class="cls-44" d="M192.31,156.65c.53-.35-.1,0,0,0Z"/><path class="cls-44" d="M192.21,156.13c.18-.49.15.43.28-.64.11,0,.33.14.41,0-.26-.68-.12-.45-.36-1.05C192.31,154.34,192.19,156.43,192.21,156.13Z"/><path class="cls-44" d="M192.79,154.26c-.06-.22.19.74,0,0Z"/><path class="cls-44" d="M192.19,157.67Z"/><path class="cls-44" d="M192.65,157.52a5.82,5.82,0,0,1,1,.3c.2-.65-1.2-.85-1-.3Z"/><path class="cls-44" d="M193.59,156.62c-.57-.33.22.12,0,0Z"/><path class="cls-44" d="M193.66,156c.74-.5-.25.19,0,0Z"/><path class="cls-44" d="M200.78,159c-2.93-1.53-5.11-2.75-7-2.92-.05,0-.08.34-.1.14.32.16.83,1.05,1.32.79-.17.09-.65.06-.73.21.06-.11.38.76.42.76.19,0,.27-.38.35-.51,0,1,1.47,1.18,1.47,2.81,0,.59,3.28,0,2.41,0,1.15-.87,2.34,2.23,3.1,1.38-.09.11.18-.29.18-.25,0-.36-1.93-1.25-1.56-1.93,0,.08,1,0,.18-.45Z"/><path class="cls-44" d="M195.65,156.55Z"/><path class="cls-44" d="M195.08,159Z"/><path class="cls-44" d="M194.1,159.69c-.17.05-.42.12-.53.67-.1.29.45-.64.53-.67Z"/><path class="cls-44" d="M193.08,160.19Z"/><path class="cls-44" d="M190.82,160.47c.57-.73-.07-.07,0,0Z"/><path class="cls-44" d="M190.09,160.46c0-.1.69-.07.6-.18C190.34,159.83,190,160.51,190.09,160.46Z"/><path class="cls-44" d="M201.28,159c1.07,1.14,1.7-1,1.66-1s-.15,0-.26,0c.11,0-1.16,1.34-1.4,1.08Z"/><path class="cls-44" d="M201,158.94Z"/><path class="cls-44" d="M200.53,156.81c0,.08.64.18,0,0Z"/><path class="cls-44" d="M202.11,157.21c.35.29-.49-.51,0,0Z"/><path class="cls-44" d="M202.48,157.33c.16.12.86,1.06.75,1.06.91,0-1.59-1.69-.75-1.06Z"/><path class="cls-44" d="M203.93,158.93c0,.09.66.95.53.39-.3-.66-.36-1-.53-.39C203.91,159,203.93,158.92,203.93,158.93Z"/><path class="cls-44" d="M204.74,159.57c.79.9-.48-.53,0,0Z"/><path class="cls-44" d="M204.66,160.07c.33.24-.31-.24,0,0Z"/><path class="cls-44" d="M205.11,160.05c-.41-.47.78.87,0,0Z"/><path class="cls-44" d="M205.55,160c.44,1.19-.2-.53,0,0Z"/><path class="cls-44" d="M206,160.83Z"/><path class="cls-44" d="M206.4,160.56c-.12,1.16-.08-.53,0,0C206.4,160.59,206.39,160.45,206.4,160.56Z"/><path class="cls-44" d="M206.7,161.29c.05.11.56.92,0,0Z"/><path class="cls-44" d="M208.86,164.88c0-.17-.07-1.11-.31-1.11s.12,1.11.31,1.11Z"/><path class="cls-44" d="M205.8,160.65Z"/><path class="cls-44" d="M201.94,160.33Z"/><path class="cls-44" d="M203.21,160.76Z"/><path class="cls-44" d="M202.16,161.29Z"/><path class="cls-44" d="M202.07,161c-.06,0-.15.05,0,0Z"/><path class="cls-44" d="M202,160.65Z"/><path class="cls-44" d="M202.35,160.5Z"/><path class="cls-44" d="M207,166.74c-.1-.17-.36-1-.19-1-.67,0,.39,2.73,1,2.73S207.08,166.9,207,166.74Z"/><path class="cls-44" d="M213.39,165.38c-.29-.31-.55-.1-.68.23,0,.55,1,.07.68-.23Z"/><path class="cls-44" d="M214.11,164.57c.06,0-1.11.37-.59.46C213.82,165.05,214.16,164.57,214.11,164.57Z"/><path class="cls-44" d="M186.65,157.79c0,.18.7.22.71.22a13.73,13.73,0,0,1,1.31-2.83c0,.13-1-2.7-.43-2.23.06,0,.57.09.5-.15,0,.07-1.39-1.18-1.07-1.22-.47,0-2.11,2.8-3.07,2.86a3.81,3.81,0,0,0,.17,3c-.15-.23,1.14.35.73.35.3,0,1.05-.6,1.15,0C186.66,157.8,186.65,157.75,186.65,157.79Z"/><path class="cls-44" d="M187.94,151.83c.28,0,.14,0,0,0Z"/><path class="cls-44" d="M188.3,151.71Z"/><path class="cls-44" d="M187.86,150.65c-.62.76,1.31-.58.73-1.26.12.14-.6,1.1-.73,1.26Z"/><path class="cls-44" d="M188.66,149.43c.33-1-.21-.3,0,0Z"/><path class="cls-44" d="M189.32,148.4c-.28-1.18.34,1.38,0,0C189.31,148.36,189.32,148.41,189.32,148.4Z"/><path class="cls-44" d="M189.72,149.08c-.23-.29-.05.89-.06.89.38,0,.13-.29.47-.4a1.29,1.29,0,0,0-.19,1c-.08-.12.4.17.22.17.25,0,.51-1.24.4-1.24-.27.26-.49,0-.84-.4C189.71,149.06,189.73,149.08,189.72,149.08Z"/><path class="cls-44" d="M190.75,150c-.57.85,0,0,0,0Z"/><path class="cls-44" d="M191.58,152.24c-.27-.42.27-2.35-.34-2.35.3,0-.56,1.21-.64,1.29-.26-1.06-1.06.75-.75.75.13,0,.63-.53.63-.57.41.34.21,1.33.85,1.33s-.62-1.73.25-.45Z"/><path class="cls-44" d="M191,150.14c.39,0-.16-.74-.34-.79C190.62,149.38,190.83,150.14,191,150.14Z"/><path class="cls-44" d="M190.56,148.9c.22.24.45.75.76.75.7,0-1.35-1.38-.76-.75C190.58,148.91,190.51,148.84,190.56,148.9Z"/><path class="cls-44" d="M189.26,145.43c-1.63,0-.47,2.64.61,3,.18-.09-.1-.29-.1-.41a2.82,2.82,0,0,1,.63.71c-.32-.4-.3.43-.31.47.35-.35.21.16.41,0S188.63,145.43,189.26,145.43Z"/><path class="cls-44" d="M189.61,148.18c-.35-.23.3.22,0,0C189.58,148.17,189.64,148.21,189.61,148.18Z"/><path class="cls-44" d="M190.6,148.1h0C190.61,148,190.59,148.19,190.6,148.1Z"/><path class="cls-44" d="M189.85,148.92Z"/><path class="cls-44" d="M189.62,148.64Z"/><path class="cls-44" d="M187.55,151.34Z"/><path class="cls-44" d="M189.84,152.18Z"/><path class="cls-44" d="M189.36,152.43Z"/><path class="cls-44" d="M189.65,152.4Z"/><path class="cls-44" d="M189.27,152.67Z"/><path class="cls-44" d="M189,152.8Z"/><path class="cls-44" d="M188.66,153.13Z"/><path class="cls-44" d="M189.24,152.2Z"/><path class="cls-44" d="M191.93,153.2Z"/><path class="cls-44" d="M191.73,152.57Z"/><path class="cls-44" d="M191.3,153Z"/><path class="cls-44" d="M191.27,153.3Z"/><path class="cls-44" d="M191.52,153.82Z"/><path class="cls-44" d="M194.27,136.47Z"/><path class="cls-44" d="M191.46,139Z"/><path class="cls-44" d="M186.87,144.29Z"/><path class="cls-44" d="M188,142.78c0,.07.49,1,.49.71s.41-1.82,0-1.82a1,1,0,0,0-.49,1.11S187.94,142.74,188,142.78Z"/><path class="cls-44" d="M190.33,137.51Z"/><path class="cls-44" d="M190.66,137Z"/><path class="cls-44" d="M190.9,138.21Z"/><path class="cls-44" d="M191.54,135.66Z"/><path class="cls-44" d="M194.85,131.41Z"/><path class="cls-44" d="M196,129.41Z"/><path class="cls-44" d="M195.91,129.12Z"/><path class="cls-44" d="M195.78,127.62Z"/><path class="cls-44" d="M192.18,130.6Z"/><path class="cls-44" d="M192.31,130.71Z"/><path class="cls-44" d="M193.21,134.67Z"/><path class="cls-44" d="M194.11,136.58c.2,0,.21-1.22.31,0h.05c.54-.49-.36-3.85-1.18-3.85.09,0-.28.18-.24.12a7.45,7.45,0,0,1-.1,2.51c-.2-.08,0-.49-.15-.45-.35,1-2.16,1.2-2.38,2.41-.07.38.63.43.62.43-.09.32.11.86.44.86s.13-1.9-.36-1.62a11.85,11.85,0,0,1,1.51-.42c.06,0,0,.68.49.68s.09-.89.08-.85c.23.22,1,.2.91.21S194.1,136.59,194.11,136.58Zm.14-2.1c.13.22-.18.09,0,0C194.27,134.5,194.23,134.49,194.25,134.48Z"/><path class="cls-44" d="M192.53,137.07c.2-.62-.8-.17-1,.25,0,0,.53.38.51.38-.21,0,.46-.68.45-.63S192.51,137.11,192.53,137.07Z"/><path class="cls-44" d="M194.33,131.54a13.33,13.33,0,0,0-1.92-1s.44,1.12.51,1.22c-.41.2-.34,1.26.09,1.1,0,0,.28-.2.28-.23,0-.2-.45-.21-.53-.39.38-.35,2.21.64,1.57-.66C194.32,131.51,194.34,131.54,194.33,131.54Z"/><path class="cls-44" d="M194.69,131c0-.27-.4,1-.16.31.07-.18.71-.43.68-.69s-.49,0-.52.38Z"/><path class="cls-44" d="M195.36,130.29c-.18.69.23-.6,0,0Z"/><path class="cls-44" d="M195.84,129.69c0,.5.09-.25,0,0Z"/><path class="cls-44" d="M196,128.53c.16-.13-.06,0,0,0Z"/><path class="cls-44" d="M201.83,169.44c.07.48-1.18-2-1.18-1.36a32.33,32.33,0,0,1-1.79-4.34c-.06-.18-.18-2.28-.29-2.28-.39,0-1.16,4.53-1.63,4-.88-1-1.13-3.23-.92-3a2,2,0,0,1-.15-.28c-.25,0-.08.39-.24.39.07.06-1.45-.79-1.51-.77s-.1,0-.21,0,.34.42.26.55c0,0-2.36,1.31-1.39,1.4-.17.39-.47-.14-.64.28-.16-1.7-2,.52-2.07.52-.25,0,.05.54,0,.6-.24-.18-.09,0-.19.26-.07-.15,0-.53-.11-.61-1.26,1.69-2.43,2.24-4.23,3.34,0,0,.06-.44,0-.4-.09.62-.12,1.87-.23,2.36.06-.28-.59.27-.34.27,0-.07-.1-.62-.21-.62,1.74,0-2.45,5.41,1.7,4.79,1.59-.24,2.92-1.3,4.62-1.3s1.59,1.87,1.71,1.87c.28,0,.89-1.2,1.23-1.2h0c-.1.17-1,1.37-1,1.33.1.31.83-.5.81-.55.46.83-.94.54-1,.83l.06.15c0,.19.85-.19,1-.28,1.4,4.59,8.34-1.38,7.94-6Z"/><path class="cls-44" d="M195.93,163.44c.1-.2-.33.58,0,0Z"/><path class="cls-44" d="M193.12,162.33c.17,0,1-.18.52-.45C193.38,161.82,193.06,162.33,193.12,162.33Z"/><path class="cls-44" d="M186.2,167.13Z"/><path class="cls-44" d="M187.71,166.44Z"/><path class="cls-44" d="M190.26,161.6Z"/><path class="cls-44" d="M189.66,161.46Z"/><path class="cls-44" d="M194.87,178c.64-.12-.19,0,0,0C194.9,178,194.86,178,194.87,178Z"/><path class="cls-44" d="M196.26,178.21a3.08,3.08,0,0,1-1.13-.22c.07,0-1.28,2.56.88,1-.08.52.58-.84.25-.78Z"/><path class="cls-44" d="M196.61,177.67h0S196.61,177.68,196.61,177.67Z"/><path class="cls-44" d="M202,181.65Z"/><path class="cls-44" d="M202.07,181.48Z"/><path class="cls-44" d="M201.65,181.26Z"/><path class="cls-44" d="M209.38,176.5a7,7,0,0,0-.92,0c0-.23.07-.48.11-.68.07.2-.35.19-.39.22s.39-1.39-.05-1.39c0,0-.2,0-.23,0-.81,1.3-1.4,3.09-1.8,3.79,0-.06.17-.54.18-.52a48.13,48.13,0,0,1-4.49,3.08s-.06.14,0,.16C202.36,183,208.74,176.5,209.38,176.5Z"/><path class="cls-44" d="M193.21,117.57c.13.07,1.24.09,1.14-.17-.18-.53-1.34.07-1.14.17Z"/><path class="cls-44" d="M180.9,115.56c.2,0,1.37.72,1.62.27A2.94,2.94,0,0,0,180.9,115.56Z"/><path class="cls-44" d="M180.5,116.2c-.84-.48.3,1.33.84.36.14-.24-.82-.36-.84-.36S180.52,116.2,180.5,116.2Z"/><path class="cls-44" d="M180.12,116.27h0S180.11,116.29,180.12,116.27Z"/><path class="cls-44" d="M178.73,116.15c-.72-.43.32.2,0,0Z"/><path class="cls-44" d="M177.68,115.51c.35.6-.16-.29,0,0Z"/><path class="cls-44" d="M178.11,115.47c-.13.57,2.46.57,2.51.27a.74.74,0,0,0,0-.21c-.16-.39-2.48-.2-2.51-.06S178.12,115.46,178.11,115.47Z"/><path class="cls-44" d="M180.75,115.15Z"/><path class="cls-44" d="M182.35,115.34Z"/><path class="cls-44" d="M163.32,113.78c.52.17.3.29.77,0-.32.31,1.94.58,2,.47.67-1-3.52-.74-2.79-.52Z"/><path class="cls-44" d="M166.35,114.51s1.39.17,1.52-.16c0-.08-1.25-.48-1.52.16Z"/><path class="cls-44" d="M165.65,115.08Z"/><path class="cls-44" d="M166,114.9Z"/><path class="cls-44" d="M165.84,115.08Z"/><path class="cls-44" d="M166,115.08Z"/><path class="cls-44" d="M166.38,115.14Z"/><path class="cls-44" d="M168.22,114.41Z"/><path class="cls-44" d="M168.29,114.44Z"/><path class="cls-44" d="M169,114.85Z"/><path class="cls-44" d="M163.71,114.92Z"/><path class="cls-44" d="M164,114.79Z"/><path class="cls-44" d="M164.67,114.45Z"/><path class="cls-44" d="M162.83,113.44Z"/><path class="cls-44" d="M162.17,115.52Z"/><path class="cls-44" d="M162.43,115.44Z"/><path class="cls-44" d="M162.43,115.77Z"/><path class="cls-44" d="M161.77,116Z"/><path class="cls-44" d="M161.08,116.48Z"/><path class="cls-44" d="M161.36,116.53Z"/><path class="cls-44" d="M160.83,116.74Z"/><path class="cls-44" d="M162.85,116.18Z"/><path class="cls-44" d="M163,116.18Z"/><path class="cls-44" d="M163.64,116.19Z"/><path class="cls-44" d="M163.87,116.13Z"/><path class="cls-44" d="M161.8,114.87Z"/><path class="cls-44" d="M160,113.52Z"/><path class="cls-44" d="M159.63,114Z"/><path class="cls-44" d="M156.23,115.18a2.83,2.83,0,0,0-2.11,1.89c0,.06,1.49,1.2,2.07.71-.49.4-1.42-1.93.09-1.93.65-.21,1.43-.46,2.07-.72a6.59,6.59,0,0,0-2.12.05Z"/><path class="cls-44" d="M153.53,118.54c.22.88-.2-.88,0,0C153.53,118.56,153.52,118.52,153.53,118.54Z"/><path class="cls-44" d="M152.83,113.71c.17,0,3.54,0,3.49-.31,0,0,0,0,0-.08-.42-.89-3.32.41-3.45.39C152.88,113.72,152.8,113.71,152.83,113.71Z"/><path class="cls-44" d="M155.1,113.17Z"/><path class="cls-44" d="M150.8,113.55c0-.18,1.92.5,1.95.24.05-.73-1.94-.2-1.95-.24Z"/><path class="cls-44" d="M153.2,113.35Z"/><path class="cls-44" d="M144.74,124.1c.1-.07-.71.78,0,0Z"/><path class="cls-44" d="M143.27,125.47c.29.27-.17-.11,0,0Z"/></g><g class="cls-45"><path class="cls-38" d="M164.49,146.31c0,22.07-15.81,40-35.32,40s-19.5-79.94,0-79.94S164.49,124.23,164.49,146.31Z"/></g><g class="cls-45"><path class="cls-38" d="M164.49,146.31c0,22.07-54.82-40-35.32-40S164.49,124.23,164.49,146.31Z"/></g><path class="cls-46" d="M204.33,39.09l-3.17-2.3-1.73,1.45a.8.8,0,0,1-1,0,1,1,0,0,1-.22-.23,1.08,1.08,0,0,1,.17-1.37l7.82-6.6a.77.77,0,0,1,1,0,1,1,0,0,1,.4,1l-2.05,10.78a.9.9,0,0,1-1,.75.78.78,0,0,1-.27-.14,1,1,0,0,1-.37-1Zm.38-2,.75-3.94-2.86,2.4Z"/><path class="cls-12" d="M75.29,225.88,89.1,191.42a3,3,0,0,1,4.13-1.76l.15.08.06,0,7.12,3.65c5.42,2.78,7.81,10,5.36,16.13a11.69,11.69,0,0,1-4.63,5.66,15.38,15.38,0,0,1,1,13.24c-2.78,7-10,10-16.07,6.89l-9.14-4.69a.07.07,0,0,1,0-.08c-.1-.06-.12,0-.18,0A3.76,3.76,0,0,1,75.29,225.88ZM89.78,207l4.43,2.28c2.27,1.17,5-.07,6-2.64a5.31,5.31,0,0,0-2.23-6.7l-4.44-2.28Zm-7.45,18.58,6.45,3.31c3,1.45,6.4,0,7.75-3.35a7,7,0,0,0-2.9-8.74l-6.45-3.31Z"/><path class="cls-28" d="M312.78,116.55c0-4.63,3.45-8.39,7.58-8.42a7.17,7.17,0,0,1,4.78,1.83,1.51,1.51,0,0,1,.2,1.87,1.12,1.12,0,0,1-1.65.26,4.76,4.76,0,0,0-3.33-1.29,5.17,5.17,0,0,0-3.71,1.68,6.18,6.18,0,0,0-1.51,4.07,6.08,6.08,0,0,0,1.51,4.07,5.14,5.14,0,0,0,3.71,1.69,4.84,4.84,0,0,0,3.33-1.29,1.15,1.15,0,0,1,1.65.26,1.51,1.51,0,0,1-.2,1.87,7.21,7.21,0,0,1-4.78,1.82C316.23,125,312.8,121.21,312.78,116.55Z"/><path class="cls-28" d="M134,219.69l-5.22-18a1.8,1.8,0,0,1,1-2.23l3.18-1.18c5.21-1.93,10.81,1.3,12.51,7.16s-1.11,12.28-6.31,14.21L136,220.81A1.53,1.53,0,0,1,134,219.69Zm2.5-2.83,1.68-.62c3.55-1.35,5.47-5.65,4.29-9.71s-5-6.2-8.53-4.88l-1.67.62Z"/><path class="cls-28" d="M88.46,269.71l.48-6.87a.59.59,0,0,1,.61-.59h0l3.34.3a.62.62,0,0,1,.52.69.6.6,0,0,1-.61.6L90,263.59l-.15,2.14,2.4.21a.63.63,0,0,1,.52.69.6.6,0,0,1-.61.6L89.8,267l-.15,2.14,2.79.25a.64.64,0,0,1,.52.71.6.6,0,0,1-.61.59l-3.34-.3s0,0,0,0h0A.63.63,0,0,1,88.46,269.71Z"/><path class="cls-30" d="M412.71,277.76V251.67a2.27,2.27,0,0,1,2.15-2.43,2.3,2.3,0,0,1,2.19,2.43v10.61h10.12V251.67a2.26,2.26,0,0,1,2.15-2.43,2.29,2.29,0,0,1,2.18,2.43v26.09a2.29,2.29,0,0,1-2.18,2.43,2.26,2.26,0,0,1-2.15-2.43V267.15H417.05v10.61a2.3,2.3,0,0,1-2.19,2.43A2.27,2.27,0,0,1,412.71,277.76Z"/><path class="cls-47" d="M165.48,96.94l6.64-28.58a2.41,2.41,0,0,1,3-2h0l.09,0,13.86,4.13a2.86,2.86,0,0,1,1.74,3.36,2.5,2.5,0,0,1-3,2l-11.59-3.45-2.06,8.86,10,3a2.87,2.87,0,0,1,1.74,3.36,2.47,2.47,0,0,1-3,2l-10-3-2.7,11.63a2.45,2.45,0,0,1-3,2A2.79,2.79,0,0,1,165.48,96.94Z"/><path class="cls-48" d="M400.17,311.16a2.49,2.49,0,0,0,1.3,2.43,2.05,2.05,0,0,0,2.8-1.26l2.4-6.41a.82.82,0,0,1,1.13-.51,1,1,0,0,1,.45,1.27l-2.4,6.41a3.71,3.71,0,0,1-5.05,2.3,4.46,4.46,0,0,1-2.33-4.4.87.87,0,0,1,.92-.87A.91.91,0,0,1,400.17,311.16Z"/><path class="cls-49" d="M76,346.6,65.7,307A4,4,0,0,1,68,302.17a3.41,3.41,0,0,1,4.26,2.62l5.07,19.43L91,295.74a3.21,3.21,0,0,1,4.67-1.56A4.24,4.24,0,0,1,97,299.46l-9.29,19.23L106.17,334a4.09,4.09,0,0,1,.88,5.37,3.24,3.24,0,0,1-1.87,1.58,3,3,0,0,1-2.8-.53L84.46,325.53l-4.35,9.25,2.51,9.62a4,4,0,0,1-2.32,4.82A3.37,3.37,0,0,1,76,346.6Z"/><path class="cls-28" d="M176.55,200,186,183a1.55,1.55,0,0,1,2.28-.59,2,2,0,0,1,.54,2.6l-8.55,15.33,6.88,4.91a2.1,2.1,0,0,1,.5,2.61,1.58,1.58,0,0,1-2.28.58l-8.22-5.87,0,0,0,0A2,2,0,0,1,176.55,200Z"/><path class="cls-24" d="M312.76,178.38l-8.09,25.3a2.21,2.21,0,0,1-2.88,1.49,2.62,2.62,0,0,1-1.33-3.22l5.77-18L298,190.24a2,2,0,0,1-2,.29h0l0,0a2.46,2.46,0,0,1-1.43-1.7L291.83,178l-5.77,18.05a2.17,2.17,0,0,1-2.87,1.49,2.63,2.63,0,0,1-1.33-3.21L290,169a2.17,2.17,0,0,1,2.83-1.51l.12.05a2.38,2.38,0,0,1,1.35,1.67L298,184.17l11.32-8.75a2,2,0,0,1,2-.29l0,0A2.72,2.72,0,0,1,312.76,178.38Z"/><path class="cls-28" d="M296.39,96.84a.55.55,0,0,1-.71.39.68.68,0,0,1-.35-.83L297.38,90h0a.61.61,0,0,1,.38-.42.57.57,0,0,1,.69.44l1.57,6.2,1.45-4.53a.54.54,0,0,1,.71-.38.68.68,0,0,1,.35.81l-2,6.39a.55.55,0,0,1-.72.39.59.59,0,0,1-.33-.39.13.13,0,0,1,0-.08l-1.55-6.16Z"/><path class="cls-28" d="M153.05,85.37a10.13,10.13,0,0,1,0,12.68,6.92,6.92,0,0,1-5.3,2.68,7.1,7.1,0,0,1-5.42-2.68,10.27,10.27,0,0,1,0-12.68,7,7,0,0,1,5.42-2.68A6.86,6.86,0,0,1,153.05,85.37Zm-.29,6.34a7,7,0,0,0-1.51-4.38,4.41,4.41,0,0,0-7.08,0,6.85,6.85,0,0,0-1.51,4.38,6.73,6.73,0,0,0,1.51,4.36,4.37,4.37,0,0,0,7.08,0A6.84,6.84,0,0,0,152.76,91.71Z"/><path class="cls-50" d="M423.46,202.71l-4.63,1.89,2.95,9.23a2.61,2.61,0,0,1-1.36,3.2,2.16,2.16,0,0,1-2.81-1.49l-8-25.1a2.58,2.58,0,0,1,1.32-3.19l0,0,6.69-2.73c4.47-1.83,9.39.78,11,5.84S427.93,200.88,423.46,202.71Zm-6.13-2.83L422,198a4.85,4.85,0,0,0,2.52-5.93c-.82-2.46-3.14-3.72-5.32-2.83l-4.62,1.89Z"/><path class="cls-28" d="M400.21,181.28a4.69,4.69,0,0,1-2.16,2.15l0,0a5.18,5.18,0,0,1-3.13.14,1.75,1.75,0,0,0-1,.13,2.88,2.88,0,0,0-1,.75.79.79,0,0,1-.9.32h-.14a1.39,1.39,0,0,1-.34-.31,1.15,1.15,0,0,1,0-1.5l0-.06a6.18,6.18,0,0,1-2.12-.6,7,7,0,0,1-3-3.86,7.93,7.93,0,0,1,.06-5.1,5.94,5.94,0,0,1,3.18-3.52,4.85,4.85,0,0,1,4.42.33,6.62,6.62,0,0,1,3,3.8,7.85,7.85,0,0,1-.08,5.16,7.26,7.26,0,0,1-1.24,2.07l-.3.31a3.67,3.67,0,0,0,1.91-.1,2.6,2.6,0,0,0,1.28-1.29.87.87,0,0,1,1.29-.34A1.15,1.15,0,0,1,400.21,181.28Zm-10-.91a3.19,3.19,0,0,0,2.9.19,4,4,0,0,0,2.11-2.3,5.45,5.45,0,0,0,0-3.55,4.52,4.52,0,0,0-2.06-2.63,3.32,3.32,0,0,0-2.94-.2,3.77,3.77,0,0,0-2.07,2.31,5.26,5.26,0,0,0,0,3.51A4.68,4.68,0,0,0,390.24,180.37Z"/><path class="cls-23" d="M331.54,63.33a2.54,2.54,0,0,1,0,3.3,3.51,3.51,0,0,1-.69.52l0,0a2.51,2.51,0,0,1-1.49.3,3.47,3.47,0,0,1-1.64-.74A11.22,11.22,0,0,1,325,62.57a3.44,3.44,0,0,0-1.1-1.4,3.11,3.11,0,0,0-1.48-.55,6.34,6.34,0,0,0-2.26.12l-3.95,2.18,3.53,8.21a2.5,2.5,0,0,1-1,3.12A1.94,1.94,0,0,1,316,73.18l-9.6-22.35a2.41,2.41,0,0,1,.95-3.09l0,0,5.95-3.28c4-2.19,8.73-.3,10.66,4.21a9.92,9.92,0,0,1,.06,7.64,5.24,5.24,0,0,1,1.77.76,7.58,7.58,0,0,1,2.86,3.48,11,11,0,0,0,1.1,2.16A1.87,1.87,0,0,1,331.54,63.33ZM320.32,50.69a3.65,3.65,0,0,0-5.14-2l-4.12,2.26,3.36,7.8,4.11-2.26A4.59,4.59,0,0,0,320.32,50.69Z"/><path class="cls-28" d="M350.59,98.91a.59.59,0,0,1,.48-.66,3.21,3.21,0,0,0,2-.94,2.55,2.55,0,0,0,.64-1.34,1.15,1.15,0,0,0-.21-1,.59.59,0,0,0-.3-.2.92.92,0,0,0-.44,0,4,4,0,0,0-1.34.75l0,0a5.45,5.45,0,0,1-1.22.74,2,2,0,0,1-1.25.12,1.55,1.55,0,0,1-.77-.48,2.35,2.35,0,0,1-.48-1.87,3.56,3.56,0,0,1,.88-1.87,3.81,3.81,0,0,1,2.17-1.14.53.53,0,0,1,.62.47.59.59,0,0,1-.41.71,2.86,2.86,0,0,0-1.64.8,2.32,2.32,0,0,0-.57,1.21,1,1,0,0,0,.18.83.54.54,0,0,0,.26.18,1,1,0,0,0,.39,0,3.54,3.54,0,0,0,1.23-.67l0,0a5.57,5.57,0,0,1,1.31-.79,2.16,2.16,0,0,1,1.34-.14,1.61,1.61,0,0,1,.79.5,2.48,2.48,0,0,1,.51,2,3.89,3.89,0,0,1-.94,2,4.21,4.21,0,0,1-2.6,1.29A.58.58,0,0,1,350.59,98.91Z"/><polygon class="cls-51" points="154.41 299.92 150.32 306.27 109.96 272.95 114.06 266.6 154.41 299.92"/><polygon class="cls-17" points="110.97 264.06 106.88 270.41 109.96 272.95 114.06 266.6 110.97 264.06"/><path class="cls-13" d="M106.54,263.62l-1.38,2.14a2.83,2.83,0,0,0,.5,3.64l1.22,1,4.09-6.35-1.22-1A2.13,2.13,0,0,0,106.54,263.62Z"/><polygon class="cls-7" points="162.24 311.25 150.32 306.27 154.41 299.92 162.24 311.25"/><polygon class="cls-28" points="162.24 311.25 158.91 309.86 160.05 308.09 162.24 311.25"/><polygon class="cls-52" points="152.36 303.1 154.41 299.92 114.06 266.6 112.01 269.77 152.36 303.1"/></g></g></svg>