<svg xmlns="http://www.w3.org/2000/svg" viewBox="0 0 1700.79 1700.79"><defs><style>.cls-1{fill:#d12a21;}.cls-2{fill:#fff;}.cls-3{fill:#da3a2e;}</style></defs><title>Asset 2</title><g id="Layer_2" data-name="Layer 2"><g id="Layer_1-2" data-name="Layer 1"><path class="cls-1" d="M1700.79,850.32c0-20-.57-39.54-1.85-59L1280,372.22v308H422.54l39.69,39.69H1280V1361H422.54l335.37,335.36c12.89,1.14,26.08,2.13,39.26,3,17.43,1,35.29,1.42,53.29,1.42q352.1,0,601.14-249.19,249.2-249,249.19-601.28Z"/><path class="cls-2" d="M1280,680.23v-308H422.54v308Zm-79.8-227.5V604.26H500.22V452.73Z"/><path class="cls-1" d="M1200.15,604.26V452.73H500.22V604.26ZM1017,519.49V490.86h12.9v28.63h28.63v12.62h-28.63v28.77H1017V532.11H988.24V519.49Zm-85.18-42.95a28.84,28.84,0,0,1,17.86,6,20,20,0,0,1,8.36,16.86,48.23,48.23,0,0,1-2.41,14.46c-5,14.74-17,30.62-36.29,47.63l11.77.71a96.27,96.27,0,0,0,20.69-2.27,41.81,41.81,0,0,0,6.24-1.28c1.42-.42,2.41-.85,2.83-1a1.74,1.74,0,0,1,1,1,12.48,12.48,0,0,1,1.55,3.55,24.3,24.3,0,0,1,.71,5.53,22.66,22.66,0,0,1-2.55,10.63c-2.12,3.11-13,4.67-32.88,4.67-14.89,0-25.8-1.27-32.89-3.82-4.39-1.42-6.66-5.82-6.66-13,0-5,.57-8.08,1.56-9.08A94.8,94.8,0,0,0,904.19,547a189.56,189.56,0,0,0,14.74-15q16.16-18.08,16.16-28.07c0-4.11-2-6.24-6.1-6.24-4.68,0-9.78,2.55-15.17,7.8a49.87,49.87,0,0,0-10.91,14.46c-9.21-1.28-13.75-7.09-13.75-17.44,0-3.4,3.54-8.22,10.49-14.46a49,49,0,0,1,32.18-11.48ZM1094.55,488a48,48,0,0,1,32-11.48,29.41,29.41,0,0,1,17.86,6,20,20,0,0,1,8.36,16.86c0,17.16-10.91,36.15-32.6,56.7-2,1.84-4,3.55-6.09,5.39l11.62.71a96.36,96.36,0,0,0,20.7-2.27,49.06,49.06,0,0,0,6.37-1.28c1.28-.42,2.27-.85,2.84-1a1.72,1.72,0,0,1,1,1,18.71,18.71,0,0,1,1.56,3.55,24.3,24.3,0,0,1,.71,5.53,22.66,22.66,0,0,1-2.55,10.63c-2.13,3.11-13.18,4.67-32.89,4.67-14.88,0-25.79-1.27-32.88-3.82-4.39-1.42-6.66-5.82-6.66-13,0-5,.56-8.08,1.56-9.08A94.75,94.75,0,0,0,1098.94,547c4.54-4.11,9.36-9.21,14.6-15q16.15-18.08,16.16-28.07c0-4.11-2-6.24-5.81-6.24-4.68,0-9.92,2.55-15.45,7.8a55.45,55.45,0,0,0-10.92,14.46c-6.8-1-11-4.4-12.75-10.49a26.57,26.57,0,0,1-.85-6.95q0-5.1,10.63-14.46Z"/><polygon class="cls-2" points="1017.01 490.86 1017.01 519.49 988.24 519.49 988.24 532.11 1017.01 532.11 1017.01 560.88 1029.91 560.88 1029.91 532.11 1058.55 532.11 1058.55 519.49 1029.91 519.49 1029.91 490.86 1017.01 490.86 1017.01 490.86"/><path class="cls-2" d="M949.69,482.5a28.84,28.84,0,0,0-17.86-6A49,49,0,0,0,899.65,488c-6.95,6.24-10.49,11.06-10.49,14.46,0,10.35,4.54,16.16,13.75,17.44a49.87,49.87,0,0,1,10.91-14.46c5.39-5.25,10.49-7.8,15.17-7.8,4.11,0,6.1,2.13,6.1,6.24q0,10-16.16,28.07a189.56,189.56,0,0,1-14.74,15,94.8,94.8,0,0,1-13.47,10.06c-1,1-1.56,4.11-1.56,9.08,0,7.22,2.27,11.62,6.66,13,7.09,2.55,18,3.82,32.89,3.82,19.84,0,30.76-1.56,32.88-4.67a22.66,22.66,0,0,0,2.55-10.63,24.3,24.3,0,0,0-.71-5.53,12.48,12.48,0,0,0-1.55-3.55,1.74,1.74,0,0,0-1-1c-.42.14-1.41.57-2.83,1a41.81,41.81,0,0,1-6.24,1.28,96.27,96.27,0,0,1-20.69,2.27l-11.77-.71c19.28-17,31.33-32.89,36.29-47.63a48.23,48.23,0,0,0,2.41-14.46,20,20,0,0,0-8.36-16.86Z"/><path class="cls-2" d="M1126.58,476.54a48,48,0,0,0-32,11.48q-10.63,9.36-10.63,14.46a26.57,26.57,0,0,0,.85,6.95c1.7,6.09,6,9.5,12.75,10.49a55.45,55.45,0,0,1,10.92-14.46c5.53-5.25,10.77-7.8,15.45-7.8,3.83,0,5.81,2.13,5.81,6.24q0,10-16.16,28.07c-5.24,5.81-10.06,10.91-14.6,15a94.75,94.75,0,0,1-13.46,10.06c-1,1-1.56,4.11-1.56,9.08,0,7.22,2.27,11.62,6.66,13,7.09,2.55,18,3.82,32.88,3.82,19.71,0,30.76-1.56,32.89-4.67a22.66,22.66,0,0,0,2.55-10.63,24.3,24.3,0,0,0-.71-5.53,18.71,18.71,0,0,0-1.56-3.55,1.72,1.72,0,0,0-1-1c-.57.14-1.56.57-2.84,1a49.06,49.06,0,0,1-6.37,1.28,96.36,96.36,0,0,1-20.7,2.27l-11.62-.71c2.12-1.84,4.11-3.55,6.09-5.39,21.69-20.55,32.6-39.54,32.6-56.7a20,20,0,0,0-8.36-16.86,29.41,29.41,0,0,0-17.86-6Z"/><path class="cls-3" d="M1698.94,791.36q-19.34-314.46-247.34-542.6Q1202.63,0,850.46,0T248.9,248.76Q-.07,498,0,850.32T248.9,1451.6q177.75,177.54,407.94,228.63a836.9,836.9,0,0,0,101.07,16.16L422.54,1361V719.92h39.69l-39.69-39.69v-308H1280l419,419.14Z"/><path class="cls-2" d="M462.23,719.92H422.54V1361H1280V719.92Zm737.92,80.79V1024.1H887V800.71ZM502.2,1024.1V800.71H815.31V1024.1Zm0,43.94H815.31v223.39H502.2V1068Zm698,0v223.39H887V1068Z"/><path class="cls-1" d="M1200.15,1024.1V800.71H887V1024.1Zm-90.86-122.89V926H972.08v-24.8Z"/><polygon class="cls-2" points="1109.29 926.01 1109.29 901.21 972.08 901.21 972.08 926.01 1109.29 926.01 1109.29 926.01"/><path class="cls-1" d="M502.2,800.71V1024.1H815.31V800.71ZM592.63,926v-24.8h56.13v-56h25v56h56.13V926H673.71v56.42h-25V926Z"/><polygon class="cls-2" points="592.63 901.21 592.63 926.01 648.76 926.01 648.76 982.43 673.71 982.43 673.71 926.01 729.84 926.01 729.84 901.21 673.71 901.21 673.71 845.22 648.76 845.22 648.76 901.21 592.63 901.21 592.63 901.21"/><path class="cls-1" d="M815.31,1068H502.2v223.39H815.31V1068Zm-93.12,158.19-17.58,17.57-43.52-43.51-43.23,43.23L600,1226.09l43.52-43.66-43.38-43.23,17.72-17.72L661.09,1165l43.09-43.51,17.72,17.72-43.09,43.23,43.38,43.8Z"/><polygon class="cls-2" points="704.61 1243.8 722.19 1226.23 678.81 1182.43 721.9 1139.2 704.18 1121.48 661.1 1164.99 617.86 1121.48 600.14 1139.2 643.52 1182.43 600 1226.09 617.86 1243.52 661.1 1200.29 704.61 1243.8 704.61 1243.8"/><path class="cls-1" d="M1200.15,1291.43V1068H887v223.39Zm-160.6-182.85a20.35,20.35,0,0,1,14.46,34.87,19.68,19.68,0,0,1-14.46,6,20.44,20.44,0,0,1-14.46-34.72,19.73,19.73,0,0,1,14.46-6.1Zm20.55,127.71a19.2,19.2,0,0,1-6.09,14.32,19.68,19.68,0,0,1-14.46,6,20.34,20.34,0,1,1,0-40.68,19.72,19.72,0,0,1,14.46,5.95,19.28,19.28,0,0,1,6.09,14.46Zm49.19-65.91v24.95H972.08v-24.95Z"/><path class="cls-2" d="M1054,1114.68a19.26,19.26,0,0,0-14.46-6.1,19.69,19.69,0,0,0-14.46,6.1,20.34,20.34,0,0,0,14.46,34.72,19.68,19.68,0,0,0,14.46-6,20,20,0,0,0,0-28.77Z"/><path class="cls-2" d="M1054,1250.61a20,20,0,0,0,0-28.78,19.72,19.72,0,0,0-14.46-5.95,20.34,20.34,0,1,0,0,40.68,19.68,19.68,0,0,0,14.46-6Z"/><polygon class="cls-2" points="1109.29 1195.33 1109.29 1170.38 972.08 1170.38 972.08 1195.33 1109.29 1195.33 1109.29 1195.33"/></g></g></svg>