<svg xmlns="http://www.w3.org/2000/svg" xmlns:xlink="http://www.w3.org/1999/xlink" viewBox="0 0 1705.95 1700.79"><defs><style>.cls-1{fill:none;}.cls-2{clip-path:url(#clip-path);}.cls-3{fill:#90b416;}.cls-4{fill:#8bb215;}.cls-5{fill:#88b014;}.cls-6{fill:#84ae13;}.cls-7{fill:#80ac12;}.cls-8{fill:#7daa11;}.cls-9{fill:#79a810;}.cls-10{fill:#76a60f;}.cls-11{fill:#72a40d;}.cls-12{fill:#6fa20c;}.cls-13{fill:#6ba00b;}.cls-14{fill:#679e0a;}.cls-15{fill:#649c09;}.cls-16{fill:#609a08;}.cls-17{fill:#5d9807;}.cls-18{fill:#599606;}.cls-19{fill:#589606;}.cls-20{clip-path:url(#clip-path-2);}.cls-21{fill:#57a600;}.cls-22{clip-path:url(#clip-path-3);}.cls-23{fill:#91b517;}.cls-24{fill:#6f9c03;}.cls-25{fill:#86ac07;}.cls-26{fill:#fff;}</style><clipPath id="clip-path"><path class="cls-1" d="M413.57,380.69l3.26,11.63a4.16,4.16,0,0,1,.29-1.28,9.68,9.68,0,0,0-1.28-7.94,2.21,2.21,0,0,0-.56-.85,18.6,18.6,0,0,0-1.71-1.56Z"/></clipPath><clipPath id="clip-path-2"><polygon class="cls-1" points="1695.54 953.01 1693.42 955.13 1694.98 956.69 1695.54 953.01 1695.54 953.01"/></clipPath><clipPath id="clip-path-3"><path class="cls-1" d="M519.59,357.73l.85-1a2.63,2.63,0,0,0-1.56.57,3.16,3.16,0,0,0,.71.42Z"/></clipPath></defs><title>Asset 2</title><g id="Layer_2" data-name="Layer 2"><g id="Layer_1-2" data-name="Layer 1"><g class="cls-2"><rect class="cls-3" x="413.58" y="380.71" width="0.37" height="11.59"/><rect class="cls-4" x="413.95" y="380.71" width="0.23" height="11.59"/><rect class="cls-5" x="414.18" y="380.71" width="0.23" height="11.59"/><rect class="cls-6" x="414.41" y="380.71" width="0.23" height="11.59"/><rect class="cls-7" x="414.64" y="380.71" width="0.23" height="11.59"/><rect class="cls-8" x="414.87" y="380.71" width="0.23" height="11.59"/><rect class="cls-9" x="415.1" y="380.71" width="0.23" height="11.59"/><rect class="cls-10" x="415.33" y="380.71" width="0.23" height="11.59"/><rect class="cls-11" x="415.56" y="380.71" width="0.23" height="11.59"/><rect class="cls-12" x="415.79" y="380.71" width="0.23" height="11.59"/><rect class="cls-13" x="416.02" y="380.71" width="0.23" height="11.59"/><rect class="cls-14" x="416.25" y="380.71" width="0.23" height="11.59"/><rect class="cls-15" x="416.48" y="380.71" width="0.23" height="11.59"/><rect class="cls-16" x="416.71" y="380.71" width="0.23" height="11.59"/><rect class="cls-17" x="416.93" y="380.71" width="0.23" height="11.59"/><rect class="cls-18" x="417.16" y="380.71" width="0.23" height="11.59"/><rect class="cls-19" x="417.39" y="380.71" width="0.23" height="11.59"/></g><g class="cls-20"><rect class="cls-21" x="1693.38" y="953.02" width="12.57" height="3.69"/></g><g class="cls-22"><rect class="cls-23" x="525.51" y="353.86" width="1.51" height="18.95" transform="translate(-99.76 493.93) rotate(-46.41)"/></g><path class="cls-24" d="M1241.57,555.17q-38.89-69.52-88.29-119.91-214.51-217.92-632.7-78.52h-.14l-.85,1a15.23,15.23,0,0,1,1.7,1.42L1098.71,949h-.14a735.22,735.22,0,0,0-69.17,56.27l-612.57-613-3.26-11.63a7.56,7.56,0,0,0-4.39-2.12,11,11,0,0,0-8.22,1.56,11.69,11.69,0,0,0-4.39,6.52q-8.94,43.16-13.75,104-3.82,52.29-5,117.78c-.14,4.82-.29,9.78-.29,14.88v1q-217,363.12,190.35,723.4L909.5,1698.8q314.64-19.33,542.26-247,209.41-209.61,242.93-492.23l.29-2.84-1.56-1.56L1442,700.16l-4.11,4.25a9.83,9.83,0,0,0,2.56-5.67v-2a9.24,9.24,0,0,0-.43-2.84l-18.57-17.86c-6.94-5.95-14-11.76-21-17.43a1001.42,1001.42,0,0,0-121.33-82.49,4.81,4.81,0,0,0-1.13-.71,24.52,24.52,0,0,0-3.26-1.84h-1.13a109.43,109.43,0,0,0-14.18-5.67q-7.44-2.76-17.86-12.75Z"/><path class="cls-25" d="M1153.28,435.26q49.53,50.39,88.29,119.91,10.42,10,17.86,12.75a109.43,109.43,0,0,1,14.18,5.67h1.13a24.52,24.52,0,0,1,3.26,1.84,4.81,4.81,0,0,1,1.13.71,1001.42,1001.42,0,0,1,121.33,82.49c6.94,5.67,14,11.48,21,17.43L1440,693.92a9.24,9.24,0,0,1,.43,2.84l1.55,3.4,251.44,255,2.12-2.12a88.26,88.26,0,0,1,1.14-10.77q4-45.29,4.11-92,0-352.27-249-601.37T850.39,0Q497.91,0,249,248.88T0,850.25q0,352.27,249,601.51,249,249,601.37,249c20,0,39.69-.71,59.11-2L567.92,1347.73Q160.37,987.39,377.57,624.33v-1c0-5.1.15-10.06.29-14.88q1.06-65.49,5-117.78,4.89-60.81,13.75-104a11.69,11.69,0,0,1,4.39-6.52,11,11,0,0,1,8.22-1.56,7.56,7.56,0,0,1,4.39,2.12,18.6,18.6,0,0,1,1.71,1.56,2.21,2.21,0,0,1,.56.85,9.68,9.68,0,0,1,1.28,7.94,4.16,4.16,0,0,0-.29,1.28l612.57,613A735.22,735.22,0,0,1,1098.57,949h.14L521.29,359.15a15.23,15.23,0,0,0-1.7-1.42,3.16,3.16,0,0,1-.71-.42,2.63,2.63,0,0,1,1.56-.57h.14q418.18-139.47,632.7,78.52Z"/><path class="cls-26" d="M1098.57,949a716.85,716.85,0,0,0-69.31,56.41q-140.75,129.46-156,294.66c13.18-8.08,26.36-16.3,39.55-24.94a1165,1165,0,0,0,113.38-86.89l2.13-2.12.56-.29c.29-.14.43-.28.43-.42a1440.23,1440.23,0,0,0,113.53-109.56c12.47-13.18,24.8-26.79,36.85-40.82a10.86,10.86,0,0,1,14.74-1,10.85,10.85,0,0,1,3.4,7.37,10,10,0,0,1-2.69,7.65q-18.49,21.27-37,41.25-46.33,49.53-93.82,92.41l68.45-1.56a9.44,9.44,0,0,1,7.37,2.55,11.17,11.17,0,0,1,3.41,7.37,10.43,10.43,0,0,1-2.84,7.94,10,10,0,0,1-7.09,3.11l-93.68,2.41a1227.66,1227.66,0,0,1-115.51,88.16q-13.82,9.13-27.64,17.86,424.56,7,532.91-526.54-202.17,72.08-331.08,165Z"/><path class="cls-26" d="M853.51,1326.47a10.1,10.1,0,0,1-2.41-7.37v-5.53q-85.46,49.76-175,79.37a9,9,0,0,0-5.95,5.39,9.93,9.93,0,0,0-.85,7.51,12.42,12.42,0,0,0,5.53,6.38,11.78,11.78,0,0,0,8.22.85,983.16,983.16,0,0,0,181.27-82.63,23,23,0,0,0-3.68-.28,10.3,10.3,0,0,1-7.09-3.69Z"/><path class="cls-26" d="M409.18,378.57a10.67,10.67,0,0,0-8.08,1.56,11.24,11.24,0,0,0-4.53,6.52q-19.77,95.88-19.14,198.42a15.13,15.13,0,0,1,2-2.83,10.21,10.21,0,0,1,6.66-4.26,9.55,9.55,0,0,1,7.65,1.14,29.73,29.73,0,0,0,4.68,2.83A940,940,0,0,1,417.12,390.9a9.45,9.45,0,0,0-1.28-7.8,2.21,2.21,0,0,0-.56-.85c-.57-.56-1.14-1.13-1.56-1.56a11.23,11.23,0,0,0-4.54-2.12Z"/><path class="cls-26" d="M399,608c.14,4.68.42,9.5.56,14.46.29,10.63.85,21.4,1.56,32.31a1143.61,1143.61,0,0,0,19.14,144.57v1.28A1515.16,1515.16,0,0,0,458.5,953.57c5.25,17.15,10.78,34.59,16.73,52a10.35,10.35,0,0,1-.43,8.22,9.41,9.41,0,0,1-5.81,5,10.4,10.4,0,0,1-8.22-.42,9.39,9.39,0,0,1-5.24-6.1c-6.1-18-11.91-35.57-17.15-52.86q-20-64.85-33.17-127.14l-32.6,60a10.3,10.3,0,0,1-14.45,4.26,10.84,10.84,0,0,1-4.25-14.18l44.78-82.34A1249.48,1249.48,0,0,1,380,656.22c-.85-11.05-1.41-22-1.84-32.88Q160,987.09,567.92,1347.73,668.48,798.81,399,608Z"/><path class="cls-26" d="M1212,540.43c10.07,4.67,19.85,9.63,29.48,14.74q-38.68-69.52-88.15-120Q938.56,216.78,519,357.31q425,361.62,725.11,223.37c-13.47-7.51-27.36-14.74-41.67-21.55a1189.51,1189.51,0,0,0-134.65-55.56l-.28-.28a5.88,5.88,0,0,0-.85-.28c-16.16-5.53-32.46-10.92-48.9-16q-74.62-22.74-156.33-39a9.45,9.45,0,0,1-6.66-4.4,10.5,10.5,0,0,1-1.56-7.65,10.33,10.33,0,0,1,4.53-7,10.94,10.94,0,0,1,7.8-1.56A1570.29,1570.29,0,0,1,1024,467c7.79,2.27,15.44,4.68,23,7.08l-35.86-58.39a9.77,9.77,0,0,1-1.28-7.94,10.52,10.52,0,0,1,4.68-6.52,10.41,10.41,0,0,1,8.22-1.41,10.84,10.84,0,0,1,6.38,4.82l48.9,79.93A1243.38,1243.38,0,0,1,1212,540.43Z"/><path class="cls-26" d="M1271.76,590.6l-5,2.69a932.8,932.8,0,0,1,156.33,111.83,9.74,9.74,0,0,0,7.52,2.69,10.22,10.22,0,0,0,7.22-3.4,11.34,11.34,0,0,0,2.56-7.65,7.48,7.48,0,0,0-.57-3l-18.43-17.86A970.18,970.18,0,0,0,1274.6,573.59a12.77,12.77,0,0,1,1.56,3.12,10.24,10.24,0,0,1,.56,7.94,9.91,9.91,0,0,1-5,6Z"/></g></g></svg>