<svg xmlns="http://www.w3.org/2000/svg" xmlns:xlink="http://www.w3.org/1999/xlink" viewBox="0 0 1700.79 1700.79"><defs><style>.cls-1{fill:none;}.cls-2{fill:#fff;}.cls-3{fill:#007cb4;}.cls-4{clip-path:url(#clip-path);}.cls-5{fill:#7fbc0e;}.cls-6{clip-path:url(#clip-path-2);}.cls-7{fill:#86c011;}.cls-8{fill:#008cbf;}.cls-9{clip-path:url(#clip-path-3);}.cls-10{fill:#669d0a;}.cls-11{clip-path:url(#clip-path-4);}.cls-12{fill:#79a810;}.cls-13{clip-path:url(#clip-path-5);}.cls-14{fill:#88b014;}.cls-15{clip-path:url(#clip-path-6);}.cls-16{fill:#79a80f;}.cls-17{clip-path:url(#clip-path-7);}.cls-18{fill:#84ae13;}</style><clipPath id="clip-path"><polygon class="cls-1" points="1095.45 441.64 1097.58 443.2 1095.31 440.79 1095.45 441.64 1095.45 441.64"/></clipPath><clipPath id="clip-path-2"><polygon class="cls-1" points="1004.88 561.4 1004.17 562.11 1005.02 561.54 1004.88 561.4 1004.88 561.4"/></clipPath><clipPath id="clip-path-3"><polygon class="cls-1" points="1198.63 1340.08 1198.49 1339.94 1198.49 1340.08 1198.63 1340.08 1198.63 1340.08"/></clipPath><clipPath id="clip-path-4"><polygon class="cls-1" points="1182.33 816.52 1182.33 816.66 1182.33 816.52 1182.33 816.52"/></clipPath><clipPath id="clip-path-5"><polygon class="cls-1" points="685.98 968.17 685.84 968.03 685.84 968.17 685.98 968.17 685.98 968.17"/></clipPath><clipPath id="clip-path-6"><path class="cls-1" d="M1417.32,586.2l1.85-1.84-2.13-2.12a35.14,35.14,0,0,1,.28,4Z"/></clipPath><clipPath id="clip-path-7"><polygon class="cls-1" points="619.09 1142.22 619.09 1142.36 619.09 1142.22 619.09 1142.22"/></clipPath></defs><title>Asset 2</title><g id="Layer_2" data-name="Layer 2"><g id="Layer_1-2" data-name="Layer 1"><path class="cls-2" d="M672.09,348.66l-.56-.57a39.7,39.7,0,0,0-55.85,0,39.36,39.36,0,0,0,0,55.85,50.9,50.9,0,0,0,6,5,37.87,37.87,0,0,0,22,6.52,39.5,39.5,0,0,0,28.48-66.76Z"/><path class="cls-2" d="M492,517.32q-22.53,0-22.53,22.54v27.21c0,9.78,3.12,16.3,9.49,19.7a27.36,27.36,0,0,0,13,2.84h274.4q22.53,0,22.53-22.54V539.86q0-22.54-22.53-22.54H492Z"/><path class="cls-3" d="M309,1106.79c-.71,3.4-1.42,6.8-2.13,10.34-.42,2.56-1,5.11-1.42,7.8a7.74,7.74,0,0,0,5.53-.85,248.47,248.47,0,0,1,57.12-24.1,8.76,8.76,0,0,0,4.82-3.68,7.65,7.65,0,0,0,.56-6.1,8.39,8.39,0,0,0-3.68-4.81,7.12,7.12,0,0,0-6.1-.71,265.92,265.92,0,0,0-54.7,22.11Z"/><path class="cls-2" d="M1122.94,368.93a41.49,41.49,0,0,0-29.33,70.72,25.66,25.66,0,0,1,1.84,2l-.14-.85,2.26,2.41a40,40,0,0,0,25.37,8.5,41.62,41.62,0,0,0,41.53-41.1,41,41,0,0,0-9.21-26.36l-3.12-3.12a39.72,39.72,0,0,0-29.2-12.19Z"/><g class="cls-4"><rect class="cls-5" x="1095.3" y="440.77" width="6.08" height="2.41"/></g><path class="cls-3" d="M1122.94,451.7a40,40,0,0,1-25.37-8.5l108.29,118.91h127.7L1159.37,390.33a40.66,40.66,0,0,1,5.1,20.27,41.62,41.62,0,0,1-41.53,41.1Z"/><g class="cls-6"><rect class="cls-7" x="1004.17" y="561.37" width="9.14" height="0.71"/></g><path class="cls-3" d="M1005,561.54l.57.57h82.21L804.33,276.52a28.63,28.63,0,0,1,1.7,10.2,30.79,30.79,0,0,1-9.49,22.54,31.26,31.26,0,0,1-22.68,9.21,31.64,31.64,0,0,1-16-4.11l247,247,.14.14Z"/><path class="cls-2" d="M796.54,263.91a32,32,0,0,0-45.22,45.35,21.41,21.41,0,0,0,2.7,2.41,26.43,26.43,0,0,0,3.82,2.69,31.64,31.64,0,0,0,16,4.11,31.26,31.26,0,0,0,22.68-9.21A30.79,30.79,0,0,0,806,286.72a28.63,28.63,0,0,0-1.7-10.2,29,29,0,0,0-7.79-12.61Z"/><path class="cls-8" d="M1093.61,381.12a41.22,41.22,0,0,1,58.53,0l3.12,3.12a40.94,40.94,0,0,1,4.11,6.09l174.19,171.78h60.38c14.17,0,21.82,6.66,23.1,20.13l2.13,2.12,281.48,285,.14-19q0-352.27-249-601.37Q1202.82.08,850.39,0,498.11,0,248.88,249-.07,498,0,850.39t248.88,601.23q179.22,179,411.59,229.32L435.54,1450.35A361.43,361.43,0,0,1,397.28,1417q-96.73-96.74-96.67-233.43a343.92,343.92,0,0,1,4.82-58.68c.43-2.69,1-5.24,1.42-7.8.71-3.54,1.42-6.94,2.13-10.34q20.19-88.23,88.3-156.62,58.67-58.89,132.23-81.63V635.39l-50.6-48.62c-6.37-3.4-9.49-9.92-9.49-19.7V539.86q0-22.54,22.53-22.54H730.06L621.64,408.9a50,50,0,0,1-5.95-5,39.41,39.41,0,0,1,27.92-67.33,38.33,38.33,0,0,1,27.92,11.48l.56.57L985.75,629.57c-3.26-4-4.82-9.63-4.82-16.86V586.2c0-16,7.79-24.09,23.24-24.09l.71-.71-247-247a26.43,26.43,0,0,1-3.82-2.69,21.41,21.41,0,0,1-2.7-2.41,32,32,0,0,1,45.22-45.35,29,29,0,0,1,7.79,12.61L1087.8,562.11h118.06L1097.57,443.2l-2.12-1.56a25.66,25.66,0,0,0-1.84-2,41.56,41.56,0,0,1,0-58.53Z"/><path class="cls-2" d="M1333.56,562.11H1004.17c-15.45,0-23.24,8.08-23.24,24.09v26.51c0,7.23,1.56,12.9,4.82,16.86a15.39,15.39,0,0,0,3.54,3.26c3.69,2.7,8.65,4,14.88,4h389.77c15.59,0,23.38-8.08,23.38-24.09V586.2a35.14,35.14,0,0,0-.28-4c-1.28-13.47-8.93-20.13-23.1-20.13Z"/><path class="cls-3" d="M1004.17,636.8c-6.23,0-11.19-1.27-14.88-4a15.39,15.39,0,0,1-3.54-3.26L672.09,348.66a39.4,39.4,0,0,1-28.48,66.76,37.87,37.87,0,0,1-22-6.52L730.06,517.32h36.29q22.53,0,22.53,22.54v27.21q0,22.53-22.53,22.54H492a27.36,27.36,0,0,1-13-2.84l50.6,48.62v-27.5H729.78V867.83q74.63,22.74,134.36,82.34,69.32,69.32,89,159a7.49,7.49,0,0,0-3.26,1.41q-148.18,110.13-323.29,17.58h-.14a528,528,0,0,0-60.1-27.36,7.83,7.83,0,0,0-10.2,4.54,7.41,7.41,0,0,0,.14,6.24,8.06,8.06,0,0,0,4.25,4.11,526.43,526.43,0,0,1,58.54,26.64v-.14q182.61,96.52,337.32-16.3a364.14,364.14,0,0,1,4.39,57.69q0,136.7-96.66,233.43t-233.43,96.8q-110.76,0-195.17-63.49l224.93,230.59q90.78,19.79,189.92,19.85,352.28,0,601.37-249.17,242.37-242.14,248.89-582.23l-281.48-285-1.85,1.84v26.51c0,16-7.79,24.09-23.38,24.09Zm40.11,308.27a8.81,8.81,0,0,0,4.54-1.27q78.87-52.72,161.15-14.18,87.38,40.82,140.31,16.3v339.59q0,53.15-37.7,90.71t-90.56,37.7h-49.33q-53.14,0-90.85-37.7t-37.56-90.71V945.07Zm306-16.16v1h-3.4q-48.26,23.16-130.25-14.89-87.81-41.44-172.35,12.48V655.37h306V928.91Z"/><path class="cls-2" d="M1048.82,943.8a8.81,8.81,0,0,1-4.54,1.27v340.44q0,53.15,37.56,90.71t90.85,37.7H1222q52.93,0,90.56-37.7t37.7-90.71V945.92q-52.93,24.45-140.31-16.3-82.28-38.48-161.15,14.18ZM1190.55,1099c-10.91-10.91-16.3-23.81-16.3-38.83,0-15.31,5.39-28.21,16.3-38.84s23.67-16.15,38.69-16.15,27.93,5.38,38.84,16.15h.14c10.63,10.63,15.87,23.53,15.87,38.84a53,53,0,0,1-15.87,38.55v.28c-10.91,10.63-23.81,16-39,16a52.75,52.75,0,0,1-38.69-16Zm7.94,241.09v-.14a45.35,45.35,0,0,1-64.92.14v-.14a45,45,0,0,1,0-64.77,45.85,45.85,0,0,1,64.92,0c8.93,8.92,13.32,19.7,13.32,32.59a44.39,44.39,0,0,1-13.18,32.32Z"/><path class="cls-3" d="M1174.25,1060.16c0,15,5.39,27.92,16.3,38.83a52.75,52.75,0,0,0,38.69,16c15.17,0,28.07-5.39,39-16v-.28a53,53,0,0,0,15.87-38.55c0-15.31-5.24-28.21-15.87-38.84h-.14c-10.91-10.77-23.81-16.15-38.84-16.15s-27.92,5.38-38.69,16.15-16.3,23.53-16.3,38.84Zm55-38.84a38.84,38.84,0,0,1,0,77.67,38.88,38.88,0,0,1-27.49-66.33,37.54,37.54,0,0,1,27.49-11.34Z"/><path class="cls-2" d="M1256.74,1032.66a38.79,38.79,0,1,0-54.85,54.85,37,37,0,0,0,27.35,11.48,38.88,38.88,0,0,0,27.5-66.33Z"/><g class="cls-9"><rect class="cls-10" x="1198.78" y="1339.81" width="0.14" height="1.07" transform="translate(-598.54 1284.29) rotate(-46.4)"/></g><path class="cls-3" d="M1198.49,1339.94l.14.14a44.39,44.39,0,0,0,13.18-32.32c0-12.89-4.39-23.67-13.32-32.59a45.85,45.85,0,0,0-64.92,0,45,45,0,0,0,0,64.77v.14a45.35,45.35,0,0,0,64.92-.14Zm-11.34-53.44a29.87,29.87,0,1,1-42.24,42.24h-.14a29.77,29.77,0,0,1,0-42.24h.14a28.59,28.59,0,0,1,21-8.78,29,29,0,0,1,21.26,8.78Z"/><path class="cls-2" d="M1195.8,1307.76a29.78,29.78,0,0,0-50.89-21.26h-.14a29.77,29.77,0,0,0,0,42.24h.14a28.6,28.6,0,0,0,21,8.79,29,29,0,0,0,21.26-8.79,28.69,28.69,0,0,0,8.65-21Z"/><path d="M1350.28,929.91v-1a5.65,5.65,0,0,0-3.4,1Z"/><path class="cls-2" d="M1346.88,929.91a5.65,5.65,0,0,1,3.4-1V655.37h-306V927.5q84.4-53.79,172.35-12.48,81.86,38.06,130.25,14.89Zm-109-175.75a8.68,8.68,0,0,1,2.83,5.53,9.06,9.06,0,0,1-1.7,5.95,8.25,8.25,0,0,1-11.34,1.13,25.59,25.59,0,0,0-34,2l-.14.28A24.42,24.42,0,0,0,1186,786.9a25,25,0,0,0,7.65,18.28,24.11,24.11,0,0,0,18,7.65,24.5,24.5,0,0,0,18.28-7.65h-.14a27,27,0,0,0,7-11.48,6.71,6.71,0,0,1,3.68-4.82,7.66,7.66,0,0,1,6.1-.85,8.62,8.62,0,0,1,5,3.69,9.17,9.17,0,0,1,.85,6.09,45,45,0,0,1-10.92,18.71,40.11,40.11,0,0,1-29.76,12.33,39.62,39.62,0,0,1-29.34-12.33v.14A40.55,40.55,0,0,1,1170,786.9a42.1,42.1,0,0,1,41.67-41.67,41,41,0,0,1,26.22,8.93Z"/><path class="cls-3" d="M1240.72,759.69a8.68,8.68,0,0,0-2.83-5.53,41,41,0,0,0-26.22-8.93A42.1,42.1,0,0,0,1170,786.9a40.55,40.55,0,0,0,12.33,29.76v-.14a39.62,39.62,0,0,0,29.34,12.33,40.11,40.11,0,0,0,29.76-12.33,45,45,0,0,0,10.92-18.71,9.17,9.17,0,0,0-.85-6.09,8.62,8.62,0,0,0-5-3.69,7.66,7.66,0,0,0-6.1.85,6.71,6.71,0,0,0-3.68,4.82,27,27,0,0,1-7,11.48h.14a24.5,24.5,0,0,1-18.28,7.65,24.11,24.11,0,0,1-18-7.65A25,25,0,0,1,1186,786.9a24.42,24.42,0,0,1,7.51-17.86l.14-.28a25.59,25.59,0,0,1,34-2,8.25,8.25,0,0,0,11.34-1.13,9.06,9.06,0,0,0,1.7-5.95Z"/><g class="cls-11"><rect class="cls-12" x="1191.3" y="812.69" width="0.09" height="24.98" transform="translate(-227.78 1118.95) rotate(-46.4)"/></g><path class="cls-2" d="M949.89,1110.61a7.49,7.49,0,0,1,3.26-1.41q-19.77-89.71-89-159-59.74-59.52-134.36-82.34V607.89H529.51V868.54Q456,891.28,397.28,950.17,329,1018.42,309,1106.79a265.92,265.92,0,0,1,54.7-22.11,7.12,7.12,0,0,1,6.1.71,8.39,8.39,0,0,1,3.68,4.81,7.65,7.65,0,0,1-.56,6.1,8.76,8.76,0,0,1-4.82,3.68,248.47,248.47,0,0,0-57.12,24.1,7.74,7.74,0,0,1-5.53.85,343.92,343.92,0,0,0-4.82,58.68q0,136.7,96.67,233.43a361.43,361.43,0,0,0,38.26,33.31q84.4,63.56,195.17,63.49,136.69,0,233.43-96.8t96.66-233.43a364.14,364.14,0,0,0-4.39-57.69q-154.77,112.89-337.32,16.3v.14a526.43,526.43,0,0,0-58.54-26.64,8.06,8.06,0,0,1-4.25-4.11,7.41,7.41,0,0,1-.14-6.24,7.83,7.83,0,0,1,10.2-4.54,528,528,0,0,1,60.1,27.36h.14q175.18,92.47,323.29-17.58ZM433.7,1082.69a7.16,7.16,0,0,1,2.41-5.52,7.63,7.63,0,0,1,5.53-2.41c3,0,6.09.14,9.07.28a289.41,289.41,0,0,1,32.74,3.12c4.25.71,8.64,1.41,13.32,2.27a7.82,7.82,0,0,1,5.1,3.4,8.24,8.24,0,0,1,1.14,6.09,7.9,7.9,0,0,1-3.4,5.1,7.45,7.45,0,0,1-6,1.14c-4.25-.85-8.5-1.56-12.61-2a293.63,293.63,0,0,0-31-3.11h-.14c-2.69-.15-5.53-.29-8.22-.29a7.49,7.49,0,0,1-5.53-2.27,8,8,0,0,1-2.41-5.81Zm150.8,128.7c10.35,10.48,15.59,23.24,15.59,38.26,0,14.74-5.24,27.36-15.59,38v.14a52.62,52.62,0,0,1-38.41,15.73,51.67,51.67,0,0,1-38-15.73c-10.63-10.63-15.87-23.24-15.87-38.13s5.24-27.78,15.87-38.26,23.24-15.74,38-15.74q22.54,0,38.27,15.74Zm97.37-311a9.65,9.65,0,0,1,3,5.38,8.5,8.5,0,0,1-1.84,6,8.87,8.87,0,0,1-5.25,3,8.12,8.12,0,0,1-6-1.84,28.85,28.85,0,0,0-18.28-6.24A27.52,27.52,0,0,0,633,915.31h-.15a29.09,29.09,0,0,0,0,41.38H633a27.52,27.52,0,0,0,20.55,8.65,28.36,28.36,0,0,0,20.83-8.65,29.86,29.86,0,0,0,7.8-12.89,8,8,0,0,1,9.78-5.82,8.83,8.83,0,0,1,4.82,3.69,7.68,7.68,0,0,1,.85,6.09A45,45,0,0,1,686,968.17h-.14V968a44.1,44.1,0,0,1-32.31,13.47,43.49,43.49,0,0,1-31.89-13.33V968c-8.93-8.93-13.47-19.56-13.47-32a45.74,45.74,0,0,1,45.36-45.35,43.85,43.85,0,0,1,28.34,9.78Zm24,205.79c0-11.2,4.11-21,12.19-29.34a41.76,41.76,0,0,1,58.39,0h.14a40.81,40.81,0,0,1,12.05,29.34c0,11.48-4,21.26-12.05,29.2l-.14.14a41.06,41.06,0,0,1-58.39,0v-.14a39.49,39.49,0,0,1-12.19-29.2Zm-81.5-440.93a45.68,45.68,0,1,0-.14,0ZM714.47,1301A34.37,34.37,0,0,1,680,1335.69a32.76,32.76,0,0,1-24.38-10.21v-.14a33.91,33.91,0,0,1,0-48.76A33.16,33.16,0,0,1,680,1266.52c9.36,0,17.43,3.4,24.38,10.06h.14a33.5,33.5,0,0,1,9.92,24.38Z"/><path class="cls-3" d="M436.11,1077.17a7.16,7.16,0,0,0-2.41,5.52,8,8,0,0,0,2.41,5.81,7.49,7.49,0,0,0,5.53,2.27c2.69,0,5.53.14,8.22.29H450a293.63,293.63,0,0,1,31,3.11c4.11.43,8.36,1.14,12.61,2a7.45,7.45,0,0,0,6-1.14,7.9,7.9,0,0,0,3.4-5.1,8.24,8.24,0,0,0-1.14-6.09,7.82,7.82,0,0,0-5.1-3.4c-4.68-.86-9.07-1.56-13.32-2.27a289.41,289.41,0,0,0-32.74-3.12c-3-.14-6.1-.28-9.07-.28a7.63,7.63,0,0,0-5.53,2.41Z"/><path class="cls-3" d="M600.09,1249.65c0-15-5.24-27.78-15.59-38.26h-.14q-15.74-15.73-38.27-15.74c-14.74,0-27.35,5.25-38,15.74s-15.87,23.24-15.87,38.26,5.24,27.5,15.87,38.13a51.67,51.67,0,0,0,38,15.73,52.62,52.62,0,0,0,38.41-15.73v-.14c10.35-10.63,15.59-23.25,15.59-38Zm-91.84,0a36.21,36.21,0,0,1,11.34-26.78h-.28a36.94,36.94,0,0,1,26.78-11.06,37.86,37.86,0,0,1,27.08,10.91v.15a38.33,38.33,0,0,1,0,53.57,37.38,37.38,0,0,1-27.08,11.06,36.08,36.08,0,0,1-26.5-11.06c-7.51-7.51-11.34-16.44-11.34-26.79Z"/><path class="cls-2" d="M519.59,1222.87a36.21,36.21,0,0,0-11.34,26.78c0,10.35,3.83,19.28,11.34,26.79a36.08,36.08,0,0,0,26.5,11.06,37.38,37.38,0,0,0,27.08-11.06,38.33,38.33,0,0,0,0-53.57v-.15a37.86,37.86,0,0,0-27.08-10.91,36.94,36.94,0,0,0-26.78,11.06Z"/><path class="cls-3" d="M684.85,905.81a9.65,9.65,0,0,0-3-5.38,43.85,43.85,0,0,0-28.34-9.78A45.74,45.74,0,0,0,608.17,936c0,12.47,4.54,23.1,13.47,32v.14a43.49,43.49,0,0,0,31.89,13.33A44.1,44.1,0,0,0,685.84,968l.14.14a45,45,0,0,0,11.63-20.41,7.68,7.68,0,0,0-.85-6.09,8.83,8.83,0,0,0-4.82-3.69,8,8,0,0,0-9.78,5.82,29.86,29.86,0,0,1-7.8,12.89,28.36,28.36,0,0,1-20.83,8.65A27.52,27.52,0,0,1,633,956.69h-.15a29.09,29.09,0,0,1,0-41.38H633a27.52,27.52,0,0,1,20.55-8.65,28.85,28.85,0,0,1,18.28,6.24,8.16,8.16,0,0,0,6,1.84,8.92,8.92,0,0,0,5.25-3,8.5,8.5,0,0,0,1.84-6Z"/><g class="cls-13"><rect class="cls-14" x="694.1" y="964.5" width="0.14" height="23.03" transform="translate(-491.36 805.71) rotate(-46.4)"/></g><path class="cls-3" d="M718,1076.88c-8.08,8.36-12.19,18.14-12.19,29.34a39.49,39.49,0,0,0,12.19,29.2v.14a41.06,41.06,0,0,0,58.39,0l.14-.14c8.08-7.94,12.05-17.72,12.05-29.2a40.81,40.81,0,0,0-12.05-29.34h-.14a41.76,41.76,0,0,0-58.39,0Zm11.19,11.48.29-.14a24.38,24.38,0,0,1,17.71-7.23,25,25,0,0,1,18,7.23v.14a25.51,25.51,0,0,1-18,43.37,23.72,23.72,0,0,1-17.71-7.65h-.29a25.33,25.33,0,0,1,0-35.72Z"/><path class="cls-2" d="M729.5,1088.22l-.29.14a25.33,25.33,0,0,0,0,35.72h.29a23.72,23.72,0,0,0,17.71,7.65,25.46,25.46,0,0,0,18-43.37v-.14a25,25,0,0,0-18-7.23,24.38,24.38,0,0,0-17.71,7.23Z"/><path class="cls-3" d="M637.51,697.46a43.84,43.84,0,0,0-13.18-32.17h-.14a45.34,45.34,0,0,0-63.92,0,45.22,45.22,0,0,0,31.89,77.25,45,45,0,0,0,45.35-45.08ZM613,676.63a29.23,29.23,0,0,1,0,41.24,28.78,28.78,0,0,1-20.83,8.51,27.84,27.84,0,0,1-20.41-8.51c-5.81-5.81-8.79-12.61-8.79-20.41a28,28,0,0,1,8.79-20.83h-.29a29.61,29.61,0,0,1,41.53,0Z"/><path class="cls-2" d="M621.5,697.46a29.37,29.37,0,0,0-50-20.83h.29A28,28,0,0,0,563,697.46c0,7.8,3,14.6,8.79,20.41a27.84,27.84,0,0,0,20.41,8.51A28.78,28.78,0,0,0,613,717.87a28.29,28.29,0,0,0,8.51-20.41Z"/><path class="cls-3" d="M704.55,1325.48a35.09,35.09,0,0,0,0-48.9h-.14c-6.95-6.66-15-10.06-24.38-10.06a33.16,33.16,0,0,0-24.38,10.06,33.91,33.91,0,0,0,0,48.76v.14A32.76,32.76,0,0,0,680,1335.69a33.52,33.52,0,0,0,24.52-10.21ZM698.46,1301a18.26,18.26,0,0,1-5.25,13.18,18.87,18.87,0,0,1-13.18,5.39,17.67,17.67,0,0,1-13-5.39h-.14a18,18,0,0,1-5.53-13.18A18.87,18.87,0,0,1,680,1282.54a18.76,18.76,0,0,1,13.18,5.24v.14a18.19,18.19,0,0,1,5.25,13Z"/><path class="cls-2" d="M693.21,1314.14a19,19,0,0,0,0-26.22v-.14a18.76,18.76,0,0,0-13.18-5.24A18.87,18.87,0,0,0,661.32,1301a18,18,0,0,0,5.53,13.18H667a17.64,17.64,0,0,0,13,5.39,18.92,18.92,0,0,0,13.18-5.39Z"/><g class="cls-15"><rect class="cls-16" x="1427.44" y="577.81" width="2.68" height="34.92" transform="translate(12.43 1219.54) rotate(-46.4)"/></g><g class="cls-17"><rect class="cls-18" x="627.95" y="1138.44" width="0.09" height="24.66" transform="translate(-638.46 812.04) rotate(-46.4)"/></g></g></g></svg>