<svg xmlns="http://www.w3.org/2000/svg" xmlns:xlink="http://www.w3.org/1999/xlink" viewBox="0 0 1700.79 1700.79"><defs><style>.cls-1{fill:none;}.cls-2{fill:#d5af00;}.cls-3{fill:#ffd203;}.cls-4{fill:#fff;}.cls-5{clip-path:url(#clip-path);}.cls-6{fill:#8dc413;}</style><clipPath id="clip-path"><polygon class="cls-1" points="851.95 1699.37 850.39 1700.79 851.95 1699.37 851.95 1699.37"/></clipPath></defs><title>Asset 2</title><g id="Layer_2" data-name="Layer 2"><g id="Layer_1-2" data-name="Layer 1"><path class="cls-2" d="M864.71,332.39c2.41,4,3.83,9.5,4,16.44l.71,40.26c7.51-1.7,14.88-3.26,22.39-4.82,7.23-1.42,14.46-2.69,21.68-4l-48.75-47.91Z"/><path class="cls-3" d="M1124.22,400c5.81,3.26,11.62,6.66,17.29,10.35Q1195.09,445.23,1237,456a141.69,141.69,0,0,0,34,4.39c21.69-1.7,34.45,0,38.56,5.11a17.43,17.43,0,0,1,1.7,3.12,6.94,6.94,0,0,1,.14,1.7l389.34,389.08v-8.93q0-352.3-249.31-601.56Q1202.53-.07,850.39,0,497.91,0,248.88,248.9-.07,498.09,0,850.46,0,1203,248.88,1451.74q249,249,601.51,249l1.56-1.42-600.8-600.85c-3.83-3.12-7.65-6.38-11.2-9.64h21.12l-13.89-13.75h-.42L428.6,534.52a25.87,25.87,0,0,1-7.23-5.11,23.2,23.2,0,0,1-7.09-17,21.59,21.59,0,0,1,3.41-11.9l-21.83-22a18.27,18.27,0,0,1-5.39-4.54c-1.84-2.83-1.7-5.67.71-8.5,4-5.11,16.87-6.81,38.55-5.11a141.71,141.71,0,0,0,34-4.39q41.88-10.85,95.53-45.64c5.66-3.69,11.48-7.09,17.29-10.35q70.36-38.47,156.61-28.06,37.85,4.67,75.69,12.33c7.51,1.56,15,3.12,22.53,4.82l.71-40.26c.43-15.31,6.24-23.24,17.72-23.67h1a17.38,17.38,0,0,1,8.93,2.41,16,16,0,0,1,5,4.82l48.75,47.91c18-3.4,36-6.24,54-8.36Q1054,361.52,1124.22,400Z"/><path class="cls-4" d="M240,1088.88c3.55,3.26,7.37,6.52,11.2,9.64q47.19,37,129.26,46.77c15.73,1.7,32.31,2.7,49.89,3,11.48.28,22.53.14,33.45-.28q107.36-5.33,172.49-59.11H240Z"/><g class="cls-5"><rect class="cls-6" x="850.37" y="1699.36" width="8.89" height="1.39"/></g><path class="cls-4" d="M1141.51,410.35c-5.67-3.69-11.48-7.09-17.29-10.35q-70.37-38.47-156.76-28.06c-18,2.12-36,5-54,8.36-7.22,1.28-14.45,2.55-21.68,4-7.51,1.56-14.88,3.12-22.39,4.82l-.71-40.26c-.14-6.94-1.56-12.47-4-16.44a16,16,0,0,0-5-4.82,17.38,17.38,0,0,0-8.93-2.41h-1c-11.48.43-17.29,8.36-17.72,23.67l-.71,40.26c-7.51-1.7-15-3.26-22.53-4.82q-37.85-7.65-75.69-12.33Q646.87,361.52,576.57,400c-5.81,3.26-11.63,6.66-17.29,10.35Q505.7,445.23,463.75,456a141.71,141.71,0,0,1-34,4.39c-21.68-1.7-34.58,0-38.55,5.11-2.41,2.83-2.55,5.67-.71,8.5a18.27,18.27,0,0,0,5.39,4.54,19.47,19.47,0,0,0,2.41,1.42,111.29,111.29,0,0,0,39.82,8.64c5.25.14,10.78,0,16.59-.28,3-.29,5.95-.71,9.07-1.14q50-6.8,114.38-46.2,70.15-43,151.79-29.49,38.26,6.6,79,25.09,10.83,4.89,21.68,10.63l-.85,47.63c-6.24,3.68-9.07,16.87-8.36,39.4l-.71,466.48c-5.81.43-9.64,2.55-11.76,6.1a18.32,18.32,0,0,0-1.7,9.35l.14,211.63q-46.14,6.8-77.39,21.68a139.88,139.88,0,0,0-25.51,15.17c-1.84,1.42-3.54,2.84-5.24,4.11a97.85,97.85,0,0,0-16.45,17.86h-42.8l.14,43.66-26.36,1.27-1.27,44.09h475.79l-1.13-44.09-26.51-1.27.29-43.66h-42.95a97.79,97.79,0,0,0-16.44-17.86c-1.7-1.27-3.4-2.69-5.1-4.11a136.33,136.33,0,0,0-25.66-15.17q-31-14.88-77.38-21.68l.28-211.63c.14-3.82-.42-6.94-1.84-9.35-2.13-3.55-5.95-5.67-11.76-6.1l-.57-466.48c.71-22.53-2.13-35.72-8.36-39.4l-.85-47.63c7.22-3.82,14.45-7.37,21.54-10.63A342.59,342.59,0,0,1,949.18,416c7.23-1.84,14.46-3.26,21.54-4.54q81.85-13.39,151.94,29.49,64.42,39.33,114.38,46.2a131.28,131.28,0,0,0,25.51,1.42,111.4,111.4,0,0,0,40-8.64c5.81-3.12,8.79-6.38,8.93-9.64a6.94,6.94,0,0,0-.14-1.7,17.43,17.43,0,0,0-1.7-3.12c-4.11-5.11-16.87-6.81-38.55-5.11a141.71,141.71,0,0,1-34-4.39q-41.88-10.85-95.53-45.64Z"/><path class="cls-2" d="M970.72,411.48c-7.08,1.28-14.31,2.7-21.54,4.54a342.59,342.59,0,0,0-57.4,20.55c-7.09,3.26-14.32,6.81-21.54,10.63l.85,47.63c6.23,3.68,9.07,16.87,8.36,39.4l.57,466.48c5.81.43,9.63,2.55,11.76,6.1,1.42,2.41,2,5.53,1.84,9.35l-.28,211.63q46.35,6.8,77.38,21.68a136.33,136.33,0,0,1,25.66,15.17c1.7,1.42,3.4,2.84,5.1,4.11a97.79,97.79,0,0,1,16.44,17.86h42.95l-.29,43.66,26.51,1.27,1.13,44.09H612.43l1.27-44.09,26.36-1.27-.14-43.66h42.8a97.85,97.85,0,0,1,16.45-17.86c1.7-1.27,3.4-2.69,5.24-4.11a139.88,139.88,0,0,1,25.51-15.17q31.26-14.88,77.39-21.68l-.14-211.63a18.32,18.32,0,0,1,1.7-9.35c2.12-3.55,6-5.67,11.76-6.1l.71-466.48c-.71-22.53,2.12-35.72,8.36-39.4l.85-47.63q-10.84-5.73-21.68-10.63-40.61-18.49-79-25.09Q648.29,398.09,578.13,441q-64.43,39.33-114.38,46.2c-3.12.43-6.1.85-9.07,1.14-5.81.28-11.34.42-16.59.28A111.29,111.29,0,0,1,398.27,480a19.47,19.47,0,0,1-2.41-1.42l21.83,22a19.13,19.13,0,0,1,3.68-4.68,22.81,22.81,0,0,1,16.72-7.09,23.73,23.73,0,0,1,23.82,23.67,23.5,23.5,0,0,1-6.81,17,28,28,0,0,1-4.67,3.83c-1,.43-1.85.85-2.56,1.14l182.27,540.75H617.53L444.05,561v514.11H431.86V562.58L259.37,1075.13H247.18l13.89,13.75H636.24Q571,1142.67,463.75,1148c-10.92.42-22,.56-33.45.28-17.58-.28-34.16-1.28-49.89-3q-82.07-9.78-129.26-46.77L852,1699.37l1.42,1.42q350.36-1.07,598.11-249,246-245.57,249.31-592.2v-.15L1311.45,470.31c-.14,3.26-3.12,6.52-8.93,9.64a111.4,111.4,0,0,1-40,8.64,131.28,131.28,0,0,1-25.51-1.42q-50-6.8-114.38-46.2-70.15-43-151.94-29.49Zm93.69,677.4h396.42q-48,45.49-140.45,56.41c-15.73,1.7-32.32,2.7-50,3-11.34.28-22.4.14-33.31-.28q-107.37-5.33-172.63-59.11Zm188.5-554.5a22.7,22.7,0,0,1-7.22-5,23.07,23.07,0,0,1-7-17,22.61,22.61,0,0,1,7-16.58,23.95,23.95,0,0,1,40.81,16.58,23.23,23.23,0,0,1-7.08,17,28.76,28.76,0,0,1-7.37,5.11l182,540.61h-12.61L1268.79,562.58v512.55h-12V561l-173.48,514.11h-12.61l182.26-540.75Z"/><path class="cls-4" d="M1460.83,1088.88H1064.41q65.27,53.79,172.63,59.11c10.91.42,22,.56,33.31.28,17.71-.28,34.3-1.28,50-3q92.47-10.85,140.45-56.41Z"/><path class="cls-4" d="M1245.68,529.41a22.86,22.86,0,0,0,7.23,5l-182.26,540.75h12.61L1256.74,561v514.11h12V562.58l172.63,512.55H1454l-182-540.61a28.76,28.76,0,0,0,7.37-5.11,23.23,23.23,0,0,0,7.08-17,23.88,23.88,0,0,0-47.76,0,23.1,23.1,0,0,0,6.94,17Zm5.11-17a11.76,11.76,0,1,1,20.12,8.51,10.7,10.7,0,0,1-7.23,3.26h-.85a3.41,3.41,0,0,0-1.13.28c-.14-.14-.14-.28-.28-.28a11.3,11.3,0,0,1-7.23-3.26,11.53,11.53,0,0,1-3.4-8.51Z"/><path class="cls-2" d="M1254.19,504.33a11.8,11.8,0,0,0,0,16.58,11.3,11.3,0,0,0,7.23,3.26c.14,0,.14.14.28.28a3.41,3.41,0,0,1,1.13-.28h.85a10.7,10.7,0,0,0,7.23-3.26,11.77,11.77,0,0,0-16.72-16.58Z"/><path class="cls-4" d="M417.69,500.5a21.59,21.59,0,0,0-3.41,11.9,23.2,23.2,0,0,0,7.09,17,25.87,25.87,0,0,0,7.23,5.11L246.76,1075.13h12.61L431.86,562.58v512.55h12.19V561l173.48,514.11h12.61L447.87,534.38c.71-.29,1.56-.71,2.56-1.14a28,28,0,0,0,4.67-3.83,23.5,23.5,0,0,0,6.81-17,23.65,23.65,0,0,0-40.54-16.58,19.13,19.13,0,0,0-3.68,4.68Zm21.25,24a2,2,0,0,0-1-.28h-.85a10.2,10.2,0,0,1-7.23-3.26,11.13,11.13,0,0,1-3.54-8.51,8.93,8.93,0,0,1,.43-2.83,11.67,11.67,0,0,1,3.11-5.24,11.13,11.13,0,0,1,8.22-3.41,11.54,11.54,0,0,1,8.51,3.41,12.17,12.17,0,0,1,0,16.58,12.26,12.26,0,0,1-5.39,3.12,8.79,8.79,0,0,1-1.84.14c-.14,0-.28.14-.43.28Z"/><path class="cls-2" d="M438,524.17a2,2,0,0,1,1,.28c.15-.14.29-.28.43-.28a8.79,8.79,0,0,0,1.84-.14,12.26,12.26,0,0,0,5.39-3.12,12.17,12.17,0,0,0,0-16.58,11.54,11.54,0,0,0-8.51-3.41,11.13,11.13,0,0,0-8.22,3.41,11.67,11.67,0,0,0-3.11,5.24,8.93,8.93,0,0,0-.43,2.83,11.13,11.13,0,0,0,3.54,8.51,10.2,10.2,0,0,0,7.23,3.26H438Z"/></g></g></svg>