<svg xmlns="http://www.w3.org/2000/svg" viewBox="0 0 1700.79 1700.79"><defs><style>.cls-1{fill:#fff;}.cls-2{fill:#16b269;}.cls-3{fill:#20e387;}</style></defs><title>Asset 2</title><g id="Layer_2" data-name="Layer 2"><g id="Layer_1-2" data-name="Layer 1"><path class="cls-1" d="M931.75,356c-1-.85-1.84-1.7-2.84-2.55-22.53-18.85-49-28.06-79.51-27.35q-96.51-1.28-138.47,123.16-26.58,77.82-34.73,216.57H591l-50.45,570.9-10.07,112H1170l-9.92-112-50.6-570.9h-87q-8.3-138-35-216.57-16.8-49.74-42.1-79.37a7.7,7.7,0,0,1-1-1.13A154,154,0,0,0,931.75,356Zm94.53,425.06a33.63,33.63,0,0,1,5.11,4.25,29.93,29.93,0,0,1,8.92,22,30.71,30.71,0,0,1-30.75,30.75,29.72,29.72,0,0,1-22-9.07,29.08,29.08,0,0,1-8.93-21.68,29.94,29.94,0,0,1,8.93-22,28.28,28.28,0,0,1,6.8-5.1c0,8.78,0,17.85-.14,27.07h32V781.09ZM965.2,463.18q21.46,68.88,27.35,202.68H706.11q5.75-135.43,26.93-204.1Q765.56,357.6,848.69,357.45q83.55.21,116.51,105.73ZM704.41,807.31c-.14-9.64-.14-19.14-.14-28.35a32.48,32.48,0,0,1,8.93,6.38,29.53,29.53,0,0,1,9.07,22A28.69,28.69,0,0,1,713.2,829a29.2,29.2,0,0,1-21.83,9.07,30,30,0,0,1-22-9.07,29.5,29.5,0,0,1-8.79-21.68,30.37,30.37,0,0,1,8.79-22,19.09,19.09,0,0,1,3.26-2.69c-.14,8.07-.14,16.29-.14,24.66Z"/><path class="cls-2" d="M1031.39,785.34a33.63,33.63,0,0,0-5.11-4.25v26.22h-32c.14-9.22.14-18.29.14-27.07a28.28,28.28,0,0,0-6.8,5.1,29.94,29.94,0,0,0-8.93,22A29.08,29.08,0,0,0,987.59,829a29.72,29.72,0,0,0,22,9.07,30.73,30.73,0,0,0,30.76-30.75,29.94,29.94,0,0,0-8.93-22Z"/><path class="cls-2" d="M992.55,665.86q-5.74-133.73-27.35-202.68-33-105.45-116.51-105.73-83.12.21-115.65,104.31-21.25,68.67-26.93,204.1Z"/><path class="cls-2" d="M704.27,779c0,9.21,0,18.71.14,28.35H672.52c0-8.37,0-16.59.14-24.66a19.09,19.09,0,0,0-3.26,2.69,30.37,30.37,0,0,0-8.79,22A29.5,29.5,0,0,0,669.4,829a30,30,0,0,0,22,9.07A29.2,29.2,0,0,0,713.2,829a28.69,28.69,0,0,0,9.07-21.68,29.53,29.53,0,0,0-9.07-22,32.48,32.48,0,0,0-8.93-6.38Z"/><path class="cls-3" d="M945.35,369.92h.15l722.55,722.55q32.73-114.16,32.74-242.08,0-352.27-249-601.37Q1202.6.08,850.39,0T249,249Q.08,498.18,0,850.39t249,601.37q249.16,249,601.37,249c10.63,0,21.12-.14,31.75-.43L530.5,1348.72l10.07-112L591,665.86H676.2Q684.5,527,710.93,449.29,752.81,324.92,849.4,326.13c30.47-.71,57,8.5,79.51,27.35,1,.85,1.85,1.7,2.84,2.55a154,154,0,0,1,12.61,12.76,7.7,7.7,0,0,0,1,1.13Z"/><path class="cls-2" d="M945.5,369.92h-.15q25.3,29.55,42.1,79.37,26.79,78.45,35,216.57h87l50.6,570.9,9.92,112H530.5l351.64,351.64a932.85,932.85,0,0,0,119.2-11.76q256.39-43.15,450.42-236.84,128.63-128.61,190.92-285.16,14.46-36.36,25.37-74.13L945.5,369.92Z"/></g></g></svg>