<?xml version="1.0" encoding="utf-8"?>
<!-- Generator: Adobe Illustrator 23.0.5, SVG Export Plug-In . SVG Version: 6.00 Build 0)  -->
<svg version="1.1" id="Layer_1" xmlns="http://www.w3.org/2000/svg" xmlns:xlink="http://www.w3.org/1999/xlink" x="0px" y="0px"
	 viewBox="0 0 36.7 36.7" style="enable-background:new 0 0 36.7 36.7;" xml:space="preserve">
<style type="text/css">
	.st0{fill:#1EA5FC;}
	.st1{fill:#FFFFFF;}
</style>
<title>Asset 6</title>
<g>
	<g id="Layer_1-2">
		<path class="st0" d="M36.7,18.3c0,10.1-8.2,18.4-18.3,18.4S0,28.5,0,18.4C0,8.2,8.2,0,18.3,0C28.4,0,36.7,8.2,36.7,18.3
			C36.7,18.3,36.7,18.3,36.7,18.3z"/>
		<path class="st1" d="M23.9,23.7h-1.4v1h1.4c0.2,0,0.3,0.2,0.3,0.4c0,0,0,0,0,0c0,0.2-0.1,0.3-0.3,0.4h-1.4v2.3h1.4
			c1-0.1,1.7-0.9,1.7-1.9v-0.3C25.6,24.6,24.9,23.8,23.9,23.7L23.9,23.7z M22.5,21.9h5c1-0.1,1.7-0.9,1.7-1.9V10
			c0.1-1-0.7-1.8-1.7-1.9h-5v1.3h4.1c0.8,0.1,1.4,0.8,1.4,1.6v8.2c0.1,0.8-0.6,1.5-1.4,1.5h-4.1V21.9z M22.5,23.7h-1.8v-1.8h1.8
			v-1.3h-3.8v7.2h3.8v-2.3h-1.4c-0.2,0-0.3-0.2-0.3-0.4c0-0.2,0.1-0.3,0.3-0.4c0,0,0,0,0,0h1.4V23.7L22.5,23.7z M22.5,8h-3.8v1.3
			h3.8L22.5,8z M18.7,8H9.9C8.9,8.1,8.2,9,8.2,9.9v10c-0.1,1,0.7,1.8,1.7,1.9h6.7v1.8h-3c-1,0.1-1.7,0.9-1.7,1.9v0.3
			c-0.1,1,0.7,1.8,1.7,1.9h5.1v-7.1h-7.9c-0.8-0.1-1.4-0.7-1.4-1.5v-8.2c-0.1-0.8,0.6-1.5,1.4-1.6h7.8L18.7,8z"/>
	</g>
</g>
</svg>
