<svg xmlns="http://www.w3.org/2000/svg" xmlns:xlink="http://www.w3.org/1999/xlink" viewBox="0 0 1700.79 1700.79"><defs><style>.cls-1{fill:none;}.cls-2{fill:#fff;}.cls-3{clip-path:url(#clip-path);}.cls-4{fill:#72b509;}.cls-5{fill:#f36;}.cls-6{clip-path:url(#clip-path-2);}.cls-7{fill:#87af14;}.cls-8{fill:#ff0443;}</style><clipPath id="clip-path"><path class="cls-1" d="M1279.7,276.24l-2.41.7,2.13-.42.28-.28Z"/></clipPath><clipPath id="clip-path-2"><path class="cls-1" d="M1306.49,284.88l.28-.14-.42-.43a.86.86,0,0,0,.14.57Z"/></clipPath></defs><title>Asset 2</title><g id="Layer_2" data-name="Layer 2"><g id="Layer_1-2" data-name="Layer 1"><polygon class="cls-2" points="646.16 985.18 597.26 985.18 449.86 985.18 449.86 1419.31 646.16 1419.31 646.16 985.18 646.16 985.18"/><g class="cls-3"><rect class="cls-4" x="1277.27" y="276.26" width="7" height="0.69"/></g><path class="cls-5" d="M1277.29,276.94l2.41-.7a19.17,19.17,0,0,1,15-1.56l3,1.27a19.72,19.72,0,0,1,8.65,8.36l.42.43,374,374.32q-50.6-231.52-229.18-409.89Q1202.46,0,850.39,0,498.11,0,248.88,249.17-.07,498.11,0,850.39t248.88,601.52q202.61,202.38,473.81,240.37l-272.83-273V985.18h147.4l-192.9-192.9c-.28-.14-.56-.42-.85-.56a19.43,19.43,0,0,1-8.93-12.19,18.17,18.17,0,0,1,2.7-14.74,18.72,18.72,0,0,1,12-8.93q261.72-61,478.21-178,191.55-103.32,331.08-242.64l-63.07,18.71a19.76,19.76,0,0,1-15-1.71,19.27,19.27,0,0,1-9.5-11.62,18.54,18.54,0,0,1,1.56-15,19.2,19.2,0,0,1,11.77-9.5l132.94-39.12Z"/><path class="cls-2" d="M1279.7,276.24l-.28.28-2.13.42-132.94,39.12a19.2,19.2,0,0,0-11.77,9.5,18.54,18.54,0,0,0-1.56,15,19.27,19.27,0,0,0,9.5,11.62,19.76,19.76,0,0,0,15,1.71l63.07-18.71Q1078.95,474.44,887.53,577.84q-216.43,116.94-478.21,178a18.72,18.72,0,0,0-12,8.93,18.17,18.17,0,0,0-2.7,14.74,19.43,19.43,0,0,0,8.93,12.19c.29.14.57.42.85.56a18.94,18.94,0,0,0,13.89,1.85q267.24-62.5,488-181.7,197.51-106.95,341.43-250.59l-20.41,66.33a19.67,19.67,0,0,0,13.18,24.38,19.43,19.43,0,0,0,14.88-1.27,19.81,19.81,0,0,0,9.5-11.63l42.94-140.31a18.4,18.4,0,0,0-1.27-14.46.86.86,0,0,1-.14-.57,19.72,19.72,0,0,0-8.65-8.36l-3-1.27a19.17,19.17,0,0,0-15,1.56Z"/><g class="cls-6"><rect class="cls-7" x="1316.38" y="280.02" width="0.34" height="28.53" transform="translate(195.6 1044.87) rotate(-46.41)"/></g><path class="cls-8" d="M1306.77,284.74l-.28.14a18.4,18.4,0,0,1,1.27,14.46l-42.94,140.31a19.81,19.81,0,0,1-9.5,11.63,19.43,19.43,0,0,1-14.88,1.27,19.67,19.67,0,0,1-13.18-24.38l20.41-66.33Q1103.74,505.55,906.24,612.43q-220.89,119.27-488,181.7a18.94,18.94,0,0,1-13.89-1.85l192.9,192.9h48.9v434.13H449.86l272.83,273a939.57,939.57,0,0,0,127.7,8.51q352.06,0,601.23-248.88,249.17-249.17,249.17-601.52,0-99.71-20-191.33l-374-374.32ZM1047.12,641.62h196.44v777.26H1047.12V641.62Zm-103,777.69H747.78V807.17h196.3v612.14Z"/><polygon class="cls-2" points="1243.56 641.62 1047.12 641.62 1047.12 1418.88 1243.56 1418.88 1243.56 641.62 1243.56 641.62"/><polygon class="cls-2" points="747.78 1419.31 944.08 1419.31 944.08 807.16 747.78 807.16 747.78 1419.31 747.78 1419.31"/></g></g></svg>