<svg xmlns="http://www.w3.org/2000/svg" xmlns:xlink="http://www.w3.org/1999/xlink" viewBox="0 0 1700.79 1700.79"><defs><style>.cls-1{fill:none;}.cls-2{fill:#fff;}.cls-3{fill:#0d2b5d;}.cls-4{clip-path:url(#clip-path);}.cls-5{fill:#91b517;}.cls-6{clip-path:url(#clip-path-2);}.cls-7{fill:#a3d01b;}.cls-8{clip-path:url(#clip-path-3);}.cls-9{fill:#a8d21d;}.cls-10{fill:#1a55b9;}</style><clipPath id="clip-path"><path class="cls-1" d="M628.72,449.57v0Z"/></clipPath><clipPath id="clip-path-2"><path class="cls-1" d="M555.17,463l-.71.57,2.12.85L555.17,463Z"/></clipPath><clipPath id="clip-path-3"><path class="cls-1" d="M498.47,1000.91l-1.13,1.14a5,5,0,0,1,1.56-.71l-.43-.43Z"/></clipPath></defs><title>Asset 1</title><g id="Layer_2" data-name="Layer 2"><g id="Layer_1-2" data-name="Layer 1"><path class="cls-2" d="M972.57,470.41l-2.55-9.5q-22.75-53.78-55.28-94.25a313.9,313.9,0,0,0-24.24-26.93,303.4,303.4,0,0,0-64.77-49.32V490.68a572.68,572.68,0,0,0,146.84-20.27Z"/><path class="cls-3" d="M1182.33,356c7.23,7.66,14.32,15.45,21,23.25q112.89,132.44,117.78,310.11v15.44c0,6.1-.15,12.34-.29,18.43Q1315.28,897.8,1204.44,1029c-7.37,8.64-15,17.15-23.1,25.51-3,3-5.95,6.09-8.93,9.07q-129,129-304.16,146.13c-8.08.7-16.3,1.41-24.52,1.84l32.32,160H1001.2v57.12H625.32L896.46,1699.8q322.5-15.52,555.16-248.18,249.17-249,249.17-601.23c0-22.11-.71-43.93-2.13-65.33L1226,312.38,1182.33,356Z"/><path class="cls-3" d="M1181.34,398c-6.24-7.37-12.62-14.59-19.28-21.54l-23.38,23.25,116.64,116.64q-27-63.36-74-118.35Z"/><path class="cls-2" d="M655.37,460.91,654,467q72.49,19.77,142.87,23.1V292.25c-1.28.71-2.41,1.42-3.69,2.13q-90.35,54.21-137.76,166.53Z"/><path class="cls-3" d="M508.54,1029.83l-23.11,23.24q64,60.81,139.61,93.26l-116.5-116.5Z"/><path class="cls-3" d="M464.88,1073.48l-37.13,37.42,260.64,260.64h63.07l32-160c-9.22-.43-18.43-1.28-27.5-2.27Q589.53,1192,464.88,1073.48Z"/><g class="cls-4"><rect class="cls-5" x="636.54" y="446.12" width="0.08" height="21.78" transform="translate(-133.36 602.91) rotate(-46.4)"/></g><path class="cls-2" d="M1138.54,399.83l.14-.14,23.38-23.25c6.66,6.95,13,14.17,19.28,21.54q47,55.06,74,118.35c3.69,8.65,7.09,17.58,10.35,26.5q24.45,69.1,26.5,147.55c.14,4.82.29,9.64.29,14.45q0,8.73-.43,17.44-5.1,164.76-109.7,288.28c-6.94,8.08-14.17,16.16-21.83,24.1-2.69,3-5.52,5.81-8.36,8.5Q1030.53,1165,865.28,1181.06c-16.87,1.55-34,2.26-51.45,2.26a524.22,524.22,0,0,1-54.29-2.69,470.92,470.92,0,0,1-105.45-23.1c-9.78-3.4-19.55-7.09-29.05-11.2q-75.69-32.52-139.61-93.26l23.11-23.24.14-.14a8.23,8.23,0,0,1-1.56-1.56c-2.69-2.7-5.53-5.39-8.36-8.22l-.15-.15a6.15,6.15,0,0,1-1-.85c-3-3-5.81-6.09-8.79-9.07a25.58,25.58,0,0,1-1.84-2l-81.21,81.07,21.83,22h.14l37.13-37.42Q589.47,1192.11,756,1209.26c9.07,1,18.28,1.84,27.5,2.27l-32,160H625.32v57.12H1001.2v-57.12H876.05l-32.32-160c8.22-.43,16.44-1.14,24.52-1.85q175.18-17.22,304.16-146.12c3-3,5.95-6.1,8.93-9.07,8.08-8.36,15.73-16.87,23.1-25.51Q1315.2,897.81,1320.8,723.26c.14-6.09.29-12.33.29-18.43V689.39q-4.89-177.53-117.78-310.11c-6.66-7.8-13.75-15.6-21-23.25L1226,312.38l-22-21.83L1116.71,378c3.68,3.4,7.37,6.94,11,10.77.15.14.29.29.43.43s.42.28.57.42c2.26,2.27,4.53,4.54,6.8,6.95l1.13,1.13c.57.71,1.14,1.28,1.7,2l.15.15Z"/><path class="cls-3" d="M970,460.91l2.55,9.5a572.68,572.68,0,0,1-146.84,20.27V321.17l-28.91-28.92V490.11Q726.46,486.92,654,467l1.42-6.1q47.42-112.46,137.76-166.53L772,273.26q-93.33,58.47-143.3,176.31-1.9,4.47-3.82,8.93C605.06,452.13,585.21,445,565.23,437q-33.16-13.81-66.76-30.61L555.17,463l1.41,1.42c19.56,7.79,39,14.88,58.4,21.26q-32.33,94.17-32,205.93H379.84l28.92,28.92H583.51c.14,1.56.14,3.26.29,5q4.46,105.45,35,195.59-31.24,9.78-62.5,22.53v-.14c-26.22,10.49-52.44,22.54-78.95,36.29l21.12,21.11.43.43q34.23-17.22,68.17-30.9c20.55-8.36,41.1-15.73,61.51-22.11,5.67,14.74,11.91,29.2,18.85,43.23q28.92,59.75,67.18,101.34a282.39,282.39,0,0,0,49.89,43.51q-132-13.4-233.15-101.62l122.74,122.74a470.8,470.8,0,0,0,105.45,23.1,524.22,524.22,0,0,0,54.29,2.69c17.43,0,34.58-.71,51.45-2.26q165.18-16.17,286.86-137.91c2.84-2.69,5.67-5.53,8.36-8.5,7.66-7.94,14.89-16,21.83-24.1Q1286.93,887,1292,722.27q.42-8.71.43-17.44c0-4.81-.15-9.63-.29-14.45q-2.12-78.45-26.5-147.55l-138.05-138c-23.1,13-45.35,24.38-67,34q-26.36,11.7-52.86,20.84c-2.13.71-4.11,1.27-6.1,2-1.56-4.11-3.26-8.08-5-12.05a8.53,8.53,0,0,1-.71-1.7l-81.21-81.21q32.53,40.39,55.28,94.25Zm42.66,259.66v3.68q-4.47,99.71-32.6,185.25a598.44,598.44,0,0,0-154.35-21.12V720.57Zm28.91,5c.14-1.7.14-3.4.28-5h205.8Q1242.78,870,1148,982.06a687.22,687.22,0,0,0-77.67-40.39,635.68,635.68,0,0,0-62.5-23.95q29.13-88.66,33.73-192.19ZM970.3,936.85Q962,958.33,952,978.94q-27,55.71-62.51,94.4v.14q-30,32.54-63.78,50.32V917.29A567.29,567.29,0,0,1,970.3,936.85Zm158,67.18c-2.41,2.69-5,5.25-7.65,7.8q-110.34,110.34-260.22,125a287.18,287.18,0,0,0,50.31-43.93Q949,1051.44,978,991.56c7.37-15.17,14-30.76,20.13-46.49a610.46,610.46,0,0,1,60.66,23.1,662.5,662.5,0,0,1,69.59,35.86ZM983.91,497.34q30,88.86,29.62,194.31H825.73V519.59a604.16,604.16,0,0,0,158.18-22.25Zm-341.15-3.4Q721,515.84,796.82,519V691.65H612q-.42-107.35,30.76-197.71Zm-30,230.31v-3.68H796.82V888.94q-74.21,3-150.24,24-29.34-87-33.87-188.65Zm60.66,254.69c-6.09-12.61-11.76-25.51-16.87-38.69A638.78,638.78,0,0,1,796.82,918v204.38q-32.31-17.87-61-48.9v-.14q-35.5-38.7-62.5-94.4Zm399-513.63a753.45,753.45,0,0,0,74.83-38.84q96.52,113.32,100.63,265.18H1042.44q.21-109.9-30.9-202.82a639.21,639.21,0,0,0,60.81-23.52Z"/><path class="cls-2" d="M1012.68,724.25v-3.68H825.73V888.38A598.44,598.44,0,0,1,980.08,909.5q28.27-85.47,32.6-185.25Z"/><path class="cls-2" d="M1041.87,720.57c-.14,1.56-.14,3.26-.28,5q-4.47,103.53-33.73,192.19a635.68,635.68,0,0,1,62.5,23.95A687.22,687.22,0,0,1,1148,982.06q94.82-112,99.64-261.49Z"/><path class="cls-2" d="M952,978.94q10-20.61,18.28-42.09a567.29,567.29,0,0,0-144.57-19.56V1123.8q33.81-17.86,63.78-50.32v-.14Q925,1034.64,952,979Z"/><path class="cls-2" d="M1120.68,1011.83c2.69-2.55,5.24-5.11,7.65-7.8a662.5,662.5,0,0,0-69.59-35.86,610.46,610.46,0,0,0-60.66-23.1C992,960.8,985.32,976.39,978,991.56Q949,1051.31,910.77,1092.9a287.18,287.18,0,0,1-50.31,43.93q149.88-14.65,260.22-125Z"/><path class="cls-2" d="M1013.53,691.65q.21-105.45-29.62-194.31a604.16,604.16,0,0,1-158.18,22.25V691.65Z"/><path class="cls-2" d="M796.82,519q-75.9-3.18-154.06-25.08Q611.5,584.29,612,691.65H796.82V519Z"/><path class="cls-2" d="M612.71,720.57v3.68q4.45,101.84,33.87,188.65,76.11-21,150.24-24V720.57Z"/><path class="cls-2" d="M656.5,940.25c5.11,13.18,10.78,26.08,16.87,38.69q27,55.71,62.5,94.4v.14q28.71,31,61,48.9V918A638.78,638.78,0,0,0,656.5,940.25Z"/><path class="cls-2" d="M1147.18,426.47a753.45,753.45,0,0,1-74.83,38.84,639.21,639.21,0,0,1-60.81,23.52q31.26,92.91,30.9,202.82h205.37q-4-151.78-100.63-265.18Z"/><path class="cls-2" d="M772,273.26l1.27-.85a8.79,8.79,0,0,1-1.84.14q-152.87,13.4-264.76,125.29c-2.69,2.84-5.52,5.67-8.22,8.51q33.6,16.78,66.76,30.61c20,8.08,39.83,15.17,59.67,21.54q1.9-4.46,3.82-8.93v0q50-117.76,143.3-176.31Z"/><g class="cls-6"><rect class="cls-7" x="554.43" y="463.05" width="23.74" height="1.4"/></g><path class="cls-2" d="M556.58,464.46l-2.12-.85h-.15c-25.08-10.35-50.45-22-75.82-34.87q-94.61,112.68-98.65,262.91h203.1q-.21-111.82,32-205.93c-19.42-6.38-38.84-13.47-58.4-21.26Z"/><path class="cls-2" d="M408.76,720.57H380q4.47,147.75,97.37,259.23c26.51-13.75,52.73-25.8,78.95-36.29v.14q31.25-12.75,62.5-22.53-30.39-90.15-35-195.59c-.15-1.7-.15-3.4-.29-5Z"/><path class="cls-2" d="M516.9,1021.61q7,6.8,14.45,13.18,101,88.23,233.15,101.62a282.39,282.39,0,0,1-49.89-43.51q-38.26-41.46-67.18-101.34c-6.94-14-13.18-28.49-18.85-43.23-20.41,6.38-41,13.75-61.51,22.11q-34,13.6-68.17,30.9a5,5,0,0,0-1.56.71q4.46,4.89,9.35,9.78t10.21,9.78Z"/><g class="cls-8"><rect class="cls-9" x="497.34" y="1000.93" width="16.02" height="1.14"/></g><path class="cls-10" d="M1108.63,386.08l.14.14c4,3.83,7.94,7.65,11.91,11.62l6.94,6.81v.14l138.05,138c-3.26-8.92-6.66-17.85-10.35-26.5L1138.68,399.69l-.14.14-.15-.14c-.56-.71-1.13-1.28-1.7-2l-1.13-1.13c-2.27-2.41-4.54-4.68-6.8-6.95-.15-.14-.43-.28-.57-.42l-.43-.43c-3.68-3.83-7.37-7.37-11-10.77L1204,290.55l22,21.83,472.68,472.68q-21.47-310.39-247-536Q1202.67.08,850.39,0T249,249Q.08,498.18,0,850.39t249,601.23q249.16,249.17,601.37,249.17c15.45,0,30.9-.29,46.07-1L625.32,1428.66v-57.12h63.07L427.75,1110.9h-.14l-21.83-22L487,1007.86a25.58,25.58,0,0,0,1.84,2c3,3,5.82,6.1,8.79,9.07a6.15,6.15,0,0,0,1,.85l.15.15c2.83,2.83,5.67,5.52,8.36,8.22a8.23,8.23,0,0,0,1.56,1.56l-.14.14L625,1146.33c9.5,4.11,19.27,7.8,29.05,11.2L531.35,1034.79q-7.44-6.37-14.45-13.18-5.32-4.89-10.21-9.78t-9.35-9.78l1.13-1.14L477.35,979.8Q384.46,868.4,380,720.57h28.78l-28.92-28.92q4.05-150.3,98.65-262.91c25.37,12.9,50.74,24.52,75.82,34.87h.15l.71-.57-56.7-56.69c2.7-2.84,5.53-5.67,8.22-8.51Q618.74,286,771.45,272.55a8.79,8.79,0,0,0,1.84-.14l-1.27.85,21.11,21.12c1.28-.71,2.41-1.42,3.69-2.13l28.91,28.92V290.41a303.4,303.4,0,0,1,64.77,49.32,313.9,313.9,0,0,1,24.24,26.93L996,447.87a453.52,453.52,0,0,0-35-66.61l-109-109q147.12,11.48,256.68,113.81Z"/><path class="cls-2" d="M1108.77,386.22l-.14-.14Q999.15,283.83,852,272.27q64.84,40.19,109,109a453.52,453.52,0,0,1,35,66.61,8.53,8.53,0,0,0,.71,1.7c1.7,4,3.4,7.94,5,12.05,2-.71,4-1.27,6.1-2q26.57-9.15,52.86-20.84c21.69-9.63,43.94-21,67-34v-.14l-6.94-6.81c-4-4-7.94-7.79-11.91-11.62Z"/><path class="cls-3" d="M852,272.27l109,109q-44-68.67-109-109Z"/></g></g></svg>