<svg xmlns="http://www.w3.org/2000/svg" xmlns:xlink="http://www.w3.org/1999/xlink" viewBox="0 0 1700.79 1700.79"><defs><style>.cls-1{fill:none;}.cls-2{fill:#fff;}.cls-3{fill:#d79202;}.cls-4{clip-path:url(#clip-path);}.cls-5{fill:#7fab11;}.cls-6{fill:#fdb62a;}</style><clipPath id="clip-path"><polygon class="cls-1" points="1084.25 733.47 1081.42 731.48 1084.25 733.47 1084.25 733.47"/></clipPath></defs><title>Asset 3</title><g id="Layer_2" data-name="Layer 2"><g id="Layer_1-2" data-name="Layer 1"><path class="cls-2" d="M1118,655.23a123.24,123.24,0,0,1-11.48,40.53,260.77,260.77,0,0,1-22.25,37.7l-.14.15Q1018.43,825.44,878,844.3c-.42,0-.71,0-.85.14a100.81,100.81,0,0,1-5.81,21.26q-17.22,42.74-72.71,46.77a5.36,5.36,0,0,0,.14,1.56c2.27,24,4.54,47.91,7,71.86.28,3.54.56,7.23,1,10.77,0,.71,0,1,.14,1a350.39,350.39,0,0,1,52,26.08q.84,71.65,4.25,138.19,10.2,191.34,215,154.06a1.7,1.7,0,0,0-.43-1.27q-65.9-72.29-31.18-178.16c0-.57-.14-.85-.42-1q-57.62-23.8-45.78-108.57c0-.71.14-1.13.56-1.27q64.85-67.61,188.37-76.54v-1.7q.63-178.15-71.3-292.25ZM1107.07,788.6a5.17,5.17,0,0,1-.28-1.56q57.4-19.56,59.67,81.07.63,32.53-18.29,41.24c-12.47,1.85-20.12-1.27-23-9.21a1.19,1.19,0,0,0-.85-.28q4.26-65.05-17.29-111.26ZM986.46,1005l-.43.43v-.85q52.52-78.45,186-75.26v.71q-123.72,10.85-185.52,75ZM859,952.16a5.39,5.39,0,0,1-.14-1.56q25.73-36.78,53-1.84c.14.28.56.42,1.13.42.42,17.86-5.95,28.77-19.13,32.88a5.22,5.22,0,0,1-1.56.29c-22.11,1-33.17-9.07-33.31-30.19Zm147.4-122.74c-1.42.71-2.83,1.27-4.39,2a2.61,2.61,0,0,0-1.56.57q-43.15,22.32-100.21,31.32v1.56c-8.22,42.09-34.72,63.35-79.37,63.5,40.4-7.23,64.63-30.48,73-69.74a6.36,6.36,0,0,0,.14-1.55q60.38-10.42,108-33.17a7.28,7.28,0,0,1,1.56-.28c0-.43,0-.71.14-.85q78.45-35.5,121.32-98.08a5.07,5.07,0,0,1,.71-1.14,4,4,0,0,1-.14,1.28c-.14,0-.14,0-.14.14q-42.74,69.09-119.06,104.46ZM917.72,1265.1a.85.85,0,0,1-.85-.42q-33.81-90.36-27.5-220.4,5.31,117.15,34.58,209.77a5.1,5.1,0,0,1,.29,1.56,2.84,2.84,0,0,1,1.27.28c27.92,16,60.24,27.64,97.23,34.58v.85q-61-4.24-105-26.22Z"/><path class="cls-3" d="M1106.79,787a5.17,5.17,0,0,0,.28,1.56q21.48,46.13,17.29,111.26a1.19,1.19,0,0,1,.85.28c2.84,7.94,10.49,11.06,23,9.21q18.93-8.72,18.29-41.24-2.34-100.56-59.67-81.07Z"/><path class="cls-3" d="M986,1004.6l.43.42q61.86-64,185.52-75v-.71q-133.5-3.2-186,75.26Z"/><path class="cls-3" d="M858.9,950.6a5.39,5.39,0,0,0,.14,1.56c.14,21.12,11.2,31.18,33.31,30.19a5.22,5.22,0,0,0,1.56-.29c13.18-4.11,19.55-15,19.13-32.88-.57,0-1-.14-1.13-.42q-27.23-34.87-53,1.84Z"/><path class="cls-3" d="M1002.05,831.4c1.56-.71,3-1.27,4.39-2Q1082.76,794.13,1125.5,725c0-.14,0-.14.14-.14l-.57-.14q-42.73,62.72-121.32,98.08c-.14.14-.14.42-.14.85a7.28,7.28,0,0,0-1.56.28q-47.62,22.75-108,33.17a6.36,6.36,0,0,1-.14,1.55c-8.37,39.26-32.6,62.51-73,69.74,44.65-.15,71.15-21.41,79.37-63.5v-1.56q57-8.92,100.21-31.32a2.61,2.61,0,0,1,1.56-.57Z"/><path class="cls-3" d="M916.87,1264.68a.85.85,0,0,0,.85.42q44,21.9,105,26.22v-.85c-37-6.94-69.31-18.56-97.23-34.58a2.84,2.84,0,0,0-1.27-.28,5.1,5.1,0,0,0-.29-1.56q-29.34-92.7-34.58-209.77-6.17,129.9,27.5,220.4Z"/><g class="cls-4"><rect class="cls-5" x="1087.89" y="728.49" width="0.53" height="18.12" transform="translate(-196.34 1017.05) rotate(-46.41)"/></g><path class="cls-2" d="M1081.42,731.48q-55.71-71.22-158.88-87.16Q742.47,616.26,648.85,705.4a144.86,144.86,0,0,0-12.19,12.33Q580.11,780,584.93,884.13a405.4,405.4,0,0,0,5.39,50.31c7.79,47.2,9.92,89.58,6.37,127.42q-10.41,110.34-85.32,168.23a8.3,8.3,0,0,0,.14,1.71c6.66,16,16.3,29,29.06,39l.14.14q28.27,22.11,77,24.38a2.29,2.29,0,0,1,.42-1.27,496.1,496.1,0,0,0,58.4-75,213.82,213.82,0,0,0-.85-71Q642,956.27,792.43,988.72a5.94,5.94,0,0,0-.15-1.55Q787.39,944,782.93,900v-.14h1.56q58,0,77.81-38v-1.7a96.39,96.39,0,0,0,1.56-27.07,7,7,0,0,0,1.7-.14q139.89-18.5,215.86-101.48Z"/><path class="cls-3" d="M1126.91,404.65a1.79,1.79,0,0,1,.57,1.41,65.2,65.2,0,0,1,.28,30.05,5.36,5.36,0,0,0-.28,1.7q-26.36,123.52-169.09,113.67a10.75,10.75,0,0,0-2.12-.14q-132.87-8.72-224.79,28.49a.51.51,0,0,0-.42.14,300.48,300.48,0,0,0-71.15,40.39q-81.85,62.92-95.53,185a.53.53,0,0,0-.14.43,487.13,487.13,0,0,0-2,78.38V885c.14,2.69.29,5.38.43,8.08q3,47.61,7.37,100.48-27.43,5.54-46.35-4.67l73,73c3.55-37.84,1.42-80.22-6.37-127.42a405.4,405.4,0,0,1-5.39-50.31Q580,780,636.66,717.73a144.86,144.86,0,0,1,12.19-12.33q93.54-89.07,273.69-61.09,103.11,15.95,158.88,87.17l2.83,2a260.77,260.77,0,0,0,22.25-37.7A123.24,123.24,0,0,0,1118,655.23q71.87,114.16,71.3,292.25v1.7q-123.52,8.93-188.37,76.54c-.42.14-.56.56-.56,1.27q-11.7,84.83,45.78,108.57c.28.14.42.42.42,1q-34.65,105.87,31.18,178.16a1.7,1.7,0,0,1,.43,1.27q-204.74,37.21-215-154.06-3.4-66.54-4.25-138.19a350.39,350.39,0,0,0-52-26.08c-.14,0-.14-.28-.14-1-.42-3.54-.71-7.23-1-10.77-2.41-23.95-4.68-47.91-7-71.86a5.36,5.36,0,0,1-.14-1.56q55.49-4,72.71-46.77a100.81,100.81,0,0,0,5.81-21.26c.14-.14.43-.14.85-.14q140.54-18.91,206.08-110.69l-2.69-2.13Q1005.52,814.4,865.56,833a7,7,0,0,1-1.7.14,96.39,96.39,0,0,1-1.56,27.07v1.7q-19.77,38.05-77.81,38l-1.56.14q4.47,44,9.35,87.17a5.94,5.94,0,0,1,.15,1.55Q642.12,956.2,675.64,1148a213.82,213.82,0,0,1,.85,71,496.1,496.1,0,0,1-58.4,75,2.29,2.29,0,0,0-.42,1.27q-48.69-2.34-77-24.38L963.78,1694c12.61-1.55,25.23-3.26,37.56-5.38q256.39-43.15,450.42-236.84,128.63-128.61,190.92-285.16a809.12,809.12,0,0,0,50.6-196.3L1124.79,401.81c.71,1,1.41,1.84,2.12,2.84ZM958.39,552.9c11.63.42,23.53,1.27,35.58,2.41q-19.14,37.2-39.26,73.27a2.33,2.33,0,0,0-.43,1.28q-14.67-3-28.91-5.1-166-25.51-266,64.34c-4.68,4.25-9.36,8.51-13.75,12.9h-.14c-4.25,4.11-8.36,8.22-12.19,12.33a.3.3,0,0,0-.28.28q-44,45.5-62.93,91.56,35.72-153.92,165.4-215.57,91.2-43.36,220.82-37.84a10.75,10.75,0,0,1,2.12.14Z"/><path class="cls-2" d="M994,555.31c-12.05-1.14-24-2-35.58-2.41a10.75,10.75,0,0,0-2.12-.14q-129.48-5.53-220.82,37.84-129.69,61.65-165.4,215.57Q589,760,633,714.61a.3.3,0,0,1,.28-.28c3.83-4.11,7.94-8.22,12.19-12.33h.14c4.39-4.39,9.07-8.65,13.75-12.9q100.13-89.93,266-64.34,14.25,2.12,28.91,5.1a2.33,2.33,0,0,1,.43-1.28Q974.9,592.44,994,555.31Z"/><path class="cls-2" d="M1127.48,406.06a1.79,1.79,0,0,0-.57-1.41c-.71-1-1.41-1.85-2.12-2.84a78.88,78.88,0,0,0-13.33-13.32q-83.76-14.46-178-7.66Q753.81,393.6,647.29,476.36,540.36,559.7,520.87,729.92v1.56q15.95,148.6,1.41,255.69v.28a2.5,2.5,0,0,0,.43.85,7.07,7.07,0,0,0,1,.57q18.93,10.2,46.35,4.67-4.47-52.93-7.37-100.48c-.14-2.7-.29-5.39-.43-8.08v-.85a487.13,487.13,0,0,1,2-78.38.53.53,0,0,1,.14-.43q13.61-122,95.53-185A300.48,300.48,0,0,1,731.06,580a.51.51,0,0,1,.42-.14q91.85-37.22,224.79-28.49a10.75,10.75,0,0,1,2.12.14q142.67,10,169.09-113.67a5.36,5.36,0,0,1,.28-1.7,65.2,65.2,0,0,0-.28-30.05Z"/><path class="cls-6" d="M1111.46,388.49a78.88,78.88,0,0,1,13.33,13.32L1693.28,970.3a949.12,949.12,0,0,0,7.51-119.91q0-352.27-249-601.37Q1202.6.08,850.39,0T249,249Q.08,498.18,0,850.39t249,601.37q249.16,249,601.37,249A927.21,927.21,0,0,0,963.78,1694L540.71,1270.91l-.14-.14c-12.76-9.92-22.4-23-29.06-39a8.3,8.3,0,0,1-.14-1.71q75-57.83,85.32-168.23l-73-73a7.07,7.07,0,0,1-1-.57,2.5,2.5,0,0,1-.43-.85v-.28q14.67-106.95-1.41-255.69v-1.56Q540.2,559.63,647.29,476.36q106.51-82.69,286.16-95.53,94.18-6.79,178,7.66Z"/></g></g></svg>