<svg xmlns="http://www.w3.org/2000/svg" viewBox="0 0 76.02 76.02"><defs><style>.cls-1{fill:#1ea5fc;}.cls-2{fill:#fff;}.cls-3{fill:#1491b8;}</style></defs><title>Asset 1</title><g id="Layer_2" data-name="Layer 2"><g id="Layer_1-2" data-name="Layer 1"><path class="cls-1" d="M76,38A38,38,0,1,1,38,0,38,38,0,0,1,76,38Z"/><path class="cls-2" d="M32.1,60.25c-1.32,0-2.38-.64-2.38-1.41s1.06-1.41,2.38-1.41,2.39.63,2.39,1.41S33.42,60.25,32.1,60.25Z"/><path class="cls-2" d="M29.61,42.19V40.58h5v1.61Z"/><path class="cls-2" d="M33.34,17.2s-.76-3.38-1.4-3.38c-.82,0-1.3,3.44-1.3,3.44Z"/><path class="cls-1" d="M33,16.93s-.58-2.55-1.06-2.55S31,17,31,17Z"/><path class="cls-2" d="M33.29,16.65s-1.12.19-1.4.19h0c-.27,0-1.29-.18-1.29-.18s-.63,4.26-.73,6.2a5.1,5.1,0,0,0,2.37.45,6.81,6.81,0,0,0,2.1-.41C34.22,21.12,33.29,16.65,33.29,16.65Z"/><path class="cls-2" d="M32.2,23H29.61V57.48h5V23Z"/><path class="cls-1" d="M29.61,24V23h5v1Z"/><path class="cls-1" d="M29.61,58.77V57.15h5v1.62Z"/><path class="cls-1" d="M32.29,57.66c-.63,0-1.14.38-1.14-.06V42.83c0-.44.51-.79,1.14-.79h0c.63,0,1.14.35,1.14.79V57.6c0,.44-.51.06-1.14.06Z"/><path class="cls-2" d="M40.37,60.25,64.31,35.44l-23.87-21Zm7.12-17.86-.16-12.3L53.91,36Z"/><rect class="cls-1" x="41.15" y="54.35" width="2.74" height="0.65" transform="matrix(1, 0, 0, 1, -0.06, 0.05)"/><rect class="cls-1" x="41.14" y="52.71" width="2.74" height="0.65" transform="translate(-0.11 0.09) rotate(-0.12)"/><polygon class="cls-1" points="41.14 50.94 45.27 50.93 45.27 51.84 41.14 51.85 41.14 50.94"/><polygon class="cls-1" points="41.07 49.3 43.81 49.29 43.81 49.94 41.07 49.95 41.07 49.3"/><polygon class="cls-1" points="41.07 47.65 43.81 47.65 43.81 48.29 41.07 48.3 41.07 47.65"/><rect class="cls-1" x="41.07" y="45.87" width="4.13" height="0.91" transform="translate(-0.09 0.08) rotate(-0.11)"/><polygon class="cls-1" points="41 44.24 43.74 44.23 43.75 44.88 41.01 44.88 41 44.24"/><polygon class="cls-1" points="41 42.59 43.74 42.59 43.74 43.23 41 43.24 41 42.59"/><rect class="cls-1" x="41" y="40.81" width="4.13" height="0.91" transform="matrix(1, 0, 0, 1, -0.1, 0.1)"/><rect class="cls-1" x="40.93" y="39.18" width="2.74" height="0.65" transform="translate(-0.07 0.08) rotate(-0.1)"/><polygon class="cls-1" points="40.93 37.53 43.67 37.52 43.67 38.18 40.93 38.18 40.93 37.53"/><polygon class="cls-1" points="40.92 35.76 45.05 35.74 45.06 36.66 40.93 36.67 40.92 35.76"/><rect class="cls-1" x="41.02" y="34.11" width="2.74" height="0.65" transform="translate(-0.12 0.15) rotate(-0.21)"/><polygon class="cls-1" points="41.01 32.47 43.75 32.47 43.75 33.12 41.01 33.12 41.01 32.47"/><rect class="cls-1" x="41.01" y="30.69" width="4.13" height="0.92" transform="matrix(1, 0, 0, 1, -0.07, 0.09)"/><polygon class="cls-1" points="40.94 29.05 43.68 29.05 43.68 29.7 40.94 29.7 40.94 29.05"/><polygon class="cls-1" points="40.93 27.42 43.68 27.41 43.68 28.06 40.94 28.06 40.93 27.42"/><rect class="cls-1" x="40.93" y="25.63" width="4.13" height="0.91" transform="translate(-0.08 0.13) rotate(-0.18)"/><rect class="cls-1" x="40.87" y="23.99" width="2.74" height="0.65" transform="translate(-0.09 0.15) rotate(-0.21)"/><polygon class="cls-1" points="40.87 22.35 43.6 22.34 43.61 22.99 40.87 23 40.87 22.35"/><rect class="cls-1" x="40.86" y="20.57" width="4.13" height="0.92" transform="translate(-0.04 0.08) rotate(-0.11)"/><rect class="cls-1" x="40.8" y="18.93" width="2.74" height="0.65" transform="translate(-0.03 0.06) rotate(-0.08)"/><polygon class="cls-3" points="21.86 14.37 22.78 16.53 20.95 16.53 21.86 14.37"/><path class="cls-2" d="M20.93,16.59l.93-2.22,1,2.23A3.36,3.36,0,0,0,20.93,16.59Z"/><path class="cls-2" d="M24.49,22.11l-.14-.21-1.54-5.31c-.09,0-.19,0-.28.12H22.2v-.05a3.48,3.48,0,0,0-.57,0h-.12v-.07c-.21,0-.41-.29-.59-.22L19.32,22.1H20.6l-.06.33h2.55L23,22.11Z"/><path class="cls-1" d="M24,22.11l-.12-.21-1.23-5.31c-.07,0-.15,0-.22.12h-.27v-.05a2.15,2.15,0,0,0-.45,0h-.1v-.07c-.17,0-.33-.29-.47-.22l-1.3,5.68h1l-.05.33h2l0-.32Z"/><rect class="cls-3" x="19.3" y="22.52" width="5.17" height="36.05"/><path class="cls-2" d="M24.51,22.28s-.3-.64-.48-.64c-.49,0-1,.64-1,.64H23l-.06,36h1.56Z"/><path class="cls-2" d="M19.27,22.28s.3-.64.48-.64c.49,0,1,.64,1,.64h.07l.07,36H19.34Z"/><path class="cls-2" d="M21.78,21.6a1.48,1.48,0,0,0-1.18.68l-.06,36h2.35l.06-36A1.4,1.4,0,0,0,21.78,21.6Z"/><path class="cls-2" d="M19.32,60.25V59.09h5.15v1.16Z"/><path class="cls-2" d="M19.06,59.61V58.45h5.66v1.16Z"/><rect class="cls-1" x="20.42" y="21.28" width="0.67" height="37.3"/><rect class="cls-1" x="22.76" y="21.28" width="0.67" height="37.3"/></g></g></svg>