<svg xmlns="http://www.w3.org/2000/svg" viewBox="0 0 36.69 36.69"><defs><style>.cls-1{fill:#1ea5fc;}.cls-2{fill:#fff;}</style></defs><title>Asset 3</title><g id="Layer_2" data-name="Layer 2"><g id="Layer_1-2" data-name="Layer 1"><path class="cls-1" d="M36.69,18.32A18.35,18.35,0,1,1,18.31,0,18.33,18.33,0,0,1,36.69,18.32Z"/><path class="cls-2" d="M28.14,17c1.62-2.17,2.09-4.06,1.32-5.34-.57-1-1.8-1.47-3.54-1.47a13.43,13.43,0,0,0-3.2.45c-1-3.21-2.56-5.26-4.37-5.26s-3.25,1.87-4.24,4.82a11.56,11.56,0,0,0-3.31-.57,3.54,3.54,0,0,0-3,1.22c-.86,1.22-.54,3.14.92,5.42A18.19,18.19,0,0,0,10,18a16.87,16.87,0,0,0-1.45,1.68c-1.62,2.16-2.09,4.05-1.32,5.33.58,1,1.8,1.47,3.55,1.47h0A13.29,13.29,0,0,0,14,26.07c1,3.21,2.56,5.26,4.38,5.26s3.25-1.86,4.23-4.81a11.94,11.94,0,0,0,3.31.56,3.53,3.53,0,0,0,3-1.22c1.14-1.6.18-4.34-2.23-7.21A17.84,17.84,0,0,0,28.14,17Zm-2.22-6.3c1.08,0,2.5.21,3.11,1.22s.18,2.81-1.29,4.77a16.43,16.43,0,0,1-1.37,1.6,25.66,25.66,0,0,0-2.73-2.66,25,25,0,0,0-.78-4.51A13.17,13.17,0,0,1,25.92,10.68Zm-5,11.87A30.49,30.49,0,0,1,18.14,24a30.48,30.48,0,0,1-2.64-1.67c-.68-.49-1.34-1-2-1.52-.07-.8-.1-1.63-.1-2.48s0-1.84.12-2.71q1.06-.78,2.25-1.5a29.34,29.34,0,0,1,2.75-1.47c.88.5,1.76,1.06,2.63,1.67.69.49,1.35,1,2,1.52.07.81.11,1.64.11,2.49s-.05,1.83-.13,2.71C22.42,21.57,21.67,22.08,20.88,22.55Zm2.19-.83a24.64,24.64,0,0,1-.84,4.16,22.9,22.9,0,0,1-3.55-1.56c.82-.4,1.64-.85,2.46-1.34C21.81,22.58,22.45,22.16,23.07,21.72Zm-5.49,2.56a24.18,24.18,0,0,1-3.24,1.18,24,24,0,0,1-.73-3.92c.51.42,1.05.83,1.6,1.22C16,23.31,16.78,23.82,17.58,24.28ZM13,20.37a25.32,25.32,0,0,1-2.32-2.31A25,25,0,0,1,13,16q-.09,1.13-.09,2.31C12.93,19,13,19.71,13,20.37Zm.63-5.4a22.81,22.81,0,0,1,.84-4.16A22.87,22.87,0,0,1,18,12.38c-.83.39-1.65.84-2.47,1.33C14.88,14.11,14.24,14.54,13.63,15Zm5.49-2.55a23.32,23.32,0,0,1,3.23-1.19,24,24,0,0,1,.73,3.92c-.51-.41-1-.82-1.6-1.22C20.7,13.38,19.91,12.87,19.12,12.42Zm4.58,3.91A25,25,0,0,1,26,18.64a24.46,24.46,0,0,1-2.32,2c.05-.75.08-1.51.08-2.3S23.74,17,23.7,16.33ZM18.35,5.87c1.54,0,2.95,1.93,3.86,4.89a24.23,24.23,0,0,0-3.63,1.35,24.09,24.09,0,0,0-4-1.77C15.52,7.62,16.87,5.87,18.35,5.87ZM8.17,11.12a3.08,3.08,0,0,1,2.63-1,11.19,11.19,0,0,1,3.16.54,24.77,24.77,0,0,0-.89,4.72,26.22,26.22,0,0,0-2.71,2.31A15,15,0,0,1,9.11,16C7.78,13.91,7.44,12.14,8.17,11.12ZM10.78,26h0c-1.09,0-2.51-.22-3.12-1.23S7.48,22,9,20a16.57,16.57,0,0,1,1.38-1.6,26.47,26.47,0,0,0,2.72,2.66,25,25,0,0,0,.78,4.51A12.62,12.62,0,0,1,10.78,26Zm7.57,4.81c-1.55,0-3-1.94-3.87-4.89a25.48,25.48,0,0,0,3.63-1.36,24.74,24.74,0,0,0,4,1.78C21.17,29.07,19.82,30.83,18.35,30.83Zm10.17-5.26a3.08,3.08,0,0,1-2.63,1A11.19,11.19,0,0,1,22.73,26a23.87,23.87,0,0,0,.89-4.72A27.25,27.25,0,0,0,26.32,19C28.53,21.69,29.49,24.21,28.52,25.57Z"/><path class="cls-2" d="M18.78,19.54a1.61,1.61,0,1,1-1.61-1.61A1.61,1.61,0,0,1,18.78,19.54Z"/><path class="cls-2" d="M18,15.13a1.61,1.61,0,0,0-1.61,1.6,1.58,1.58,0,0,0,.4,1.06,1.55,1.55,0,0,1,1.06.17,1.54,1.54,0,0,1,.29-.51,2.08,2.08,0,0,1,1.47-.7v0A1.61,1.61,0,0,0,18,15.13Z"/><path class="cls-2" d="M19.6,16.91A1.6,1.6,0,0,0,18.09,18a1.56,1.56,0,0,1,.84,1.39,1.31,1.31,0,0,1,0,.59,1.67,1.67,0,0,0,.66.15,1.61,1.61,0,0,0,0-3.22Z"/></g></g></svg>