<svg width="743" height="558" viewBox="0 0 743 558" fill="none" xmlns="http://www.w3.org/2000/svg">
<path d="M316.146 483.32C407.551 483.32 481.649 477.249 481.649 469.76C481.649 462.271 407.551 456.2 316.146 456.2C224.741 456.2 150.643 462.271 150.643 469.76C150.643 477.249 224.741 483.32 316.146 483.32Z" fill="#E6E7E8"/>
<path d="M592.171 343.081H474.591V438.928H592.171V343.081Z" fill="white"/>
<path d="M592.171 439.856H474.591C474.034 439.856 473.662 439.484 473.662 438.927V343.08C473.662 342.523 474.034 342.151 474.591 342.151H592.171C592.728 342.151 593.099 342.523 593.099 343.08V438.927C593.099 439.299 592.728 439.856 592.171 439.856ZM475.52 437.998H591.242V344.009H475.52V437.998Z" fill="#D1D3D4"/>
<path d="M592.171 356.269H474.591C474.034 356.269 473.662 355.897 473.662 355.34C473.662 354.783 474.034 354.411 474.591 354.411H592.171C592.728 354.411 593.099 354.783 593.099 355.34C593.099 355.897 592.728 356.269 592.171 356.269Z" fill="#D1D3D4"/>
<path d="M268.037 164.016C260.793 164.574 254.663 159.001 254.106 151.943C253.92 148.599 255.035 145.256 257.078 142.841C250.019 139.497 246.304 131.139 246.676 123.337C247.047 115.536 251.32 108.477 256.335 102.533C260.607 97.7037 265.808 93.2457 272.124 91.9455C273.238 91.7597 274.538 91.574 275.653 91.0167C276.582 90.4595 277.325 89.7165 277.882 88.7877C282.526 82.8437 288.284 77.457 295.342 75.0422C302.401 72.6275 311.131 74.1135 315.961 79.8717C322.462 74.2992 332.307 74.8565 337.879 81.3577C340.851 84.7012 342.151 89.1592 341.594 93.6172C351.81 95.1032 360.355 102.347 363.327 112.378C365.927 122.223 361.469 133.553 352.368 138.197C351.253 138.754 350.139 139.497 350.139 140.612C350.324 141.355 350.51 141.912 351.067 142.469C354.039 146.556 352.553 152.686 349.21 156.401C345.866 160.116 341.037 162.159 336.207 164.016C338.436 166.245 338.994 169.403 337.693 172.189C336.393 174.976 334.164 177.205 331.564 178.691C321.162 185.378 308.531 183.334 296.828 183.52C286.055 183.706 275.467 176.833 268.409 169.217C267.48 167.731 266.365 164.945 268.037 164.016Z" fill="white"/>
<path d="M310.017 184.45C308.16 184.45 306.302 184.45 304.631 184.45C302.216 184.45 299.615 184.264 297.386 184.45C287.727 184.636 276.954 179.249 268.223 169.776C266.923 168.475 266.366 166.804 266.366 165.132V164.946C258.75 164.575 252.806 158.073 253.178 150.458C253.364 147.671 254.292 145.071 255.778 142.842C249.463 139.313 245.376 131.325 245.933 122.967C246.305 115.908 249.834 108.664 255.964 101.605C261.351 95.4757 266.738 91.9465 272.31 90.832L272.867 90.6462C274.725 90.6462 276.397 89.5317 277.325 88.0457C283.084 80.6157 289.028 75.972 295.343 73.9287C303.145 71.3282 311.503 73.1857 316.333 78.201C323.577 72.6285 333.979 73.9287 339.552 81.173C341.966 84.3307 343.267 88.4172 342.895 92.5037C353.111 94.3612 361.47 101.791 364.628 111.636C367.414 122.038 362.399 133.926 353.297 138.57C352.368 138.941 351.625 139.498 351.625 140.056C351.625 140.427 351.811 140.799 352.183 141.17L352.368 141.356C355.712 146 353.854 152.687 350.325 156.402C346.982 159.745 342.895 162.346 338.251 163.832C339.923 166.246 340.109 169.404 338.994 172.19C337.508 174.977 335.279 177.391 332.493 179.063C325.62 183.893 317.819 184.45 310.017 184.45ZM299.244 182.592C300.916 182.592 302.773 182.592 304.631 182.592C313.918 182.778 323.391 182.964 331.378 177.763C333.793 176.463 335.837 174.234 337.137 171.633C338.251 169.218 337.88 166.246 336.022 164.389C335.836 164.203 335.651 163.832 335.651 163.46C335.651 163.089 335.837 162.903 336.208 162.717C340.48 161.045 345.496 159.002 348.839 155.287C351.811 151.944 353.483 146.371 350.697 142.656L350.511 142.47C349.953 141.913 349.768 141.17 349.582 140.427C349.582 138.57 351.254 137.641 352.368 137.084C360.727 132.811 365.371 121.852 362.77 112.193C359.798 102.72 351.625 95.6615 341.781 94.3612C341.223 94.3612 340.852 93.804 341.038 93.2467C341.966 85.2595 336.394 77.8295 328.221 76.9007C324.134 76.3435 320.048 77.6437 316.89 80.2442C316.704 80.43 316.519 80.43 316.147 80.43C315.961 80.43 315.59 80.2442 315.59 80.0585C311.503 75.0432 303.33 73.1857 295.9 75.6005C289.956 77.6437 284.384 81.916 278.811 88.9745C278.068 89.9032 277.325 90.832 276.397 91.3892C275.468 91.9465 274.353 92.318 273.239 92.318L272.682 92.5037C267.481 93.4325 262.465 96.7759 257.264 102.72C251.32 109.593 248.162 116.28 247.791 122.967C247.234 130.954 251.32 138.57 257.636 141.542C257.822 141.727 258.007 141.913 258.193 142.099C258.193 142.47 258.193 142.656 258.007 142.842C253.735 147.857 254.292 155.473 259.493 159.745C261.908 161.788 265.066 162.717 268.223 162.531C268.595 162.531 269.152 162.717 269.152 163.089C269.338 163.46 269.152 164.017 268.781 164.203C268.595 164.389 268.409 164.575 268.409 164.76C268.409 165.875 268.967 166.989 269.71 167.918C277.883 176.834 288.285 182.035 297.386 181.849L299.244 182.592Z" fill="#231F20"/>
<path d="M400.849 435.956C405.121 435.956 436.885 439.485 451.745 446.729C466.605 453.973 469.762 454.716 466.79 464.561C463.818 474.406 437.628 477.006 417.752 473.291C404.936 470.691 392.49 466.233 380.974 459.917L400.849 435.956Z" fill="white"/>
<path d="M436.326 476.076C430.011 476.076 423.695 475.519 417.38 474.218C404.563 471.618 392.118 466.974 380.416 460.844C380.23 460.659 380.044 460.473 380.044 460.287C380.044 460.101 380.044 459.73 380.23 459.544L400.105 435.582C400.291 435.396 400.477 435.211 400.662 435.211H400.848C406.049 435.211 437.069 438.74 451.929 446.17L455.273 447.842C467.161 453.6 470.319 455.272 467.347 465.116C465.489 471.246 453.415 476.076 436.326 476.076ZM382.273 459.73C393.418 465.674 405.492 469.946 417.751 472.546C437.812 476.261 463.074 473.661 465.861 464.559C468.461 456.015 466.604 455.086 454.53 449.328L451.186 447.656C437.069 440.597 406.792 437.068 401.22 436.882L382.273 459.73Z" fill="#231F20"/>
<path d="M405.121 435.956C410.879 437.442 414.594 443.014 413.666 448.958C412.18 459.546 389.89 459.917 388.589 460.103C387.289 460.289 405.121 435.956 405.121 435.956Z" fill="white"/>
<path d="M388.589 460.66C388.217 460.66 388.031 460.474 387.846 460.102C387.66 459.545 387.103 458.616 404.377 435.212C404.563 434.84 404.935 434.84 405.306 434.84C405.492 434.84 416.08 437.441 414.594 448.772C413.108 459.731 392.675 460.66 388.589 460.66ZM405.306 436.884C399.919 444.314 391.746 455.459 389.703 458.988C394.718 458.802 411.622 457.316 412.736 448.772C413.665 443.385 410.507 438.37 405.306 436.884Z" fill="#231F20"/>
<path d="M239.431 460.103C238.688 460.475 232.744 468.276 206.182 471.434C179.62 474.592 169.961 480.35 164.017 466.419C158.073 452.488 162.159 443.572 175.162 439.485C188.164 435.399 224.2 432.241 231.258 438.928C238.317 445.615 239.431 460.103 239.431 460.103Z" fill="white"/>
<path d="M177.02 476.262C170.519 476.262 166.246 474.033 163.089 466.789C159.931 459.545 159.559 453.415 161.788 448.585C163.832 444.127 168.29 440.784 174.791 438.926C187.05 435.211 224.2 431.311 231.63 438.555C238.875 445.428 239.989 459.73 239.989 460.288C239.989 460.659 239.803 460.845 239.618 461.031L239.432 461.216C231.816 468.089 217.142 471.247 206.183 472.547C200.424 473.29 195.595 474.033 191.323 474.776C186.679 475.519 181.849 476.076 177.02 476.262ZM211.384 435.954C198.753 435.954 183.15 437.998 175.534 440.412C169.404 442.27 165.318 445.242 163.46 449.328C161.417 453.6 161.788 459.359 164.76 466.232C169.033 476.634 175.534 475.519 191.137 472.919C195.409 472.176 200.424 471.432 206.183 470.689C216.956 469.389 231.259 466.417 238.503 459.73C238.317 457.316 236.646 445.242 230.702 439.484C227.915 437.069 220.3 435.954 211.384 435.954Z" fill="#231F20"/>
<path d="M247.79 454.344C247.79 454.344 235.717 464.375 227.729 463.26C219.742 462.146 208.597 457.688 213.055 449.143C217.513 440.599 246.119 435.398 246.119 435.398L247.79 454.344Z" fill="white"/>
<path d="M229.216 464.187C228.659 464.187 228.287 464.187 227.73 464.001C221.786 463.072 214.542 460.472 212.127 456.014C211.013 453.599 211.013 450.813 212.499 448.584C217.142 439.668 245.005 434.467 246.305 434.281C246.491 434.281 246.862 434.281 247.048 434.467C247.234 434.653 247.42 434.838 247.42 435.024L248.906 454.156C248.906 454.342 248.906 454.714 248.534 454.899C247.977 455.457 237.389 464.187 229.216 464.187ZM245.562 436.324C240.733 437.253 217.7 442.083 213.985 449.513C212.87 451.37 212.684 453.599 213.613 455.457C215.656 459.357 222.343 461.772 227.916 462.515C234.789 463.63 245.005 455.642 246.862 454.156L245.562 436.324Z" fill="#231F20"/>
<path d="M392.303 370.201C392.303 370.201 379.672 419.61 333.42 429.083C287.169 438.557 263.207 435.956 246.861 404.75C230.515 373.544 241.288 354.412 241.288 354.412L387.288 351.44L392.303 370.201Z" fill="#231F20"/>
<path d="M295.156 434.84C272.866 434.84 257.449 427.038 245.933 405.305C229.587 373.914 239.989 354.967 240.36 354.038C240.546 353.667 240.917 353.667 241.103 353.667L387.103 350.695C387.474 350.695 387.846 350.881 388.031 351.438L393.047 370.013C393.047 370.199 393.047 370.384 393.047 370.57C392.861 371.127 379.673 420.723 333.421 430.196C318.747 432.982 306.116 434.84 295.156 434.84ZM241.846 355.339C240.36 358.311 233.116 376.514 247.604 404.377C264.136 435.954 288.469 437.254 333.049 428.153C376.515 419.237 390.075 373.914 391.189 370.199L386.36 352.552L241.846 355.339Z" fill="#231F20"/>
<path d="M230.33 370.57C230.33 370.57 206.369 293.299 209.526 244.818C212.684 196.337 230.702 194.665 255.221 191.879C266.18 190.579 324.134 182.034 345.867 207.668C367.6 233.301 405.864 353.11 405.864 353.11L230.33 370.57Z" fill="#1EA5FC"/>
<path d="M316.519 192.25L312.804 218.07C312.804 218.07 304.631 231.444 288.47 224.757C272.31 218.07 271.939 205.624 271.939 205.624L279.74 157.887C279.74 157.887 296.829 142.469 304.073 112.935C304.073 112.935 318.562 138.011 339.366 143.77C339.366 143.77 337.88 164.574 334.165 177.576C330.45 189.836 316.89 192.065 316.519 192.25Z" fill="white"/>
<path d="M297.2 227.359C294.042 227.359 290.884 226.616 288.098 225.316C271.38 218.443 271.009 205.812 271.009 205.255L278.81 157.331C278.81 157.146 278.996 156.96 279.182 156.774C279.368 156.588 296.271 141.171 303.329 112.38C303.515 112.008 303.701 111.823 304.072 111.637C304.444 111.637 304.815 111.823 305.001 112.008C305.187 112.194 319.49 136.899 339.736 142.286C340.108 142.471 340.479 142.843 340.479 143.214C340.479 143.4 338.993 164.39 335.278 177.207C332.306 187.794 322.276 191.509 317.818 192.624L314.103 217.886C314.103 218.072 314.103 218.072 313.917 218.257C310.016 224.016 303.887 227.359 297.2 227.359ZM280.482 158.074L272.866 205.626C272.866 205.998 273.424 217.329 288.841 223.83C303.329 229.774 311.131 219.186 312.06 217.7L315.775 192.067C315.775 191.695 315.96 191.509 316.146 191.324C316.332 191.138 316.518 191.138 316.703 191.138C320.604 190.209 330.263 186.866 333.235 177.021C336.579 165.69 338.065 148.044 338.25 144.143C320.79 138.942 308.159 121.11 304.258 114.98C297.385 141.357 282.525 156.031 280.482 158.074Z" fill="#231F20"/>
<path d="M289.584 158.257C289.398 155.842 288.47 153.613 286.798 151.756C285.312 150.084 283.454 148.784 281.411 147.855C280.297 147.112 279.182 146.741 277.882 146.555C276.953 146.555 276.21 146.741 275.281 147.112C273.238 147.669 271.566 148.97 270.452 150.827C269.709 152.313 269.337 153.985 269.523 155.657C269.523 157.514 269.523 159.186 270.08 161.043C271.938 168.288 279.182 172.746 286.426 170.888C286.612 170.888 286.612 170.888 286.798 170.888" fill="white"/>
<path d="M283.269 172.191C276.582 172.191 270.824 167.733 269.152 161.232C268.781 159.374 268.595 157.517 268.595 155.659C268.595 153.802 268.966 152.13 269.709 150.458C270.824 148.601 272.681 147.115 274.91 146.372C275.839 146 276.768 145.814 277.882 145.814C279.183 146 280.669 146.372 281.783 147.115C283.826 148.229 285.87 149.529 287.541 151.201C289.213 153.244 290.328 155.659 290.513 158.26C290.513 158.817 290.142 159.188 289.585 159.188C289.027 159.188 288.656 158.817 288.656 158.26C288.47 156.031 287.541 153.987 286.055 152.316C284.569 150.83 282.712 149.529 280.854 148.601C279.926 148.043 278.811 147.672 277.882 147.486C277.139 147.486 276.396 147.672 275.653 147.858C273.982 148.415 272.31 149.529 271.381 151.015C270.824 152.316 270.452 153.802 270.452 155.473C270.452 157.145 270.452 158.817 270.824 160.674C272.496 167.361 279.368 171.634 286.241 169.776H286.427C286.984 169.59 287.356 169.962 287.541 170.333C287.727 170.891 287.356 171.262 286.798 171.448C285.684 172.005 284.384 172.191 283.269 172.191Z" fill="#231F20"/>
<path d="M312.989 151.015C312.989 151.015 320.233 165.504 317.818 167.547C315.403 169.59 309.645 167.361 309.645 167.361" fill="white"/>
<path d="M314.846 169.219C312.989 169.219 311.131 168.847 309.274 168.104C308.716 167.918 308.531 167.361 308.716 166.99C308.902 166.432 309.459 166.247 309.831 166.432C311.131 166.99 315.403 168.104 317.075 166.804C318.004 166.061 315.589 158.631 311.874 151.387C311.688 151.015 311.874 150.458 312.246 150.086C312.617 149.901 313.174 150.086 313.546 150.458C315.775 154.916 320.79 165.689 318.19 168.104C317.447 168.847 316.146 169.219 314.846 169.219Z" fill="#231F20"/>
<path d="M303.828 147.72C303.969 145.982 303.09 144.492 301.863 144.392C300.636 144.292 299.526 145.62 299.384 147.358C299.243 149.096 300.123 150.586 301.35 150.686C302.577 150.786 303.686 149.458 303.828 147.72Z" fill="#231F20"/>
<path d="M326.982 150.906C327.111 149.167 326.221 147.683 324.994 147.592C323.766 147.5 322.666 148.836 322.536 150.575C322.407 152.314 323.297 153.798 324.525 153.889C325.752 153.981 326.852 152.645 326.982 150.906Z" fill="#231F20"/>
<path d="M311.132 180.735C308.345 180.735 305.559 180.178 302.959 178.877C298.501 176.648 295.714 172.19 294.414 165.689C294.414 165.132 294.6 164.76 295.157 164.575C295.714 164.575 296.086 164.76 296.272 165.318C297.386 171.076 299.801 175.162 303.702 177.206C311.503 181.292 322.462 176.277 322.648 176.277C323.205 176.091 323.577 176.277 323.948 176.648C324.134 177.02 323.948 177.577 323.577 177.949C319.49 179.62 315.218 180.549 311.132 180.735Z" fill="#231F20"/>
<path d="M316.518 192.252C316.518 192.252 299.801 193.553 291.256 186.866C291.256 186.866 298.5 210.084 313.918 210.084L316.518 192.252Z" fill="#231F20"/>
<path d="M313.917 210.826C298.128 210.826 290.698 187.979 290.327 187.05C290.141 186.679 290.327 186.307 290.698 185.936C291.07 185.75 291.441 185.75 291.813 185.936C300.172 192.437 316.332 191.137 316.518 191.137C317.075 191.137 317.446 191.508 317.446 192.065V192.251L314.846 210.083C314.846 210.455 314.474 210.826 313.917 210.826ZM293.113 189.093C295.528 194.852 302.215 208.411 313.174 208.969L315.403 193.18C311.874 193.366 300.915 193.366 293.113 189.093Z" fill="black"/>
<path d="M236.831 196.338C202.468 192.066 170.333 337.694 189.094 351.625C218.256 373.172 307.416 343.823 307.416 343.823L298.5 305.373C298.5 305.373 234.231 308.345 232.931 295.157C231.63 281.969 268.966 220.114 263.765 211.012C258.564 201.91 236.831 196.338 236.831 196.338Z" fill="#1EA5FC"/>
<path d="M356.641 306.301C356.269 306.301 355.898 305.93 355.898 305.558C351.44 274.538 341.781 222.528 338.623 219.37C338.251 218.999 338.251 218.441 338.623 218.07C338.994 217.698 339.366 217.698 339.737 218.07C343.824 221.971 354.226 281.596 357.569 305.187C357.569 305.744 357.198 306.301 356.641 306.301Z" fill="#231F20"/>
<path d="M323.763 379.861L264.508 363.143L373.358 342.711L432.241 367.415L323.763 379.861Z" fill="white"/>
<path d="M323.763 380.787H323.578L264.323 364.069C263.766 364.069 263.395 363.698 263.395 363.141C263.395 362.583 263.766 362.212 264.323 362.212L373.173 341.779C373.359 341.779 373.544 341.779 373.73 341.779L432.613 366.484C432.984 366.67 433.17 367.041 433.17 367.413C433.17 367.784 432.799 368.156 432.427 368.156L323.763 380.787ZM268.596 363.512L323.763 378.929L428.526 367.041L373.173 343.823L268.596 363.512Z" fill="#231F20"/>
<path d="M288.841 318.561C301.844 320.047 313.918 320.975 325.991 325.991C332.864 328.963 339.365 332.678 345.495 337.136C348.467 339.365 351.439 341.779 354.04 344.38C356.083 346.609 355.526 348.838 351.996 347.723C347.91 346.423 344.009 344.566 340.666 342.151C349.024 349.024 356.454 356.825 362.77 365.741C363.513 366.67 364.256 368.156 363.327 369.085C362.398 370.013 360.727 369.085 359.612 368.156L341.223 350.695C346.052 354.968 350.139 359.797 353.482 365.37C353.854 366.113 354.411 367.227 353.854 367.97C353.111 369.27 350.882 368.342 349.767 367.227C344.195 361.655 339.18 355.711 334.722 349.209L344.566 364.069C344.195 365.184 342.895 365.741 341.78 365.37C340.666 364.998 339.737 364.255 338.994 363.141L326.92 349.395L333.979 359.24C335.093 360.726 336.208 362.955 334.907 364.441C333.607 365.927 330.821 364.441 329.149 362.955C322.648 357.011 315.404 351.624 307.602 347.352C304.816 345.68 302.401 343.451 299.243 342.522C294.785 341.222 289.213 341.408 284.569 340.851" fill="white"/>
<path d="M362.212 370.386C360.912 370.2 359.797 369.643 358.869 368.714L352.925 363.141C353.296 363.699 353.668 364.442 354.039 364.999C354.782 365.928 354.968 367.228 354.411 368.528C354.039 369.085 353.482 369.457 352.739 369.643C351.253 369.643 349.953 369.085 349.024 367.971C347.724 366.671 346.609 365.556 345.495 364.256V364.442C345.309 365.185 344.937 365.742 344.38 366.113C343.637 366.671 342.523 366.671 341.78 366.485C340.479 365.928 339.365 365.185 338.622 364.07L336.393 361.47C336.95 362.77 336.764 364.07 335.836 365.185C335.278 365.742 334.535 366.113 333.792 366.113C331.935 365.928 330.077 364.999 328.777 363.513C322.276 357.569 315.032 352.368 307.416 347.91C306.487 347.353 305.558 346.795 304.63 346.052C302.958 344.752 301.286 343.823 299.243 343.08C296.085 342.337 292.742 341.78 289.398 341.78C287.726 341.594 286.24 341.594 284.754 341.409C284.197 341.409 284.011 340.851 284.011 340.48C284.011 340.108 284.383 339.737 284.94 339.737C286.426 339.923 287.912 339.923 289.398 340.108C292.927 340.108 296.271 340.666 299.8 341.594C301.843 342.337 303.887 343.452 305.558 344.752C306.487 345.309 307.23 345.867 308.159 346.424C315.96 350.882 323.205 356.083 329.892 362.213C330.82 363.141 332.121 363.884 333.607 364.256C333.978 364.256 334.35 364.07 334.535 363.884C335.464 362.77 334.164 360.727 333.607 359.798L326.548 350.139C326.362 349.767 326.362 349.21 326.734 349.024C327.105 348.653 327.663 348.653 327.848 349.024L339.922 362.77C340.479 363.513 341.222 364.256 342.151 364.627C342.523 364.813 343.08 364.627 343.451 364.442C343.637 364.442 343.637 364.256 343.823 364.256L334.164 349.767C333.978 349.396 333.978 348.839 334.35 348.653C334.721 348.467 335.278 348.467 335.464 348.839C339.922 355.154 344.938 361.284 350.324 366.671C350.882 367.414 351.81 367.785 352.553 367.785C352.739 367.785 352.925 367.785 352.925 367.599C353.11 367.228 352.925 366.671 352.553 365.928C350.324 362.027 347.724 358.498 344.566 355.34L340.479 351.439C340.108 351.068 340.294 350.51 340.665 350.325C341.037 350.139 341.408 350.139 341.78 350.325C343.266 351.625 344.566 352.925 346.052 354.225L360.169 367.599C360.726 368.157 361.469 368.714 362.212 368.714C362.398 368.714 362.584 368.714 362.584 368.528C362.955 368.157 362.584 367.042 362.026 366.299C355.897 357.569 348.467 349.767 340.108 342.895C339.736 342.523 339.736 341.966 340.108 341.594C340.294 341.223 340.851 341.223 341.222 341.409C344.566 343.823 348.467 345.681 352.367 346.795C353.668 347.167 354.411 346.981 354.411 346.795C354.411 346.61 354.411 345.681 353.482 344.752C350.881 342.152 348.095 339.737 345.123 337.508C339.179 333.05 332.678 329.335 325.805 326.549C314.846 322.091 304.072 320.79 292.37 319.49L288.841 319.119C288.469 319.119 288.098 318.747 288.098 318.19C288.098 317.818 288.469 317.447 289.027 317.447L292.742 317.818C304.444 319.119 315.403 320.233 326.548 324.877C333.607 327.849 340.108 331.564 346.238 336.022C349.395 338.251 352.182 340.666 354.968 343.452C356.268 344.938 356.64 346.424 356.082 347.538C355.711 348.096 354.596 349.024 351.996 348.281C350.51 347.91 349.024 347.353 347.538 346.61C353.482 352.182 358.869 358.312 363.512 364.999C364.813 366.856 364.998 368.342 364.07 369.457C363.698 369.828 363.141 370.2 362.398 370.2L362.212 370.386Z" fill="#231F20"/>
<path d="M432.241 367.411L459.36 294.969L348.653 297.012L323.763 379.856L432.241 367.411Z" fill="white"/>
<path d="M323.763 380.789C323.577 380.789 323.205 380.603 323.02 380.417C322.834 380.232 322.834 379.86 322.834 379.489L347.724 296.83C347.91 296.458 348.282 296.273 348.653 296.087L459.36 293.858C459.732 293.858 459.917 294.044 460.103 294.229C460.289 294.415 460.289 294.787 460.289 295.158L433.169 367.601C432.984 367.972 432.798 368.158 432.426 368.158L323.763 380.789ZM349.396 298.13L325.249 378.931L431.683 366.858L458.06 296.087L349.396 298.13Z" fill="#231F20"/>
<path d="M426.297 368.157C426.297 368.157 456.388 392.49 445.8 414.966C435.213 437.442 243.333 462.89 243.333 462.89L234.603 433.727C234.603 433.541 385.246 356.641 426.297 368.157Z" fill="#231F20"/>
<path d="M243.332 463.631C242.96 463.631 242.589 463.446 242.403 462.888L233.673 433.726C233.487 433.354 233.673 432.797 234.044 432.611C234.416 432.425 272.123 413.107 314.474 395.647C371.313 371.871 409.021 362.398 426.295 367.227C426.481 367.227 426.481 367.413 426.667 367.413C431.868 371.871 436.512 376.886 440.598 382.644C448.957 394.532 450.814 405.863 446.356 415.336C435.769 437.812 251.319 462.703 243.332 463.631ZM235.716 433.911L243.889 461.588C257.263 459.731 434.84 435.212 444.685 414.408C454.529 393.789 427.967 370.756 425.738 368.899C386.731 358.497 247.047 428.339 235.716 433.911Z" fill="#231F20"/>
<path d="M224.757 356.826C224.757 356.826 373.729 417.009 410.693 432.983L389.332 466.232C389.332 466.232 251.691 463.632 212.312 428.897C172.933 394.161 175.348 336.95 224.757 356.826Z" fill="#231F20"/>
<path d="M389.333 467.161C388.961 467.161 354.412 466.418 315.404 461.403C263.023 454.716 228.102 443.942 211.57 429.639C190.952 411.622 176.463 379.858 187.794 361.283C191.509 355.154 201.354 346.238 225.13 355.897C226.616 356.454 374.658 416.451 411.065 432.054C411.251 432.24 411.437 432.426 411.623 432.611C411.623 432.797 411.623 433.169 411.437 433.354L390.076 466.789C389.89 466.975 389.518 467.161 389.333 467.161ZM206.555 353.668C198.939 353.668 192.995 356.64 189.466 362.398C180.735 376.701 187.98 406.606 212.87 428.339C250.392 461.217 379.488 465.118 388.775 465.303L409.394 433.54C371.315 417.194 225.873 358.497 224.387 357.754C218.814 355.339 212.684 353.853 206.555 353.668Z" fill="#231F20"/>
<path d="M432.799 338.434C432.984 339.363 433.356 340.106 433.913 340.849L436.885 345.121C436.514 343.45 434.842 342.335 433.17 342.707C432.984 342.707 432.799 342.892 432.613 342.892C430.941 343.821 429.827 345.493 430.012 347.536C430.012 349.394 430.57 351.251 431.313 352.923C433.356 358.31 438 366.111 444.687 362.025C449.33 359.238 450.445 349.579 451.188 344.75C452.488 335.277 449.516 323.017 437.257 324.875C437.628 329.518 439.3 333.976 442.272 337.691C440.229 335.834 432.241 332.862 432.799 338.434Z" fill="white"/>
<path d="M440.785 364.069C440.042 364.069 439.299 363.883 438.556 363.698C434.098 362.212 431.312 356.453 430.197 353.296C429.454 351.438 428.897 349.581 428.897 347.537C428.897 345.308 430.011 343.265 432.055 342.151C432.426 341.965 432.983 341.779 433.54 341.779L433.169 341.222C432.612 340.479 432.054 339.55 431.869 338.436C431.497 336.95 432.24 335.464 433.726 334.721C435.584 334.163 437.627 334.349 439.485 335.092C437.627 331.934 436.698 328.405 436.327 324.876C436.327 324.504 436.698 324.133 437.07 323.947C440.785 323.204 444.871 324.133 447.657 326.919C452.115 331.191 452.673 338.993 451.93 344.751C451.187 350.138 449.887 359.797 445.057 362.583C443.757 363.698 442.271 364.069 440.785 364.069ZM433.54 343.637C433.169 343.637 432.983 343.637 432.612 343.822C431.311 344.565 430.383 346.051 430.383 347.723C430.383 349.395 430.94 351.252 431.683 352.738C432.612 355.153 435.212 360.911 439.113 362.212C440.785 362.769 442.642 362.397 443.942 361.469C448.029 358.868 449.329 349.581 450.072 344.937C450.815 339.364 450.258 332.12 446.357 328.219C444.128 326.176 441.156 325.247 437.998 325.619C438.556 329.891 440.042 333.792 442.828 337.135C443.199 337.507 443.014 338.064 442.642 338.25C442.271 338.621 441.713 338.621 441.528 338.25C440.227 336.95 436.141 335.278 434.283 336.207C433.912 336.392 433.355 336.764 433.54 338.25C433.726 338.993 434.098 339.55 434.469 340.293L435.955 342.522C436.698 343.079 437.255 344.008 437.441 344.937C437.441 345.308 437.255 345.68 436.884 345.866C436.512 346.051 436.141 345.866 435.955 345.494L434.841 343.822C434.469 343.637 434.098 343.637 433.54 343.637Z" fill="#231F20"/>
<path d="M391.005 426.111C390.819 426.111 390.819 426.111 390.633 426.111C387.29 424.811 310.575 395.091 293.3 384.503C292.929 384.132 292.743 383.575 292.929 383.203C293.114 382.832 293.857 382.646 294.229 382.832C311.318 393.419 390.447 423.882 391.376 424.254C391.933 424.44 392.119 424.997 391.933 425.554C391.748 425.926 391.376 426.111 391.005 426.111Z" fill="white"/>
<path d="M237.76 356.641C237.203 356.641 236.831 356.269 236.831 355.712C236.831 355.155 237.203 354.783 237.76 354.783L282.34 349.396L289.399 313.732L232.188 308.903C232.002 308.903 231.63 308.717 231.445 308.531C231.259 308.346 231.259 307.974 231.259 307.788L254.663 220.3C254.849 219.743 255.406 219.557 255.778 219.557C256.335 219.743 256.521 220.3 256.521 220.672L233.302 307.045L290.327 311.689C290.513 311.689 290.885 311.875 291.07 312.061C291.256 312.246 291.256 312.618 291.256 312.804L283.826 350.139C283.826 350.511 283.455 350.882 283.083 350.882L237.76 356.641Z" fill="#231F20"/>
<path d="M483.32 104.391H390.631V114.05H483.32V104.391Z" fill="#E6E7E8"/>
<path d="M586.784 104.391H494.095V114.05H586.784V104.391Z" fill="#E6E7E8"/>
<path d="M483.322 120.738H428.897V130.397H483.322V120.738Z" fill="#1EA5FC"/>
<path d="M576.382 120.738H494.095V130.397H576.382V120.738Z" fill="#E6E7E8"/>
<path d="M483.321 137.269H414.78V146.928H483.321V137.269Z" fill="#E6E7E8"/>
<path d="M532.731 137.269H494.095V146.928H532.731V137.269Z" fill="#E6E7E8"/>
<path d="M483.136 153.616H443.2V163.275H483.136V153.616Z" fill="#E6E7E8"/>
<path d="M569.695 153.616H494.095V163.275H569.695V153.616Z" fill="#1EA5FC"/>
<path d="M483.322 170.147H470.506V179.806H483.322V170.147Z" fill="#1EA5FC"/>
<path d="M544.99 170.147H494.095V179.806H544.99V170.147Z" fill="#E6E7E8"/>
<path d="M481.649 237.576H396.576V248.535H481.649V237.576Z" fill="#1EA5FC"/>
<path d="M547.591 237.576H495.395V248.535H547.591V237.576Z" fill="#E6E7E8"/>
<path d="M481.65 256.522H412.551V267.481H481.65V256.522Z" fill="#E6E7E8"/>
<path d="M571.553 256.522H495.395V267.481H571.553V256.522Z" fill="#E6E7E8"/>
<path d="M481.65 275.28H447.1V286.24H481.65V275.28Z" fill="#E6E7E8"/>
<path d="M585.855 275.28H495.395V286.24H585.855V275.28Z" fill="#E6E7E8"/>
<path d="M481.65 294.042H468.647V305.002H481.65V294.042Z" fill="#E6E7E8"/>
<path d="M591.614 294.042H495.395V305.002H591.614V294.042Z" fill="#1EA5FC"/>
<path d="M560.036 312.802H495.395V323.762H560.036V312.802Z" fill="#E6E7E8"/>
<path d="M393.046 81.5432C393.046 81.1717 393.046 80.6145 393.232 80.243C393.418 79.8715 393.604 79.5 393.975 79.1285C394.347 78.757 394.718 78.5712 395.09 78.3855C395.461 78.1997 396.018 78.1997 396.39 78.1997C396.761 78.1997 397.319 78.1997 397.69 78.3855C398.062 78.5712 398.433 78.757 398.805 79.1285C399.176 79.5 399.362 79.8715 399.548 80.243C399.733 80.6145 399.733 80.986 399.733 81.5432C399.733 81.9147 399.733 82.472 399.548 82.8435C399.362 83.215 399.176 83.5865 398.805 83.7722C398.247 84.3295 397.319 84.701 396.576 84.701C396.204 84.701 395.647 84.701 395.275 84.5152C394.904 84.3295 394.532 84.1437 394.161 83.7722C393.789 83.5865 393.604 83.215 393.418 82.8435C393.232 82.472 393.046 81.9147 393.046 81.5432ZM393.046 92.5025C393.046 91.5737 393.418 90.8307 393.975 90.2735C394.347 89.902 394.718 89.7162 395.09 89.5305C395.461 89.3447 396.018 89.3447 396.39 89.3447C396.761 89.3447 397.319 89.3447 397.69 89.5305C398.062 89.7162 398.433 89.902 398.805 90.2735C399.176 90.645 399.362 90.8307 399.548 91.2022C399.919 91.9452 399.919 92.874 399.548 93.617C399.362 93.9885 399.176 94.36 398.805 94.5457C398.433 94.9172 398.062 95.103 397.69 95.2887C397.319 95.4745 396.947 95.4745 396.39 95.4745C396.018 95.4745 395.461 95.4745 395.09 95.2887C394.718 95.103 394.347 94.9172 393.975 94.5457C393.604 94.36 393.418 93.9885 393.232 93.617C393.232 93.2455 393.046 92.874 393.046 92.5025Z" fill="#E6E7E8"/>
</svg>
